<?xml version="1.0" encoding="utf-8"?>
<!-- Generator: Adobe Illustrator 19.0.1, SVG Export Plug-In . SVG Version: 6.00 Build 0)  -->
<svg version="1.1" xmlns="http://www.w3.org/2000/svg" xmlns:xlink="http://www.w3.org/1999/xlink" x="0px" y="0px"
	 viewBox="0 0 45.4 45.4" style="enable-background:new 0 0 45.4 45.4;" xml:space="preserve">
<style type="text/css">
	.st0{fill:#FFFFFF;}
</style>
<g id="Layer_4">
	<g>
		<g>
			<path class="st0" d="M22.7,45.2c-12.4,0-22.5-10.1-22.5-22.5c0-12.4,10.1-22.5,22.5-22.5c12.4,0,22.5,10.1,22.5,22.5
				C45.2,35.1,35.1,45.2,22.7,45.2L22.7,45.2z M22.7,1.2c-11.9,0-21.5,9.6-21.5,21.5c0,11.9,9.6,21.5,21.5,21.5
				c11.9,0,21.5-9.6,21.5-21.5C44.2,10.8,34.5,1.2,22.7,1.2L22.7,1.2z"/>
		</g>
	</g>
</g>
<g id="Layer_3">
	<g>
		<g>
			<path class="st0" d="M32.4,23.1c-0.1,0-0.2,0-0.3-0.1c-1.4-0.6-3.1-1.5-4.7-2.4c-0.4-0.2-0.9-1-0.8-1.5l0.4-1.9
				c0-0.1,0-0.2-0.1-0.3c-0.1-0.2-0.4-0.4-0.8-0.5c-1.1-0.2-2.2-0.3-3.5-0.3c-1.2,0-2.3,0.1-3.4,0.3c-0.4,0.1-0.7,0.3-0.8,0.5
				c0,0.1-0.1,0.2-0.1,0.3l0.4,1.9c0.1,0.5-0.5,1.3-0.8,1.5c-1.9,1.2-3,1.8-4.7,2.4c-0.1,0-0.2,0-0.3,0c-0.5,0-1.3-0.4-1.6-1
				c-0.6-1.4-0.9-2.9-0.9-4.4c0-0.4,0-0.9,0.1-1.3l0-0.2l0.1-0.1c2.9-3,7.2-4.7,12-4.7c4.8,0,9.2,1.7,12.1,4.7l0.1,0.1l0,0.2
				c0.1,0.5,0.1,0.9,0.1,1.3c0,1.5-0.3,3-0.9,4.5C33.7,22.7,32.9,23.1,32.4,23.1L32.4,23.1z M22.7,15.2c1.3,0,2.5,0.1,3.6,0.3
				c0.6,0.1,1.2,0.4,1.5,0.9c0.2,0.3,0.3,0.7,0.2,1.1l-0.4,1.9c0,0.1,0.2,0.4,0.3,0.4c1.5,0.9,3.2,1.7,4.5,2.3
				c0.2,0,0.5-0.2,0.6-0.4c0.6-1.3,0.9-2.6,0.9-4.1c0-0.3,0-0.7-0.1-1c-2.6-2.7-6.8-4.3-11.1-4.3h-0.1c-4.3,0-8.5,1.6-11.1,4.3
				c0,0.4-0.1,0.7-0.1,1c0,1.4,0.3,2.8,0.9,4c0.1,0.1,0.5,0.4,0.7,0.4c1.5-0.6,2.7-1.2,4.5-2.3c0.1-0.1,0.3-0.4,0.4-0.5l-0.4-1.8
				c-0.1-0.4,0-0.7,0.2-1.1c0.3-0.5,0.9-0.8,1.5-0.9C20.2,15.3,21.4,15.2,22.7,15.2L22.7,15.2z"/>
		</g>
		<path class="st0" d="M18.6,24c0.3,0,0.5,0.2,0.5,0.5c0,0.3-0.2,0.5-0.5,0.5s-0.5-0.2-0.5-0.5C18.1,24.2,18.3,24,18.6,24 M18.6,23
			c-0.8,0-1.5,0.7-1.5,1.5c0,0.8,0.7,1.5,1.5,1.5c0.8,0,1.5-0.7,1.5-1.5C20.1,23.7,19.5,23,18.6,23L18.6,23z"/>
		<path class="st0" d="M22.6,24c0.3,0,0.5,0.2,0.5,0.5c0,0.3-0.2,0.5-0.5,0.5c-0.3,0-0.5-0.2-0.5-0.5C22.1,24.2,22.3,24,22.6,24
			 M22.6,23c-0.8,0-1.5,0.7-1.5,1.5c0,0.8,0.7,1.5,1.5,1.5c0.8,0,1.5-0.7,1.5-1.5C24.1,23.7,23.4,23,22.6,23L22.6,23z"/>
		<path class="st0" d="M26.6,24c0.3,0,0.5,0.2,0.5,0.5c0,0.3-0.2,0.5-0.5,0.5c-0.3,0-0.5-0.2-0.5-0.5C26,24.2,26.3,24,26.6,24
			 M26.6,23c-0.8,0-1.5,0.7-1.5,1.5c0,0.8,0.7,1.5,1.5,1.5c0.8,0,1.5-0.7,1.5-1.5C28.1,23.7,27.4,23,26.6,23L26.6,23z"/>
		<path class="st0" d="M18.6,28c0.3,0,0.5,0.2,0.5,0.5c0,0.3-0.2,0.5-0.5,0.5s-0.5-0.2-0.5-0.5C18.1,28.2,18.3,28,18.6,28 M18.6,27
			c-0.8,0-1.5,0.7-1.5,1.5c0,0.8,0.7,1.5,1.5,1.5c0.8,0,1.5-0.7,1.5-1.5C20.1,27.6,19.5,27,18.6,27L18.6,27z"/>
		<path class="st0" d="M22.6,28c0.3,0,0.5,0.2,0.5,0.5c0,0.3-0.2,0.5-0.5,0.5c-0.3,0-0.5-0.2-0.5-0.5C22.1,28.2,22.3,28,22.6,28
			 M22.6,27c-0.8,0-1.5,0.7-1.5,1.5c0,0.8,0.7,1.5,1.5,1.5c0.8,0,1.5-0.7,1.5-1.5C24.1,27.6,23.4,27,22.6,27L22.6,27z"/>
		<path class="st0" d="M26.6,28c0.3,0,0.5,0.2,0.5,0.5c0,0.3-0.2,0.5-0.5,0.5c-0.3,0-0.5-0.2-0.5-0.5C26,28.2,26.3,28,26.6,28
			 M26.6,27c-0.8,0-1.5,0.7-1.5,1.5c0,0.8,0.7,1.5,1.5,1.5c0.8,0,1.5-0.7,1.5-1.5C28.1,27.6,27.4,27,26.6,27L26.6,27z"/>
		<path class="st0" d="M18.6,31.9c0.3,0,0.5,0.2,0.5,0.5c0,0.3-0.2,0.5-0.5,0.5s-0.5-0.2-0.5-0.5C18.1,32.2,18.3,31.9,18.6,31.9
			 M18.6,30.9c-0.8,0-1.5,0.7-1.5,1.5c0,0.8,0.7,1.5,1.5,1.5c0.8,0,1.5-0.7,1.5-1.5C20.1,31.6,19.5,30.9,18.6,30.9L18.6,30.9z"/>
		<path class="st0" d="M22.6,31.9c0.3,0,0.5,0.2,0.5,0.5c0,0.3-0.2,0.5-0.5,0.5c-0.3,0-0.5-0.2-0.5-0.5
			C22.1,32.2,22.3,31.9,22.6,31.9 M22.6,30.9c-0.8,0-1.5,0.7-1.5,1.5c0,0.8,0.7,1.5,1.5,1.5c0.8,0,1.5-0.7,1.5-1.5
			C24.1,31.6,23.4,30.9,22.6,30.9L22.6,30.9z"/>
		<path class="st0" d="M26.6,31.9c0.3,0,0.5,0.2,0.5,0.5c0,0.3-0.2,0.5-0.5,0.5c-0.3,0-0.5-0.2-0.5-0.5C26,32.2,26.3,31.9,26.6,31.9
			 M26.6,30.9c-0.8,0-1.5,0.7-1.5,1.5c0,0.8,0.7,1.5,1.5,1.5c0.8,0,1.5-0.7,1.5-1.5C28.1,31.6,27.4,30.9,26.6,30.9L26.6,30.9z"/>
	</g>
</g>
</svg>
