<?xml version="1.0" encoding="utf-8"?>
<!-- Generator: Adobe Illustrator 19.0.1, SVG Export Plug-In . SVG Version: 6.00 Build 0)  -->
<svg version="1.1" xmlns="http://www.w3.org/2000/svg" xmlns:xlink="http://www.w3.org/1999/xlink" x="0px" y="0px"
	 viewBox="0 0 45.4 45.4" style="enable-background:new 0 0 45.4 45.4;" xml:space="preserve">
<style type="text/css">
	.st0{fill:#FFFFFF;}
</style>
<g id="Layer_4">
	<g>
		<g>
			<path class="st0" d="M22.7,45.2c-12.4,0-22.5-10.1-22.5-22.5c0-12.4,10.1-22.5,22.5-22.5c12.4,0,22.5,10.1,22.5,22.5
				C45.2,35.1,35.1,45.2,22.7,45.2L22.7,45.2z M22.7,1.2c-11.9,0-21.5,9.6-21.5,21.5s9.6,21.5,21.5,21.5c11.9,0,21.5-9.6,21.5-21.5
				S34.5,1.2,22.7,1.2L22.7,1.2z"/>
		</g>
	</g>
</g>
<g id="Layer_3">
	<g>
		<g>
			<path class="st0" d="M22.7,34.3c-0.1,0-0.2,0-0.3-0.1c-0.4-0.3-9.4-8.1-9.4-13.4c0-5.4,4.4-9.8,9.8-9.8c5.4,0,9.8,4.4,9.8,9.8
				c0,5.3-9,13.1-9.4,13.4C22.9,34.3,22.8,34.3,22.7,34.3L22.7,34.3z M22.7,12.1c-4.8,0-8.8,3.9-8.8,8.8c0,4.3,7.1,10.9,8.8,12.3
				c1.6-1.4,8.8-8,8.8-12.3C31.4,16,27.5,12.1,22.7,12.1L22.7,12.1z"/>
		</g>
		<g>
			<path class="st0" d="M22.7,25.3c-2.5,0-4.5-2-4.5-4.5c0-2.5,2-4.5,4.5-4.5c2.5,0,4.5,2,4.5,4.5C27.2,23.3,25.2,25.3,22.7,25.3
				L22.7,25.3z M22.7,17.3c-1.9,0-3.5,1.6-3.5,3.5c0,1.9,1.6,3.5,3.5,3.5c1.9,0,3.5-1.6,3.5-3.5C26.2,18.9,24.6,17.3,22.7,17.3
				L22.7,17.3z"/>
		</g>
	</g>
</g>
</svg>
