<?xml version="1.0" encoding="utf-8"?>
<!-- Generator: Adobe Illustrator 19.0.1, SVG Export Plug-In . SVG Version: 6.00 Build 0)  -->
<svg version="1.1" id="Capa_1" xmlns="http://www.w3.org/2000/svg" xmlns:xlink="http://www.w3.org/1999/xlink" x="0px" y="0px"
	 viewBox="0 0 209.8 175.7" style="enable-background:new 0 0 209.8 175.7;" xml:space="preserve">
<style type="text/css">
	.st0{fill:#055395;}
	.st1{fill:#3FAAB4;}
	.st2{fill:#4BB7C1;}
	.st3{fill:#90D1E2;}
	.st4{fill:#329DA7;}
	.st5{fill:#1D3C73;}
	.st6{fill:#2685C7;}
	.st7{enable-background:new    ;}
	.st8{fill:#406FB5;}
	.st9{fill:#358BC2;}
	.st10{fill:#054167;}
	.st11{fill:#7F724A;}
	.st12{fill:#20375A;}
	.st13{fill:#696A61;}
	.st14{fill:#075188;}
	.st15{fill:#FFFFFF;}
	.st16{fill:#6ABAE9;}
</style>
<g>
	<polygon class="st0" points="191.8,70.3 191.7,88.3 171.1,98.8 171.1,80.8 	"/>
</g>
<g>
	<g>
		<path class="st1" d="M168.3,111c0,6,0,12-0.1,18c0-7.7-4.6-15.4-14-21.6c-0.9-0.6-1.7-1.1-2.6-1.6c-20.8-12-54.3-12.8-76.7-1.5
			c-12.6,6.4-19,15.3-19.1,24.3l0-18c0-9,6.5-17.9,19-24.4c22.3-11.3,55.9-10.5,76.7,1.5c0.9,0.5,1.8,1.1,2.6,1.6
			C163.7,95.6,168.3,103.3,168.3,111z"/>
	</g>
	<g>
		<polygon class="st1" points="69.9,132.2 69.8,150.2 53,158.7 53,140.8 		"/>
	</g>
	<g>
		<path class="st2" d="M190.7,129c0,12.6-9.1,25.2-26.7,34.1l0-18c17.7-9,26.7-21.5,26.7-34.1C190.8,116.4,190.7,123.6,190.7,129z"
			/>
	</g>
	<g>
		<path class="st3" d="M167.4,78.5c1.5,0.9,2.6,1.6,3.7,2.3c28.7,19,25.6,47.8-7.1,64.3l-14.9-9.8c23.3-11.8,25.6-32.4,5.1-45.9
			c-0.9-0.6-1.7-1.1-2.6-1.6c-20.8-12-54.3-12.8-76.7-1.5c-23.3,11.8-25.5,32.4-5,45.9L53,140.8c-1.1-0.7-2.2-1.5-3.2-2.3
			c-25.2-18.9-21-46.1,10.3-62C84.8,64,119.2,62,146.9,70c1,0.3,1.8,0.5,2.7,0.8c2.1,0.7,4.1,1.4,6.1,2.2c1.7,0.7,3.4,1.4,5,2.1
			c1.8,0.8,3.6,1.7,5.3,2.7C166.5,78,167,78.3,167.4,78.5z"/>
	</g>
	<g>
		<polygon class="st4" points="164,145.1 164,163.1 149.1,153.3 149.2,135.3 		"/>
	</g>
</g>
<g>
	<path class="st5" d="M5.9,128.5c0-6,0-12,0.1-18c0,14.5,8.7,29,26.5,40.8l-0.1,18C14.6,157.5,5.8,142.9,5.9,128.5z"/>
</g>
<g>
	<g>
		<path class="st1" d="M56,128.4l0.1-18c0-9.1,6.6-18.2,19.5-24.6c13.8-6.9,31.9-9.2,48.5-7.1l-0.1,18c-16.6-2.1-34.7,0.2-48.5,7.1
			C62.6,110.3,56,119.3,56,128.4z"/>
	</g>
	<g>
		<path class="st1" d="M33.8,132.3c0-0.2,0-0.4,0-0.5c0-5.8,0-11.6,0-17.4c1.6,10.9,9.9,21,23,28.5c10.3,6,23.6,10.3,38.8,12.3
			l-0.1,18c-15.3-1.9-28.5-6.3-38.8-12.3C43.7,153.3,35.4,143.2,33.8,132.3z"/>
	</g>
	<g>
		<polygon class="st4" points="100.4,142.4 100.4,160.3 95.6,173.1 95.7,155.1 		"/>
	</g>
	<g>
		<path class="st3" d="M128.7,66.1L124,78.8c-16.6-2.1-34.7,0.2-48.5,7.1c-23.5,11.7-26.1,32.3-5.8,45.9c0.9,0.6,1.9,1.2,2.9,1.8
			c7.9,4.6,17.6,7.5,27.8,8.8l-4.7,12.8c-15.3-1.9-28.5-6.3-38.8-12.3c-13.2-7.6-21.5-17.8-23-28.7c0-0.4-0.1-0.5-0.1-0.6
			c0-0.1,0-0.2,0-0.3c0-0.1,0-0.3,0-0.4c0-0.2,0-0.3,0-0.5c0-0.1,0-0.2,0-0.4c0-0.1,0-0.2,0-0.3c0-0.1,0-0.2,0-0.4
			c0-0.1,0-0.2,0-0.3c0-0.2,0-0.4,0-0.6c0-0.2,0-0.5,0-0.7c0.1-3,0.7-5.9,1.8-8.8C41.9,83.1,65.8,70,94.6,66.2
			c8.8-1.2,17.9-1.4,26.8-0.8c0.3,0,0.5,0,0.7,0.1C124.2,65.6,126.5,65.8,128.7,66.1z"/>
	</g>
</g>
<g>
	<path class="st6" d="M186.8,67.3c1.7,1,3.4,2,5,3.1l-20.6,10.5c-1.1-0.7-2.2-1.4-3.4-2.1c-0.8-0.4-1.2-0.7-1.7-1
		c-1.7-0.9-3.5-1.8-5.3-2.7c-1.6-0.8-3.3-1.5-5-2.1c-2-0.8-4-1.5-6.1-2.2c-0.9-0.3-1.8-0.6-2.7-0.8c-27.8-8-62.2-6-86.8,6.5
		c-31.4,15.9-35.5,43.1-10.3,62c1,0.8,2.1,1.5,3.2,2.3l-20.6,10.5c-38.7-25.6-34.5-64.4,9.6-86.8C84.2,43.1,147.5,44.6,186.8,67.3z"
		/>
</g>
<g>
	<g>
		<g class="st7">
			<g>
				<polygon class="st8" points="59.1,65.9 84.2,48.8 84.1,52.1 59,69.2 				"/>
			</g>
			<g>
				<polygon class="st9" points="44.1,58.9 69.3,41.8 84.2,48.8 59.1,65.9 				"/>
			</g>
			<g>
				<polygon class="st10" points="59.1,65.9 59,69.2 44,62.2 44.1,58.9 				"/>
			</g>
		</g>
	</g>
	<g>
		<g class="st7">
			<g>
				<polygon class="st8" points="64.3,42.9 74.3,36.1 74.2,53.6 64.1,60.5 				"/>
			</g>
			<g>
				<polygon class="st11" points="49.3,36 59.3,29.1 74.3,36.1 64.3,42.9 				"/>
			</g>
			<g>
				<polygon class="st10" points="64.3,42.9 64.1,60.5 49.1,53.5 49.3,36 				"/>
			</g>
		</g>
	</g>
	<g>
		<g class="st7">
			<g>
				<polygon class="st12" points="33.1,30 71.6,5.4 52.5,18.6 				"/>
			</g>
			<g>
				<polygon class="st13" points="33.1,30 71.6,5.4 89.4,36.6 51.7,62.2 				"/>
			</g>
			<g>
				<polygon class="st14" points="52.9,60.6 90.6,35 89.4,36.6 51.7,62.2 				"/>
			</g>
			<g>
				<polygon class="st10" points="34,28 52.9,60.6 51.7,62.2 33.1,30 				"/>
			</g>
			<g>
				<polygon class="st15" points="34,28 71.7,2.3 90.6,35 52.9,60.6 				"/>
			</g>
		</g>
		<g>
			<polygon class="st16" points="37.5,28.9 71,6.1 87.1,33.9 53.6,56.7 			"/>
			<g>
				<polygon class="st15" points="43.7,43.5 44.3,44.6 79.9,20.4 79.3,19.3 				"/>
			</g>
			<g>
				<polygon class="st15" points="39.9,35.7 40.5,36.8 76.2,12.6 75.5,11.5 				"/>
			</g>
			<g>
				<polygon class="st15" points="48.7,50.5 49.3,51.5 84.9,27.3 84.3,26.2 				"/>
			</g>
		</g>
		<g>
			<g>
				<polygon class="st15" points="43.1,24.5 60,53.8 61.6,53.2 44.6,24 				"/>
			</g>
			<g>
				<polygon class="st15" points="49.9,18.8 66.9,48.1 68.4,47.5 51.4,18.2 				"/>
			</g>
			<g>
				<polygon class="st15" points="56.9,13.9 73.8,43.2 75.4,42.6 58.4,13.3 				"/>
			</g>
			<g>
				<polygon class="st15" points="63.8,9.1 80.7,38.4 82.3,37.8 65.3,8.5 				"/>
			</g>
		</g>
	</g>
</g>
<g>
	<g>
		<g class="st7">
			<g>
				<polygon class="st8" points="29.6,108.4 54.7,91.3 54.6,94.6 29.4,111.7 				"/>
			</g>
			<g>
				<polygon class="st9" points="14.6,101.4 39.7,84.3 54.7,91.3 29.6,108.4 				"/>
			</g>
			<g>
				<polygon class="st10" points="29.6,108.4 29.4,111.7 14.5,104.7 14.6,101.4 				"/>
			</g>
		</g>
	</g>
	<g>
		<g class="st7">
			<g>
				<polygon class="st8" points="34.7,85.4 44.8,78.6 44.6,96.1 34.6,103 				"/>
			</g>
			<g>
				<polygon class="st11" points="19.8,78.5 29.8,71.6 44.8,78.6 34.7,85.4 				"/>
			</g>
			<g>
				<polygon class="st10" points="34.7,85.4 34.6,103 19.6,96 19.8,78.5 				"/>
			</g>
		</g>
	</g>
	<g>
		<g class="st7">
			<g>
				<polygon class="st12" points="3.6,72.5 42,48 23,61.1 				"/>
			</g>
			<g>
				<polygon class="st13" points="3.6,72.5 42,48 59.9,79.1 22.2,104.7 				"/>
			</g>
			<g>
				<polygon class="st14" points="23.4,103.1 61.1,77.5 59.9,79.1 22.2,104.7 				"/>
			</g>
			<g>
				<polygon class="st10" points="4.4,70.5 23.4,103.1 22.2,104.7 3.6,72.5 				"/>
			</g>
			<g>
				<polygon class="st15" points="4.4,70.5 42.2,44.8 61.1,77.5 23.4,103.1 				"/>
			</g>
		</g>
		<g>
			<polygon class="st16" points="8,71.4 41.5,48.6 57.6,76.4 24.1,99.2 			"/>
			<g>
				<polygon class="st15" points="14.1,86 14.8,87.1 50.4,62.9 49.8,61.8 				"/>
			</g>
			<g>
				<polygon class="st15" points="10.4,78.2 11,79.3 46.6,55.1 46,54 				"/>
			</g>
			<g>
				<polygon class="st15" points="19.1,93 19.8,94.1 55.4,69.8 54.8,68.7 				"/>
			</g>
		</g>
		<g>
			<g>
				<polygon class="st15" points="13.5,67 30.5,96.3 32,95.7 15.1,66.5 				"/>
			</g>
			<g>
				<polygon class="st15" points="20.4,61.3 37.4,90.6 38.9,90 21.9,60.8 				"/>
			</g>
			<g>
				<polygon class="st15" points="27.3,56.4 44.3,85.7 45.8,85.1 28.9,55.8 				"/>
			</g>
			<g>
				<polygon class="st15" points="34.2,51.6 51.2,80.9 52.7,80.3 35.7,51.1 				"/>
			</g>
		</g>
	</g>
</g>
<g>
	<g>
		<g class="st7">
			<g>
				<polygon class="st8" points="101.4,68.5 126.5,51.4 126.4,54.7 101.3,71.8 				"/>
			</g>
			<g>
				<polygon class="st9" points="86.4,61.6 111.5,44.5 126.5,51.4 101.4,68.5 				"/>
			</g>
			<g>
				<polygon class="st10" points="101.4,68.5 101.3,71.8 86.3,64.8 86.4,61.6 				"/>
			</g>
		</g>
	</g>
	<g>
		<g class="st7">
			<g>
				<polygon class="st8" points="106.6,45.6 116.6,38.7 116.5,56.2 106.4,63.1 				"/>
			</g>
			<g>
				<polygon class="st11" points="91.6,38.6 101.6,31.8 116.6,38.7 106.6,45.6 				"/>
			</g>
			<g>
				<polygon class="st10" points="106.6,45.6 106.4,63.1 91.4,56.1 91.6,38.6 				"/>
			</g>
		</g>
	</g>
	<g>
		<g class="st7">
			<g>
				<polygon class="st12" points="75.4,32.7 113.9,8.1 94.8,21.2 				"/>
			</g>
			<g>
				<polygon class="st13" points="75.4,32.7 113.9,8.1 131.7,39.2 94,64.8 				"/>
			</g>
			<g>
				<polygon class="st14" points="95.2,63.2 132.9,37.6 131.7,39.2 94,64.8 				"/>
			</g>
			<g>
				<polygon class="st10" points="76.3,30.6 95.2,63.2 94,64.8 75.4,32.7 				"/>
			</g>
			<g>
				<polygon class="st15" points="76.3,30.6 114,4.9 132.9,37.6 95.2,63.2 				"/>
			</g>
		</g>
		<g>
			<polygon class="st16" points="79.8,31.5 113.3,8.8 129.4,36.5 95.9,59.3 			"/>
			<g>
				<polygon class="st15" points="86,46.1 86.6,47.2 122.2,23 121.6,21.9 				"/>
			</g>
			<g>
				<polygon class="st15" points="82.2,38.3 82.8,39.4 118.5,15.2 117.8,14.1 				"/>
			</g>
			<g>
				<polygon class="st15" points="91,53.1 91.6,54.2 127.2,29.9 126.6,28.9 				"/>
			</g>
		</g>
		<g>
			<g>
				<polygon class="st15" points="85.4,27.2 102.3,56.4 103.9,55.9 86.9,26.6 				"/>
			</g>
			<g>
				<polygon class="st15" points="92.2,21.4 109.2,50.7 110.7,50.1 93.7,20.9 				"/>
			</g>
			<g>
				<polygon class="st15" points="99.2,16.5 116.1,45.8 117.7,45.2 100.7,15.9 				"/>
			</g>
			<g>
				<polygon class="st15" points="106,11.7 123,41 124.5,40.4 107.6,11.2 				"/>
			</g>
		</g>
	</g>
</g>
<g>
	<g>
		<g class="st7">
			<g>
				<polygon class="st8" points="146.3,74.8 171.5,57.7 171.4,60.9 146.2,78 				"/>
			</g>
			<g>
				<polygon class="st9" points="131.4,67.8 156.5,50.7 171.5,57.7 146.3,74.8 				"/>
			</g>
			<g>
				<polygon class="st10" points="146.3,74.8 146.2,78 131.2,71 131.4,67.8 				"/>
			</g>
		</g>
	</g>
	<g>
		<g class="st7">
			<g>
				<polygon class="st8" points="151.5,51.8 161.6,45 161.4,62.5 151.4,69.3 				"/>
			</g>
			<g>
				<polygon class="st11" points="136.5,44.8 146.6,38 161.6,45 151.5,51.8 				"/>
			</g>
			<g>
				<polygon class="st10" points="151.5,51.8 151.4,69.3 136.4,62.3 136.5,44.8 				"/>
			</g>
		</g>
	</g>
	<g>
		<g class="st7">
			<g>
				<polygon class="st12" points="120.4,38.9 158.8,14.3 139.8,27.4 				"/>
			</g>
			<g>
				<polygon class="st13" points="120.4,38.9 158.8,14.3 176.7,45.4 138.9,71.1 				"/>
			</g>
			<g>
				<polygon class="st14" points="140.2,69.5 177.9,43.8 176.7,45.4 138.9,71.1 				"/>
			</g>
			<g>
				<polygon class="st10" points="121.2,36.8 140.2,69.5 138.9,71.1 120.4,38.9 				"/>
			</g>
			<g>
				<polygon class="st15" points="121.2,36.8 158.9,11.2 177.9,43.8 140.2,69.5 				"/>
			</g>
		</g>
		<g>
			<polygon class="st16" points="124.8,37.8 158.3,15 174.4,42.8 140.9,65.5 			"/>
			<g>
				<polygon class="st15" points="130.9,52.4 131.6,53.4 167.2,29.2 166.6,28.1 				"/>
			</g>
			<g>
				<polygon class="st15" points="127.2,44.5 127.8,45.6 163.4,21.4 162.8,20.3 				"/>
			</g>
			<g>
				<polygon class="st15" points="135.9,59.3 136.6,60.4 172.2,36.2 171.6,35.1 				"/>
			</g>
		</g>
		<g>
			<g>
				<polygon class="st15" points="130.3,33.4 147.3,62.7 148.8,62.1 131.8,32.8 				"/>
			</g>
			<g>
				<polygon class="st15" points="137.2,27.7 154.2,56.9 155.7,56.4 138.7,27.1 				"/>
			</g>
			<g>
				<polygon class="st15" points="144.1,22.7 161.1,52 162.6,51.4 145.6,22.2 				"/>
			</g>
			<g>
				<polygon class="st15" points="151,18 168,47.2 169.5,46.7 152.5,17.4 				"/>
			</g>
		</g>
	</g>
</g>
<g>
	<polygon class="st0" points="53,140.8 53,158.7 32.3,169.2 32.4,151.3 	"/>
</g>
<polygon class="st0" points="205.6,68.5 205.6,97.2 178.6,97.2 170.2,114.8 161.7,97.2 150.2,97.2 150.2,68.5 "/>
<g>
	<path class="st15" d="M155.6,82.4c0-0.8,0.2-1.6,0.5-2.4c0.3-0.7,0.8-1.4,1.3-1.9c0.6-0.5,1.2-1,2-1.3s1.6-0.5,2.5-0.5
		c1,0,1.9,0.2,2.6,0.5c0.8,0.4,1.5,0.9,2,1.6c0.6,0.7,1,1.5,1.3,2.5c0.3,1,0.5,2.1,0.5,3.3c0,1.6-0.2,3-0.5,4.2s-0.8,2.2-1.3,3
		c-0.6,0.8-1.3,1.4-2.1,1.9c-0.8,0.4-1.8,0.6-2.8,0.6c-1.1,0-2.1-0.2-3-0.7c-0.9-0.5-1.7-1.1-2.3-2l1.9-2c0.4,0.6,0.9,1.1,1.5,1.4
		c0.6,0.3,1.3,0.5,2,0.5c1.1,0,2-0.4,2.6-1.3s1-2.1,1-3.7c-0.3,0.6-0.8,1-1.4,1.4s-1.4,0.5-2.2,0.5c-0.9,0-1.7-0.1-2.4-0.4
		c-0.7-0.3-1.4-0.7-1.9-1.2c-0.5-0.5-1-1.1-1.3-1.8S155.6,83.2,155.6,82.4z M161.9,79.1c-0.4,0-0.8,0.1-1.2,0.3
		c-0.4,0.2-0.7,0.4-1,0.7c-0.3,0.3-0.5,0.6-0.7,1c-0.2,0.4-0.3,0.8-0.3,1.3s0.1,0.8,0.3,1.2c0.2,0.4,0.4,0.7,0.7,1
		c0.3,0.3,0.6,0.5,1,0.7s0.8,0.2,1.2,0.2s0.9-0.1,1.2-0.2s0.7-0.4,1-0.7c0.3-0.3,0.5-0.6,0.7-1c0.2-0.4,0.3-0.8,0.3-1.2
		s-0.1-0.9-0.3-1.3c-0.2-0.4-0.4-0.7-0.7-1s-0.6-0.5-1-0.7C162.8,79.2,162.4,79.1,161.9,79.1z"/>
	<path class="st15" d="M182,83.1c0,1.1-0.2,2.1-0.5,3s-0.8,1.7-1.3,2.3s-1.2,1.2-2,1.5c-0.8,0.4-1.6,0.5-2.5,0.5
		c-0.9,0-1.7-0.2-2.5-0.5c-0.8-0.4-1.4-0.9-2-1.5s-1-1.4-1.3-2.3s-0.5-1.9-0.5-3c0-1.1,0.2-2.1,0.5-3c0.3-0.9,0.8-1.7,1.3-2.3
		s1.2-1.2,2-1.5c0.8-0.4,1.6-0.6,2.5-0.6c0.9,0,1.7,0.2,2.5,0.6c0.8,0.4,1.4,0.9,2,1.5s1,1.4,1.3,2.3C181.8,81.1,182,82.1,182,83.1z
		 M178.7,83.1c0-0.6-0.1-1.2-0.2-1.8c-0.1-0.5-0.4-1-0.6-1.4c-0.3-0.4-0.6-0.7-0.9-0.9c-0.4-0.2-0.8-0.3-1.2-0.3
		c-0.5,0-0.9,0.1-1.2,0.3c-0.4,0.2-0.7,0.5-1,0.9c-0.3,0.4-0.5,0.9-0.6,1.4c-0.1,0.5-0.2,1.1-0.2,1.8c0,0.6,0.1,1.2,0.2,1.8
		c0.1,0.5,0.4,1,0.6,1.4c0.3,0.4,0.6,0.7,1,0.9c0.4,0.2,0.8,0.3,1.2,0.3c0.4,0,0.8-0.1,1.2-0.3c0.4-0.2,0.7-0.5,0.9-0.9
		c0.3-0.4,0.5-0.9,0.6-1.4C178.6,84.4,178.7,83.8,178.7,83.1z"/>
	<path class="st15" d="M187.2,80.1c-0.6,0-1.1-0.1-1.6-0.3c-0.5-0.2-0.9-0.5-1.3-0.8s-0.7-0.7-0.9-1.2c-0.2-0.4-0.3-0.9-0.3-1.4
		c0-0.5,0.1-1,0.3-1.4c0.2-0.5,0.5-0.8,0.9-1.2c0.4-0.3,0.8-0.6,1.3-0.8c0.5-0.2,1-0.3,1.6-0.3c0.6,0,1.1,0.1,1.6,0.3
		c0.5,0.2,0.9,0.5,1.3,0.8c0.4,0.3,0.6,0.7,0.9,1.2c0.2,0.5,0.3,0.9,0.3,1.4c0,0.5-0.1,1-0.3,1.4c-0.2,0.4-0.5,0.8-0.9,1.2
		s-0.8,0.6-1.3,0.8C188.2,80,187.7,80.1,187.2,80.1z M184.5,89.1l6.9-8l6.3-8.3l1.5,1.3l-6.7,7.8l-6.5,8.5L184.5,89.1z M187.2,78.5
		c0.2,0,0.5-0.1,0.7-0.2c0.2-0.1,0.4-0.3,0.5-0.5c0.2-0.2,0.3-0.4,0.4-0.7c0.1-0.3,0.1-0.5,0.1-0.8c0-0.6-0.2-1.1-0.5-1.4
		c-0.3-0.4-0.7-0.6-1.2-0.6c-0.2,0-0.5,0.1-0.7,0.2c-0.2,0.1-0.4,0.3-0.5,0.5s-0.3,0.4-0.4,0.6c-0.1,0.2-0.1,0.5-0.1,0.8
		c0,0.3,0,0.6,0.1,0.8c0.1,0.3,0.2,0.5,0.4,0.7s0.3,0.3,0.6,0.4C186.7,78.4,186.9,78.5,187.2,78.5z M196.5,90.5
		c-0.6,0-1.1-0.1-1.6-0.3c-0.5-0.2-0.9-0.5-1.3-0.8c-0.4-0.3-0.6-0.7-0.9-1.2c-0.2-0.4-0.3-0.9-0.3-1.4c0-0.5,0.1-1,0.3-1.4
		c0.2-0.4,0.5-0.8,0.9-1.2c0.4-0.3,0.8-0.6,1.3-0.8c0.5-0.2,1-0.3,1.6-0.3c0.6,0,1.1,0.1,1.6,0.3c0.5,0.2,0.9,0.5,1.3,0.8
		s0.6,0.7,0.9,1.2c0.2,0.4,0.3,0.9,0.3,1.4c0,0.5-0.1,1-0.3,1.4c-0.2,0.4-0.5,0.8-0.9,1.2s-0.8,0.6-1.3,0.8
		C197.6,90.4,197.1,90.5,196.5,90.5z M196.5,88.9c0.5,0,0.9-0.2,1.2-0.6c0.3-0.4,0.5-0.9,0.5-1.4c0-0.6-0.2-1.1-0.5-1.5
		c-0.3-0.4-0.8-0.6-1.2-0.6c-0.2,0-0.5,0.1-0.7,0.2c-0.2,0.1-0.4,0.3-0.5,0.5c-0.2,0.2-0.3,0.4-0.4,0.7c-0.1,0.3-0.1,0.5-0.1,0.8
		c0,0.6,0.2,1.1,0.5,1.4C195.7,88.7,196.1,88.9,196.5,88.9z"/>
</g>
</svg>
