<?xml version="1.0" encoding="utf-8"?>
<!-- Generator: Adobe Illustrator 19.0.1, SVG Export Plug-In . SVG Version: 6.00 Build 0)  -->
<svg version="1.1" xmlns="http://www.w3.org/2000/svg" xmlns:xlink="http://www.w3.org/1999/xlink" x="0px" y="0px"
	 viewBox="0 0 45.4 45.4" style="enable-background:new 0 0 45.4 45.4;" xml:space="preserve">
<style type="text/css">
	.st0{fill:#FFFFFF;}
</style>
<g id="Layer_4">
	<g>
		<g>
			<path class="st0" d="M22.7,45.2c-12.4,0-22.5-10.1-22.5-22.5c0-12.4,10.1-22.5,22.5-22.5c12.4,0,22.5,10.1,22.5,22.5
				C45.2,35.1,35.1,45.2,22.7,45.2L22.7,45.2z M22.7,1.2c-11.9,0-21.5,9.6-21.5,21.5s9.6,21.5,21.5,21.5s21.5-9.6,21.5-21.5
				S34.5,1.2,22.7,1.2L22.7,1.2z"/>
		</g>
	</g>
</g>
<g id="Layer_3">
	<g>
		<g>
			<path class="st0" d="M31.8,34.9H13.6c-1,0-1.9-0.8-1.9-1.9V19.8c0-0.1,0.1-0.3,0.2-0.4l10.5-8.9c0.2-0.2,0.5-0.2,0.6,0l10.4,8.9
				c0.1,0.1,0.2,0.2,0.2,0.4v13.2C33.6,34.1,32.8,34.9,31.8,34.9L31.8,34.9z M12.7,20.1v13c0,0.5,0.4,0.9,0.9,0.9h18.2
				c0.5,0,0.9-0.4,0.9-0.9v-13l-9.9-8.5L12.7,20.1L12.7,20.1z"/>
		</g>
		<g>
			<path class="st0" d="M31.8,34.9H13.6c-0.8,0-1.5-0.5-1.7-1.2c-0.1-0.2,0-0.4,0.1-0.6L22.3,24c0.2-0.2,0.5-0.2,0.7,0l10.3,9.2
				c0.2,0.1,0.2,0.4,0.1,0.5C33.2,34.5,32.5,34.9,31.8,34.9L31.8,34.9z M13,33.7c0.2,0.2,0.4,0.3,0.6,0.3h18.2
				c0.2,0,0.5-0.1,0.6-0.3L22.7,25L13,33.7L13,33.7z"/>
		</g>
		<g>
			<path class="st0" d="M25.9,27.6c-0.1,0-0.3-0.1-0.4-0.2c-0.2-0.2-0.2-0.5,0-0.7l7.2-6.4c0.2-0.2,0.5-0.2,0.7,0
				c0.2,0.2,0.2,0.5,0,0.7l-7.2,6.4C26.1,27.6,26,27.6,25.9,27.6L25.9,27.6z"/>
		</g>
		<g>
			<path class="st0" d="M19.5,27.7c-0.1,0-0.2,0-0.3-0.1L12,21.1c-0.2-0.2-0.2-0.5,0-0.7c0.2-0.2,0.5-0.2,0.7,0l7.2,6.4
				c0.2,0.2,0.2,0.5,0,0.7C19.8,27.6,19.7,27.7,19.5,27.7L19.5,27.7z"/>
		</g>
	</g>
</g>
</svg>
