<?xml version="1.0" encoding="utf-8"?>
<!-- Generator: Adobe Illustrator 19.0.1, SVG Export Plug-In . SVG Version: 6.00 Build 0)  -->
<svg version="1.1" id="Capa_1" xmlns="http://www.w3.org/2000/svg" xmlns:xlink="http://www.w3.org/1999/xlink" x="0px" y="0px"
	 viewBox="0 0 209.8 175.7" style="enable-background:new 0 0 209.8 175.7;" xml:space="preserve">
<style type="text/css">
	.st0{fill:#D1324E;}
	.st1{fill:#B91A35;}
	.st2{fill:#901344;}
	.st3{fill:#C33C75;}
	.st4{fill:#76132D;}
	.st5{fill:#EC6581;}
	.st6{fill:#FFFFFF;}
	.st7{enable-background:new    ;}
	.st8{fill:#406FB5;}
	.st9{fill:#358BC2;}
	.st10{fill:#054167;}
	.st11{fill:#7F724A;}
	.st12{fill:#20375A;}
	.st13{fill:#696A61;}
	.st14{fill:#075188;}
	.st15{fill:#6ABAE9;}
</style>
<g>
	<g>
		<g>
			<polygon class="st0" points="186.8,92.6 186.8,108.1 163.5,110.4 163.6,94.8 			"/>
		</g>
		<g>
			<path class="st1" d="M28,116.8l0-15.6c0-3.7,0.9-7.5,2.9-11.3c3.8-7.4,11-13.6,20.3-18.3c2.6-1.3,5.3-2.5,8.2-3.5
				c16.2-6,36.7-8,56.5-4.5c11.1,1.9,20.7,5.4,28.4,9.8c10.1,5.8,16.8,13.3,19.2,21.5l0,15.6c-2.4-8.1-9.2-15.7-19.2-21.5
				c-7.7-4.4-17.3-7.9-28.4-9.8c-19.9-3.5-40.3-1.5-56.5,4.5c-2.9,1.1-5.6,2.2-8.2,3.5c-9.3,4.7-16.5,10.9-20.3,18.3
				C29,109.3,28,113.1,28,116.8z"/>
		</g>
		<g>
			<polygon class="st0" points="66.3,136.8 66.2,152.4 55.7,164.8 55.7,149.2 			"/>
		</g>
		<g>
			<g>
				<path class="st2" d="M47.5,116.8l0-15.6c0-2.7,0.7-5.4,2.1-8.1C55,82.8,69.9,75.5,87.2,73.7l0,15.6
					c-17.3,1.9-32.1,9.1-37.5,19.5C48.2,111.5,47.5,114.2,47.5,116.8z"/>
			</g>
			<g>
				<polygon class="st2" points="75.8,126.9 75.7,142.5 67.4,152.8 67.5,137.2 				"/>
			</g>
			<g>
				<path class="st3" d="M83.5,62.7l3.7,11C69.9,75.5,55,82.8,49.6,93.2c-5.4,10.3,0,21,12.4,28.2c3.9,2.3,8.6,4.2,13.8,5.6
					l-8.3,10.2c-0.4-0.1-0.9-0.2-1.3-0.4c-6.7-2-12.8-4.5-18-7.5c-4.7-2.7-8.6-5.8-11.8-9.1c-9.9-10.6-11.3-23.8-1.8-35.6
					c4.2-5.2,9.8-9.5,16.6-13c2.6-1.3,5.3-2.5,8.2-3.5C66.5,65.5,74.6,63.7,83.5,62.7z"/>
			</g>
			<g>
				<path class="st4" d="M65.5,152.2c0-5.2,0-10.4,0-15.6c0.2,0.1,0.4,0.1,0.7,0.2c0.4,0.1,0.9,0.2,1.3,0.4l0,15.6
					c-0.4-0.1-0.9-0.2-1.3-0.4C65.9,152.3,65.7,152.3,65.5,152.2z"/>
			</g>
		</g>
		<g>
			<path class="st1" d="M4.2,116.6c0-5.2,0-10.4,0-15.6c0,14.2,9.7,28,27.2,38.1c6.9,4,15,7.4,24.3,10.1l0,15.6
				c-9.2-2.6-17.4-6.1-24.3-10.1C13.9,144.6,4.1,130.8,4.2,116.6z"/>
		</g>
		<g>
			<path class="st5" d="M161.7,64c13.1,7.6,21.7,17.3,25.1,28.6l-23.2,2.3c-2.4-8.1-9.2-15.6-19.2-21.5c-7.7-4.4-17.3-7.9-28.4-9.8
				c-19.9-3.5-40.3-1.5-56.5,4.5c-2.9,1.1-5.6,2.2-8.2,3.5C42,76.3,34.8,82.6,31,89.9c-5.5,10.5-3,21.4,5.5,30.3
				c3.1,3.3,7.1,6.4,11.8,9.1c5.2,3,11.2,5.5,18,7.5l-10.5,12.4c-9.2-2.6-17.4-6.1-24.3-10.1C4.2,123.4-4.2,98.8,13.6,77.8
				c22.3-26.4,77.4-37.1,123.1-24.1C146.3,56.5,154.7,59.9,161.7,64z"/>
		</g>
	</g>
	<polygon class="st2" points="206.2,41.7 206.2,66.6 182.8,66.6 175.5,81.9 168.1,66.6 158.1,66.6 158.1,41.7 	"/>
	<g>
		<path class="st6" d="M170.5,55.6c0.9,0.2,1.6,0.6,2.1,1.3c0.5,0.7,0.8,1.5,0.8,2.5c0,0.7-0.1,1.3-0.4,1.8c-0.3,0.5-0.6,1-1.1,1.4
			c-0.5,0.4-1.1,0.7-1.7,0.9c-0.7,0.2-1.4,0.3-2.3,0.3c-1.1,0-2-0.2-2.9-0.5c-0.8-0.3-1.5-0.8-2-1.5l1.6-2c0.4,0.5,0.8,0.8,1.3,1.1
			c0.5,0.3,1.1,0.4,1.9,0.4c0.9,0,1.5-0.2,2-0.5c0.5-0.3,0.7-0.9,0.7-1.6c0-0.7-0.3-1.3-0.8-1.7c-0.5-0.4-1.3-0.6-2.4-0.6h-0.6v-2.1
			h0.7c0.9,0,1.5-0.2,2-0.6c0.5-0.4,0.7-0.9,0.7-1.5c0-0.6-0.2-1-0.6-1.3c-0.4-0.3-0.9-0.4-1.5-0.4c-0.6,0-1.2,0.1-1.7,0.4
			c-0.5,0.3-0.9,0.7-1.3,1.2l-1.8-2c0.2-0.3,0.5-0.6,0.8-0.9c0.4-0.3,0.8-0.5,1.2-0.7c0.4-0.2,0.9-0.3,1.4-0.4
			c0.5-0.1,1.1-0.2,1.6-0.2c0.7,0,1.4,0.1,2,0.3c0.6,0.2,1.1,0.4,1.5,0.8c0.4,0.3,0.8,0.7,1,1.2c0.2,0.5,0.3,1,0.3,1.5
			c0,0.4-0.1,0.8-0.2,1.2c-0.1,0.4-0.3,0.7-0.5,1s-0.5,0.6-0.9,0.8C171.3,55.4,170.9,55.5,170.5,55.6z"/>
		<path class="st6" d="M185.4,54.4c0,0.9-0.1,1.8-0.4,2.6c-0.3,0.8-0.7,1.5-1.1,2c-0.5,0.6-1.1,1-1.7,1.3c-0.7,0.3-1.4,0.5-2.2,0.5
			c-0.8,0-1.5-0.2-2.2-0.5c-0.7-0.3-1.2-0.8-1.7-1.3c-0.5-0.6-0.9-1.2-1.1-2c-0.3-0.8-0.4-1.6-0.4-2.6s0.1-1.8,0.4-2.6
			c0.3-0.8,0.7-1.5,1.1-2c0.5-0.6,1.1-1,1.7-1.3s1.4-0.5,2.2-0.5c0.8,0,1.5,0.2,2.2,0.5c0.7,0.3,1.2,0.8,1.7,1.3
			c0.5,0.6,0.9,1.2,1.1,2C185.3,52.6,185.4,53.5,185.4,54.4z M182.6,54.4c0-0.6-0.1-1.1-0.2-1.6c-0.1-0.5-0.3-0.9-0.5-1.2
			c-0.2-0.3-0.5-0.6-0.8-0.8c-0.3-0.2-0.7-0.3-1-0.3c-0.4,0-0.8,0.1-1.1,0.3c-0.3,0.2-0.6,0.4-0.8,0.8c-0.2,0.3-0.4,0.7-0.5,1.2
			s-0.2,1-0.2,1.6s0.1,1.1,0.2,1.5c0.1,0.5,0.3,0.9,0.5,1.2s0.5,0.6,0.8,0.8c0.3,0.2,0.7,0.3,1.1,0.3c0.4,0,0.7-0.1,1-0.3
			c0.3-0.2,0.6-0.4,0.8-0.8c0.2-0.3,0.4-0.7,0.5-1.2C182.5,55.5,182.6,54.9,182.6,54.4z"/>
		<path class="st6" d="M189.9,51.8c-0.5,0-0.9-0.1-1.4-0.3c-0.4-0.2-0.8-0.4-1.1-0.7c-0.3-0.3-0.6-0.6-0.8-1
			c-0.2-0.4-0.3-0.8-0.3-1.3c0-0.4,0.1-0.9,0.3-1.2c0.2-0.4,0.4-0.7,0.8-1c0.3-0.3,0.7-0.5,1.1-0.7c0.4-0.2,0.9-0.3,1.4-0.3
			c0.5,0,0.9,0.1,1.4,0.3c0.4,0.2,0.8,0.4,1.1,0.7c0.3,0.3,0.6,0.6,0.7,1c0.2,0.4,0.3,0.8,0.3,1.2c0,0.4-0.1,0.9-0.3,1.3
			c-0.2,0.4-0.4,0.7-0.7,1c-0.3,0.3-0.7,0.5-1.1,0.7C190.8,51.7,190.4,51.8,189.9,51.8z M187.6,59.6l6-6.9l5.5-7.2l1.3,1.1l-5.8,6.8
			l-5.6,7.4L187.6,59.6z M189.9,50.4c0.2,0,0.4,0,0.6-0.1c0.2-0.1,0.3-0.2,0.5-0.4c0.1-0.2,0.2-0.4,0.3-0.6s0.1-0.4,0.1-0.7
			c0-0.5-0.1-0.9-0.4-1.3c-0.3-0.3-0.6-0.5-1.1-0.5c-0.2,0-0.4,0-0.6,0.1s-0.3,0.2-0.5,0.4c-0.1,0.2-0.3,0.3-0.3,0.6
			c-0.1,0.2-0.1,0.4-0.1,0.7c0,0.3,0,0.5,0.1,0.7c0.1,0.2,0.2,0.4,0.3,0.6c0.1,0.2,0.3,0.3,0.5,0.4
			C189.5,50.3,189.7,50.4,189.9,50.4z M198,60.8c-0.5,0-0.9-0.1-1.4-0.3c-0.4-0.2-0.8-0.4-1.1-0.7c-0.3-0.3-0.6-0.6-0.7-1
			c-0.2-0.4-0.3-0.8-0.3-1.3s0.1-0.9,0.3-1.3c0.2-0.4,0.4-0.7,0.7-1c0.3-0.3,0.7-0.5,1.1-0.7c0.4-0.2,0.9-0.3,1.4-0.3
			c0.5,0,1,0.1,1.4,0.3c0.4,0.2,0.8,0.4,1.1,0.7c0.3,0.3,0.6,0.6,0.7,1c0.2,0.4,0.3,0.8,0.3,1.3s-0.1,0.9-0.3,1.3
			c-0.2,0.4-0.4,0.7-0.7,1s-0.7,0.5-1.1,0.7C199,60.7,198.5,60.8,198,60.8z M198,59.4c0.4,0,0.8-0.2,1.1-0.5
			c0.3-0.4,0.4-0.8,0.4-1.2c0-0.5-0.2-0.9-0.5-1.3c-0.3-0.4-0.7-0.5-1.1-0.5c-0.2,0-0.4,0.1-0.6,0.1c-0.2,0.1-0.3,0.2-0.5,0.4
			c-0.1,0.2-0.3,0.4-0.3,0.6c-0.1,0.2-0.1,0.4-0.1,0.7c0,0.5,0.1,0.9,0.4,1.3C197.3,59.2,197.6,59.4,198,59.4z"/>
	</g>
	<g>
		<g>
			<g class="st7">
				<g>
					<polygon class="st8" points="47.5,72.6 69.3,57.8 69.2,60.6 47.4,75.5 					"/>
				</g>
				<g>
					<polygon class="st9" points="34.5,66.6 56.3,51.7 69.3,57.8 47.5,72.6 					"/>
				</g>
				<g>
					<polygon class="st10" points="47.5,72.6 47.4,75.5 34.4,69.4 34.5,66.6 					"/>
				</g>
			</g>
		</g>
		<g>
			<g class="st7">
				<g>
					<polygon class="st8" points="52,52.7 60.7,46.8 60.5,61.9 51.8,67.9 					"/>
				</g>
				<g>
					<polygon class="st11" points="39,46.6 47.7,40.7 60.7,46.8 52,52.7 					"/>
				</g>
				<g>
					<polygon class="st10" points="52,52.7 51.8,67.9 38.8,61.8 39,46.6 					"/>
				</g>
			</g>
		</g>
		<g>
			<g class="st7">
				<g>
					<polygon class="st12" points="24.9,41.5 58.3,20.2 41.8,31.6 					"/>
				</g>
				<g>
					<polygon class="st13" points="24.9,41.5 58.3,20.2 73.8,47.2 41.1,69.4 					"/>
				</g>
				<g>
					<polygon class="st14" points="42.1,68 74.8,45.8 73.8,47.2 41.1,69.4 					"/>
				</g>
				<g>
					<polygon class="st10" points="25.7,39.7 42.1,68 41.1,69.4 24.9,41.5 					"/>
				</g>
				<g>
					<polygon class="st6" points="25.7,39.7 58.4,17.4 74.8,45.8 42.1,68 					"/>
				</g>
			</g>
			<g>
				<polygon class="st15" points="28.8,40.5 57.8,20.8 71.8,44.9 42.7,64.6 				"/>
				<g>
					<polygon class="st6" points="34.1,53.2 34.6,54.1 65.6,33.1 65,32.2 					"/>
				</g>
				<g>
					<polygon class="st6" points="30.8,46.4 31.4,47.3 62.3,26.3 61.7,25.4 					"/>
				</g>
				<g>
					<polygon class="st6" points="38.4,59.2 39,60.2 69.9,39.1 69.3,38.2 					"/>
				</g>
			</g>
			<g>
				<g>
					<polygon class="st6" points="33.6,36.7 48.3,62.1 49.6,61.6 34.9,36.2 					"/>
				</g>
				<g>
					<polygon class="st6" points="39.5,31.8 54.2,57.1 55.6,56.7 40.8,31.3 					"/>
				</g>
				<g>
					<polygon class="st6" points="45.5,27.5 60.3,52.9 61.6,52.4 46.9,27 					"/>
				</g>
				<g>
					<polygon class="st6" points="51.5,23.3 66.2,48.7 67.6,48.2 52.8,22.9 					"/>
				</g>
			</g>
		</g>
	</g>
	<g>
		<g>
			<g class="st7">
				<g>
					<polygon class="st8" points="86,66.1 107.8,51.3 107.7,54.2 85.9,69 					"/>
				</g>
				<g>
					<polygon class="st9" points="73,60.1 94.8,45.2 107.8,51.3 86,66.1 					"/>
				</g>
				<g>
					<polygon class="st10" points="86,66.1 85.9,69 72.9,62.9 73,60.1 					"/>
				</g>
			</g>
		</g>
		<g>
			<g class="st7">
				<g>
					<polygon class="st8" points="90.5,46.2 99.2,40.3 99,55.5 90.3,61.4 					"/>
				</g>
				<g>
					<polygon class="st11" points="77.5,40.2 86.2,34.2 99.2,40.3 90.5,46.2 					"/>
				</g>
				<g>
					<polygon class="st10" points="90.5,46.2 90.3,61.4 77.3,55.3 77.5,40.2 					"/>
				</g>
			</g>
		</g>
		<g>
			<g class="st7">
				<g>
					<polygon class="st12" points="63.4,35 96.8,13.7 80.3,25.1 					"/>
				</g>
				<g>
					<polygon class="st13" points="63.4,35 96.8,13.7 112.3,40.7 79.5,62.9 					"/>
				</g>
				<g>
					<polygon class="st14" points="80.6,61.5 113.3,39.3 112.3,40.7 79.5,62.9 					"/>
				</g>
				<g>
					<polygon class="st10" points="64.2,33.2 80.6,61.5 79.5,62.9 63.4,35 					"/>
				</g>
				<g>
					<polygon class="st6" points="64.2,33.2 96.9,11 113.3,39.3 80.6,61.5 					"/>
				</g>
			</g>
			<g>
				<polygon class="st15" points="67.3,34 96.3,14.3 110.3,38.4 81.2,58.1 				"/>
				<g>
					<polygon class="st6" points="72.6,46.7 73.1,47.6 104.1,26.6 103.5,25.7 					"/>
				</g>
				<g>
					<polygon class="st6" points="69.3,39.9 69.9,40.9 100.8,19.9 100.2,18.9 					"/>
				</g>
				<g>
					<polygon class="st6" points="76.9,52.7 77.5,53.7 108.4,32.7 107.8,31.7 					"/>
				</g>
			</g>
			<g>
				<g>
					<polygon class="st6" points="72.1,30.2 86.8,55.6 88.1,55.1 73.4,29.8 					"/>
				</g>
				<g>
					<polygon class="st6" points="78,25.3 92.7,50.7 94.1,50.2 79.3,24.8 					"/>
				</g>
				<g>
					<polygon class="st6" points="84,21 98.8,46.4 100.1,45.9 85.4,20.5 					"/>
				</g>
				<g>
					<polygon class="st6" points="90,16.9 104.7,42.3 106.1,41.8 91.3,16.4 					"/>
				</g>
			</g>
		</g>
	</g>
	<g>
		<g>
			<g class="st7">
				<g>
					<polygon class="st8" points="26.1,106.2 47.9,91.3 47.8,94.2 26,109 					"/>
				</g>
				<g>
					<polygon class="st9" points="13.1,100.1 34.9,85.3 47.9,91.3 26.1,106.2 					"/>
				</g>
				<g>
					<polygon class="st10" points="26.1,106.2 26,109 13,102.9 13.1,100.1 					"/>
				</g>
			</g>
		</g>
		<g>
			<g class="st7">
				<g>
					<polygon class="st8" points="30.6,86.2 39.3,80.3 39.2,95.5 30.5,101.4 					"/>
				</g>
				<g>
					<polygon class="st11" points="17.6,80.2 26.3,74.2 39.3,80.3 30.6,86.2 					"/>
				</g>
				<g>
					<polygon class="st10" points="30.6,86.2 30.5,101.4 17.5,95.4 17.6,80.2 					"/>
				</g>
			</g>
		</g>
		<g>
			<g class="st7">
				<g>
					<polygon class="st12" points="3.6,75 36.9,53.7 20.4,65.1 					"/>
				</g>
				<g>
					<polygon class="st13" points="3.6,75 36.9,53.7 52.4,80.7 19.7,102.9 					"/>
				</g>
				<g>
					<polygon class="st14" points="20.8,101.6 53.5,79.3 52.4,80.7 19.7,102.9 					"/>
				</g>
				<g>
					<polygon class="st10" points="4.3,73.2 20.8,101.6 19.7,102.9 3.6,75 					"/>
				</g>
				<g>
					<polygon class="st6" points="4.3,73.2 37.1,51 53.5,79.3 20.8,101.6 					"/>
				</g>
			</g>
			<g>
				<polygon class="st15" points="7.4,74.1 36.5,54.3 50.4,78.4 21.4,98.2 				"/>
				<g>
					<polygon class="st6" points="12.7,86.7 13.3,87.7 44.2,66.7 43.7,65.7 					"/>
				</g>
				<g>
					<polygon class="st6" points="9.5,79.9 10,80.9 40.9,59.9 40.4,58.9 					"/>
				</g>
				<g>
					<polygon class="st6" points="17.1,92.7 17.6,93.7 48.6,72.7 48,71.7 					"/>
				</g>
			</g>
			<g>
				<g>
					<polygon class="st6" points="12.2,70.3 27,95.7 28.3,95.2 13.5,69.8 					"/>
				</g>
				<g>
					<polygon class="st6" points="18.2,65.3 32.9,90.7 34.2,90.2 19.5,64.8 					"/>
				</g>
				<g>
					<polygon class="st6" points="24.2,61 38.9,86.4 40.2,85.9 25.5,60.5 					"/>
				</g>
				<g>
					<polygon class="st6" points="30.2,56.9 44.9,82.3 46.2,81.8 31.5,56.4 					"/>
				</g>
			</g>
		</g>
	</g>
</g>
</svg>
