<svg xmlns="http://www.w3.org/2000/svg" xmlns:xlink="http://www.w3.org/1999/xlink" preserveAspectRatio="xMidYMid" width="80" height="80" viewBox="0 0 80 80">
  <defs>
    <style>
      .cls-1 {
        fill: #fff;
        fill-rule: evenodd;
      }
    </style>
  </defs>
  <path d="M40.000,80.000 C17.909,80.000 -0.000,62.091 -0.000,40.000 C-0.000,17.909 17.909,-0.000 40.000,-0.000 C62.091,-0.000 80.000,17.909 80.000,40.000 C80.000,62.091 62.091,80.000 40.000,80.000 ZM40.000,2.000 C19.013,2.000 2.000,19.013 2.000,40.000 C2.000,60.987 19.013,78.000 40.000,78.000 C60.987,78.000 78.000,60.987 78.000,40.000 C78.000,19.013 60.987,2.000 40.000,2.000 ZM36.154,53.790 C33.570,56.374 32.050,54.651 32.050,53.517 L32.050,26.483 C32.050,25.349 33.660,23.717 36.154,26.211 L51.174,37.948 C52.307,39.082 52.307,40.919 51.174,42.053 L36.154,53.790 Z" class="cls-1"/>
</svg>
