<?xml version="1.0" encoding="utf-8"?>
<!-- Generator: Adobe Illustrator 19.0.1, SVG Export Plug-In . SVG Version: 6.00 Build 0)  -->
<svg version="1.1" id="_x34_" xmlns="http://www.w3.org/2000/svg" xmlns:xlink="http://www.w3.org/1999/xlink" x="0px" y="0px"
	 viewBox="-224 131 150 140" style="enable-background:new -224 131 150 140;" xml:space="preserve">
<style type="text/css">
	.st0{fill:#68C5DF;}
	.st1{fill:#EAF0F1;}
	.st2{fill:url(#SVGID_1_);}
	.st3{fill:url(#SVGID_2_);}
	.st4{fill:#444444;}
</style>
<g>
	<circle class="st0" cx="-149" cy="256.1" r="4.2"/>
	<circle class="st0" cx="-141.9" cy="249" r="3.1"/>
	<circle class="st0" cx="-136.6" cy="243.7" r="1.9"/>
	<circle class="st0" cx="-156.1" cy="249" r="3.1"/>
	<circle class="st0" cx="-161.4" cy="243.7" r="1.9"/>
</g>
<g>
	<circle class="st1" cx="-148.9" cy="188.8" r="40.2"/>
	
		<linearGradient id="SVGID_1_" gradientUnits="userSpaceOnUse" x1="-122.3835" y1="188.6835" x2="-175.3545" y2="241.6545" gradientTransform="matrix(1 0 0 -1 0 404)">
		<stop  offset="0" style="stop-color:#CFDFE4"/>
		<stop  offset="0.1667" style="stop-color:#D9E6EA"/>
		<stop  offset="0.693" style="stop-color:#F5F8F9"/>
		<stop  offset="1" style="stop-color:#FFFFFF"/>
	</linearGradient>
	<circle class="st2" cx="-148.9" cy="188.8" r="37.5"/>
	<circle class="st0" cx="-148.9" cy="188.8" r="30.9"/>
	<circle class="st1" cx="-148.9" cy="188.8" r="27.6"/>
	
		<linearGradient id="SVGID_2_" gradientUnits="userSpaceOnUse" x1="-130.6566" y1="196.9566" x2="-167.1019" y2="233.4019" gradientTransform="matrix(1 0 0 -1 0 404)">
		<stop  offset="0" style="stop-color:#CFDFE4"/>
		<stop  offset="0.1667" style="stop-color:#D9E6EA"/>
		<stop  offset="0.693" style="stop-color:#F5F8F9"/>
		<stop  offset="1" style="stop-color:#FFFFFF"/>
	</linearGradient>
	<circle class="st3" cx="-148.9" cy="188.8" r="25.8"/>
	<g>
		<path class="st4" d="M-151.4,198.2L-151.4,198.2L-151.4,198.2L-151.4,198.2z M-131.8,190.7c-0.7-0.6-2.3-1.3-3.5-0.5
			c-0.9,0.5-2.3,1.5-3.3,2.2l-0.6,0.5c-0.6-0.3-1.5-0.4-2.4,0c-1.1,0.5-2.1,1-3.3,1.8c-1.5-0.8-3.3-1.2-5.2-1.2h-2.9
			c-4.6,0-8.3,3.7-8.3,8.3l0,0v4.2c0,0.3,0.2,0.5,0.5,0.5s0.5-0.2,0.5-0.5v-2.1h8.7v2.1c0,0.3,0.2,0.5,0.5,0.5s0.5-0.2,0.5-0.5v-2.5
			c0-1.4,0.5-1.5,2.4-1.7c1.9-0.2,4.8-0.5,8-3.3l8.8-7c0.1-0.1,0.2-0.2,0.2-0.4C-131.7,190.9-131.7,190.7-131.8,190.7z
			 M-141.2,197.7c-3,2.6-5.6,2.9-7.5,3.1c-1.6,0.2-3,0.3-3.2,2.2h-8.7v-1.3l0,0c0-4.1,3.3-7.4,7.4-7.4h2.9c1.9,0,3.6,0.4,5,1.2
			c0.2,0.1,0.3,0.1,0.5,0c1.2-0.8,2.3-1.3,3.4-1.8c0.7-0.3,1.3-0.1,1.7,0.1l-4.9,3.4c-1.2,0.7-2.5,0.7-3.7,0.7c-0.2,0-0.4,0-0.6,0
			c-1.3,0-2.4,0.4-2.6,0.5c-0.2,0.1-0.4,0.4-0.3,0.6c0.1,0.2,0.4,0.4,0.6,0.3l0,0c0,0,1-0.4,2.3-0.4c0.2,0,0.4,0,0.6,0
			c1.2,0,2.7,0.1,4.2-0.8l5.5-3.8c0.1-0.1,0.2-0.2,0.2-0.3c0-0.1,0-0.3-0.1-0.4l0,0l0.3-0.2c1-0.7,2.3-1.7,3.2-2.2
			c0.6-0.4,1.4-0.2,2,0.1L-141.2,197.7z"/>
		<path class="st4" d="M-148.9,169.7c-4.7,0-8.6,3.9-8.6,8.6c0,2.3,0.9,4.5,2.5,6.1l0,0c1.1,1.1,1.6,2.5,1.6,4.7h-0.3
			c-0.3,0-0.5,0.2-0.5,0.5c0,0.3,0.2,0.5,0.5,0.5h0.3v1.2h-0.3c-0.3,0-0.5,0.2-0.5,0.5s0.2,0.5,0.5,0.5h0.3v1.6
			c0,0.3,0.2,0.5,0.5,0.5c0.3,0,0.5-0.2,0.5-0.5v-1.6h7v2.7c0,0.3,0.2,0.5,0.5,0.5c0.3,0,0.5-0.2,0.5-0.5v-2.8h0.3
			c0.3,0,0.5-0.2,0.5-0.5s-0.2-0.5-0.5-0.5h-0.3V190h0.3c0.3,0,0.5-0.2,0.5-0.5s-0.2-0.5-0.5-0.5h-0.3c0.1-2.2,0.6-3.7,1.6-4.7l0,0
			c1.6-1.6,2.5-3.8,2.5-6.1C-140.3,173.5-144.1,169.7-148.9,169.7z M-145.4,191.3h-7V190h7V191.3z M-150.7,181.8h-0.9
			c-0.5,0-0.9-0.4-0.9-0.9s0.4-0.9,0.9-0.9s0.9,0.4,0.9,0.9V181.8z M-149.7,189.1v-6.3h1.7v6.3H-149.7z M-143.5,183.7L-143.5,183.7
			c-1.6,1.6-1.9,3.6-1.9,5.4h-1.7v-6.3h0.9c1,0,1.9-0.8,1.9-1.9c0-1-0.8-1.9-1.9-1.9c-1,0-1.9,0.8-1.9,1.9v0.9h-1.7v-0.9
			c0-1-0.8-1.9-1.9-1.9c-1,0-1.9,0.8-1.9,1.9c0,1,0.8,1.9,1.9,1.9h0.9v6.3h-1.7c0-1.7-0.4-3.8-1.9-5.4l0,0c-1.4-1.4-2.2-3.4-2.2-5.4
			c0-4.2,3.4-7.7,7.7-7.7c4.2,0,7.7,3.4,7.7,7.7C-141.2,180.3-142,182.2-143.5,183.7z M-147.1,181.8v-0.9c0-0.5,0.4-0.9,0.9-0.9
			s0.9,0.4,0.9,0.9s-0.4,0.9-0.9,0.9H-147.1z M-148.9,168.9c0.3,0,0.5-0.2,0.5-0.5v-1.7c0-0.3-0.2-0.5-0.5-0.5
			c-0.3,0-0.5,0.2-0.5,0.5v1.7C-149.4,168.7-149.2,168.9-148.9,168.9z M-156.2,171.7c0.2,0.2,0.5,0.2,0.7,0s0.2-0.5,0-0.7l-1.2-1.2
			c-0.2-0.2-0.5-0.2-0.7,0s-0.2,0.5,0,0.7L-156.2,171.7z M-158.7,177.8h-1.7c-0.3,0-0.5,0.2-0.5,0.5s0.2,0.5,0.5,0.5h1.7
			c0.3,0,0.5-0.2,0.5-0.5S-158.5,177.8-158.7,177.8z M-156.1,184.9L-156.1,184.9l-1.2,1.2l0,0c-0.2,0.2-0.2,0.5,0,0.7
			c0.2,0.2,0.5,0.2,0.7,0l1.2-1.2c0.2-0.2,0.2-0.5,0-0.7C-155.7,184.7-156,184.7-156.1,184.9z M-141,169.8l-1.2,1.2
			c-0.2,0.2-0.2,0.5,0,0.7s0.5,0.2,0.7,0l1.2-1.2c0.2-0.2,0.2-0.5,0-0.7S-140.8,169.6-141,169.8z M-137.3,177.8h-1.7
			c-0.3,0-0.5,0.2-0.5,0.5s0.2,0.5,0.5,0.5h1.7c0.3,0,0.5-0.2,0.5-0.5C-136.9,178-137.1,177.8-137.3,177.8z M-141.6,184.9
			c-0.2-0.2-0.5-0.2-0.7,0c-0.2,0.2-0.2,0.5,0,0.7l0,0l1.2,1.2l0,0c0.2,0.2,0.5,0.2,0.7,0c0.2-0.2,0.2-0.5,0-0.7L-141.6,184.9z"/>
	</g>
</g>
</svg>
