<?xml version="1.0" encoding="utf-8"?>
<!-- Generator: Adobe Illustrator 19.0.1, SVG Export Plug-In . SVG Version: 6.00 Build 0)  -->
<svg version="1.1" id="_x31_" xmlns="http://www.w3.org/2000/svg" xmlns:xlink="http://www.w3.org/1999/xlink" x="0px" y="0px"
	 viewBox="-1058 2482.4 150 140" style="enable-background:new -1058 2482.4 150 140;" xml:space="preserve">
<style type="text/css">
	.st0{fill:#F8C800;}
	.st1{fill:#EAF0F1;}
	.st2{fill:#FFFFFF;}
	.st3{fill:#444444;}
</style>
<g>
	<g>
		<circle class="st0" cx="-983.1" cy="2604" r="4.2"/>
		<circle class="st0" cx="-976" cy="2596.9" r="3.1"/>
		<circle class="st0" cx="-970.7" cy="2591.6" r="1.9"/>
		<circle class="st0" cx="-990.2" cy="2596.9" r="3.1"/>
		<circle class="st0" cx="-995.5" cy="2591.6" r="1.9"/>
	</g>
	<circle class="st1" cx="-983" cy="2536.7" r="40.2"/>
	<circle class="st2" cx="-983" cy="2536.7" r="37.5"/>
	<circle class="st0" cx="-983" cy="2536.7" r="30.9"/>
	<circle class="st1" cx="-983" cy="2536.7" r="27.6"/>
	<circle class="st2" cx="-983" cy="2536.7" r="25.8"/>
	<g>
		<path class="st3" d="M-965.1,2531.1c-0.2-1.3-1-3.6-4.4-4.9c0.4-1.7,0.1-3.3-0.8-4.5c-0.7-0.8-2-1.8-4.5-1.7
			c-0.3-2.1-2.1-3.7-4.2-3.7c-2.2,0-4,1.8-4,4v32c0,2.6,2.2,3.9,4.2,4.1c2.2,0.2,4.7-0.9,5.5-3.8c1.8,0.2,3.4-0.5,4.3-2
			c0.9-1.4,0.9-3.3,0.1-4.9c1.3-0.3,2.6-1.5,3.2-3c0.7-2,0.2-4.1-1.6-5.8C-965.7,2535.6-964.8,2533.3-965.1,2531.1z M-966.7,2542.4
			c-0.5,1.4-1.9,2.5-3.1,2.5c-0.2,0-0.3,0.1-0.4,0.3c-0.1,0.2-0.1,0.3,0,0.5c1.1,1.5,1.2,3.2,0.3,4.5c-0.8,1.2-2.3,1.8-3.8,1.5
			c-0.1,0-0.3,0-0.4,0.1c-0.1,0.1-0.2,0.2-0.2,0.3c-0.5,2.7-2.6,3.7-4.6,3.5c-1.6-0.1-3.3-1.2-3.3-3.2v-9.5h3.5
			c0.3,0,0.5-0.2,0.5-0.5s-0.2-0.5-0.5-0.5h-3.4v-8.8h4.2c0.3,0,0.5-0.2,0.5-0.5s-0.2-0.5-0.5-0.5h-4.2v-11.8c0-1.7,1.4-3,3-3
			c1.8,0,3.3,1.5,3.3,3.3c0,0.1,0.1,0.3,0.2,0.3c0.1,0.1,0.2,0.1,0.4,0.1c1.9-0.2,3.3,0.3,4.2,1.3c0.8,1,1,2.5,0.5,4
			c-0.1,0.2,0.1,0.5,0.3,0.6c2.4,0.8,3.9,2.3,4.1,4.3c0.3,2-0.7,4.1-2.3,5.2c-0.1,0.1-0.2,0.2-0.2,0.4c0,0.1,0,0.3,0.2,0.4
			C-966.6,2538.8-966,2540.7-966.7,2542.4z M-969.7,2531.6c-1.4,0.8-2.7,0.8-3.6,0.3l0,0l0,0c-0.2-0.1-0.4-0.3-0.6-0.5
			c-0.7-0.8-1-2.2-0.6-3.7v-0.1l0,0c0.2-0.6,0.5-1.2,0.9-1.8c0.2-0.2,0.1-0.5-0.1-0.7c-0.2-0.2-0.5-0.1-0.7,0.1
			c-0.4,0.5-0.7,1.1-0.9,1.7c-1.3-0.3-1.9-0.7-3.1-1.9c-0.2-0.2-0.5-0.2-0.7,0c-0.2,0.2-0.2,0.5,0,0.7c1.3,1.3,2,1.8,3.5,2.1
			c-0.3,1.5,0,3.1,0.9,4.1c0.1,0.2,0.3,0.3,0.5,0.4c-1,2-1.4,3.6-1.4,4.9h-3.7c-0.3,0-0.5,0.2-0.5,0.5c0,0.3,0.2,0.5,0.5,0.5h3.7
			c0.2,1.6,1,2.7,1.6,3.5c-2.1,1.4-2.5,2.9-2.5,4c0,0.3,0.1,0.7,0.2,1c-1.3,0.9-2.4,2-2.6,4.6c0,0.3,0.2,0.5,0.4,0.5
			c0.3,0,0.5-0.2,0.5-0.4c0.2-2.1,1-3.1,2.1-3.9c0.6,0.9,1.5,1.5,2.4,1.7c0.3,0.1,0.5-0.1,0.6-0.3c0.1-0.3-0.1-0.5-0.3-0.6
			c-0.6-0.2-1.5-0.8-2-1.7c0,0,0-0.1-0.1-0.1l0,0c-0.1-0.3-0.2-0.6-0.3-0.9c-0.1-1.5,1.3-3,4-4.1c0.2-0.1,0.4-0.4,0.3-0.6
			s-0.4-0.4-0.6-0.3c-0.5,0.2-0.9,0.4-1.3,0.6l0,0c-0.6-0.9-1.4-1.9-1.6-3.5l0,0v-0.1c-0.1-1.2,0.2-2.8,1.2-4.8
			c1.2,0.5,2.6,0.4,4.1-0.4c0.2-0.1,0.3-0.4,0.2-0.6C-969.2,2531.6-969.5,2531.5-969.7,2531.6z"/>
		<path class="st3" d="M-986.2,2543.5c0.2,0.1,0.5,0,0.6-0.2c0.1-0.2,0-0.5-0.2-0.6c-0.8-0.4-1.5-0.9-2.1-1.5
			c-0.2-0.2-0.5-0.2-0.7,0c-0.2,0.2-0.2,0.5,0,0.7C-987.8,2542.5-987.1,2543.1-986.2,2543.5z M-987.9,2531.7c1-1.1,2.3-1.8,3.8-2.1
			c0.3,0,0.4-0.3,0.4-0.5c0-0.3-0.3-0.4-0.5-0.4c-1.6,0.3-3.1,1.1-4.3,2.3c-0.2,0.2-0.2,0.5,0,0.7
			C-988.4,2531.9-988.1,2531.9-987.9,2531.7z M-982.9,2532c0.3,0,0.5-0.2,0.5-0.5c0-0.3-0.2-0.5-0.5-0.5c-2.9,0-5.3,2.4-5.3,5.3
			c0,2.9,2.4,5.3,5.3,5.3c0.3,0,0.5-0.2,0.5-0.5s-0.2-0.5-0.5-0.5c-2.4,0-4.4-2-4.4-4.4C-987.3,2534-985.3,2532-982.9,2532z
			 M-982.5,2552.5h-1.2l-0.7-2.6c0-0.2-0.2-0.3-0.4-0.3c-0.5-0.1-1-0.2-1.5-0.3l0,0c-0.2,0-0.3,0-0.5,0.1c0,0,0,0,0,0.1l0,0
			l-1.7,2.2l-0.6-0.4l-0.7-0.3l0.3-2.7c0,0,0,0,0-0.1c0-0.2-0.1-0.3-0.2-0.4c-0.4-0.3-0.8-0.5-1.2-0.8c-0.1-0.1-0.4-0.1-0.5,0
			l-2.4,1.3l-0.5-0.5c0,0-0.3-0.3-0.5-0.5l1.3-2.4c0.1-0.1,0.1-0.2,0.1-0.3s0-0.1-0.1-0.2c-0.3-0.4-0.6-0.8-0.8-1.2l0,0
			c-0.1-0.1-0.2-0.2-0.4-0.2h-0.1l0,0l-2.7,0.3l-0.3-0.7c0,0-0.2-0.4-0.3-0.7l2.2-1.7c0.1-0.1,0.2-0.3,0.2-0.5l0,0
			c-0.1-0.3-0.2-0.7-0.3-1.4c0-0.2-0.2-0.3-0.3-0.4l-2.8-0.8v-1.5l2.6-0.7c0.2,0,0.3-0.2,0.3-0.4c0.1-0.5,0.2-1,0.3-1.5
			c0-0.2,0-0.4-0.2-0.5l-2-1.6l0.3-0.7c0,0,0.2-0.4,0.3-0.7l2.7,0.3l0,0h0.1c0.2,0,0.3-0.1,0.4-0.2l0,0c0.3-0.4,0.5-0.9,0.8-1.2
			c0,0,0.1-0.1,0.1-0.2c0-0.1,0-0.3,0-0.4l-1.3-2.4l0.5-0.5c0,0,0.3-0.3,0.5-0.5l2.4,1.3c0.2,0.1,0.3,0.1,0.5,0l0,0
			c0.4-0.3,0.8-0.6,1.2-0.8l0,0c0.1-0.1,0.2-0.2,0.2-0.4v-0.1l0,0l-0.3-2.7l0.7-0.3l0.7-0.3l1.7,2.2c0.1,0.2,0.4,0.2,0.6,0.1h-0.1
			c0.5-0.1,1-0.2,1.5-0.3c0.2,0,0.3-0.2,0.4-0.3l0.7-2.6h1.2c0.3,0,0.5-0.2,0.5-0.5s-0.2-0.5-0.5-0.5h-1.5c-0.2,0-0.4,0.1-0.5,0.3
			l-0.7,2.7c-0.3,0.1-0.6,0.1-1,0.2l-1.7-2.2c-0.1-0.2-0.4-0.2-0.6-0.1l-1,0.4l-1,0.4c-0.2,0.1-0.3,0.3-0.3,0.5l0.3,2.8
			c-0.3,0.2-0.6,0.4-0.8,0.5l-2.4-1.4c-0.2-0.1-0.4-0.1-0.6,0.1l-0.8,0.8l-0.8,0.8c-0.1,0.1-0.2,0.4-0.1,0.6l1.4,2.4
			c-0.2,0.3-0.4,0.5-0.5,0.8l-2.8-0.3c-0.2,0-0.4,0.1-0.5,0.3l-0.4,1l-0.5,1.1c-0.1,0.2,0,0.4,0.1,0.6l2.2,1.7
			c-0.1,0.3-0.1,0.6-0.2,1l-2.6,0.7c-0.2,0.1-0.3,0.2-0.3,0.5v2.2c0,0.2,0.1,0.4,0.3,0.5l2.7,0.7c0.1,0.4,0.1,0.7,0.2,1l-2.2,1.7
			c-0.2,0-0.3,0.2-0.2,0.4l0.4,1l0.4,1c0.1,0.2,0.3,0.3,0.5,0.3l2.8-0.3c0.2,0.3,0.4,0.6,0.5,0.8l-1.4,2.4c-0.1,0.2-0.1,0.4,0.1,0.6
			l0.8,0.8l0.8,0.8c0.2,0.1,0.4,0.2,0.6,0.1l2.4-1.4c0.3,0.2,0.5,0.4,0.8,0.5l-0.3,2.8c0,0.2,0.1,0.4,0.3,0.5l1,0.4l1,0.4
			c0.2,0.1,0.4,0,0.6-0.1l1.7-2.2c0.3,0.1,0.6,0.1,1,0.2l0.7,2.7c0.1,0.2,0.2,0.3,0.5,0.3h1.5c0.3,0,0.5-0.2,0.5-0.5
			C-982,2552.8-982.2,2552.5-982.5,2552.5z M-994.4,2529.2L-994.4,2529.2L-994.4,2529.2L-994.4,2529.2z M-985.9,2523.2
			C-985.9,2523.2-985.9,2523.3-985.9,2523.2C-985.9,2523.3-985.9,2523.3-985.9,2523.2C-986,2523.3-985.9,2523.3-985.9,2523.2z
			 M-986.6,2522.7L-986.6,2522.7L-986.6,2522.7L-986.6,2522.7z M-989.9,2524.1L-989.9,2524.1C-989.9,2524.1-990,2524.1-989.9,2524.1
			C-990,2524.1-990,2524.1-989.9,2524.1z M-995.2,2529.3v0.1C-995.2,2529.4-995.2,2529.4-995.2,2529.3L-995.2,2529.3z
			 M-995.2,2543.4L-995.2,2543.4C-995.2,2543.4-995.2,2543.5-995.2,2543.4C-995.2,2543.5-995.2,2543.5-995.2,2543.4z M-986.7,2550.1
			L-986.7,2550.1L-986.7,2550.1L-986.7,2550.1z M-985.9,2549.6L-985.9,2549.6L-985.9,2549.6L-985.9,2549.6z M-989,2533.1
			c0-0.3-0.2-0.5-0.5-0.5s-0.5,0.2-0.5,0.5s0.2,0.5,0.5,0.5S-989,2533.4-989,2533.1z M-989.7,2535.4c0-0.3-0.2-0.5-0.5-0.5
			s-0.5,0.2-0.5,0.5s0.2,0.5,0.5,0.5S-989.7,2535.7-989.7,2535.4z M-990,2538.6c0.3,0,0.5-0.2,0.5-0.5s-0.2-0.5-0.5-0.5
			s-0.5,0.2-0.5,0.5S-990.3,2538.6-990,2538.6z"/>
	</g>
</g>
</svg>
