<?xml version="1.0" encoding="utf-8"?>
<!-- Generator: Adobe Illustrator 19.0.1, SVG Export Plug-In . SVG Version: 6.00 Build 0)  -->
<svg version="1.1" id="_x33_" xmlns="http://www.w3.org/2000/svg" xmlns:xlink="http://www.w3.org/1999/xlink" x="0px" y="0px"
	 viewBox="-224 131 150 140" style="enable-background:new -224 131 150 140;" xml:space="preserve">
<style type="text/css">
	.st0{fill:#7EB928;}
	.st1{fill:#EAF0F1;}
	.st2{fill:url(#SVGID_1_);}
	.st3{fill:url(#SVGID_2_);}
	.st4{fill:#444444;}
</style>
<g>
	<circle class="st0" cx="-149" cy="256.1" r="4.2"/>
	<circle class="st0" cx="-141.9" cy="249" r="3.1"/>
	<circle class="st0" cx="-136.6" cy="243.7" r="1.9"/>
	<circle class="st0" cx="-156.1" cy="249" r="3.1"/>
	<circle class="st0" cx="-161.4" cy="243.7" r="1.9"/>
</g>
<g>
	<circle class="st1" cx="-148.9" cy="188.8" r="40.2"/>
	
		<linearGradient id="SVGID_1_" gradientUnits="userSpaceOnUse" x1="-122.3835" y1="188.6835" x2="-175.3546" y2="241.6545" gradientTransform="matrix(1 0 0 -1 0 404)">
		<stop  offset="0" style="stop-color:#CFDFE4"/>
		<stop  offset="0.1667" style="stop-color:#D9E6EA"/>
		<stop  offset="0.693" style="stop-color:#F5F8F9"/>
		<stop  offset="1" style="stop-color:#FFFFFF"/>
	</linearGradient>
	<circle class="st2" cx="-148.9" cy="188.8" r="37.5"/>
	<circle class="st0" cx="-148.9" cy="188.8" r="30.9"/>
	<circle class="st1" cx="-148.9" cy="188.8" r="27.6"/>
	
		<linearGradient id="SVGID_2_" gradientUnits="userSpaceOnUse" x1="-130.6566" y1="196.9566" x2="-167.1021" y2="233.402" gradientTransform="matrix(1 0 0 -1 0 404)">
		<stop  offset="0" style="stop-color:#CFDFE4"/>
		<stop  offset="0.1667" style="stop-color:#D9E6EA"/>
		<stop  offset="0.693" style="stop-color:#F5F8F9"/>
		<stop  offset="1" style="stop-color:#FFFFFF"/>
	</linearGradient>
	<circle class="st3" cx="-148.9" cy="188.8" r="25.8"/>
	<g>
		<path class="st4" d="M-148.6,188c-0.3,0-0.5,0.2-0.5,0.5v4.2h-1.9v-4.2c0-0.3-0.2-0.5-0.5-0.5s-0.5,0.2-0.5,0.5v4.2h-1.9v-4.2
			c0-0.3-0.2-0.5-0.5-0.5c-0.3,0-0.5,0.2-0.5,0.5v4.7l0,0c0,0,0,0,0,0.1l0,0l0,0l0,0l0,0l1.5,3.3l0,0l1.3,2.9
			c0.1,0.2,0.2,0.3,0.4,0.3s0.4-0.1,0.4-0.3l1.3-2.9l0,0l1.5-3.3l0,0c0,0,0,0,0-0.1l0,0l0,0l0,0l0,0v-4.7
			C-148.1,188.2-148.3,188-148.6,188z M-151.4,198.2l-0.6-1.3h1.2L-151.4,198.2z M-150.4,196h-2.1l-1.1-2.4h4.3L-150.4,196z
			 M-154.3,177.6c0.3,0,0.5-0.2,0.5-0.5v-3.6h1.9v3.6c0,0.3,0.2,0.5,0.5,0.5c0.3,0,0.5-0.2,0.5-0.5v-3.6h1.9v3.6
			c0,0.3,0.2,0.5,0.5,0.5s0.5-0.2,0.5-0.5v-7.7c0-0.9-0.7-1.6-1.6-1.6h-3.5c-0.9,0-1.6,0.7-1.6,1.6v7.7
			C-154.7,177.4-154.5,177.6-154.3,177.6z M-153.8,169.5c0-0.4,0.3-0.7,0.7-0.7h3.5c0.4,0,0.7,0.3,0.7,0.7v3.1h-4.8L-153.8,169.5
			L-153.8,169.5z"/>
		<path class="st4" d="M-131.8,186.9h-9.3v-7.7h9.3c0.3,0,0.5-0.2,0.5-0.5s-0.2-0.5-0.5-0.5h-10.5c-0.2-1.1-1.2-3.4-3.5-3.4h-2.8
			c-0.3,0-0.5,0.2-0.5,0.5s0.2,0.5,0.5,0.5h2.8c2,0,2.6,2.6,2.6,2.9s0.2,0.5,0.5,0.5h0.7v7.7h-1.7c-0.3,0-0.5,0.2-0.5,0.5
			c0,0.2-0.1,0.6-0.6,0.6h-9.5c-0.5,0-0.9-0.4-0.9-0.9s0.4-0.9,0.9-0.9h1.1c0.3,0,0.5-0.2,0.5-0.5s-0.2-0.5-0.5-0.5h-1.1
			c-0.5,0-0.9-0.4-0.9-0.9s0.4-0.9,0.9-0.9h1.1c0.3,0,0.5-0.2,0.5-0.5s-0.2-0.5-0.5-0.5h-1.1c-0.5,0-0.9-0.4-0.9-0.9
			s0.4-0.9,0.9-0.9h1.1c0.3,0,0.5-0.2,0.5-0.5s-0.2-0.5-0.5-0.5h-1.1c-0.5,0-0.9-0.4-0.9-0.9s0.4-0.9,0.9-0.9h6.8
			c0.3,0,0.5-0.2,0.5-0.5s-0.2-0.5-0.5-0.5h-6.8c-1,0-1.9,0.8-1.9,1.9c0,0.6,0.2,1.1,0.6,1.4c-0.4,0.3-0.6,0.8-0.6,1.4
			c0,0.6,0.2,1.1,0.6,1.4c-0.4,0.3-0.6,0.8-0.6,1.4c0,0.6,0.2,1.1,0.6,1.4c-0.4,0.3-0.6,0.8-0.6,1.4c0,1,0.8,1.9,1.9,1.9h9.5
			c0.8,0,1.3-0.5,1.5-1.1h11.6c0.3,0,0.5-0.2,0.5-0.5C-131.3,187.1-131.5,186.9-131.8,186.9z M-140,185.4c0,0.3,0.2,0.5,0.5,0.5
			s0.5-0.2,0.5-0.5c0-0.3-0.2-0.5-0.5-0.5S-140,185.1-140,185.4z"/>
		<path class="st4" d="M-141.8,198.1L-141.8,198.1c0-0.1,0-0.1,0-0.2l0,0c0-0.1-0.1-0.1-0.1-0.2l-2.5-2.5c-0.2-0.2-0.5-0.2-0.7,0
			c-0.2,0.2-0.2,0.5,0,0.7l1.7,1.7h-4.6c-0.1,0-0.1,0-0.2,0l0,0c-0.1,0-0.1,0.1-0.2,0.1l-3.1,3.1l-3.1-3.1c0,0-0.1-0.1-0.2-0.1l0,0
			c-0.1,0-0.1,0-0.2,0h-4.6l1.7-1.7c0.2-0.2,0.2-0.5,0-0.7c-0.2-0.2-0.5-0.2-0.7,0l-2.5,2.5l0,0l0,0l0,0l0,0l0,0l0,0v0.1l0,0l0,0
			v0.1v0.1l0,0c0,0.1,0.1,0.1,0.1,0.2l2.5,2.5c0.2,0.2,0.5,0.2,0.7,0s0.2-0.5,0-0.7l-1.7-1.7h4.5l3,3l-3,3h-4.4l1.7-1.7
			c0.2-0.2,0.2-0.5,0-0.7c-0.2-0.2-0.5-0.2-0.7,0l-2.5,2.5l0,0l0,0l0,0l0,0l0,0l0,0v0.1l0,0l0,0v0.1v0.1l0,0c0,0.1,0.1,0.1,0.1,0.2
			l2.5,2.5c0.2,0.2,0.5,0.2,0.7,0c0.2-0.2,0.2-0.5,0-0.7l-1.7-1.7h4.6c0.1,0,0.1,0,0.2,0l0,0c0.1,0,0.1-0.1,0.2-0.1l3.1-3.1l3.1,3.1
			c0,0,0.1,0.1,0.2,0.1l0,0c0.1,0,0.1,0,0.2,0h4.6l-1.7,1.7c-0.2,0.2-0.2,0.5,0,0.7c0.2,0.2,0.5,0.2,0.7,0l2.5-2.5l0,0l0,0l0,0l0,0
			l0,0l0,0v-0.1l0,0l0,0v-0.1v-0.1l0,0c0-0.1-0.1-0.1-0.1-0.2l-2.5-2.5c-0.2-0.2-0.5-0.2-0.7,0c-0.2,0.2-0.2,0.5,0,0.7l1.7,1.7h-4.4
			l-3-3l3-3h4.4l-1.7,1.7c-0.2,0.2-0.2,0.5,0,0.7c0.2,0.2,0.5,0.2,0.7,0L-141.8,198.1L-141.8,198.1L-141.8,198.1L-141.8,198.1
			L-141.8,198.1L-141.8,198.1L-141.8,198.1C-141.8,198.2-141.8,198.2-141.8,198.1L-141.8,198.1
			C-141.8,198.2-141.8,198.1-141.8,198.1z"/>
	</g>
</g>
</svg>
