<?xml version="1.0" encoding="utf-8"?>
<!-- Generator: Adobe Illustrator 19.0.1, SVG Export Plug-In . SVG Version: 6.00 Build 0)  -->
<svg version="1.1" id="_x34_" xmlns="http://www.w3.org/2000/svg" xmlns:xlink="http://www.w3.org/1999/xlink" x="0px" y="0px"
	 viewBox="-1058 2482.4 150 140" style="enable-background:new -1058 2482.4 150 140;" xml:space="preserve">
<style type="text/css">
	.st0{fill:#68C5DF;}
	.st1{fill:#EAF0F1;}
	.st2{fill:#FFFFFF;}
	.st3{fill:#444444;}
</style>
<g>
	<g>
		<circle class="st0" cx="-983.1" cy="2604" r="4.2"/>
		<circle class="st0" cx="-976" cy="2596.9" r="3.1"/>
		<circle class="st0" cx="-970.7" cy="2591.6" r="1.9"/>
		<circle class="st0" cx="-990.2" cy="2596.9" r="3.1"/>
		<circle class="st0" cx="-995.5" cy="2591.6" r="1.9"/>
	</g>
	<g>
		<circle class="st1" cx="-983" cy="2536.7" r="40.2"/>
		<circle class="st2" cx="-983" cy="2536.7" r="37.5"/>
		<circle class="st0" cx="-983" cy="2536.7" r="30.9"/>
		<circle class="st1" cx="-983" cy="2536.7" r="27.6"/>
		<circle class="st2" cx="-983" cy="2536.7" r="25.8"/>
		<g>
			<path class="st3" d="M-985.5,2546.1L-985.5,2546.1L-985.5,2546.1L-985.5,2546.1z M-965.9,2538.6c-0.7-0.6-2.3-1.3-3.5-0.5
				c-0.9,0.5-2.3,1.5-3.3,2.2l-0.6,0.5c-0.6-0.3-1.5-0.4-2.4,0c-1.1,0.5-2.1,1-3.3,1.8c-1.5-0.8-3.3-1.2-5.2-1.2h-2.9
				c-4.6,0-8.3,3.7-8.3,8.3l0,0v4.2c0,0.3,0.2,0.5,0.5,0.5c0.3,0,0.5-0.2,0.5-0.5v-2.1h8.7v2.1c0,0.3,0.2,0.5,0.5,0.5
				s0.5-0.2,0.5-0.5v-2.5c0-1.4,0.5-1.5,2.4-1.7c1.9-0.2,4.8-0.5,8-3.3l8.8-7c0.1-0.1,0.2-0.2,0.2-0.4
				C-965.8,2538.8-965.8,2538.6-965.9,2538.6z M-975.3,2545.6c-3,2.6-5.6,2.9-7.5,3.1c-1.6,0.2-3,0.3-3.2,2.2h-8.7v-1.3l0,0
				c0-4.1,3.3-7.4,7.4-7.4h2.9c1.9,0,3.6,0.4,5,1.2c0.2,0.1,0.3,0.1,0.5,0c1.2-0.8,2.3-1.3,3.4-1.8c0.7-0.3,1.3-0.1,1.7,0.1
				l-4.9,3.4c-1.2,0.7-2.5,0.7-3.7,0.7c-0.2,0-0.4,0-0.6,0c-1.3,0-2.4,0.4-2.6,0.5s-0.4,0.4-0.3,0.6c0.1,0.2,0.4,0.4,0.6,0.3l0,0
				c0,0,1-0.4,2.3-0.4c0.2,0,0.4,0,0.6,0c1.2,0,2.7,0.1,4.2-0.8l5.5-3.8c0.1-0.1,0.2-0.2,0.2-0.3c0-0.1,0-0.3-0.1-0.4l0,0l0.3-0.2
				c1-0.7,2.3-1.7,3.2-2.2c0.6-0.4,1.4-0.2,2,0.1L-975.3,2545.6z"/>
			<path class="st3" d="M-983,2517.6c-4.7,0-8.6,3.9-8.6,8.6c0,2.3,0.9,4.5,2.5,6.1l0,0c1.1,1.1,1.6,2.5,1.6,4.7h-0.3
				c-0.3,0-0.5,0.2-0.5,0.5c0,0.3,0.2,0.5,0.5,0.5h0.3v1.2h-0.3c-0.3,0-0.5,0.2-0.5,0.5c0,0.3,0.2,0.5,0.5,0.5h0.3v1.6
				c0,0.3,0.2,0.5,0.5,0.5s0.5-0.2,0.5-0.5v-1.6h7v2.7c0,0.3,0.2,0.5,0.5,0.5s0.5-0.2,0.5-0.5v-2.8h0.3c0.3,0,0.5-0.2,0.5-0.5
				s-0.2-0.5-0.5-0.5h-0.3v-1.2h0.3c0.3,0,0.5-0.2,0.5-0.5s-0.2-0.5-0.5-0.5h-0.3c0.1-2.2,0.6-3.7,1.6-4.7l0,0
				c1.6-1.6,2.5-3.8,2.5-6.1C-974.4,2521.4-978.2,2517.6-983,2517.6z M-979.5,2539.2h-7v-1.3h7V2539.2z M-984.8,2529.7h-0.9
				c-0.5,0-0.9-0.4-0.9-0.9s0.4-0.9,0.9-0.9s0.9,0.4,0.9,0.9V2529.7z M-983.8,2537v-6.3h1.7v6.3H-983.8z M-977.6,2531.6
				L-977.6,2531.6c-1.6,1.6-1.9,3.6-1.9,5.4h-1.7v-6.3h0.9c1,0,1.9-0.8,1.9-1.9c0-1-0.8-1.9-1.9-1.9c-1,0-1.9,0.8-1.9,1.9v0.9h-1.7
				v-0.9c0-1-0.8-1.9-1.9-1.9c-1,0-1.9,0.8-1.9,1.9c0,1,0.8,1.9,1.9,1.9h0.9v6.3h-1.7c0-1.7-0.4-3.8-1.9-5.4l0,0
				c-1.4-1.4-2.2-3.4-2.2-5.4c0-4.2,3.4-7.7,7.7-7.7c4.2,0,7.7,3.4,7.7,7.7C-975.3,2528.2-976.1,2530.1-977.6,2531.6z
				 M-981.2,2529.7v-0.9c0-0.5,0.4-0.9,0.9-0.9s0.9,0.4,0.9,0.9s-0.4,0.9-0.9,0.9H-981.2z M-983,2516.8c0.3,0,0.5-0.2,0.5-0.5v-1.7
				c0-0.3-0.2-0.5-0.5-0.5s-0.5,0.2-0.5,0.5v1.7C-983.5,2516.6-983.3,2516.8-983,2516.8z M-990.3,2519.6c0.2,0.2,0.5,0.2,0.7,0
				c0.2-0.2,0.2-0.5,0-0.7l-1.2-1.2c-0.2-0.2-0.5-0.2-0.7,0c-0.2,0.2-0.2,0.5,0,0.7L-990.3,2519.6z M-992.8,2525.7h-1.7
				c-0.3,0-0.5,0.2-0.5,0.5c0,0.3,0.2,0.5,0.5,0.5h1.7c0.3,0,0.5-0.2,0.5-0.5C-992.3,2525.9-992.6,2525.7-992.8,2525.7z
				 M-990.2,2532.8L-990.2,2532.8l-1.2,1.2l0,0c-0.2,0.2-0.2,0.5,0,0.7c0.2,0.2,0.5,0.2,0.7,0l1.2-1.2c0.2-0.2,0.2-0.5,0-0.7
				C-989.8,2532.6-990.1,2532.6-990.2,2532.8z M-975.1,2517.7l-1.2,1.2c-0.2,0.2-0.2,0.5,0,0.7s0.5,0.2,0.7,0l1.2-1.2
				c0.2-0.2,0.2-0.5,0-0.7C-974.6,2517.5-974.9,2517.5-975.1,2517.7z M-971.4,2525.7h-1.7c-0.3,0-0.5,0.2-0.5,0.5
				c0,0.3,0.2,0.5,0.5,0.5h1.7c0.3,0,0.5-0.2,0.5-0.5C-971,2525.9-971.2,2525.7-971.4,2525.7z M-975.7,2532.8
				c-0.2-0.2-0.5-0.2-0.7,0c-0.2,0.2-0.2,0.5,0,0.7l0,0l1.2,1.2l0,0c0.2,0.2,0.5,0.2,0.7,0c0.2-0.2,0.2-0.5,0-0.7L-975.7,2532.8z"/>
		</g>
	</g>
</g>
</svg>
