<?xml version="1.0" encoding="utf-8"?>
<!-- Generator: Adobe Illustrator 19.0.1, SVG Export Plug-In . SVG Version: 6.00 Build 0)  -->
<svg version="1.1" id="_x31_" xmlns="http://www.w3.org/2000/svg" xmlns:xlink="http://www.w3.org/1999/xlink" x="0px" y="0px"
	 viewBox="-224 131 150 140" style="enable-background:new -224 131 150 140;" xml:space="preserve">
<style type="text/css">
	.st0{fill:#F8C800;}
	.st1{fill:#EAF0F1;}
	.st2{fill:url(#SVGID_1_);}
	.st3{fill:url(#SVGID_2_);}
	.st4{fill:#444444;}
</style>
<g>
	<circle class="st0" cx="-149" cy="256.1" r="4.2"/>
	<circle class="st0" cx="-141.9" cy="249" r="3.1"/>
	<circle class="st0" cx="-136.6" cy="243.7" r="1.9"/>
	<circle class="st0" cx="-156.1" cy="249" r="3.1"/>
	<circle class="st0" cx="-161.4" cy="243.7" r="1.9"/>
</g>
<circle class="st1" cx="-148.9" cy="188.8" r="40.2"/>
<linearGradient id="SVGID_1_" gradientUnits="userSpaceOnUse" x1="-122.3835" y1="188.6835" x2="-175.3546" y2="241.6546" gradientTransform="matrix(1 0 0 -1 0 404)">
	<stop  offset="0" style="stop-color:#CFDFE4"/>
	<stop  offset="0.1667" style="stop-color:#D9E6EA"/>
	<stop  offset="0.693" style="stop-color:#F5F8F9"/>
	<stop  offset="1" style="stop-color:#FFFFFF"/>
</linearGradient>
<circle class="st2" cx="-148.9" cy="188.8" r="37.5"/>
<circle class="st0" cx="-148.9" cy="188.8" r="30.9"/>
<circle class="st1" cx="-148.9" cy="188.8" r="27.6"/>
<linearGradient id="SVGID_2_" gradientUnits="userSpaceOnUse" x1="-130.6566" y1="196.9566" x2="-167.1021" y2="233.4021" gradientTransform="matrix(1 0 0 -1 0 404)">
	<stop  offset="0" style="stop-color:#CFDFE4"/>
	<stop  offset="0.1667" style="stop-color:#D9E6EA"/>
	<stop  offset="0.693" style="stop-color:#F5F8F9"/>
	<stop  offset="1" style="stop-color:#FFFFFF"/>
</linearGradient>
<circle class="st3" cx="-148.9" cy="188.8" r="25.8"/>
<g>
	<path class="st4" d="M-131,183.2c-0.2-1.3-1-3.6-4.4-4.9c0.4-1.7,0.1-3.3-0.8-4.5c-0.7-0.8-2-1.8-4.5-1.7c-0.3-2.1-2.1-3.7-4.2-3.7
		c-2.2,0-4,1.8-4,4v32c0,2.6,2.2,3.9,4.2,4.1c2.2,0.2,4.7-0.9,5.5-3.8c1.8,0.2,3.4-0.5,4.3-2c0.9-1.4,0.9-3.3,0.1-4.9
		c1.3-0.3,2.6-1.5,3.2-3c0.7-2,0.2-4.1-1.6-5.8C-131.6,187.7-130.7,185.4-131,183.2z M-132.6,194.5c-0.5,1.4-1.9,2.5-3.1,2.5
		c-0.2,0-0.3,0.1-0.4,0.3c-0.1,0.2-0.1,0.3,0,0.5c1.1,1.5,1.2,3.2,0.3,4.5c-0.8,1.2-2.3,1.8-3.8,1.5c-0.1,0-0.3,0-0.4,0.1
		c-0.1,0.1-0.2,0.2-0.2,0.3c-0.5,2.7-2.6,3.7-4.6,3.5c-1.6-0.1-3.3-1.2-3.3-3.2V195h3.5c0.3,0,0.5-0.2,0.5-0.5
		c0-0.3-0.2-0.5-0.5-0.5h-3.4v-8.8h4.2c0.3,0,0.5-0.2,0.5-0.5c0-0.3-0.2-0.5-0.5-0.5h-4.2v-11.8c0-1.7,1.4-3,3-3
		c1.8,0,3.3,1.5,3.3,3.3c0,0.1,0.1,0.3,0.2,0.3c0.1,0.1,0.2,0.1,0.4,0.1c1.9-0.2,3.3,0.3,4.2,1.3c0.8,1,1,2.5,0.5,4
		c-0.1,0.2,0.1,0.5,0.3,0.6c2.4,0.8,3.9,2.3,4.1,4.3c0.3,2-0.7,4.1-2.3,5.2c-0.1,0.1-0.2,0.2-0.2,0.4c0,0.1,0,0.3,0.2,0.4
		C-132.5,190.9-131.9,192.8-132.6,194.5z M-135.6,183.7c-1.4,0.8-2.7,0.8-3.6,0.3l0,0l0,0c-0.2-0.1-0.4-0.3-0.6-0.5
		c-0.7-0.8-1-2.2-0.6-3.7v-0.1l0,0c0.2-0.6,0.5-1.2,0.9-1.8c0.2-0.2,0.1-0.5-0.1-0.7s-0.5-0.1-0.7,0.1c-0.4,0.5-0.7,1.1-0.9,1.7
		c-1.3-0.3-1.9-0.7-3.1-1.9c-0.2-0.2-0.5-0.2-0.7,0c-0.2,0.2-0.2,0.5,0,0.7c1.3,1.3,2,1.8,3.5,2.1c-0.3,1.5,0,3.1,0.9,4.1
		c0.1,0.2,0.3,0.3,0.5,0.4c-1,2-1.4,3.6-1.4,4.9h-3.7c-0.3,0-0.5,0.2-0.5,0.5s0.2,0.5,0.5,0.5h3.7c0.2,1.6,1,2.7,1.6,3.5
		c-2.1,1.4-2.5,2.9-2.5,4c0,0.3,0.1,0.7,0.2,1c-1.3,0.9-2.4,2-2.6,4.6c0,0.3,0.2,0.5,0.4,0.5c0.3,0,0.5-0.2,0.5-0.4
		c0.2-2.1,1-3.1,2.1-3.9c0.6,0.9,1.5,1.5,2.4,1.7c0.3,0.1,0.5-0.1,0.6-0.3c0.1-0.3-0.1-0.5-0.3-0.6c-0.6-0.2-1.5-0.8-2-1.7
		c0,0,0-0.1-0.1-0.1l0,0c-0.1-0.3-0.2-0.6-0.3-0.9c-0.1-1.5,1.3-3,4-4.1c0.2-0.1,0.4-0.4,0.3-0.6c-0.1-0.2-0.4-0.4-0.6-0.3
		c-0.5,0.2-0.9,0.4-1.3,0.6l0,0c-0.6-0.9-1.4-1.9-1.6-3.5l0,0v-0.1c-0.1-1.2,0.2-2.8,1.2-4.8c1.2,0.5,2.6,0.4,4.1-0.4
		c0.2-0.1,0.3-0.4,0.2-0.6C-135.1,183.7-135.4,183.6-135.6,183.7z"/>
	<path class="st4" d="M-152.1,195.6c0.2,0.1,0.5,0,0.6-0.2c0.1-0.2,0-0.5-0.2-0.6c-0.8-0.4-1.5-0.9-2.1-1.5c-0.2-0.2-0.5-0.2-0.7,0
		c-0.2,0.2-0.2,0.5,0,0.7C-153.7,194.6-153,195.2-152.1,195.6z M-153.8,183.8c1-1.1,2.3-1.8,3.8-2.1c0.3,0,0.4-0.3,0.4-0.5
		c0-0.3-0.3-0.4-0.5-0.4c-1.6,0.3-3.1,1.1-4.3,2.3c-0.2,0.2-0.2,0.5,0,0.7C-154.3,184-154,184-153.8,183.8z M-148.8,184.1
		c0.3,0,0.5-0.2,0.5-0.5c0-0.3-0.2-0.5-0.5-0.5c-2.9,0-5.3,2.4-5.3,5.3c0,2.9,2.4,5.3,5.3,5.3c0.3,0,0.5-0.2,0.5-0.5
		s-0.2-0.5-0.5-0.5c-2.4,0-4.4-2-4.4-4.4C-153.2,186.1-151.2,184.1-148.8,184.1z M-148.4,204.6h-1.2l-0.7-2.6c0-0.2-0.2-0.3-0.4-0.3
		c-0.5-0.1-1-0.2-1.5-0.3l0,0c-0.2,0-0.3,0-0.5,0.1c0,0,0,0,0,0.1l0,0l-1.7,2.2l-0.6-0.4l-0.7-0.3l0.3-2.7c0,0,0,0,0-0.1
		c0-0.2-0.1-0.3-0.2-0.4c-0.4-0.3-0.8-0.5-1.2-0.8c-0.1-0.1-0.4-0.1-0.5,0l-2.4,1.3l-0.5-0.5c0,0-0.3-0.3-0.5-0.5l1.3-2.4
		c0.1-0.1,0.1-0.2,0.1-0.3c0-0.1,0-0.1-0.1-0.2c-0.3-0.4-0.6-0.8-0.8-1.2l0,0c-0.1-0.1-0.2-0.2-0.4-0.2h-0.1l0,0l-2.7,0.3l-0.3-0.7
		c0,0-0.2-0.4-0.3-0.7l2.2-1.7c0.1-0.1,0.2-0.3,0.2-0.5l0,0c-0.1-0.3-0.2-0.7-0.3-1.4c0-0.2-0.2-0.3-0.3-0.4l-2.8-0.8v-1.5l2.6-0.7
		c0.2,0,0.3-0.2,0.3-0.4c0.1-0.5,0.2-1,0.3-1.5c0-0.2,0-0.4-0.2-0.5l-2-1.6l0.3-0.7c0,0,0.2-0.4,0.3-0.7l2.7,0.3l0,0h0.1
		c0.2,0,0.3-0.1,0.4-0.2l0,0c0.3-0.4,0.5-0.9,0.8-1.2c0,0,0.1-0.1,0.1-0.2c0-0.1,0-0.3,0-0.4l-1.3-2.4l0.5-0.5c0,0,0.3-0.3,0.5-0.5
		l2.4,1.3c0.2,0.1,0.3,0.1,0.5,0l0,0c0.4-0.3,0.8-0.6,1.2-0.8l0,0c0.1-0.1,0.2-0.2,0.2-0.4v-0.1l0,0l-0.3-2.7l0.7-0.3l0.7-0.3
		l1.7,2.2c0.1,0.2,0.4,0.2,0.6,0.1h-0.1c0.5-0.1,1-0.2,1.5-0.3c0.2,0,0.3-0.2,0.4-0.3l0.7-2.6h1.2c0.3,0,0.5-0.2,0.5-0.5
		c0-0.3-0.2-0.5-0.5-0.5h-1.5c-0.2,0-0.4,0.1-0.5,0.3l-0.7,2.7c-0.3,0.1-0.6,0.1-1,0.2l-1.7-2.2c-0.1-0.2-0.4-0.2-0.6-0.1l-1,0.4
		l-1,0.4c-0.2,0.1-0.3,0.3-0.3,0.5l0.3,2.8c-0.3,0.2-0.6,0.4-0.8,0.5l-2.4-1.4c-0.2-0.1-0.4-0.1-0.6,0.1l-0.8,0.8l-0.8,0.8
		c-0.1,0.1-0.2,0.4-0.1,0.6l1.4,2.4c-0.2,0.3-0.4,0.5-0.5,0.8l-2.8-0.3c-0.2,0-0.4,0.1-0.5,0.3l-0.4,1l-0.5,1.1
		c-0.1,0.2,0,0.4,0.1,0.6l2.2,1.7c-0.1,0.3-0.1,0.6-0.2,1l-2.6,0.7c-0.2,0.1-0.3,0.2-0.3,0.5v2.2c0,0.2,0.1,0.4,0.3,0.5l2.7,0.7
		c0.1,0.4,0.1,0.7,0.2,1l-2.2,1.7c-0.2,0-0.3,0.2-0.2,0.4l0.4,1l0.4,1c0.1,0.2,0.3,0.3,0.5,0.3l2.8-0.3c0.2,0.3,0.4,0.6,0.5,0.8
		l-1.4,2.4c-0.1,0.2-0.1,0.4,0.1,0.6l0.8,0.8l0.8,0.8c0.2,0.1,0.4,0.2,0.6,0.1l2.4-1.4c0.3,0.2,0.5,0.4,0.8,0.5l-0.3,2.8
		c0,0.2,0.1,0.4,0.3,0.5l1,0.4l1,0.4c0.2,0.1,0.4,0,0.6-0.1l1.7-2.2c0.3,0.1,0.6,0.1,1,0.2l0.7,2.7c0.1,0.2,0.2,0.3,0.5,0.3h1.5
		c0.3,0,0.5-0.2,0.5-0.5C-147.9,204.9-148.1,204.6-148.4,204.6z M-160.3,181.3L-160.3,181.3L-160.3,181.3L-160.3,181.3z
		 M-151.8,175.3C-151.8,175.3-151.8,175.4-151.8,175.3C-151.8,175.4-151.8,175.4-151.8,175.3C-151.9,175.4-151.8,175.4-151.8,175.3z
		 M-152.5,174.8L-152.5,174.8L-152.5,174.8L-152.5,174.8z M-155.8,176.2L-155.8,176.2C-155.8,176.2-155.9,176.2-155.8,176.2
		C-155.9,176.2-155.9,176.2-155.8,176.2z M-161.1,181.4v0.1C-161.1,181.5-161.1,181.5-161.1,181.4L-161.1,181.4z M-161.1,195.5
		L-161.1,195.5C-161.1,195.5-161.1,195.6-161.1,195.5C-161.1,195.6-161.1,195.6-161.1,195.5z M-152.6,202.2L-152.6,202.2
		L-152.6,202.2L-152.6,202.2z M-151.8,201.7L-151.8,201.7L-151.8,201.7L-151.8,201.7z M-154.9,185.2c0-0.3-0.2-0.5-0.5-0.5
		c-0.3,0-0.5,0.2-0.5,0.5s0.2,0.5,0.5,0.5C-155.1,185.7-154.9,185.5-154.9,185.2z M-155.6,187.5c0-0.3-0.2-0.5-0.5-0.5
		c-0.3,0-0.5,0.2-0.5,0.5s0.2,0.5,0.5,0.5C-155.8,188-155.6,187.8-155.6,187.5z M-155.9,190.7c0.3,0,0.5-0.2,0.5-0.5
		s-0.2-0.5-0.5-0.5c-0.3,0-0.5,0.2-0.5,0.5S-156.2,190.7-155.9,190.7z"/>
</g>
</svg>
