<?xml version="1.0" encoding="utf-8"?>
<!-- Generator: Adobe Illustrator 19.0.1, SVG Export Plug-In . SVG Version: 6.00 Build 0)  -->
<svg version="1.1" id="Capa_2" xmlns="http://www.w3.org/2000/svg" xmlns:xlink="http://www.w3.org/1999/xlink" x="0px" y="0px"
	 viewBox="-290 202.2 209.8 209.8" style="enable-background:new -290 202.2 209.8 209.8;" xml:space="preserve">
<style type="text/css">
	.st0{opacity:0.1;fill:#12110B;}
	.st1{fill:#1A1815;}
	.st2{fill:#35322F;}
	.st3{fill:#53504E;}
	.st4{fill:#828080;}
	.st5{fill:#211E1B;}
	.st6{fill:#3C3835;}
	.st7{fill:#CCC8C8;}
	.st8{fill:#9D9997;}
	.st9{fill:#F5F4F5;}
	.st10{fill:#F8C400;}
	.st11{fill:#423E3C;}
	.st12{fill:#EC9200;}
	.st13{fill:#C93433;}
	.st14{fill:#DD7812;}
	.st15{fill:#DCB600;}
	.st16{fill:#C5161A;}
	.st17{fill:#EE8634;}
	.st18{fill:#403C3A;}
	.st19{fill:#F3B780;}
	.st20{fill:#1F1C19;}
	.st21{fill:#D9DBE9;}
	.st22{fill:#1E1D25;}
	.st23{fill:#292622;}
	.st24{fill:#27273D;}
	.st25{fill:#282A3F;}
	.st26{fill:#2E2F48;}
	.st27{fill:#1E1E28;}
	.st28{fill:#34221E;}
	.st29{fill:#FFFFFF;}
	.st30{fill:#363951;}
	.st31{fill:#32302C;}
	.st32{fill:#12110B;}
	.st33{fill:#F5E1E2;}
	.st34{fill:#24201D;}
	.st35{fill:#2B2825;}
	.st36{fill:#291F1C;}
	.st37{fill:#3B2A29;}
</style>
<g>
	<polygon class="st0" points="-229.2,383.5 -250.8,371 -182.1,330.7 -159.9,343.3 	"/>
	<g>
		<g>
			<g>
				<g>
					<path class="st1" d="M-227.8,383.6c0.9-0.5,1.6-0.9,2-1.1c0.4-0.2,0.6-0.6,0.6-1.3c0-1.3-0.9-2.8-2-3.4c-0.5-0.3-1-0.3-1.3-0.2
						c-0.4,0.2-1.4,0.8-1.9,1.1C-231.6,379.4-228.9,384.2-227.8,383.6z"/>
					<path class="st2" d="M-229.2,383.5c1.1,0.6,2,0.1,2-1.1c0-1.3-0.9-2.8-2-3.4c-1.1-0.6-2-0.1-2,1.1
						C-231.2,381.3-230.3,382.8-229.2,383.5z"/>
				</g>
				<g>
					<path class="st1" d="M-248.7,371.7c0.9-0.5,1.6-0.9,2-1.1c0.4-0.2,0.6-0.6,0.6-1.3c0-1.3-0.9-2.8-2-3.4c-0.5-0.3-1-0.3-1.3-0.2
						c-0.4,0.2-1.4,0.8-1.9,1.1C-252.4,367.5-249.8,372.3-248.7,371.7z"/>
					<path class="st2" d="M-250.1,371.6c1.1,0.6,2,0.1,2-1.1c0-1.2-0.9-2.8-2-3.4c-1.1-0.6-2-0.1-2,1.1
						C-252,369.4-251.1,370.9-250.1,371.6z"/>
				</g>
				<g>
					<polygon class="st3" points="-225.3,377.7 -249.7,363.6 -252,365 -227.6,379.1 					"/>
					<polygon class="st4" points="-225.3,377.7 -225.3,379.3 -227.6,380.6 -227.6,379.1 					"/>
					<polygon class="st5" points="-227.6,379.1 -227.6,380.6 -252,366.5 -252,365 					"/>
				</g>
			</g>
			<g>
				<g>
					<path class="st1" d="M-160,344.4c0.9-0.5,1.6-0.9,2-1.1c0.4-0.2,0.6-0.6,0.6-1.3c0-1.3-0.9-2.8-2-3.4c-0.5-0.3-1-0.3-1.3-0.2
						c-0.4,0.2-1.4,0.8-1.9,1.1C-163.7,340.2-161.1,345-160,344.4z"/>
					<path class="st2" d="M-161.4,344.3c1.1,0.6,2,0.1,2-1.1c0-1.2-0.9-2.8-2-3.4c-1.1-0.6-2-0.1-2,1.1S-162.5,343.7-161.4,344.3z"
						/>
				</g>
				<g>
					<path class="st1" d="M-180.8,332.5c0.9-0.5,1.6-0.9,2-1.1c0.4-0.2,0.6-0.6,0.6-1.3c0-1.3-0.9-2.8-2-3.4c-0.5-0.3-1-0.3-1.3-0.2
						c-0.4,0.2-1.4,0.8-1.9,1.1C-184.6,328.3-181.9,333.1-180.8,332.5z"/>
					<path class="st2" d="M-182.2,332.4c1.1,0.6,2,0.1,2-1.1c0-1.2-0.9-2.8-2-3.4c-1.1-0.6-2-0.1-2,1.1
						C-184.2,330.2-183.3,331.7-182.2,332.4z"/>
				</g>
				<g>
					<polygon class="st3" points="-157.5,338.5 -181.9,324.5 -184.2,325.8 -159.8,339.9 					"/>
					<polygon class="st4" points="-157.5,338.5 -157.5,340.1 -159.8,341.4 -159.8,339.9 					"/>
					<polygon class="st5" points="-159.8,339.9 -159.8,341.4 -184.2,327.3 -184.2,325.8 					"/>
				</g>
			</g>
			<g>
				<polygon class="st6" points="-168.4,332.2 -170.7,333.6 -170.7,245.4 -168.4,244 				"/>
				<polygon class="st5" points="-170.7,245.4 -173,244 -173,332.2 -170.7,333.6 				"/>
				<polygon class="st7" points="-173,244 -170.7,242.7 -168.4,244 -170.7,245.4 				"/>
			</g>
			<g>
				<polygon class="st6" points="-170.7,333.6 -170.7,330.9 -236.2,368.7 -236.2,371.4 				"/>
				<polygon class="st3" points="-236.2,368.7 -238.6,367.4 -173,329.6 -170.7,330.9 				"/>
			</g>
			<polygon class="st4" points="-236.2,245.3 -238.6,244 -238.6,281.9 -236.2,283.2 			"/>
			<polygon class="st7" points="-238.6,244 -173.2,206.1 -170.7,207.5 -236.2,245.3 			"/>
			<g>
				<polygon class="st6" points="-236.2,371.4 -238.6,372.8 -238.6,284.6 -236.2,283.2 				"/>
				<polygon class="st5" points="-238.6,284.6 -240.9,283.2 -240.9,371.4 -238.6,372.8 				"/>
				<polygon class="st7" points="-240.9,283.2 -238.6,281.9 -236.2,283.2 -238.6,284.6 				"/>
			</g>
			<polygon class="st8" points="-236.2,245.3 -236.2,321 -170.7,283.1 -170.7,207.5 			"/>
			<polygon class="st9" points="-234.1,246.6 -172.9,211.3 -172.9,281.9 -234.1,317.2 			"/>
		</g>
		<g>
			<path class="st10" d="M-211.7,260.1c0.8-1.9,1.3-3.9,1.3-5.6c0-2.7-1.1-4.5-2.9-5.2l-6.9,10.9L-211.7,260.1z"/>
			<path class="st11" d="M-221.2,260.9v-9.5c-5.2,3.1-9.5,9.8-9.5,15c0,5.2,4.2,7,9.5,3.9c3.5-2.1,6.6-5.7,8.2-9.5L-221.2,260.9z"/>
			<path class="st12" d="M-213,247.9c-1.9-0.8-4.6-0.4-7.5,1.3v10.7L-213,247.9z"/>
		</g>
		<g>
			<path class="st11" d="M-195.2,267.9v-1.6l-7.5,4.4c-1,0.6-1.9,2-1.9,3c0,1,0.8,1.4,1.9,0.8l0.8-0.5l-4.6,7l-6.3-2.2l-12.3,18.7
				c-0.8,1.2-0.8,2.4-0.1,2.7c0.4,0.2,0.9,0.1,1.4-0.2c0.5-0.3,0.9-0.7,1.3-1.3l9.7-14.8l6.3,2.2l7.5-11.4v0.8c0,1,0.8,1.4,1.9,0.8
				c1-0.6,1.9-2,1.9-3v-5C-195.1,268.2-195.1,268.1-195.2,267.9z"/>
			<path class="st13" d="M-223.8,301.4c-0.1,0-0.1,0.1-0.2,0.1v4.9l5.4-3.2v-8.6l-3.1,4.7C-222.2,300.2-223,300.9-223.8,301.4z"/>
			<polygon class="st14" points="-216.8,292.1 -216.8,302.3 -211.4,299.1 -211.4,286.3 -212.7,285.9 			"/>
			<path class="st14" d="M-199.7,277.8l-2.9,4.4v11.7l5.4-3.2v-12.9C-198.3,278.4-199.2,278.4-199.7,277.8z"/>
			<polygon class="st15" points="-209.7,286.9 -209.7,298.1 -204.3,294.9 -204.3,284.7 -206.5,288 			"/>
		</g>
		<g>
			<polygon class="st16" points="-202,263 -205.9,265.4 -205.9,256.3 -202,254 			"/>
			<polygon class="st17" points="-196.4,259.7 -200.3,262 -200.3,250.2 -196.4,247.9 			"/>
			<polygon class="st17" points="-190.7,256.4 -194.6,258.7 -194.6,243.3 -190.7,241 			"/>
			<polygon class="st17" points="-185.1,253.1 -189,255.4 -189,236.1 -185.1,233.8 			"/>
			<polygon class="st17" points="-179.4,249.8 -183.4,252.1 -183.4,227.5 -179.4,225.2 			"/>
			<g>
				<path class="st18" d="M-178.5,221.4l0.1,1l0.5-0.4l-0.3-2l-1.7,1.3l0.1,0.6l0.9-0.7c-9.2,20.4-28.4,37.4-28.6,37.6l0.1,0.5
					C-207.2,259.2-187.8,242-178.5,221.4z"/>
				<path class="st18" d="M-176,233.3l0-2.2l-1.8,1l0,0.6l0.9-0.5c-9.6,17.1-30.3,30.3-30.6,30.4l0,0.6c0.2-0.1,21.1-13.4,30.9-30.8
					l0,1.1L-176,233.3z M-176.5,232L-176.5,232L-176.5,232L-176.5,232z"/>
			</g>
		</g>
		<g>
			<polygon class="st11" points="-176.6,270.1 -191.8,278.8 -191.8,278.1 -176.6,269.3 			"/>
			<polygon class="st11" points="-176.6,272.1 -191.8,280.9 -191.8,280.2 -176.6,271.4 			"/>
			<polygon class="st11" points="-176.6,274.2 -191.8,283 -191.8,282.2 -176.6,273.4 			"/>
			<polygon class="st11" points="-176.6,276.2 -191.8,285 -191.8,284.3 -176.6,275.5 			"/>
			<polygon class="st11" points="-176.6,278.3 -191.8,287.1 -191.8,286.3 -176.6,277.5 			"/>
		</g>
		<g>
			<polygon class="st11" points="-176.6,252 -191.8,260.8 -191.8,260.1 -176.6,251.3 			"/>
			<polygon class="st11" points="-176.6,254.1 -191.8,262.9 -191.8,262.1 -176.6,253.3 			"/>
			<polygon class="st11" points="-176.6,256.1 -191.8,264.9 -191.8,264.2 -176.6,255.4 			"/>
			<polygon class="st11" points="-176.6,258.2 -191.8,267 -191.8,266.2 -176.6,257.5 			"/>
		</g>
		<g>
			<polygon class="st11" points="-214.2,271.5 -229.4,280.2 -229.4,279.5 -214.2,270.7 			"/>
			<polygon class="st11" points="-214.2,273.5 -229.4,282.3 -229.4,281.6 -214.2,272.8 			"/>
			<polygon class="st11" points="-214.2,275.6 -229.4,284.4 -229.4,283.6 -214.2,274.8 			"/>
		</g>
		<g>
			<polygon class="st11" points="-188.4,227.4 -216.9,243.8 -216.9,242.4 -188.4,226 			"/>
		</g>
		<g>
			<polygon class="st11" points="-193.7,233.9 -211.6,244.2 -211.6,243.3 -193.7,233 			"/>
		</g>
	</g>
	<path class="st0" d="M-135,345.8c-6.1,3.5-16.2,3.5-22.4,0c-6.2-3.6-6.1-9.4,0-12.9c6.2-3.5,16.2-3.5,22.4,0
		C-128.9,336.4-128.9,342.2-135,345.8z"/>
	<path class="st0" d="M-209.4,406c-6.1,3.5-16.2,3.5-22.4,0c-6.2-3.6-6.1-9.4,0-12.9c6.2-3.5,16.2-3.5,22.4,0
		C-203.2,396.7-203.2,402.5-209.4,406z"/>
	<g>
		<path class="st19" d="M-165.8,254.9l-0.7-0.9c0,0,0.6-1.6,0.3-3.1c-0.3-1.5,0.2-1.9-0.7-1.7c0,0-0.8,0.3-0.7,1.8
			c0,0-2.2-3.4-2.8-4.5c0,0-0.6-0.8-1.1,0.6c-0.5,1.4-2.2,2.5-0.9,4c1.3,1.5,1.8,3.9,4,4.6l1.2,0.7L-165.8,254.9z"/>
		<path class="st19" d="M-121.8,258.2l0.5-1.1c0,0-1-1.3-1.1-2.9c-0.1-1.5-0.7-1.8,0.2-1.8c0,0,0.8,0.1,1.1,1.5c0,0,1.2-3.9,1.6-5.1
			c0,0,0.3-0.9,1.2,0.3c0.9,1.2,2.8,1.8,1.9,3.6c-0.9,1.7-0.7,4.2-2.7,5.5l-1,1L-121.8,258.2z"/>
		<path class="st20" d="M-153.8,332.3c0,0-2.4,3.7-4.6,4.5c-2.1,0.8-2.6,3.1,0.8,2.8c3.3-0.3,4.7-0.5,6.8-2.5v0.7l2.9-1.4l-0.2-4.1
			l-3.1-2.2L-153.8,332.3z"/>
		<path class="st21" d="M-164.1,256l-2.1-2.2c0,0-2.2,0.6-2.3,2.3l2,2.2C-166.5,258.2-165.5,256.3-164.1,256z"/>
		<path class="st22" d="M-147.4,311l7.9-22.6c0-1.7-14.1-2.9-14.1-1.2l-1.5,23.9C-155.1,312.7-147.4,312.6-147.4,311z"/>
		<path class="st22" d="M-154.7,331.8c0,1.7,7.4,1.6,7.4-0.1c0,0,3.1-12.6-0.1-20.8c-1.4-3.6-8.2-1.8-7.7,0.1
			C-153.2,317.6-154.7,331.8-154.7,331.8z"/>
		<path class="st23" d="M-139.7,338.1c0,0-1.8,3.2-4,4c-2.1,0.8-2.6,3.1,0.8,2.8c3.3-0.3,4.6-0.8,6.6-2.8v0.7l2.9-1.4l-0.2-4.1
			l-3.6-1.6L-139.7,338.1z"/>
		<g>
			<path class="st24" d="M-159.6,261.5c-1.4,0.6-2,2.2-1.4,3.6l0,0c0.6,1.4,2.2,2,3.6,1.4l12.2-3.9c1.4-0.6,3.4-2.7,2.1-5.5l0,0
				c-0.6-1.4-2.2-2-3.6-1.4L-159.6,261.5z"/>
			<path class="st24" d="M-166.7,258.4l5.8,7.2c1.1,1,2.8,1,3.8-0.1l0,0c1-1.1,1-2.8,0-3.8l-6.8-6
				C-165,254.7-167.8,257.4-166.7,258.4z"/>
		</g>
		<path class="st25" d="M-136.4,314.4l1.2-26.3c-0.2-1.6-14.6-0.7-14.3,0.9l5.2,24.7C-144.1,315.4-136.1,316-136.4,314.4z"/>
		<path class="st25" d="M-140.8,338.2c0.4,1.6,7.5,1.6,7.2-0.9c-0.9-4.6,1.3-16.7-2.8-22.9c-3.6-5.6-8.8-4.8-8.1-1.4
			C-140.7,322.3-140.8,338.2-140.8,338.2z"/>
		<path class="st26" d="M-134,292.2c0,0-1.4-7.3-0.9-16.4c0.3-5.7,1.9-13.6,2.1-16.1c0,0-4.3-1.5-8.8-4.7c-2.6-1.9-9,1.9-10.4,7.4
			c-1.4,5.5-1.1,22.5-3.1,28.6C-155.1,291-147.9,292.2-134,292.2z"/>
		<path class="st19" d="M-140.7,257l1.1-5.2l-1.5-2.4l-4,2.6l-1.6,6.8l1,4.3C-145.8,263.1-141.9,260.9-140.7,257z"/>
		<g>
			<path class="st21" d="M-140.5,255.8c0,0-2,5.1-5.2,5.4c0,0-0.9-3.4,0.5-6.2l-0.6,0.3c0,0-5,7.7-3.1,15.9c0,0,9.2-11,9.4-14.9
				L-140.5,255.8z"/>
			<polygon class="st27" points="-145.6,261.5 -145.1,263.4 -146.1,264.2 -146.8,268.7 -149.1,271.6 -149.5,268.2 -147,263.8 
				-147.2,262.5 			"/>
			<path class="st24" d="M-137.5,257.7c0,0-4.5,10.7-11.8,16.2c0,0-3.2-10,0.6-15.9c0,0,1.4-2,3-2.7c0,0-4.8,8-3.1,15.9
				c0,0,8.6-10.4,9.4-15C-139.5,256.3-137.9,257.1-137.5,257.7z"/>
		</g>
		<path class="st19" d="M-149.1,242.3c0,0-1,3.4-1.2,5.4c-0.3,2-2.3,8.7,2.2,8.8c0,0,3.7,0.1,5.2-3.8l3.3-1c0,0,3.6-6.6,0.6-9.3
			C-142,239.9-145.3,238.5-149.1,242.3z"/>
		<path class="st28" d="M-142.9,252.8c0,0,3.7-1.5,2.4-4.1c0,0-1.1-0.9-2.4,0.8l-0.2,0.6l-0.4-0.2c0,0,0.5-2.2,0.1-3.4
			c-0.4-1.1-4.6-1.3-5.9-3.8c-1.2-2.5,3.3-5.6,8-3.6c3.1,1.3,6.8,3,4.4,8.7c0,0.1-3.2,5.9-3.2,5.9L-142.9,252.8z"/>
		<path class="st29" d="M-150.6,252.1l3.4,1C-147.2,253.1-150.4,256.4-150.6,252.1z"/>
		<path class="st30" d="M-126.9,269.5c1.5,0.7,3.3,0.1,4-1.4l0.1-0.2c0.7-1.5-0.1-2.8-1.6-3.5l-6.3-3.3c-1.8-2.2-5.4-3.1-6.5-0.1
			l-0.1,0.2c-0.7,1.5,1,5.7,3.1,6.7L-126.9,269.5z"/>
		<g>
			<path class="st21" d="M-119.9,261.1l1.3-2c0,0-1.3-2.8-3.9-1.9l-1.2,2.4C-123.8,259.6-120.7,259.5-119.9,261.1z"/>
			<path class="st30" d="M-123.9,259.3l-4.6,6.3c-0.7,1.3-0.3,3,1,3.7l0,0c1.3,0.7,4.3,0.2,4.9-2.3l3-6
				C-118.8,259.7-123.2,258-123.9,259.3z"/>
		</g>
	</g>
	<g>
		<path class="st9" d="M-209.4,352.8c0,0,6.4-8,8.1-17.2l11.6,2.3c0,0-5.8,12-8.9,16.6L-209.4,352.8z"/>
		<path class="st19" d="M-207.3,307.9l0.7-0.7c0,0,0-1.3,0.3-2.1c0.4-0.8,0.7-1.7,1.2-1.3c0.5,0.4,0.1,1.3,0.1,1.3s1.6-0.8,2-1.7
			c0.5-0.9,0.9-2.5,2-1.2c1,1.3,1.2,2.6-0.2,4.1c-1.4,1.5-2.9,2.9-3.8,2.8l-1.1,0.7L-207.3,307.9z"/>
		<path class="st20" d="M-229.1,370.5c0,0-2.6-22-1.1-25.9c1.5-3.9,9.1-3.5,9-1.2l-0.4,27.1C-221.6,372.8-229.1,372.8-229.1,370.5z"
			/>
		<g>
			<path class="st19" d="M-226.5,309.3c0,0-1.2-3.3-3.5-5.7c-2.3-2.3-3.7-8.1,0.9-10.7c4.6-2.6,8.3-0.6,9,0.7c0.7,1.3,1.4,5.2,2,7
				c0.6,1.8,2.2,8.2-2.4,7.3l0.4,5L-226.5,309.3z"/>
			<path class="st31" d="M-223.6,307l-3.8,0.4c0,0-3.9-3.8-5.4-4.7c0,0-3.9-7.5,2.8-11.3c6.7-3.7,13.4,0.3,10.4,3.6
				c0,0-0.8,4.7-0.5,5.8l-0.4,0.1c-0.4-1.6-2-3.6-2.2-0.6c0,0.3,0.8,1.6,0.8,1.9C-222.3,306-223.6,307-223.6,307z"/>
		</g>
		<path class="st32" d="M-229.5,392.5c0,0-0.3,3.9,0,5.2c0,0,2.4,0.9,4.6,0.3v-1.2c0,0,3.7,1.7,7.9,1.3c0,0,2.3-0.2,2.7-1.9
			c0.4-1.6-1.8-1.7-3.7-2.1c-1.9-0.4-4.2-1.7-4.6-2.7L-229.5,392.5z"/>
		<path class="st20" d="M-222.2,398c0,0-0.3,4,0,5.2c0,0,2.4,0.9,4.6,0.3v-1.2c0,0,3.7,1.7,7.9,1.3c0,0,2.3-0.2,2.7-1.9
			c0.4-1.6-1.8-1.7-3.7-2.1c-1.9-0.4-4.2-1.7-4.6-2.7L-222.2,398z"/>
		<path class="st20" d="M-222.5,391.9c0,2.2-7.1,2.2-7.1,0c0,0-3.2-15.6,0.5-21.4c2.2-3.4,8-4.2,7.5-0.4
			C-222.1,373.9-222.5,391.9-222.5,391.9z"/>
		<g>
			<path class="st33" d="M-209.5,308.6l2.5-1.6c0,0,1.5,0.1,2.1,2.5l-2.6,2C-207.4,311.5-207,309.2-209.5,308.6z"/>
			<g>
				<path class="st34" d="M-212.5,315.2c-0.4,1.4-1.8,2.4-3.3,2.2l-12.4-0.6c-1.5-0.2-2.6-2.9-2.2-4.3l0,0c0.4-1.4,1.8-2.4,3.3-2.2
					l12.6,1.9C-213,312.4-212.1,313.8-212.5,315.2L-212.5,315.2z"/>
				<path class="st34" d="M-207,311.3l-6.7,5.6c-1.2,0.8-2.6-0.1-3.3-1.2l0,0c-0.7-1.1-0.3-2.7,0.9-3.5l7-4.1
					C-207.9,307.4-205.8,310.5-207,311.3z"/>
			</g>
		</g>
		<path class="st35" d="M-214.2,397.4c0,2.2-8.3,2.2-8.3,0c0,0-3.7-20.2,0-24.7c2.9-3.5,9-1.5,8.8-0.8
			C-216,380.6-214.2,397.4-214.2,397.4z"/>
		<path class="st35" d="M-213.7,343.3c0-0.3-0.2-0.4-0.5-0.6l0-0.1l-16.7-1.9c0,0-2.1,7.5,3.4,10.8l0.5,0.3
			c0.5,5.6,4.4,21.2,4.4,21.2c-0.5,2.2,8.7,1.1,8.8-1.2V343.3z"/>
		<path class="st33" d="M-228,309.6c0,0,0.5-1.1,0.9-1.7c0,0,7.7,1.4,8.2,7.3L-228,309.6z"/>
		<path class="st36" d="M-228,309.6c0,0-6.5,4.7-4.5,14.3c2,9.6,1.2,17.5,1.2,17.5s7.8,8.8,13.8,6.5c0,0,3.7,0.2,4.3-2.9l-2.6-21.3
			C-215.7,323.6-215.9,312.5-228,309.6z"/>
		<path class="st19" d="M-208.4,341.7l1,0.6c0,0,2.2,0,3.7,0.9c0.1,0.1-0.2,0.6-0.4,0.9c0,0,0.3,2,2,1.4c0.6-0.2,2-0.2,0.7,1
			c-0.7,0.7-2.9,1.5-3.9,1.1c-2.3-1-3.6-1.8-3.8-3l-1.2-1.1L-208.4,341.7z"/>
		<g>
			<path class="st33" d="M-209.7,339.6l2.3,1.9c0,0,0.1,2.5-2.3,3.5l-2.4-2C-212.1,343-209.5,342.2-209.7,339.6z"/>
			<g>
				<path class="st37" d="M-218.4,338.1c-1.8,0.2-3.4-1.1-3.6-2.9l-3.7-14.3c-0.2-1.8,2-4.3,5.1-4.7l0,0c1.8-0.2,3.4,1.1,3.6,2.9
					l1.5,15.5C-215.3,336.4-216.6,337.9-218.4,338.1L-218.4,338.1z"/>
				<path class="st37" d="M-212.2,343.4l-8.3-5.8c-1.3-1.1-1.5-3-0.4-4.4l0,0c1.1-1.3,3-1.5,4.4-0.4l7.1,6.7
					C-208.1,340.7-210.8,344.5-212.2,343.4z"/>
			</g>
		</g>
		<path class="st31" d="M-217.3,305.1c0,0-0.9,0.8-1.5-0.4c-0.7-1.2-0.8-2.2-0.8-2.2l-0.6,0.1c0,0,0.9,4.8,0,5.4
			C-220.2,307.9-217.2,308.8-217.3,305.1z"/>
	</g>
</g>
</svg>
