<?xml version="1.0" encoding="utf-8"?>
<!-- Generator: Adobe Illustrator 19.0.1, SVG Export Plug-In . SVG Version: 6.00 Build 0)  -->
<svg version="1.1" id="_x32_" xmlns="http://www.w3.org/2000/svg" xmlns:xlink="http://www.w3.org/1999/xlink" x="0px" y="0px"
	 viewBox="-224 131 150 140" style="enable-background:new -224 131 150 140;" xml:space="preserve">
<style type="text/css">
	.st0{fill:#E95A17;}
	.st1{fill:#EAF0F1;}
	.st2{fill:url(#SVGID_1_);}
	.st3{fill:url(#SVGID_2_);}
	.st4{fill:#444444;}
</style>
<g>
	<circle class="st0" cx="-149" cy="256.1" r="4.2"/>
	<circle class="st0" cx="-141.9" cy="249" r="3.1"/>
	<circle class="st0" cx="-136.6" cy="243.7" r="1.9"/>
	<circle class="st0" cx="-156.1" cy="249" r="3.1"/>
	<circle class="st0" cx="-161.4" cy="243.7" r="1.9"/>
</g>
<g>
	<circle class="st1" cx="-148.9" cy="188.8" r="40.2"/>
	
		<linearGradient id="SVGID_1_" gradientUnits="userSpaceOnUse" x1="-122.3835" y1="188.6835" x2="-175.3546" y2="241.6547" gradientTransform="matrix(1 0 0 -1 0 404)">
		<stop  offset="0" style="stop-color:#CFDFE4"/>
		<stop  offset="0.1667" style="stop-color:#D9E6EA"/>
		<stop  offset="0.693" style="stop-color:#F5F8F9"/>
		<stop  offset="1" style="stop-color:#FFFFFF"/>
	</linearGradient>
	<circle class="st2" cx="-148.9" cy="188.8" r="37.5"/>
	<circle class="st0" cx="-148.9" cy="188.8" r="30.9"/>
	<circle class="st1" cx="-148.9" cy="188.8" r="27.6"/>
	
		<linearGradient id="SVGID_2_" gradientUnits="userSpaceOnUse" x1="-130.6566" y1="196.9566" x2="-167.1021" y2="233.4021" gradientTransform="matrix(1 0 0 -1 0 404)">
		<stop  offset="0" style="stop-color:#CFDFE4"/>
		<stop  offset="0.1667" style="stop-color:#D9E6EA"/>
		<stop  offset="0.693" style="stop-color:#F5F8F9"/>
		<stop  offset="1" style="stop-color:#FFFFFF"/>
	</linearGradient>
	<circle class="st3" cx="-148.9" cy="188.8" r="25.8"/>
	<g>
		<path class="st4" d="M-138.6,194.5L-138.6,194.5C-138.6,194.5-138.6,194.4-138.6,194.5c0-0.1,0-0.1,0-0.1s0,0,0-0.1l0,0v-9.9v-0.1
			l0,0c0,0,0,0,0-0.1l0,0c0,0,0,0,0-0.1l0,0l0,0l0,0l-9.9-7.7c-0.2-0.1-0.4-0.1-0.6,0l-10,7.6l0,0l0,0l0,0c0,0,0,0,0,0.1l0,0
			c0,0,0,0,0,0.1l0,0v0.1v9.9l0,0c0,0,0,0,0,0.1l0,0l0,0l0,0l0,0l0,0l0,0l0,0l0,0l9.9,7.7l0,0c0,0,0.1,0,0.1,0.1l0,0h0.1l0,0h0.1
			l0,0c0,0,0.1,0,0.1-0.1l0,0l9.9-7.7l0,0l0,0C-138.7,194.6-138.7,194.6-138.6,194.5C-138.6,194.6-138.6,194.6-138.6,194.5
			L-138.6,194.5z M-158.3,185.4l8.9,6.9v8.7l-8.9-6.9V185.4z M-148.4,192.3l8.9-6.9v8.7l-8.9,6.9V192.3z M-148.9,177.3l9.1,7.1
			l-9.1,7.1l-9.1-7.1L-148.9,177.3z"/>
		<path class="st4" d="M-140.7,192.6c-0.3,0-0.5,0.2-0.5,0.5c0,0.3,0.2,0.5,0.5,0.5s0.5-0.2,0.5-0.5
			C-140.2,192.8-140.4,192.6-140.7,192.6z M-142.3,191.3c-0.3,0-0.5,0.2-0.5,0.5s0.2,0.5,0.5,0.5s0.5-0.2,0.5-0.5
			S-142.1,191.3-142.3,191.3z M-144,190c-0.3,0-0.5,0.2-0.5,0.5s0.2,0.5,0.5,0.5s0.5-0.2,0.5-0.5S-143.7,190-144,190z M-157.1,192.6
			c-0.3,0-0.5,0.2-0.5,0.5c0,0.3,0.2,0.5,0.5,0.5c0.3,0,0.5-0.2,0.5-0.5C-156.7,192.8-156.9,192.6-157.1,192.6z M-155.5,191.3
			c-0.3,0-0.5,0.2-0.5,0.5s0.2,0.5,0.5,0.5s0.5-0.2,0.5-0.5S-155.2,191.3-155.5,191.3z M-153.9,190c-0.3,0-0.5,0.2-0.5,0.5
			s0.2,0.5,0.5,0.5c0.3,0,0.5-0.2,0.5-0.5S-153.6,190-153.9,190z M-148.9,178.2c-0.3,0-0.5,0.2-0.5,0.5s0.2,0.5,0.5,0.5
			c0.3,0,0.5-0.2,0.5-0.5S-148.6,178.2-148.9,178.2z M-148.9,180.2c-0.3,0-0.5,0.2-0.5,0.5s0.2,0.5,0.5,0.5c0.3,0,0.5-0.2,0.5-0.5
			S-148.6,180.2-148.9,180.2z M-148.9,182.1c-0.3,0-0.5,0.2-0.5,0.5c0,0.3,0.2,0.5,0.5,0.5c0.3,0,0.5-0.2,0.5-0.5
			C-148.4,182.3-148.6,182.1-148.9,182.1z M-148.9,184.1c-0.3,0-0.5,0.2-0.5,0.5c0,0.3,0.2,0.5,0.5,0.5c0.3,0,0.5-0.2,0.5-0.5
			C-148.4,184.3-148.6,184.1-148.9,184.1z"/>
		<path class="st4" d="M-148.9,169.4c-0.3,0-0.5,0.2-0.5,0.5v4.8c0,0.3,0.2,0.5,0.5,0.5c0.3,0,0.5-0.2,0.5-0.5v-4.8
			C-148.4,169.6-148.6,169.4-148.9,169.4z M-148.9,203.8c-0.3,0-0.5,0.2-0.5,0.5v4.8c0,0.3,0.2,0.5,0.5,0.5c0.3,0,0.5-0.2,0.5-0.5
			v-4.8C-148.4,204.1-148.6,203.8-148.9,203.8z M-160.8,195.3L-160.8,195.3l-5,3.9l0,0c-0.2,0.2-0.2,0.5-0.1,0.7
			c0.2,0.2,0.5,0.2,0.7,0.1l5-3.9c0.2-0.2,0.2-0.5,0.1-0.7C-160.3,195.2-160.6,195.1-160.8,195.3z M-132.1,199.2l-5-3.9
			c-0.2-0.2-0.5-0.1-0.7,0.1c-0.2,0.2-0.1,0.5,0.1,0.7l5,3.9c0.2,0.2,0.5,0.1,0.7-0.1C-131.9,199.6-131.9,199.3-132.1,199.2z
			 M-160.3,183l-5-3.9c-0.2-0.2-0.5-0.1-0.7,0.1s-0.1,0.5,0.1,0.7l5,3.9c0.2,0.2,0.5,0.1,0.7-0.1C-160,183.4-160.1,183.1-160.3,183z
			 M-137.1,183.7l5-3.9c0.2-0.2,0.2-0.5,0.1-0.7c-0.2-0.2-0.5-0.2-0.7-0.1l-5,3.9c-0.2,0.2-0.2,0.5-0.1,0.7
			C-137.6,183.8-137.3,183.9-137.1,183.7z"/>
	</g>
</g>
</svg>
