<?xml version="1.0" encoding="utf-8"?>
<!-- Generator: Adobe Illustrator 19.0.1, SVG Export Plug-In . SVG Version: 6.00 Build 0)  -->
<svg version="1.1" id="_x33_" xmlns="http://www.w3.org/2000/svg" xmlns:xlink="http://www.w3.org/1999/xlink" x="0px" y="0px"
	 viewBox="-1058 2482.4 150 140" style="enable-background:new -1058 2482.4 150 140;" xml:space="preserve">
<style type="text/css">
	.st0{fill:#7EB928;}
	.st1{fill:#EAF0F1;}
	.st2{fill:#FFFFFF;}
	.st3{fill:#444444;}
</style>
<g>
	<g>
		<circle class="st0" cx="-983.1" cy="2604" r="4.2"/>
		<circle class="st0" cx="-976" cy="2596.9" r="3.1"/>
		<circle class="st0" cx="-970.7" cy="2591.6" r="1.9"/>
		<circle class="st0" cx="-990.2" cy="2596.9" r="3.1"/>
		<circle class="st0" cx="-995.5" cy="2591.6" r="1.9"/>
	</g>
	<g>
		<circle class="st1" cx="-983" cy="2536.7" r="40.2"/>
		<circle class="st2" cx="-983" cy="2536.7" r="37.5"/>
		<circle class="st0" cx="-983" cy="2536.7" r="30.9"/>
		<circle class="st1" cx="-983" cy="2536.7" r="27.6"/>
		<circle class="st2" cx="-983" cy="2536.7" r="25.8"/>
		<g>
			<path class="st3" d="M-982.7,2535.9c-0.3,0-0.5,0.2-0.5,0.5v4.2h-1.9v-4.2c0-0.3-0.2-0.5-0.5-0.5c-0.3,0-0.5,0.2-0.5,0.5v4.2
				h-1.9v-4.2c0-0.3-0.2-0.5-0.5-0.5s-0.5,0.2-0.5,0.5v4.7l0,0c0,0,0,0,0,0.1l0,0l0,0l0,0l0,0l1.5,3.3l0,0l1.3,2.9
				c0.1,0.2,0.2,0.3,0.4,0.3s0.4-0.1,0.4-0.3l1.3-2.9l0,0l1.5-3.3l0,0c0,0,0,0,0-0.1l0,0l0,0l0,0l0,0v-4.7
				C-982.2,2536.1-982.4,2535.9-982.7,2535.9z M-985.5,2546.1l-0.6-1.3h1.2L-985.5,2546.1z M-984.5,2543.9h-2.1l-1.1-2.4h4.3
				L-984.5,2543.9z M-988.4,2525.5c0.3,0,0.5-0.2,0.5-0.5v-3.6h1.9v3.6c0,0.3,0.2,0.5,0.5,0.5c0.3,0,0.5-0.2,0.5-0.5v-3.6h1.9v3.6
				c0,0.3,0.2,0.5,0.5,0.5s0.5-0.2,0.5-0.5v-7.7c0-0.9-0.7-1.6-1.6-1.6h-3.5c-0.9,0-1.6,0.7-1.6,1.6v7.7
				C-988.8,2525.3-988.6,2525.5-988.4,2525.5z M-987.9,2517.4c0-0.4,0.3-0.7,0.7-0.7h3.5c0.4,0,0.7,0.3,0.7,0.7v3.1h-4.8
				L-987.9,2517.4L-987.9,2517.4z"/>
			<path class="st3" d="M-965.9,2534.8h-9.3v-7.7h9.3c0.3,0,0.5-0.2,0.5-0.5s-0.2-0.5-0.5-0.5h-10.5c-0.2-1.1-1.2-3.4-3.5-3.4h-2.8
				c-0.3,0-0.5,0.2-0.5,0.5c0,0.3,0.2,0.5,0.5,0.5h2.8c2,0,2.6,2.6,2.6,2.9s0.2,0.5,0.5,0.5h0.7v7.7h-1.7c-0.3,0-0.5,0.2-0.5,0.5
				c0,0.2-0.1,0.6-0.6,0.6h-9.5c-0.5,0-0.9-0.4-0.9-0.9s0.4-0.9,0.9-0.9h1.1c0.3,0,0.5-0.2,0.5-0.5s-0.2-0.5-0.5-0.5h-1.1
				c-0.5,0-0.9-0.4-0.9-0.9s0.4-0.9,0.9-0.9h1.1c0.3,0,0.5-0.2,0.5-0.5s-0.2-0.5-0.5-0.5h-1.1c-0.5,0-0.9-0.4-0.9-0.9
				s0.4-0.9,0.9-0.9h1.1c0.3,0,0.5-0.2,0.5-0.5c0-0.3-0.2-0.5-0.5-0.5h-1.1c-0.5,0-0.9-0.4-0.9-0.9s0.4-0.9,0.9-0.9h6.8
				c0.3,0,0.5-0.2,0.5-0.5s-0.2-0.5-0.5-0.5h-6.8c-1,0-1.9,0.8-1.9,1.9c0,0.6,0.2,1.1,0.6,1.4c-0.4,0.3-0.6,0.8-0.6,1.4
				c0,0.6,0.2,1.1,0.6,1.4c-0.4,0.3-0.6,0.8-0.6,1.4c0,0.6,0.2,1.1,0.6,1.4c-0.4,0.3-0.6,0.8-0.6,1.4c0,1,0.8,1.9,1.9,1.9h9.5
				c0.8,0,1.3-0.5,1.5-1.1h11.6c0.3,0,0.5-0.2,0.5-0.5C-965.4,2535-965.6,2534.8-965.9,2534.8z M-974.1,2533.3
				c0,0.3,0.2,0.5,0.5,0.5c0.3,0,0.5-0.2,0.5-0.5s-0.2-0.5-0.5-0.5C-973.9,2532.8-974.1,2533-974.1,2533.3z"/>
			<path class="st3" d="M-975.9,2546L-975.9,2546c0-0.1,0-0.1,0-0.2l0,0c0-0.1-0.1-0.1-0.1-0.2l-2.5-2.5c-0.2-0.2-0.5-0.2-0.7,0
				s-0.2,0.5,0,0.7l1.7,1.7h-4.6c-0.1,0-0.1,0-0.2,0l0,0c-0.1,0-0.1,0.1-0.2,0.1l-3.1,3.1l-3.1-3.1c0,0-0.1-0.1-0.2-0.1l0,0
				c-0.1,0-0.1,0-0.2,0h-4.6l1.7-1.7c0.2-0.2,0.2-0.5,0-0.7c-0.2-0.2-0.5-0.2-0.7,0l-2.5,2.5l0,0l0,0l0,0l0,0l0,0l0,0v0.1l0,0l0,0
				v0.1v0.1l0,0c0,0.1,0.1,0.1,0.1,0.2l2.5,2.5c0.2,0.2,0.5,0.2,0.7,0s0.2-0.5,0-0.7l-1.7-1.7h4.5l3,3l-3,3h-4.4l1.7-1.7
				c0.2-0.2,0.2-0.5,0-0.7c-0.2-0.2-0.5-0.2-0.7,0l-2.5,2.5l0,0l0,0l0,0l0,0l0,0l0,0v0.1l0,0l0,0v0.1v0.1l0,0c0,0.1,0.1,0.1,0.1,0.2
				l2.5,2.5c0.2,0.2,0.5,0.2,0.7,0c0.2-0.2,0.2-0.5,0-0.7l-1.7-1.7h4.6c0.1,0,0.1,0,0.2,0l0,0c0.1,0,0.1-0.1,0.2-0.1l3.1-3.1
				l3.1,3.1c0,0,0.1,0.1,0.2,0.1l0,0c0.1,0,0.1,0,0.2,0h4.6l-1.7,1.7c-0.2,0.2-0.2,0.5,0,0.7c0.2,0.2,0.5,0.2,0.7,0l2.5-2.5l0,0l0,0
				l0,0l0,0l0,0l0,0v-0.1l0,0l0,0v-0.1v-0.1l0,0c0-0.1-0.1-0.1-0.1-0.2l-2.5-2.5c-0.2-0.2-0.5-0.2-0.7,0s-0.2,0.5,0,0.7l1.7,1.7
				h-4.4l-3-3l3-3h4.4l-1.7,1.7c-0.2,0.2-0.2,0.5,0,0.7s0.5,0.2,0.7,0L-975.9,2546L-975.9,2546L-975.9,2546L-975.9,2546L-975.9,2546
				L-975.9,2546L-975.9,2546C-975.9,2546.1-975.9,2546.1-975.9,2546L-975.9,2546C-975.9,2546.1-975.9,2546-975.9,2546z"/>
		</g>
	</g>
</g>
</svg>
