<?xml version="1.0" encoding="utf-8"?>
<!-- Generator: Adobe Illustrator 19.0.1, SVG Export Plug-In . SVG Version: 6.00 Build 0)  -->
<svg version="1.1" id="Capa_1" xmlns="http://www.w3.org/2000/svg" xmlns:xlink="http://www.w3.org/1999/xlink" x="0px" y="0px"
	 viewBox="-290 202.2 209.8 209.8" style="enable-background:new -290 202.2 209.8 209.8;" xml:space="preserve">
<style type="text/css">
	.st0{opacity:0.1;fill:#12110B;}
	.st1{fill:#3F3B39;}
	.st2{fill:#211E1B;}
	.st3{fill:#D5A26B;}
	.st4{fill:#825228;}
	.st5{fill:#BB8048;}
	.st6{fill:#3C3835;}
	.st7{fill:#9A2E28;}
	.st8{fill:#CE494A;}
	.st9{fill:#F9E1E3;}
	.st10{fill:#EE8A8D;}
	.st11{fill:#FFFFFF;}
	.st12{fill:#2B2825;}
	.st13{fill:#F8BC67;}
	.st14{fill:#E15959;}
	.st15{fill:#B2AFAE;}
	.st16{fill:#6A6766;}
	.st17{fill:#928B89;}
	.st18{fill:#D9D7D8;}
	.st19{fill:#F2F2F4;}
	.st20{fill:#838080;}
	.st21{fill:#A8A4A2;}
	.st22{fill:#221F1C;}
	.st23{fill:#97928D;}
	.st24{fill:#33332C;}
	.st25{fill:#605D5C;}
	.st26{fill:#D96027;}
	.st27{fill:#B32E1A;}
	.st28{fill:#C0471F;}
	.st29{fill:#292622;}
	.st30{fill:#C7C3C3;}
	.st31{fill:#DBDADA;}
	.st32{fill:#233153;}
	.st33{fill:#394A83;}
	.st34{fill:#F4B880;}
	.st35{fill:#7F5419;}
	.st36{fill:#3D712E;}
	.st37{fill:#448133;}
	.st38{fill:#5BA148;}
	.st39{fill:#71B65A;}
	.st40{fill:#519240;}
	.st41{fill:#A36D28;}
	.st42{fill:url(#SVGID_1_);}
	.st43{fill:url(#SVGID_2_);}
	.st44{fill:#5089A4;}
	.st45{fill:#D36880;}
	.st46{fill:#77B5DA;}
	.st47{fill:#EC7B8E;}
	.st48{fill:#D2748F;}
	.st49{fill:#F9E1E2;}
	.st50{fill:#F7D2DD;}
	.st51{fill:#F1A9C0;}
	.st52{fill:#B49D45;}
	.st53{fill:#EBEBEB;}
	.st54{fill:#9A9694;}
	.st55{fill:#FFF5E9;}
	.st56{fill:#F39E26;}
	.st57{fill:#E86210;}
	.st58{fill:#807D7B;}
	.st59{fill:#585554;}
	.st60{fill:#65AF2E;}
	.st61{fill:#F6F5F6;}
	.st62{fill:#8E7361;}
	.st63{fill:#458A4C;}
	.st64{fill:#F9E600;}
	.st65{fill:#C04690;}
	.st66{fill:#DEDCDA;}
	.st67{fill:#BCBABA;}
	.st68{fill:#868180;}
</style>
<g>
	<path class="st0" d="M-140.1,386.6c-9.8,5.6-25.8,5.6-35.5,0c-9.8-5.6-9.8-14.9,0.1-20.5c9.8-5.6,25.8-5.6,35.5,0
		C-130.3,371.8-130.3,381-140.1,386.6z"/>
	<path class="st0" d="M-94.8,391.5c-7.1,4.1-18.7,4.1-25.8,0c-7.1-4.1-7.1-10.8,0-14.9c7.1-4.1,18.7-4.1,25.8,0
		C-87.7,380.7-87.7,387.4-94.8,391.5z"/>
	<polygon class="st0" points="-279.9,357.4 -222.7,391.2 -106.5,323.6 -164.9,290 	"/>
	<g>
		<g>
			<polygon class="st1" points="-268.7,315.4 -279.9,357.4 -277.4,358.6 -260.5,320.4 			"/>
			<polygon class="st2" points="-121.3,282.5 -110.1,325.1 -112.6,326.3 -129.5,287.4 			"/>
			<polygon class="st1" points="-229.2,338.1 -225.6,388.8 -223.3,390.1 -223.3,341.5 			"/>
			<polygon class="st2" points="-223.3,390.1 -221.2,388.8 -218.6,339 -223.3,341.5 			"/>
		</g>
		<polygon class="st3" points="-110.1,276.2 -166.7,243.5 -279.9,308.8 -223.3,341.5 		"/>
		<polygon class="st4" points="-110.1,276.2 -110.2,282.1 -223.3,347.4 -223.3,341.5 		"/>
		<polygon class="st5" points="-279.9,314.8 -279.9,308.8 -223.3,341.5 -223.3,347.4 		"/>
	</g>
	<g>
		<g>
			<path class="st6" d="M-248.1,308.4c0.1,0,0.2,0,0.3,0c1-0.1,1.9-0.6,2.4-1.4c0.5-0.8,0.7-1.8,0.4-2.7c-0.9-2.8-5.6-4.7-6.1-4.9
				c-0.6-0.2-1.2,0.1-1.4,0.6c-0.2,0.6,0.1,1.2,0.6,1.4c1.8,0.7,4.4,2.2,4.9,3.5c0.1,0.3,0.1,0.5-0.1,0.8c-0.4,0.6-1.2,0.5-1.4,0.4
				c-0.4-0.3-1-0.3-1.4,0.1c-0.4,0.4-0.5,1.1,0,1.5C-249.6,308.2-248.8,308.4-248.1,308.4z"/>
		</g>
		<path class="st7" d="M-280.4,302.4l10.8-3.2l-1-0.6c-0.7-0.4-1-0.9-0.9-1.4c0.1-0.4,0.2-2.6,0.3-3.9l2.5,1.7
			c1.2-0.7,3.1-0.7,4.3,0l3.6,2.1l7.6,4.4c0,0,0,0,0,0l4,1.2c0,0.8,0,1.4,0,1.8c0,0.5-0.3,0.9-0.9,1.3l-1.9,1.1
			c-1.2,0.7-3.1,0.7-4.3,0l-1-0.6l-10.2,5.9c-1.2,0.7-3.1,0.7-4.3,0l-8.1-4.7c-0.6-0.3-0.9-0.8-0.9-1.2
			C-280.7,305.9-280.6,303.8-280.4,302.4z"/>
		<path class="st8" d="M-279.5,301.1l9.9-5.7l-0.8-0.5c-1.1-0.8-1-2,0.1-2.7l1.9-1.1c1.2-0.7,3-0.6,4.1,0.2l14.2,10.1
			c1.1,0.8,1,2-0.1,2.7l-1.9,1.1c-1.2,0.7-3,0.6-4.1-0.2l-0.8-0.5l-10.6,6.1c-1.2,0.7-3,0.6-4.1-0.3l-8.1-6.3
			C-280.8,303-280.7,301.8-279.5,301.1z"/>
		<polygon class="st9" points="-256.9,304.4 -269.6,295.4 -276.6,299.4 -264.4,308.7 		"/>
		<path class="st10" d="M-278.4,302.8c0.1,0.1,0.3,0.2,0.4,0.1l1.7-1c0.1-0.1,0.2-0.3,0.1-0.4l0,0c-0.1-0.1-0.3-0.2-0.4-0.1l-1.7,1
			C-278.4,302.5-278.5,302.7-278.4,302.8L-278.4,302.8z"/>
		<g>
			<path class="st11" d="M-276.4,304.3c0.1,0.1,0.3,0.2,0.4,0.1l1.7-1c0.1-0.1,0.2-0.3,0.1-0.4l0,0c-0.1-0.1-0.3-0.2-0.4-0.1l-1.7,1
				C-276.4,303.9-276.5,304.1-276.4,304.3L-276.4,304.3z"/>
			<path class="st11" d="M-275.3,305.1c0.1,0.1,0.3,0.2,0.4,0.1l1.7-1c0.1-0.1,0.2-0.3,0.1-0.4l0,0c-0.1-0.1-0.3-0.2-0.4-0.1l-1.7,1
				C-275.3,304.8-275.4,305-275.3,305.1L-275.3,305.1z"/>
			<path class="st11" d="M-274.1,306c0.1,0.1,0.3,0.2,0.4,0.1l1.7-1c0.1-0.1,0.2-0.3,0.1-0.4l0,0c-0.1-0.1-0.3-0.2-0.4-0.1l-1.7,1
				C-274.2,305.7-274.2,305.9-274.1,306L-274.1,306z"/>
			<path class="st11" d="M-273,306.9c0.1,0.1,0.3,0.2,0.4,0.1l1.7-1c0.1-0.1,0.2-0.3,0.1-0.4l0,0c-0.1-0.1-0.3-0.2-0.4-0.1l-1.7,1
				C-273,306.6-273.1,306.8-273,306.9L-273,306.9z"/>
			<path class="st11" d="M-271.9,307.8c0.1,0.1,0.3,0.2,0.4,0.1l1.7-1c0.1-0.1,0.2-0.3,0.1-0.4l0,0c-0.1-0.1-0.3-0.2-0.4-0.1l-1.7,1
				C-271.9,307.5-271.9,307.7-271.9,307.8L-271.9,307.8z"/>
		</g>
		<g>
			<path class="st12" d="M-271.2,302.9c0.1,0.1,0.2,0.1,0.3,0.1l0.5-0.3c0.1-0.1,0.1-0.2,0.1-0.3l0,0c-0.1-0.1-0.2-0.1-0.3-0.1
				l-0.5,0.3C-271.2,302.7-271.2,302.8-271.2,302.9L-271.2,302.9z"/>
			<path class="st12" d="M-270.4,303.5c0.1,0.1,0.2,0.1,0.3,0.1l0.5-0.3c0.1-0.1,0.1-0.2,0.1-0.3l0,0c-0.1-0.1-0.2-0.1-0.3-0.1
				l-0.5,0.3C-270.4,303.3-270.4,303.4-270.4,303.5L-270.4,303.5z"/>
			<path class="st12" d="M-269.6,304.1c0.1,0.1,0.2,0.1,0.3,0.1l0.5-0.3c0.1-0.1,0.1-0.2,0.1-0.3l0,0c-0.1-0.1-0.2-0.1-0.3-0.1
				l-0.5,0.3C-269.6,303.9-269.6,304-269.6,304.1L-269.6,304.1z"/>
			<path class="st12" d="M-268.8,304.7c0.1,0.1,0.2,0.1,0.3,0.1l0.5-0.3c0.1-0.1,0.1-0.2,0.1-0.3l0,0c-0.1-0.1-0.2-0.1-0.3-0.1
				l-0.5,0.3C-268.8,304.5-268.8,304.6-268.8,304.7L-268.8,304.7z"/>
			<path class="st12" d="M-268,305.3c0.1,0.1,0.2,0.1,0.3,0.1l0.5-0.3c0.1-0.1,0.1-0.2,0.1-0.3l0,0c-0.1-0.1-0.2-0.1-0.3-0.1
				l-0.5,0.3C-268,305.1-268,305.2-268,305.3L-268,305.3z"/>
		</g>
		<polygon class="st13" points="-266.8,298.4 -269.6,296.3 -275,299.5 -272.3,301.6 		"/>
		<path class="st11" d="M-267.6,309.6c0.7-0.4,0.7-1,0.1-1.4c-0.6-0.4-1.7-0.5-2.4-0.1c-0.7,0.4-0.7,1-0.1,1.4
			C-269.4,309.9-268.3,309.9-267.6,309.6z"/>
		<g>
			<g>
				<path class="st8" d="M-265.5,300.5c0.3-0.2,0.3-0.4,0-0.6c-0.3-0.2-0.8-0.2-1.1-0.1c-0.3,0.2-0.3,0.4,0,0.6
					C-266.3,300.6-265.8,300.6-265.5,300.5z"/>
				<path class="st8" d="M-267,301.4c0.3-0.2,0.3-0.4,0-0.6c-0.3-0.2-0.8-0.2-1.1-0.1c-0.3,0.2-0.3,0.4,0,0.6
					C-267.9,301.5-267.4,301.6-267,301.4z"/>
				<path class="st8" d="M-268.6,302.3c0.3-0.2,0.3-0.4,0-0.6c-0.3-0.2-0.8-0.2-1.1-0.1c-0.3,0.2-0.3,0.4,0,0.6
					C-269.4,302.4-268.9,302.5-268.6,302.3z"/>
			</g>
			<g>
				<path class="st8" d="M-264,301.5c0.3-0.2,0.3-0.4,0-0.6c-0.3-0.2-0.8-0.2-1.1-0.1c-0.3,0.2-0.3,0.4,0,0.6
					C-264.8,301.6-264.3,301.7-264,301.5z"/>
				<path class="st8" d="M-265.5,302.4c0.3-0.2,0.3-0.4,0-0.6c-0.3-0.2-0.8-0.2-1.1-0.1c-0.3,0.2-0.3,0.4,0,0.6
					C-266.4,302.6-265.9,302.6-265.5,302.4z"/>
				<path class="st8" d="M-267.1,303.4c0.3-0.2,0.3-0.4,0-0.6c-0.3-0.2-0.8-0.2-1.1-0.1c-0.3,0.2-0.3,0.4,0,0.6
					C-267.9,303.5-267.4,303.5-267.1,303.4z"/>
			</g>
			<g>
				<path class="st8" d="M-262.5,302.6c0.3-0.2,0.3-0.4,0-0.6c-0.3-0.2-0.8-0.2-1.1-0.1c-0.3,0.2-0.3,0.4,0,0.6
					C-263.3,302.7-262.8,302.7-262.5,302.6z"/>
				<path class="st8" d="M-264,303.5c0.3-0.2,0.3-0.4,0-0.6c-0.3-0.2-0.8-0.2-1.1-0.1c-0.3,0.2-0.3,0.4,0,0.6
					C-264.9,303.6-264.4,303.6-264,303.5z"/>
				<path class="st8" d="M-265.6,304.4c0.3-0.2,0.3-0.4,0-0.6c-0.3-0.2-0.8-0.2-1.1-0.1c-0.3,0.2-0.3,0.4,0,0.6
					C-266.4,304.5-265.9,304.6-265.6,304.4z"/>
			</g>
			<g>
				<path class="st8" d="M-260.9,303.6c0.3-0.2,0.3-0.4,0-0.6c-0.3-0.2-0.8-0.2-1.1-0.1c-0.3,0.2-0.3,0.4,0,0.6
					C-261.8,303.7-261.3,303.8-260.9,303.6z"/>
				<path class="st8" d="M-262.5,304.5c0.3-0.2,0.3-0.4,0-0.6c-0.3-0.2-0.8-0.2-1.1-0.1c-0.3,0.2-0.3,0.4,0,0.6
					C-263.4,304.6-262.9,304.7-262.5,304.5z"/>
				<path class="st8" d="M-264.1,305.4c0.3-0.2,0.3-0.4,0-0.6c-0.3-0.2-0.8-0.2-1.1-0.1c-0.3,0.2-0.3,0.4,0,0.6
					C-264.9,305.6-264.4,305.6-264.1,305.4z"/>
			</g>
		</g>
		<g>
			<path class="st7" d="M-250.4,300.9c-0.1,1.1-0.1,0.9-0.1,1.4c0,0.5-0.4,1-1.2,1.4c-1.5,0.7-3.8,0.4-5.2-0.6l-10.8-7.8
				c-0.7-0.5-1-1.1-1-1.7c0.1-0.5,0.1-0.6,0.2-1.5c0.2-1.6,4.8-0.2,6.2,0.8L-250.4,300.9z"/>
			<path class="st14" d="M-251.4,299.3c0.1,0.1,0.2,0.2,0.3,0.3c0.5,0.5,0.9,1.2,0.5,1.8c-0.2,0.3-0.6,0.7-1,0.8
				c-1.5,0.7-3.8,0.4-5.2-0.6c-0.7-0.5-1.2-1.2-1.7-1.8c-1.2-1.2-3.9-3.4-5.4-4.3c-1-0.6-2.1-1-3.2-1.5c-0.1-0.1-0.3-0.1-0.4-0.2
				c-1.4-1-1.3-2.3,0.2-2.9c1.8-0.8,3.8-0.2,5.4,0.6c2,1,3.3,1.5,5,2.9c0.6,0.5,3.3,2.7,3.9,3.2
				C-252.5,298.3-251.9,298.8-251.4,299.3z"/>
		</g>
		<g>
			<path class="st6" d="M-249.6,306.8c0.1,0,0.1,0,0.2-0.1c0.1-0.1,0-0.2,0-0.3c0,0-0.8-0.6-0.9-2c0-1.3-0.2-1.5-0.5-1.8
				c0,0,0,0-0.1-0.1c-0.1-0.1-0.2-0.1-0.3,0c-0.1,0.1-0.1,0.2,0,0.3c0,0,0.1,0,0.1,0.1c0.2,0.1,0.3,0.2,0.3,1.4c0,1.6,1,2.3,1,2.3
				C-249.7,306.8-249.7,306.8-249.6,306.8z"/>
		</g>
	</g>
	<g>
		<polygon class="st15" points="-155.2,269.1 -140.3,260.5 -118.7,273 -133.3,281.8 		"/>
		<polygon class="st11" points="-152.8,269.1 -140.3,261.9 -121,273 -133.3,280.4 		"/>
		<polygon class="st16" points="-155.2,269.1 -133.3,281.8 -133.3,282.5 -155.2,269.8 		"/>
		<polygon class="st16" points="-133.3,281.8 -118.7,273 -118.7,273.6 -133.3,282.5 		"/>
		<polygon class="st16" points="-149.4,265.8 -147.1,267 -142.9,264.5 -145.1,263.3 		"/>
	</g>
	<g>
		<g>
			<path class="st17" d="M-175.4,300.7c1.5,0.9,4,0.9,5.5,0.1c0.7-0.4,1.1-0.9,1.1-1.4c0-0.8,0-0.5,0-1.4l-3.9-1.9
				c-1.5-0.9-6.7-1.7-6.7,0c0,0.7,0.1,0.7,0,1.3c-0.1,0.6,0.3,1.2,1.1,1.7L-175.4,300.7z"/>
			<path class="st18" d="M-175.4,299.4c1.5,0.9,4,0.9,5.5,0.1c1.5-0.9,1.4-2.3-0.1-3.2l-2.7-1.6c-1.5-0.9-4-0.9-5.6-0.1
				c-1.5,0.8-1.5,2.2,0,3.1L-175.4,299.4z"/>
		</g>
		<g>
			<polygon class="st19" points="-176.2,305 -187.2,298.7 -209.2,311.4 -198.2,317.7 			"/>
			<polygon class="st16" points="-176.2,305 -198.2,317.7 -198.2,318.9 -176.2,305.8 			"/>
			<polygon class="st20" points="-198.2,317.7 -209.2,311.4 -209.2,312.5 -198.2,318.9 			"/>
			<path class="st21" d="M-178.3,303.8l-0.1-0.1l-0.1,0l-1.6-0.9l0-0.1l0,0l-1.7-1l0,0l0,0l-1.7-1l0,0l0,0l-3.5-2l-22,12.7l11,6.4
				l22-12.7L-178.3,303.8z M-189,305.8l-1.3,0.8l-1.4-0.8l1.3-0.8L-189,305.8z M-190.1,304.8l1.4-0.8l1.4,0.8l-1.4,0.8L-190.1,304.8
				z M-190.6,306.7l-1.3,0.8l-1.4-0.8l1.3-0.8L-190.6,306.7z M-192.2,307.6l-1.3,0.8l-1.4-0.8l1.3-0.8L-192.2,307.6z M-193.8,308.6
				l-1.3,0.8l-1.4-0.8l1.3-0.8L-193.8,308.6z M-195.4,309.5l-1.3,0.8l-1.4-0.8l1.3-0.8L-195.4,309.5z M-197.1,310.5l-1.3,0.8
				l-1.4-0.8l1.3-0.8L-197.1,310.5z M-196.8,310.6l1.4,0.8l-1.3,0.8l-1.4-0.8L-196.8,310.6z M-196.5,310.4l1.3-0.8l1.4,0.8l-1.3,0.8
				L-196.5,310.4z M-194.9,309.5l1.3-0.8l1.4,0.8l-1.3,0.8L-194.9,309.5z M-193.2,308.6l1.3-0.8l1.4,0.8l-1.3,0.8L-193.2,308.6z
				 M-191.6,307.6l1.3-0.8l1.4,0.8l-1.3,0.8L-191.6,307.6z M-190,306.7l1.3-0.8l1.4,0.8l-1.3,0.8L-190,306.7z M-188.4,305.8l1.4-0.8
				l1.4,0.8l-1.4,0.8L-188.4,305.8z M-186.7,304.8l1.3-0.8l1.4,0.8l-1.3,0.8L-186.7,304.8z M-187,304.6l-1.4-0.8l1.3-0.8l1.4,0.8
				L-187,304.6z M-188.8,303.6l-1.4-0.8l1.3-0.8l1.4,0.8L-188.8,303.6z M-189.1,303.8l-1.4,0.8l-1.4-0.8l1.4-0.8L-189.1,303.8z
				 M-190.7,304.8l-1.3,0.8l-1.4-0.8l1.3-0.8L-190.7,304.8z M-192.3,305.7l-1.3,0.8l-1.4-0.8l1.3-0.8L-192.3,305.7z M-193.9,306.6
				l-1.3,0.8l-1.4-0.8l1.3-0.8L-193.9,306.6z M-195.6,307.6l-1.3,0.8l-1.4-0.8l1.3-0.8L-195.6,307.6z M-197.2,308.5l-1.3,0.8
				l-1.4-0.8l1.3-0.8L-197.2,308.5z M-198.8,309.5l-1.3,0.8l-1.4-0.8l1.3-0.8L-198.8,309.5z M-200.4,310.4l-1.3,0.8l-1.4-0.8
				l1.3-0.8L-200.4,310.4z M-200.1,310.6l1.4,0.8l-1.3,0.8l-1.4-0.8L-200.1,310.6z M-200.3,312.3l-1.3,0.8l-1.4-0.8l1.3-0.8
				L-200.3,312.3z M-200,312.5l1.4,0.8l-1.3,0.8l-1.4-0.8L-200,312.5z M-199.7,312.3l1.3-0.8l1.4,0.8l-1.3,0.8L-199.7,312.3z
				 M-196.7,312.6l1.4,0.8l-1.3,0.8l-1.4-0.8L-196.7,312.6z M-196.4,312.4l1.3-0.8l1.4,0.8l-1.3,0.8L-196.4,312.4z M-194.7,311.4
				l1.3-0.8l1.4,0.8l-1.3,0.8L-194.7,311.4z M-193.1,310.5l1.3-0.8l1.4,0.8l-1.3,0.8L-193.1,310.5z M-191.5,309.6l1.3-0.8l1.4,0.8
				l-1.3,0.8L-191.5,309.6z M-189.9,308.6l1.3-0.8l1.4,0.8l-1.3,0.8L-189.9,308.6z M-188.2,307.7l1.3-0.8l1.4,0.8l-1.3,0.8
				L-188.2,307.7z M-186.6,306.8l1.4-0.8l1.4,0.8l-1.4,0.8L-186.6,306.8z M-185,305.8l1.3-0.8l1.4,0.8l-1.3,0.8L-185,305.8z
				 M-183.3,304.9l1.3-0.8l1.4,0.8l-1.3,0.8L-183.3,304.9z M-183.6,304.7l-1.4-0.8l1.3-0.8l1.4,0.8L-183.6,304.7z M-185.4,303.7
				l-1.4-0.8l1.3-0.8l1.4,0.8L-185.4,303.7z M-187.1,302.7l-1.4-0.8l1.3-0.8l1.4,0.8L-187.1,302.7z M-188.9,301.7l-1.2-0.7l1.3-0.8
				l1.2,0.7L-188.9,301.7z M-189.2,301.9l-1.3,0.8l-1.2-0.7l1.3-0.8L-189.2,301.9z M-190.8,302.8l-1.4,0.8l-1.2-0.7l1.4-0.8
				L-190.8,302.8z M-192.5,303.8l-1.3,0.8l-1.2-0.7l1.3-0.8L-192.5,303.8z M-194.1,304.7l-1.3,0.8l-1.2-0.7l1.3-0.8L-194.1,304.7z
				 M-195.7,305.7l-1.3,0.8l-1.2-0.7l1.3-0.8L-195.7,305.7z M-197.3,306.6l-1.3,0.8l-1.2-0.7l1.3-0.8L-197.3,306.6z M-198.9,307.5
				l-1.3,0.8l-1.2-0.7l1.3-0.8L-198.9,307.5z M-200.5,308.5l-1.3,0.8l-1.3-0.7l1.3-0.8L-200.5,308.5z M-202.2,309.4l-1.3,0.8
				l-1.3-0.7l1.3-0.8L-202.2,309.4z M-203.8,310.3l-1.3,0.8l-1.3-0.7l1.3-0.8L-203.8,310.3z M-203.5,310.5l1.4,0.8l-1.3,0.8
				l-1.4-0.8L-203.5,310.5z M-203.7,312.3l-1.4,0.8l-1.4-0.8l1.4-0.8L-203.7,312.3z M-203.4,312.4l1.4,0.8l-1.4,0.8l-1.4-0.8
				L-203.4,312.4z M-201.6,313.4l1.4,0.8l-1.5,0.8l-1.4-0.8L-201.6,313.4z M-199.9,314.4l1.4,0.8l-1.5,0.8l-1.4-0.8L-199.9,314.4z
				 M-199.6,314.3l1.3-0.8l1.4,0.8l-1.3,0.8L-199.6,314.3z M-196.5,314.5l1.4,0.8l-1.3,0.8l-1.4-0.8L-196.5,314.5z M-196.2,314.3
				l1.3-0.8l1.4,0.8l-1.3,0.8L-196.2,314.3z M-194.6,313.4l1.3-0.8l1.4,0.8l-1.3,0.8L-194.6,313.4z M-193,312.4l1.3-0.8l1.4,0.8
				l-1.3,0.8L-193,312.4z M-191.4,311.5l1.3-0.8l1.5,0.8l-1.3,0.8L-191.4,311.5z M-189.8,310.6l1.3-0.8l1.5,0.8l-1.3,0.8
				L-189.8,310.6z M-188.1,309.6l1.3-0.8l1.5,0.8l-1.3,0.8L-188.1,309.6z M-186.5,308.7l1.3-0.8l1.5,0.8l-1.3,0.8L-186.5,308.7z
				 M-184.9,307.8l1.4-0.8l1.5,0.8l-1.4,0.8L-184.9,307.8z M-183.2,306.8l1.3-0.8l1.5,0.8l-1.3,0.8L-183.2,306.8z M-181.6,305.8
				l1.3-0.8l1.5,0.8l-1.3,0.8L-181.6,305.8z M-180,304.9l1.3-0.7l1.4,0.8l-1.2,0.7L-180,304.9z M-180.3,304.7l-1.4-0.8l1.3-0.7
				l1.4,0.8L-180.3,304.7z M-182,303.8l-1.4-0.8l1.3-0.7l1.4,0.8L-182,303.8z M-183.8,302.8l-1.4-0.8l1.3-0.7l1.4,0.8L-183.8,302.8z
				 M-185.5,301.8l-1.4-0.8l1.3-0.7l1.4,0.8L-185.5,301.8z M-185.9,300l-1.3,0.8l-1.2-0.7l1.3-0.8L-185.9,300z M-206.7,310.6
				l1.3,0.7l-1.4,0.8l-1.2-0.7L-206.7,310.6z M-199.6,316.3l1.5-0.8l1.4,0.8l-1.5,0.9L-199.6,316.3z"/>
		</g>
	</g>
	<g>
		<g>
			<g>
				<g>
					<path class="st22" d="M-145.2,364c1-0.6,1.8-0.1,1.8,1c0,1.1-0.8,2.5-1.8,3c-1,0.6-1.8,0.1-1.8-1
						C-147,365.9-146.2,364.5-145.2,364z"/>
					<polygon class="st22" points="-145.7,362.9 -143.6,365.6 -144.8,365.6 -146.8,362.9 					"/>
					<polygon class="st6" points="-154.6,365.3 -146.5,361.8 -145.2,363.5 -154.6,370.1 					"/>
					<path class="st6" d="M-144.5,364.4c1-0.6,1.8-0.1,1.8,1c0,1.1-0.8,2.5-1.8,3c-1,0.6-1.8,0.1-1.8-1
						C-146.3,366.4-145.5,365-144.5,364.4z"/>
				</g>
				<g>
					<path class="st22" d="M-169.3,364c-1-0.6-1.8-0.1-1.8,1c0,1.1,0.8,2.5,1.8,3c1,0.6,1.8,0.1,1.8-1
						C-167.5,365.9-168.3,364.5-169.3,364z"/>
					<polygon class="st22" points="-168.8,362.9 -170.9,365.6 -169.7,365.6 -167.7,362.9 					"/>
					<polygon class="st6" points="-159.9,365.3 -168,361.8 -169.3,363.5 -159.9,370.1 					"/>
					<path class="st6" d="M-170,364.4c-1-0.6-1.8-0.1-1.8,1c0,1.1,0.8,2.5,1.8,3c1,0.6,1.8,0.1,1.8-1
						C-168.3,366.4-169.1,365-170,364.4z"/>
				</g>
				<path class="st23" d="M-159.9,373.3c0,0.9,0.7,1.7,1.7,1.7h1.9c0.9,0,1.7-0.8,1.7-1.7V362c0-0.9-0.7-1.7-1.7-1.7h-1.9
					c-0.9,0-1.7,0.8-1.7,1.7V373.3z"/>
				<path class="st24" d="M-158.4,360.7c0,0.6,0.5,1.1,1.2,1.1l0,0c0.7,0,1.2-0.5,1.2-1.1V342c0-0.6-0.5-1.1-1.2-1.1l0,0
					c-0.7,0-1.2,0.5-1.2,1.1V360.7z"/>
				<g>
					<rect x="-158" y="366.5" class="st25" width="1.4" height="19.4"/>
					<g>
						<rect x="-158.8" y="385.6" class="st22" width="3" height="4.6"/>
						<path class="st6" d="M-159.1,390.8c0,0.6-0.1,1,0.3,1l0,0c0.4,0,0.7-0.5,0.7-1v-5c0-0.6-0.3-1-0.7-1l0,0c-0.4,0-0.3,0.5-0.3,1
							V390.8z"/>
						<path class="st6" d="M-156.5,390.8c0,0.6,0.3,1,0.7,1l0,0c0.4,0,0.3-0.5,0.3-1v-5c0-0.6,0.1-1-0.3-1l0,0c-0.4,0-0.7,0.5-0.7,1
							V390.8z"/>
					</g>
				</g>
				<g>
					<circle class="st22" cx="-135.5" cy="379.4" r="2.7"/>
					<polygon class="st22" points="-135.9,374.6 -134.7,377.5 -135.9,377.5 -137,374.6 					"/>
					<polygon class="st25" points="-154.6,366.5 -136.3,373.6 -135.2,376.2 -154.6,371.5 					"/>
					<circle class="st6" cx="-136.1" cy="379.7" r="2.7"/>
				</g>
				<g>
					<circle class="st22" cx="-178.6" cy="379.2" r="2.5"/>
					<polygon class="st22" points="-178.5,374.7 -179.7,377.6 -178.5,377.6 -177.4,374.7 					"/>
					<circle class="st6" cx="-178.1" cy="379.3" r="2.5"/>
					<polygon class="st25" points="-159.9,366.5 -178.1,373.7 -179.1,376.2 -159.9,371.5 					"/>
				</g>
			</g>
			<polygon class="st26" points="-137.9,335.5 -137.9,341.4 -163.1,356 -163.1,350.1 			"/>
			<g>
				<polygon class="st27" points="-154.2,312 -158.3,324.2 -137.9,335.5 -135.7,318.4 				"/>
				<polygon class="st28" points="-163.1,350.1 -137.9,335.5 -158.3,324.2 -183.6,338.8 				"/>
				<path class="st26" d="M-149.9,310.6c3.4,0.4,12.7,4.7,15,8.9c2.3,4.2,1.2,17.2,0.3,19.2c-0.9,2-3.2,2.7-3.2,2.7v-6
					c0,0,1.1-9.6-1.3-14.3c-2.4-4.7-15-9.1-15-9.1S-153.3,310.2-149.9,310.6z"/>
			</g>
		</g>
		<g>
			<g>
				<g>
					<g>
						<path class="st29" d="M-166,354.2c0,0,0.4,5.2,0,6.8c0,0-3.2,1.2-6,0.5c0,0-4.9,0.6-10.4,0.2c0,0-3-0.3-3.5-2.4
							c-0.5-2.1,2.4-2.2,4.8-2.8c2.5-0.6,5.6-2.2,6-3.5L-166,354.2z"/>
						<path class="st30" d="M-186,359.3c0.5,2.1,3.5,2.4,3.5,2.4c5.5,0.4,10.4-0.2,10.4-0.2c2.9,0.7,6-0.5,6-0.5
							c0.1-0.3,0.1-0.7,0.1-1.2c-3.4,0.7-6.3,0.6-6.3,0.6c-10.1,1.1-13-0.8-13.8-2C-186,358.7-186.1,358.9-186,359.3z"/>
						<path class="st31" d="M-182.7,356.8c-1.6,0.3-3,0.6-3.4,1.6c0.5,0.7,1.7,1.7,4.7,2.1C-181.2,358.3-181.9,357.2-182.7,356.8z"
							/>
						<g>
							<path class="st31" d="M-179.5,357.8c-0.2-0.5-0.5-1.1-0.8-1.5c-0.3,0.1-0.5,0.2-0.8,0.2c0.4,0.6,0.8,1.3,0.8,1.7
								C-180.3,358.2-179.1,359-179.5,357.8z"/>
							<path class="st31" d="M-178.1,357.5c-0.2-0.6-0.5-1.2-0.9-1.7c-0.3,0.1-0.5,0.2-0.8,0.3c0.4,0.6,0.8,1.3,0.8,1.8
								C-178.9,357.8-177.7,358.7-178.1,357.5z"/>
							<path class="st31" d="M-176.5,357c-0.2-0.7-0.6-1.4-1.1-2c-0.2,0.1-0.5,0.2-0.7,0.4c0.5,0.6,0.9,1.5,1,2
								C-177.3,357.4-176.1,358.3-176.5,357z"/>
							<path class="st31" d="M-174.9,356.5c-0.3-0.8-0.8-1.6-1.3-2.2c-0.2,0.1-0.4,0.3-0.6,0.4c0.5,0.7,1.1,1.6,1.1,2.2
								C-175.7,356.8-174.5,357.7-174.9,356.5z"/>
							<path class="st31" d="M-173.2,355.7c-0.4-1.1-1.1-2.1-1.8-2.7l-0.1,0c-0.1,0.2-0.2,0.4-0.3,0.6c0.5,0.6,1.4,1.9,1.4,2.6
								C-174,356-172.8,356.9-173.2,355.7z"/>
						</g>
					</g>
					<path class="st32" d="M-175.2,353.3c0,2.9,9.3,2.9,9.3,0v-28.2c0-2.9-2.1-5.3-4.7-5.3l0,0c-2.6,0-4.7,2.4-4.7,5.3V353.3z"/>
				</g>
				<g>
					<g>
						<path class="st29" d="M-175.6,361c0,0,0.4,5.2,0,6.8c0,0-3.2,1.2-6,0.4c0,0-4.9,0.6-10.4,0.2c0,0-3-0.3-3.5-2.4
							c-0.5-2.1,2.4-2.3,4.8-2.8c2.5-0.6,5.6-2.3,6-3.5L-175.6,361z"/>
						<path class="st30" d="M-195.6,366.1c0.5,2.1,3.5,2.4,3.5,2.4c5.5,0.4,10.4-0.2,10.4-0.2c2.9,0.7,6-0.4,6-0.4
							c0.1-0.3,0.1-0.7,0.1-1.2c-3.4,0.7-6.3,0.6-6.3,0.6c-10.1,1.1-13-0.8-13.8-2C-195.6,365.5-195.6,365.7-195.6,366.1z"/>
						<path class="st31" d="M-192.3,363.6c-1.6,0.3-3,0.6-3.4,1.6c0.5,0.7,1.7,1.7,4.7,2.1C-190.8,365.1-191.5,364.1-192.3,363.6z"
							/>
						<g>
							<path class="st31" d="M-189.1,364.6c-0.2-0.5-0.5-1.1-0.8-1.5c-0.3,0.1-0.5,0.2-0.8,0.2c0.4,0.6,0.8,1.3,0.8,1.7
								C-189.9,365-188.7,365.8-189.1,364.6z"/>
							<path class="st31" d="M-187.6,364.3c-0.2-0.6-0.5-1.2-0.9-1.7c-0.3,0.1-0.5,0.2-0.8,0.3c0.4,0.6,0.8,1.3,0.8,1.8
								C-188.4,364.6-187.2,365.5-187.6,364.3z"/>
							<path class="st31" d="M-186.1,363.9c-0.2-0.7-0.6-1.4-1.1-2c-0.2,0.1-0.5,0.2-0.7,0.4c0.5,0.6,0.9,1.5,1,2
								C-186.9,364.2-185.7,365.1-186.1,363.9z"/>
							<path class="st31" d="M-184.5,363.3c-0.3-0.8-0.8-1.6-1.3-2.2c-0.2,0.1-0.4,0.3-0.6,0.4c0.5,0.7,1.1,1.6,1.1,2.2
								C-185.3,363.6-184.1,364.5-184.5,363.3z"/>
							<path class="st31" d="M-182.8,362.5c-0.4-1.1-1.1-2.1-1.8-2.7l-0.1,0c-0.1,0.2-0.2,0.4-0.3,0.6c0.5,0.6,1.4,1.9,1.4,2.6
								C-183.6,362.8-182.4,363.7-182.8,362.5z"/>
						</g>
					</g>
					<path class="st33" d="M-185,360.4c0,2.9,9.9,2.9,9.9,0v-28.2c0-2.9-2.2-5.2-4.9-5.2l0,0c-2.7,0-4.9,2.4-4.9,5.2V360.4z"/>
				</g>
				<g>
					<path class="st34" d="M-190,312.8l-1.9-0.4c0,0-4.8-2-6.6-1.7c-1.8,0.3-6.5,2.8-3.3,3.3c3.2,0.6,2.1-0.2,4.6,1
						c2.5,1.1,3,1.7,4,1.2l2,0.2L-190,312.8z"/>
					<path class="st34" d="M-176.9,308.1l-1.6-0.3c0,0-2.8,0.5-4.5,0.2c0,0-3.4,0.3-1.2-1c0,0,0.3-0.1,1.5-0.4c0,0-3.5-1.1-5.2-0.3
						c-1.7,0.8-2.1-0.1-1-1.3c1.1-1.3,3-3,6.7-2.4c3.7,0.7,3.6,1.4,4.6,2.1l1.4,0.3L-176.9,308.1z"/>
					<path class="st34" d="M-150.4,293c0,0-0.6-4.6,0.7-8.7c1.3-4.1-0.5-11.6-7.4-12c-7-0.3-10.1,4.2-10.1,6.2
						c-0.1,2,1.5,6.9,1.9,9.3c0.4,2.4,2.2,10.9,7.1,7.1l1.4,2.2L-150.4,293z"/>
					<path class="st35" d="M-155.2,292.2l4.7-1.7c0,0,2.2-6.7,3.5-8.7c0,0,0.1-11.1-10-11.5c-10.1-0.4-15.5,8.4-10,10.4
						c0,0,3.4,3.7,3.7,5.2c0,0-0.2-5.9,2.8-1.1C-157.6,289.5-155.2,292.2-155.2,292.2z"/>
					<g>
						<path class="st36" d="M-173.3,304.9l-3.8-0.8c0,0-1.8,0.9-1.4,4l4.1,1.3C-174.4,309.4-176,306.8-173.3,304.9z"/>
						<g>
							<path class="st37" d="M-166.5,311.5c1.1,1.6,3.4,2.1,5.1,1.1l14.8-6.6c1.7-1,1.8-4.8,0.6-6.4l0,0c-1.1-1.6-3.4-2.1-5.1-1.1
								l-14.5,8.4C-167.2,307.8-167.6,309.9-166.5,311.5L-166.5,311.5z"/>
							<path class="st37" d="M-175,309.3l10.9,3.6c1.9,0.4,3.1-1.3,3.5-3l0,0c0.4-1.7-0.9-3.4-2.7-3.8l-10.6-1.6
								C-175.8,304.1-176.9,308.9-175,309.3z"/>
						</g>
					</g>
					<path class="st32" d="M-174.5,323.5c-1.4,2.6-0.3,5.9,2.3,7.3l23.7,12.2c2.7,1.4,5.9,0.3,7.3-2.3l0,0c1.4-2.6,0.3-5.9-2.3-7.3
						l-23.7-12.2C-169.9,319.8-173.2,320.8-174.5,323.5L-174.5,323.5z"/>
					<path class="st6" d="M-140.3,332c0,0,3.1,8.3-3.7,13.1c-6.8,4.8-7.8,6.8-13.8,4.4v-10.3L-140.3,332z"/>
					<path class="st38" d="M-148.9,293.8c0,0-0.8-1.3-1.4-2c0,0-9.8,3.1-9.5,10.9L-148.9,293.8z"/>
					<path class="st33" d="M-184.4,329.4c-1.4,2.6-0.5,5.9,2.1,7.3L-158,350c2.6,1.4,7.5,0.9,8.6-1.4l0,0c1.4-2.6,1.3-6.6-1.3-8
						l-25.5-14C-178.8,325.1-182.9,326.8-184.4,329.4L-184.4,329.4z"/>
					<path class="st39" d="M-148.9,293.8c0,0,9.2,5.1,8.2,17.9c-1,12.8,1.3,22.9,1.3,22.9s-8.7,12.8-16.8,10.7c0,0-4.4-1.4-5.7-5.3
						l-0.6-26C-162.6,314-164.1,299.6-148.9,293.8z"/>
					<g>
						<path class="st36" d="M-187.3,312.5l-3.8-0.8c0,0-2.7,1.9-1.7,5.2l4,0.9C-188.8,317.8-190,314.4-187.3,312.5z"/>
						<g>
							<path class="st38" d="M-178.7,320.3c1.3,2,3.9,2.6,5.9,1.3l17.8-7.8c2-1.3,2.8-5.6,0.7-9.1l0,0c-1.3-2-3.9-2.6-5.9-1.3
								l-17.2,11C-179.4,315.6-180,318.3-178.7,320.3L-178.7,320.3z"/>
							<path class="st38" d="M-189.2,318.2l12.7,3.9c2.2,0.5,4.3-0.9,4.8-3.1l0,0c0.5-2.2-0.9-4.3-3.1-4.8l-12.6-1.9
								C-189.6,311.7-191.4,317.7-189.2,318.2z"/>
						</g>
					</g>
				</g>
			</g>
			<path class="st40" d="M-158.1,300c0,0,9.6,1.4,11.1,8.1c0,0,2.3,5.3,9.2,0.6c0,0,2-2.7,0-6.1c-2-3.4-11.1-8.9-11.1-8.9
				S-154.4,295.5-158.1,300z"/>
			<path class="st36" d="M-158.1,300c0,0,8.3-2.6,12.9,2.8c0,0,2.9,3.5,5.3,0.8c0,0,0.8-1.5-0.2-3.6c0,0-6.9-5.4-8.7-6.3
				C-148.9,293.8-154.7,295.8-158.1,300z"/>
			<path class="st41" d="M-147,281.7c0,0,0.1-11.1-10-11.5c-10.1-0.4-15.5,8.4-10,10.4C-167,280.6-153.6,285.2-147,281.7z"/>
		</g>
		<g>
			<g>
				<path class="st26" d="M-158.8,322.5c2.3-7.8,23.1-20,32.7-13.8c1.5,0.9-0.4,3.3-0.4,3.3l-25.8,13.9c5.9,3.7-5.6,31.1-5.6,31.1
					l-3.9-1.8C-163.2,332.7-158.8,322.5-158.8,322.5z"/>
				
					<linearGradient id="SVGID_1_" gradientUnits="userSpaceOnUse" x1="-345.4554" y1="312.4463" x2="-347.5798" y2="345.5862" gradientTransform="matrix(-1 0 0 1 -488.2354 0)">
					<stop  offset="0" style="stop-color:#CC4C22"/>
					<stop  offset="1" style="stop-color:#B32E1A"/>
				</linearGradient>
				<path class="st42" d="M-158,357c0,0-1-21.6,4.4-34c5.2-9.9,32.3-19.2,28.3-11.8c-8.7,16.1-6.3,26.8-7.5,29.3
					C-135,345.3-158,357-158,357z"/>
			</g>
			<g>
				
					<linearGradient id="SVGID_2_" gradientUnits="userSpaceOnUse" x1="-310.837" y1="349.1024" x2="-312.4065" y2="330.9225" gradientTransform="matrix(-1 0 0 1 -488.2354 0)">
					<stop  offset="0" style="stop-color:#CC4C22"/>
					<stop  offset="1" style="stop-color:#B32E1A"/>
				</linearGradient>
				<path class="st43" d="M-183.1,328.5c0,0-6.7,11.2-5.9,15.7c0.7,4.5,23.1,13.2,23.1,13.2l1.4-20.7l-9.9-5.9L-183.1,328.5z"/>
				<path class="st26" d="M-177.6,327.6c4.1,0.9,11.6,4.7,13.9,8.9c2.3,4.2,1.4,19,0.5,19.5c-3,1.7-2.8,1.4-2.8,1.4s-0.4-2-0.5-5.2
					c0-3.2,1.1-9.6-1.3-14.3c-2.4-4.7-15.4-9.4-15.4-9.4S-181.7,326.7-177.6,327.6z"/>
			</g>
		</g>
	</g>
	<g>
		<g>
			<path class="st44" d="M-103.1,381.4c0.1,2.4,4.9,2.2,4.8-0.2c0,0,5.1-22.8,0.1-30.8c-2.5-4-8.5-0.3-7.2,3.1
				C-101.9,362.3-103.1,381.4-103.1,381.4z"/>
			<path class="st44" d="M-98.7,351.2c1.5-1.6,2.7-16.7,2.7-16.7c3.2-9.4-1.1-15.6-3.8-16.2l-2.2,0.6c-2.7-0.6-4,2.3-4.5,4.8
				l0.8,27.6C-106.2,353.7-100.2,352.7-98.7,351.2z"/>
			<g>
				<path class="st45" d="M-97.9,381.2c-2.2,2.8-4.1,0.3-4.1,0.3c-0.1-0.4-0.1-0.6-0.2-0.9c-0.2-0.6-0.4-0.9-0.6-1.1
					c-0.8-0.6-1.9,0.7-1.9,0.7c-0.3,1-2.6,2.2-4.4,2.6c-1.8,0.4-4,0.5-3.6,2.1c0.4,1.6,2.6,1.8,2.6,1.8c4.1,0.3,7.7-0.2,7.7-0.2
					c2.1,0.5,4.5-0.3,4.5-0.3C-97.7,385-97.9,381.2-97.9,381.2z"/>
				<path class="st30" d="M-112.7,384.9c0.4,1.6,2.6,1.8,2.6,1.8c4.1,0.3,7.7-0.2,7.7-0.2c2.1,0.5,4.5-0.3,4.5-0.3
					c0-0.2,0.1-0.5,0.1-0.9c-2.5,0.5-4.6,0.4-4.6,0.4c-7.5,0.8-9.6-0.6-10.2-1.5C-112.7,384.4-112.8,384.7-112.7,384.9z"/>
				<path class="st31" d="M-110.3,383.1c-1.2,0.2-2.2,0.5-2.5,1.2c0.4,0.6,1.3,1.3,3.5,1.6C-109.2,384.2-109.7,383.4-110.3,383.1z"
					/>
				<g>
					<path class="st31" d="M-107.9,383.8c-0.1-0.4-0.3-0.8-0.6-1.1c-0.2,0.1-0.4,0.1-0.6,0.2c0.3,0.4,0.6,0.9,0.6,1.3
						C-108.5,384.1-107.6,384.7-107.9,383.8z"/>
					<path class="st31" d="M-106.8,383.6c-0.1-0.4-0.4-0.9-0.7-1.3c-0.2,0.1-0.4,0.2-0.6,0.2c0.3,0.5,0.6,1,0.6,1.3
						C-107.4,383.8-106.5,384.5-106.8,383.6z"/>
					<path class="st31" d="M-105.7,383.3c-0.2-0.5-0.5-1-0.8-1.4c-0.2,0.1-0.3,0.2-0.5,0.3c0.3,0.5,0.7,1.1,0.7,1.5
						C-106.3,383.5-105.4,384.2-105.7,383.3z"/>
					<path class="st31" d="M-104.5,382.8c-0.2-0.6-0.6-1.2-1-1.7c-0.1,0.1-0.3,0.2-0.5,0.3c0.4,0.5,0.8,1.2,0.8,1.6
						C-105.1,383.1-104.2,383.7-104.5,382.8z"/>
					<path class="st31" d="M-103.3,382.2c-0.3-0.8-0.8-1.6-1.3-2l-0.1,0c0,0.1-0.1,0.3-0.2,0.4c0.4,0.5,1,1.4,1,1.9
						C-103.9,382.5-103,383.1-103.3,382.2z"/>
				</g>
			</g>
		</g>
		<g>
			<path class="st46" d="M-114.2,384.3c0.4,2.3,4.7,1.4,4.3-1c0,0-1.2-27.1-5.9-29.2c-2.9-1.3-1.4-4.3-3.4-4l0,0
				c-4.8,0-5.7,4.6-4.6,6.1C-119.6,361.8-114.2,384.3-114.2,384.3z"/>
			<path class="st46" d="M-115.8,354.1c3.1-2.4,11.7-17.5,11.7-17.5c7.5-8.5,4.6-15.7,1.9-16.3l-5.7,1.9c-2.7-0.6-6.2-2.6-6.8-0.1
				l-0.5,7.8l-8.8,23.7C-124.7,356.1-119,356.5-115.8,354.1z"/>
			<g>
				<path class="st47" d="M-109.5,382.6c-2.2,2.8-4.1,0.3-4.1,0.3c-0.1-0.4-0.1-0.6-0.2-0.9c-0.2-0.6-0.4-0.9-0.6-1.1
					c-0.8-0.6-1.9,0.7-1.9,0.7c-0.3,1-2.6,2.2-4.4,2.6c-1.8,0.4-4,0.5-3.6,2.1c0.4,1.6,2.6,1.8,2.6,1.8c4.1,0.3,7.7-0.2,7.7-0.2
					c2.1,0.5,4.5-0.3,4.5-0.3C-109.3,386.4-109.5,382.6-109.5,382.6z"/>
				<path class="st30" d="M-124.3,386.3c0.4,1.6,2.6,1.8,2.6,1.8c4.1,0.3,7.7-0.2,7.7-0.2c2.1,0.5,4.5-0.3,4.5-0.3
					c0-0.2,0.1-0.5,0.1-0.9c-2.5,0.5-4.6,0.4-4.6,0.4c-7.5,0.8-9.6-0.6-10.2-1.5C-124.4,385.8-124.4,386-124.3,386.3z"/>
				<path class="st31" d="M-121.9,384.4c-1.2,0.2-2.2,0.5-2.5,1.2c0.4,0.6,1.3,1.3,3.5,1.6C-120.8,385.6-121.3,384.8-121.9,384.4z"
					/>
				<g>
					<path class="st31" d="M-119.5,385.2c-0.1-0.4-0.3-0.8-0.6-1.1c-0.2,0.1-0.4,0.1-0.6,0.2c0.3,0.4,0.6,0.9,0.6,1.3
						C-120.1,385.5-119.2,386.1-119.5,385.2z"/>
					<path class="st31" d="M-118.4,384.9c-0.1-0.4-0.4-0.9-0.7-1.3c-0.2,0.1-0.4,0.2-0.6,0.2c0.3,0.5,0.6,1,0.6,1.3
						C-119,385.2-118.1,385.8-118.4,384.9z"/>
					<path class="st31" d="M-117.3,384.6c-0.2-0.5-0.5-1-0.8-1.4c-0.2,0.1-0.3,0.2-0.5,0.3c0.3,0.5,0.7,1.1,0.7,1.5
						C-117.9,384.9-117,385.5-117.3,384.6z"/>
					<path class="st31" d="M-116.1,384.2c-0.2-0.6-0.6-1.2-1-1.7c-0.1,0.1-0.3,0.2-0.5,0.3c0.4,0.5,0.8,1.2,0.8,1.6
						C-116.7,384.5-115.8,385.1-116.1,384.2z"/>
					<path class="st31" d="M-114.9,383.6c-0.3-0.8-0.8-1.6-1.3-2l-0.1,0c0,0.1-0.1,0.3-0.2,0.4c0.4,0.5,1,1.4,1,1.9
						C-115.5,383.9-114.6,384.5-114.9,383.6z"/>
				</g>
			</g>
		</g>
		<polygon class="st34" points="-101.2,284.9 -101.7,280 -107.8,283.7 -107.3,287.4 		"/>
		<path class="st48" d="M-99.4,283.2l-0.9-2.5c0,0-7.5,2.7-8.1,8L-99.4,283.2z"/>
		<g>
			<path class="st48" d="M-90.7,302.1l-5.3-15.6c-0.8-1.8-3.5-2.3-5.2-1.3l0,0c-1.7,1-2.4,3.2-1.6,5l6.9,15.2
				C-95,307.1-90.2,305.6-90.7,302.1z"/>
			<g>
				<path class="st34" d="M-98.5,315l-0.6,1.2c0,0-0.2,2.3-0.9,3.5c0,0-0.6,2.8-1.1,0.7c0,0,0-0.2,0-1.3c0,0-1.7,2.5-1.4,4
					c0.2,1.5-0.5,1.6-1.3,0.5c-0.7-1.1-1.7-3.1-0.3-5.8c1.4-2.7,1.9-2.5,2.7-3.1l0.6-1.1L-98.5,315z"/>
				<path class="st49" d="M-99.8,310.8l-1.9,3.4c0,0-0.3,1.5,2.9,2l2.4-3.6C-96.5,312.7-98.8,314-99.8,310.8z"/>
				<path class="st48" d="M-96.7,313.3l5.1-8.4c0.9-1.7,1-2.6,0.1-4.8l0,0c-1.5-0.8-3.5-0.1-4.4,1.6l-4.5,9.7
					C-101.3,313-97.6,315-96.7,313.3z"/>
			</g>
		</g>
		<path class="st50" d="M-99.4,283.2c0,0,9.8,3.8,1.9,21.1c-4.4,9.6,0.8,16,0.8,16s-6.4,7-12.8,4.6c0,0-4.4,0.5-5.2-2.8l2.6-23.6
			C-112.2,298.5-112.2,286.7-99.4,283.2z"/>
		<path class="st51" d="M-118.1,314.2c2.2,0.9,4.1,0.2,5-2l9.3-16.3c0.9-2.2,1.6-5.1-2.1-6.9l0,0c-2.2-0.9-4.7,0.1-5.6,2.2
			l-8.1,18.7C-120.6,312.2-120.3,313.3-118.1,314.2L-118.1,314.2z"/>
		<g>
			<path class="st34" d="M-130.6,308l-1.7-0.2c0,0-4.5-1.5-6.1-1c-1.6,0.5-5.7,3.2-2.7,3.4c2.9,0.2,1.9-0.3,4.2,0.6
				c2.3,0.9,2.8,1.3,3.7,0.8l1.8,0L-130.6,308z"/>
			<path class="st49" d="M-127.8,308l-3.6-0.5c0,0-2.1,1.6-0.9,4.8l3.8,0.5C-128.5,312.8-130.2,310.1-127.8,308z"/>
			<path class="st51" d="M-128.9,313l11.9,2c2.1,0.3,3-0.9,3.3-3.1c0,0-0.3-3.1-2.4-3.4l-11.9-0.8C-130,307.4-130.9,312.7-128.9,313
				z"/>
		</g>
		<path class="st34" d="M-111.9,263.8c0,0-2.5,3.1-1.9,8.5c0.7,5.5,0.5,14.1,6,11.3c5.5-2.8,9.9-3.6,10.3-13.4
			C-97.1,260.4-108.2,259.1-111.9,263.8z"/>
		<path class="st52" d="M-109.2,276c0,0,5.8,15.2,2.7,18.7c0,0,11.7,7.4,12.1-0.6c0,0,4.4-38.3-13.2-33.8
			C-107.6,260.3-123.2,262.3-109.2,276z"/>
	</g>
	<g>
		<g>
			<g>
				<g>
					<g>
						<polygon class="st53" points="-186.8,285 -176.2,278.9 -196.9,267 -207.5,273 						"/>
						<polygon class="st16" points="-176.2,278.9 -176.2,280.3 -186.8,286.4 -186.8,285 						"/>
						<polygon class="st21" points="-186.8,285 -207.5,273 -207.5,274.4 -186.8,286.4 						"/>
					</g>
					<path class="st54" d="M-174.3,222c0.9-0.5,1.8-0.6,2.3-0.2c0.5,0.4,0.6,0.4,1.7,1.1l-0.8,36.3c0,2-1.4,4.5-3.2,5.5l-31.4,18.9
						c-1-0.6-1-0.6-1.5-0.9c-0.6-0.3-1-1-1-2.1l0-35.4c0-2,1.4-4.5,3.2-5.5L-174.3,222z"/>
					<path class="st12" d="M-172.8,222.9c1.8-1,3.2-0.2,3.2,1.8v35.4c0,2-1.4,4.5-3.2,5.5l-30.7,17.7c-1.8,1-3.2,0.2-3.2-1.8v-35.4
						c0-2,1.4-4.5,3.2-5.5L-172.8,222.9z"/>
					<g>
						<path class="st18" d="M-169.6,257.7v2.5c0,2-1.4,4.5-3.2,5.5l-30.7,17.7c-1.8,1-3.2,0.2-3.2-1.8v-2.5L-169.6,257.7z"/>
						<polygon class="st19" points="-171.1,224.5 -171.1,255.9 -204.9,275.5 -204.9,244.2 						"/>
					</g>
				</g>
				<g>
					<g>
						<polygon class="st53" points="-224.1,306.4 -213.5,300.4 -234.3,288.4 -244.8,294.5 						"/>
						<polygon class="st16" points="-213.5,300.4 -213.5,301.8 -224.1,307.9 -224.1,306.4 						"/>
						<polygon class="st21" points="-224.1,306.4 -244.8,294.5 -244.8,295.9 -224.1,307.9 						"/>
					</g>
					<path class="st54" d="M-211.7,243.5c0.9-0.5,1.8-0.6,2.3-0.2c0.5,0.4,0.6,0.4,1.7,1.1l-0.8,36.3c0,2-1.4,4.5-3.2,5.5
						l-31.4,18.9c-1-0.6-1-0.6-1.6-0.9c-0.6-0.3-1-1-1-2.1v-35.4c0-2,1.4-4.5,3.2-5.5L-211.7,243.5z"/>
					<path class="st12" d="M-210.2,244.4c1.8-1,3.2-0.2,3.2,1.8v35.4c0,2-1.4,4.5-3.2,5.5l-30.7,17.7c-1.8,1-3.2,0.2-3.2-1.8v-35.4
						c0-2,1.4-4.5,3.2-5.5L-210.2,244.4z"/>
					<g>
						<path class="st18" d="M-207,279.2v2.5c0,2-1.4,4.5-3.2,5.5l-30.7,17.7c-1.8,1-3.2,0.2-3.2-1.8v-2.5L-207,279.2z"/>
						<polygon class="st55" points="-208.4,246 -208.4,277.4 -242.2,297 -242.2,265.7 						"/>
					</g>
				</g>
			</g>
			<g>
				<polygon class="st56" points="-215.1,262.7 -241.6,278 -241.6,270.2 -215.1,254.9 				"/>
				<polygon class="st57" points="-233.9,285.7 -241.6,290.1 -241.6,279.2 -233.9,274.8 				"/>
				<polygon class="st57" points="-209.1,271.3 -213.4,273.9 -213.4,254 -209.1,251.5 				"/>
				<polygon class="st15" points="-215.1,264.5 -232.7,274.7 -232.7,274.1 -215.1,263.9 				"/>
				<polygon class="st15" points="-215.1,268.5 -232.7,278.6 -232.7,278 -215.1,267.8 				"/>
				<polygon class="st15" points="-215.1,272.4 -232.7,282.6 -232.7,281.9 -215.1,271.8 				"/>
			</g>
		</g>
		<g>
			<polygon class="st57" points="-188.2,250 -182.7,246.8 -182.7,253.2 -188.2,256.4 			"/>
			<polygon class="st6" points="-188.2,250 -193.7,246.8 -193.7,253.2 -188.2,256.4 			"/>
			<polygon class="st56" points="-193.7,246.8 -188.2,243.6 -182.7,246.8 -188.2,250 			"/>
		</g>
		<polygon class="st58" points="-173.8,242.5 -178.4,245.2 -178.4,234.2 -173.8,231.6 		"/>
		<polygon class="st58" points="-173.8,254.2 -178.4,256.8 -178.4,245.9 -173.8,243.2 		"/>
		<polygon class="st59" points="-171,255.9 -173.8,257.5 -173.8,225.7 -171,224.1 		"/>
		<polygon class="st59" points="-202.1,273.9 -204.9,275.5 -204.9,243.7 -202.1,242.1 		"/>
		<polygon class="st58" points="-171,224.1 -205,243.7 -205,247.7 -171,228.1 		"/>
		<polygon class="st58" points="-208.4,245.9 -242.2,265.5 -242.2,269.4 -208.4,249.9 		"/>
		<polygon class="st57" points="-204.3,244.1 -202.2,242.9 -202.2,245.3 -204.3,246.4 		"/>
		<polygon class="st60" points="-241.6,265.9 -239.5,264.7 -239.5,267.1 -241.6,268.2 		"/>
	</g>
	<g>
		<path class="st61" d="M-157.2,267.4c-1.5,0.9-3.9,0.9-5.4,0c-0.7-0.4-1.1-1-1.1-1.5c0-0.6-1.1-9-1.8-13.8
			c-0.2-1.7,11.5-1.7,11.2,0c-0.7,5.2-1.8,13.2-1.8,13.7C-156,266.4-156.4,267-157.2,267.4z"/>
		<path class="st20" d="M-155.9,254.4c-2.2,1.3-5.8,1.3-8,0c-2.2-1.3-2.2-3.3,0-4.6c2.2-1.3,5.8-1.3,8,0
			C-153.7,251.1-153.7,253.1-155.9,254.4z"/>
		<path class="st62" d="M-155.9,256.2c-0.4,0.2-0.8,0.4-1.2,0.5c-1.7,0.5-3.8,0.5-5.5,0c-0.4-0.1-0.9-0.3-1.2-0.5
			c-0.6-0.3-1-0.7-1.2-1.1c0.1,0.9,0.3,1.9,0.4,2.8c0.2,1.3,0.3,2.6,0.5,3.7c0.1,0.1,0.2,0.2,0.4,0.2c2.2,1.3,5.8,1.3,8,0
			c0.1-0.1,0.3-0.2,0.4-0.2c0.1-1.1,0.3-2.4,0.5-3.7c0.1-0.9,0.3-1.9,0.4-2.8C-154.9,255.5-155.3,255.8-155.9,256.2z"/>
		<circle class="st63" cx="-159.9" cy="259.9" r="2.4"/>
	</g>
	<polygon class="st64" points="-241.9,271.4 -249.1,275.6 -249.1,268.9 -241.9,264.7 	"/>
	<polygon class="st65" points="-235.9,305.1 -243.1,309.3 -243.1,302.6 -235.9,298.4 	"/>
	<polygon class="st65" points="-226.8,300.2 -233.9,304.4 -233.9,297.7 -226.8,293.5 	"/>
	<polygon class="st64" points="-203.1,287.7 -210.3,291.9 -210.3,285.3 -203.1,281.1 	"/>
	<polygon class="st64" points="-168.2,266.9 -175.4,271.1 -175.4,264.4 -168.2,260.2 	"/>
	<polygon class="st64" points="-194.6,282.3 -201.8,286.5 -201.8,279.8 -194.6,275.6 	"/>
	<g>
		<polygon class="st66" points="-246.9,317 -232,308.4 -210.4,320.9 -225,329.6 		"/>
		<polygon class="st67" points="-246.9,317 -225,329.6 -225,334.1 -246.9,321.5 		"/>
		<polygon class="st68" points="-225,329.6 -210.4,320.9 -210.4,325.3 -225,334.1 		"/>
		<polygon class="st11" points="-245.7,321.7 -234.1,309 -209.7,314.4 -220.9,327.2 		"/>
	</g>
</g>
</svg>
