<?xml version="1.0" encoding="utf-8"?>
<!-- Generator: Adobe Illustrator 19.0.1, SVG Export Plug-In . SVG Version: 6.00 Build 0)  -->
<svg version="1.1" id="Capa_3" xmlns="http://www.w3.org/2000/svg" xmlns:xlink="http://www.w3.org/1999/xlink" x="0px" y="0px"
	 viewBox="-290 202.2 209.8 209.8" style="enable-background:new -290 202.2 209.8 209.8;" xml:space="preserve">
<style type="text/css">
	.st0{opacity:0.1;fill:#12110B;}
	.st1{fill:#F6BA80;}
	.st2{fill:#1F1C19;}
	.st3{fill:#32302C;}
	.st4{fill:#12110B;}
	.st5{fill:#F8E4E5;}
	.st6{fill:#3B2516;}
	.st7{fill:#2B2825;}
	.st8{fill:#5F3C23;}
	.st9{fill:#55341D;}
	.st10{fill:#1E1D25;}
	.st11{fill:#292622;}
	.st12{fill:#27273D;}
	.st13{fill:#DCDEEC;}
	.st14{fill:#282A3F;}
	.st15{fill:#2E2F48;}
	.st16{fill:#1E1E28;}
	.st17{fill:#34221E;}
	.st18{fill:#363951;}
	.st19{fill:#885318;}
	.st20{fill:#A05F19;}
	.st21{fill:#4B2E18;}
	.st22{fill:#764515;}
	.st23{fill:#C8AD0B;}
</style>
<g>
	<path class="st0" d="M-199.9,385.7c-9,5.2-23.6,5.2-32.6,0c-9-5.2-8.9-13.6,0-18.8c9-5.2,23.7-5.2,32.6,0
		C-190.9,372-191,380.5-199.9,385.7z"/>
	<path class="st0" d="M-135.8,370.8c-9,5.2-23.6,5.2-32.6,0c-9-5.2-8.9-13.6,0-18.8c9-5.2,23.7-5.2,32.6,0
		C-126.9,357.2-126.9,365.6-135.8,370.8z"/>
	<g>
		<g>
			<path class="st1" d="M-197.7,254.8l1-0.9c0,0,0-1.7,0.4-2.8c0.5-1.1,0.9-2.3,1.6-1.7c0.7,0.6,0.2,1.7,0.2,1.7s2.1-1,2.7-2.3
				c0.6-1.2,1.3-3.4,2.6-1.6c1.4,1.8,1.6,3.4-0.2,5.4c-1.8,2-3.8,3.8-5.1,3.7l-1.5,1L-197.7,254.8z"/>
			<path class="st2" d="M-226.8,338.2c0,0-3.4-29.3-1.4-34.5c2-5.2,12.1-4.7,12-1.7l-0.6,36.2C-216.8,341.3-226.8,341.3-226.8,338.2
				z"/>
			<g>
				<path class="st1" d="M-223.8,255.7c0,0-0.7-4.7-3.1-8.3c-2.4-3.7-2.8-11.5,3.9-13.8c6.7-2.3,11,1.3,11.6,3.2
					c0.6,1.9,0.5,7.2,0.8,9.7c0.3,2.5,0.8,11.3-5,9l-0.8,6.7L-223.8,255.7z"/>
				<path class="st3" d="M-219.4,253.5l-5-0.4c0,0-4.1-6-5.9-7.5c0,0-3.2-10.8,6.5-14c9.7-3.2,17.5,3.8,12.7,7.3
					c0,0-2.2,5.9-2.2,7.5l-0.6,0c-0.2-2.2-1.7-5.3-2.8-1.4c-0.1,0.4,0.7,2.3,0.6,2.7C-217.4,252.5-219.4,253.5-219.4,253.5z"/>
			</g>
			<path class="st4" d="M-227.3,367.6c0,0-0.4,5.3,0,6.9c0,0,3.2,1.2,6.1,0.5v-1.5c0,0,5,2.2,10.6,1.8c0,0,3.1-0.3,3.6-2.5
				c0.5-2.2-2.4-2.3-4.9-2.9c-2.5-0.6-5.7-2.3-6.1-3.6L-227.3,367.6z"/>
			<path class="st2" d="M-217.5,375c0,0-0.4,5.3,0,6.9c0,0,3.2,1.2,6.1,0.5v-1.5c0,0,5,2.2,10.6,1.8c0,0,3.1-0.3,3.6-2.5
				c0.5-2.2-2.4-2.3-4.9-2.9c-2.5-0.6-5.7-2.3-6.1-3.6L-217.5,375z"/>
			<path class="st2" d="M-218,366.8c0,3-9.5,3-9.5,0c0,0-4.3-20.9,0.7-28.6c2.9-4.5,10.7-5.7,10-0.6
				C-217.5,342.7-218,366.8-218,366.8z"/>
			<g>
				<path class="st5" d="M-200.6,255.7l3.3-2.2c0,0,2,0.2,2.8,3.3l-3.4,2.7C-197.9,259.5-197.3,256.5-200.6,255.7z"/>
				<g>
					<path class="st6" d="M-204.6,264.5c-0.5,1.9-2.5,3.2-4.4,2.9l-16.5-0.7c-1.9-0.3-3.4-3.9-3-5.8l0,0c0.5-1.9,2.5-3.2,4.4-2.9
						l16.8,2.5C-205.3,260.8-204.1,262.6-204.6,264.5L-204.6,264.5z"/>
					<path class="st6" d="M-197.3,259.3l-9,7.5c-1.6,1.1-3.5-0.1-4.4-1.6l0,0c-1-1.5-0.4-3.5,1.2-4.6l9.4-5.5
						C-198.5,254-195.7,258.2-197.3,259.3z"/>
				</g>
			</g>
			<path class="st7" d="M-206.9,374.1c0,3-11.1,2.9-11.1,0c0,0-5-26.9,0-32.9c3.9-4.6,12-2,11.8-1
				C-209.3,351.7-206.9,374.1-206.9,374.1z"/>
			<path class="st7" d="M-206.2,302c0-0.3-0.2-0.6-0.6-0.8l0-0.2l-22.3-2.5c0,0-2.8,10,4.5,14.4l0.7,0.4c0.7,7.5,5.9,28.3,5.9,28.3
				c-0.7,2.9,11.7,1.4,11.8-1.6V302z"/>
			<path class="st5" d="M-225.3,256.9c0,0,0.7-1.4,1.2-2.2c0,0,10.2,1.9,11,9.8L-225.3,256.9z"/>
			<path class="st8" d="M-225.3,256.9c0,0-8.7,6.3-6,19.1c2.7,12.8,1.7,23.3,1.7,23.3s10.4,11.8,18.4,8.7c0,0,4.9,0.2,5.8-3.9
				l-3.5-28.5C-208.9,275.7-209.2,260.9-225.3,256.9z"/>
			<path class="st1" d="M-186.7,288l1.5,0.2c0,0,2.6-1.3,5-1c0.2,0,0,0.8,0,1.2c0,0,1.4,2.2,3.2,0.5c0.6-0.6,2.2-1.4,1.4,0.8
				c-0.5,1.2-2.7,3.5-4.1,3.6c-3.3,0.2-5.4-0.2-6.3-1.4l-2-0.6L-186.7,288z"/>
			<g>
				<path class="st5" d="M-189.4,286.2l3.9,1c0,0,1.6,3-0.8,5.5l-4-1C-190.4,291.7-187.8,289.1-189.4,286.2z"/>
				<g>
					<path class="st9" d="M-200.7,289.4c-2.1,1.2-4.7,0.6-6-1.5l-12.7-15.2c-1.2-2.1,0-6.4,3.5-8.6l0,0c2.1-1.2,4.7-0.6,6,1.5
						l10.7,17.8C-198,285.5-198.7,288.1-200.7,289.4L-200.7,289.4z"/>
					<path class="st9" d="M-190.2,292.2l-13.3-2.2c-2.2-0.6-3.6-2.8-3-5l0,0c0.6-2.2,2.8-3.5,5-3l12.4,3.9
						C-186.9,286.5-188,292.7-190.2,292.2z"/>
				</g>
			</g>
			<path class="st3" d="M-210.7,252.6c0,0-1.3,0.8-1.9-0.9c-0.6-1.7-0.5-3.1-0.5-3.1l-0.8,0c0,0-0.1,6.5-1.4,7
				C-215.3,255.6-211.5,257.5-210.7,252.6z"/>
		</g>
		<g>
			<path class="st2" d="M-160.8,352.1c0,0-3.3,4.9-6.1,6c-2.8,1.1-3.4,4.2,1,3.8c4.4-0.4,6.3-0.6,9-3.3v0.9l3.8-1.8l-0.3-5.5
				l-4.2-2.9L-160.8,352.1z"/>
			<path class="st10" d="M-152.2,323.6l10.5-30.1c0-2.2-18.8-3.8-18.8-1.6l-2,31.8C-162.5,325.9-152.2,325.8-152.2,323.6z"/>
			<path class="st10" d="M-162,351.4c0,2.2,9.9,2.1,9.9-0.1c0,0,4.1-16.8-0.1-27.7c-1.8-4.8-11-2.4-10.3,0.1
				C-160,332.4-162,351.4-162,351.4z"/>
			<path class="st11" d="M-141.9,359.8c0,0-2.5,4.3-5.3,5.3c-2.8,1.1-3.4,4.2,1,3.8c4.4-0.4,6.1-1,8.8-3.7v0.9l3.8-1.8l-0.3-5.5
				l-4.8-2.1L-141.9,359.8z"/>
			<g>
				<path class="st1" d="M-176.1,283.9l-1.4,0.7c0,0-2.5,0.9-3.3,1.8c-0.8,0.8-1.8,2.4-2,4.2c-0.2,1.8,0.8,2.6,1,2.7
					c0.2,0.1,1.6,0.8,2.6-0.2c1-1,0.4-2.1,1.2-3c0.9-0.9,2.3-1.2,2.9-2.7l1-0.9L-176.1,283.9z"/>
				<g>
					<path class="st12" d="M-164.7,275.2c0.5,0.7,0.5,2,2.5,2.4l0,0c2,0.5,4-0.7,4.4-2.7l6-16c0.5-2,4.2-5.8,0.2-6.8l-0.6-0.6
						c-2-0.5-3.9-1.2-9.2,12.4L-164.7,275.2z"/>
					<g>
						<path class="st13" d="M-174,281.7l-3.4,2.2c0,0,0.2,3.1,2.4,3.6l3.3-2.1C-171.6,285.4-173.9,283.6-174,281.7z"/>
						<path class="st12" d="M-171.4,285.8l10.8-5.9c1.6-1.2,2-3.4,0.8-5l0,0c-1.2-1.6-3.4-2-5-0.9l-9.5,7.4
							C-175.9,282.6-173.1,286.9-171.4,285.8z"/>
					</g>
				</g>
			</g>
			<path class="st14" d="M-137.5,328.2l1.5-35.1c-0.3-2.2-19.4-1-19.1,1.2l7,33C-147.8,329.5-137.2,330.4-137.5,328.2z"/>
			<path class="st14" d="M-143.4,359.9c0.5,2.2,10,2.1,9.6-1.2c-1.2-6.1,1.7-22.2-3.7-30.6c-4.9-7.5-11.8-6.5-10.8-1.8
				C-143.3,338.7-143.4,359.9-143.4,359.9z"/>
			<path class="st15" d="M-134.4,298.6c0,0-1.9-9.8-1.2-21.9c0.4-7.6,2.5-18.2,2.8-21.5c0,0-5.8-1.9-11.7-6.3
				c-3.5-2.6-12,2.6-13.8,9.9c-1.8,7.3-1.4,30-4.2,38.2C-162.5,296.9-152.9,298.6-134.4,298.6z"/>
			<path class="st1" d="M-143.3,251.5l1.5-6.9l-2-3.2l-5.4,3.5l-2.1,9.1l1.3,5.7C-150.1,259.8-144.9,256.8-143.3,251.5z"/>
			<g>
				<path class="st13" d="M-143,250c0,0-2.7,6.8-6.9,7.2c0,0-1.2-4.6,0.6-8.3l-0.8,0.4c0,0-6.6,10.3-4.2,21.3
					c0,0,12.3-14.7,12.5-19.8L-143,250z"/>
				<polygon class="st16" points="-149.8,257.6 -149.2,260.1 -150.5,261.2 -151.4,267.3 -154.4,271.1 -155.1,266.5 -151.7,260.7 
					-151.9,259 				"/>
				<path class="st12" d="M-139.1,252.5c0,0-6,14.2-15.8,21.6c0,0-4.3-13.4,0.8-21.2c0,0,1.8-2.7,3.9-3.6c0,0-6.4,10.7-4.2,21.3
					c0,0,11.4-13.9,12.6-20C-141.7,250.6-139.6,251.8-139.1,252.5z"/>
			</g>
			<path class="st1" d="M-157.4,234.1c0,0-0.2,4.8,0,7.4c0.2,2.7-0.3,12,5.6,10.8c0,0,4.8-0.9,5.6-6.5l4-2.3c0,0,2.7-9.7-2-12.2
				C-149,228.8-153.7,228.1-157.4,234.1z"/>
			<path class="st17" d="M-146.2,245.9c0,0,4.4-3,1.9-6c0,0-1.8-0.9-2.8,1.8l-0.1,0.8l-0.6-0.1c0,0,0-3.1-0.9-4.4
				c-0.9-1.3-6.4-0.2-8.7-3.1c-2.4-2.9,3-9.2,9.7-8.1c4.4,0.7,9.9,3.2,8.5,11.3c0,0.1-2.9,8.2-2.9,8.2L-146.2,245.9z"/>
			<path class="st18" d="M-134.7,279.7c0.4,2.2,2.4,3.7,4.6,3.3l0.3-0.1c2.2-0.4,3-2.3,2.6-4.5l-3-16.1c1-3.7-0.9-8.3-4.9-7.1
				l-0.3,0.1c-2.2,0.4-5.4,5.5-4.9,8.6L-134.7,279.7z"/>
			<g>
				<g>
					<polygon class="st19" points="-127,300.2 -127,317.2 -149.1,330 -149.1,313 					"/>
					<polygon class="st20" points="-127,300.2 -132.5,297 -154.6,309.8 -149.1,313 					"/>
					<polygon class="st21" points="-154.6,309.8 -154.6,326.8 -149.1,330 -149.1,313 					"/>
					<polygon class="st22" points="-127,300.2 -127,308.7 -149.1,321.5 -149.1,313 					"/>
					<polygon class="st23" points="-130.2,308.9 -130.2,312.3 -132,313.3 -132,310 					"/>
					<polygon class="st23" points="-144.1,316.9 -144.1,320.2 -145.8,321.3 -145.8,318 					"/>
					<g>
						<polygon class="st23" points="-135.1,303.2 -138,301.6 -139.5,302.4 -136.6,304.1 						"/>
						<polygon class="st23" points="-142.5,307.5 -145.4,305.8 -146.8,306.7 -144,308.3 						"/>
						<g>
							<path class="st21" d="M-145.7,307.1l1,0.6l1-0.6v-2.4c0-1.2,0.9-2.9,2-3.5l2.3-1.3c0.4-0.2,0.6-0.2,0.8-0.2
								c0.1,0.1,0.2,0.3,0.2,0.7v2.4l1,0.6l1-0.6v-2.4c0-1.2-0.5-2.1-1.3-2.5c-0.8-0.5-1.8-0.4-2.8,0.2l-2.3,1.3
								c-1.7,1-3.1,3.3-3.1,5.3V307.1z"/>
						</g>
					</g>
				</g>
				<g>
					<path class="st1" d="M-138,295.1l-0.7,1.4c0,0-2.2,0.2-3.8,1.4c-1.6,1.3-2.4,0.8-1.6,1.8c0,0,0.8,0.7,2.5-0.2
						c0,0-0.5,0.9-1.5,2.3c0,0-0.6,1.1,1.3,1c2-0.2,4.3,1.2,5.3-1.2c1-2.4,0.9-1.8,0.9-3.8l0.1-1.9L-138,295.1z"/>
					<g>
						<path class="st13" d="M-133.4,294.5l-0.9,3.1c0,0-4,1.1-5.3-2.3l1.4-3.3C-138.2,291.9-135.6,295.1-133.4,294.5z"/>
						<path class="st18" d="M-138.6,291.9l3.8-13.7c0.7-1.9,2.8-2.9,4.7-2.2l0,0c1.9,0.7,3.9,4.2,2,7l-4.9,11.9
							C-133.8,296.8-139.3,293.8-138.6,291.9z"/>
					</g>
				</g>
			</g>
		</g>
	</g>
</g>
</svg>
