<?xml version="1.0" encoding="utf-8"?>
<!-- Generator: Adobe Illustrator 19.0.1, SVG Export Plug-In . SVG Version: 6.00 Build 0)  -->
<svg version="1.1" id="_x32_" xmlns="http://www.w3.org/2000/svg" xmlns:xlink="http://www.w3.org/1999/xlink" x="0px" y="0px"
	 viewBox="-1058 2482.4 150 140" style="enable-background:new -1058 2482.4 150 140;" xml:space="preserve">
<style type="text/css">
	.st0{fill:#E95A17;}
	.st1{fill:#EAF0F1;}
	.st2{fill:#FFFFFF;}
	.st3{fill:#444444;}
</style>
<g>
	<g>
		<circle class="st0" cx="-983.1" cy="2604" r="4.2"/>
		<circle class="st0" cx="-976" cy="2596.9" r="3.1"/>
		<circle class="st0" cx="-970.7" cy="2591.6" r="1.9"/>
		<circle class="st0" cx="-990.2" cy="2596.9" r="3.1"/>
		<circle class="st0" cx="-995.5" cy="2591.6" r="1.9"/>
	</g>
	<g>
		<circle class="st1" cx="-983" cy="2536.7" r="40.2"/>
		<circle class="st2" cx="-983" cy="2536.7" r="37.5"/>
		<circle class="st0" cx="-983" cy="2536.7" r="30.9"/>
		<circle class="st1" cx="-983" cy="2536.7" r="27.6"/>
		<circle class="st2" cx="-983" cy="2536.7" r="25.8"/>
		<g>
			<path class="st3" d="M-972.7,2542.4L-972.7,2542.4C-972.7,2542.4-972.7,2542.3-972.7,2542.4c0-0.1,0-0.1,0-0.1s0,0,0-0.1l0,0
				v-9.9v-0.1l0,0c0,0,0,0,0-0.1l0,0c0,0,0,0,0-0.1l0,0l0,0l0,0l-9.9-7.7c-0.2-0.1-0.4-0.1-0.6,0l-10,7.6l0,0l0,0l0,0c0,0,0,0,0,0.1
				l0,0c0,0,0,0,0,0.1l0,0v0.1v9.9l0,0c0,0,0,0,0,0.1l0,0l0,0l0,0l0,0l0,0l0,0l0,0l0,0l9.9,7.7l0,0c0,0,0.1,0,0.1,0.1l0,0h0.1l0,0
				h0.1l0,0c0,0,0.1,0,0.1-0.1l0,0l9.9-7.7l0,0l0,0C-972.8,2542.5-972.8,2542.5-972.7,2542.4
				C-972.7,2542.5-972.7,2542.5-972.7,2542.4L-972.7,2542.4z M-992.4,2533.3l8.9,6.9v8.7l-8.9-6.9V2533.3z M-982.5,2540.2l8.9-6.9
				v8.7l-8.9,6.9V2540.2z M-983,2525.2l9.1,7.1l-9.1,7.1l-9.1-7.1L-983,2525.2z"/>
			<path class="st3" d="M-974.8,2540.5c-0.3,0-0.5,0.2-0.5,0.5c0,0.3,0.2,0.5,0.5,0.5s0.5-0.2,0.5-0.5
				C-974.3,2540.7-974.5,2540.5-974.8,2540.5z M-976.4,2539.2c-0.3,0-0.5,0.2-0.5,0.5c0,0.3,0.2,0.5,0.5,0.5c0.3,0,0.5-0.2,0.5-0.5
				C-975.9,2539.4-976.2,2539.2-976.4,2539.2z M-978.1,2537.9c-0.3,0-0.5,0.2-0.5,0.5s0.2,0.5,0.5,0.5c0.3,0,0.5-0.2,0.5-0.5
				S-977.8,2537.9-978.1,2537.9z M-991.2,2540.5c-0.3,0-0.5,0.2-0.5,0.5c0,0.3,0.2,0.5,0.5,0.5s0.5-0.2,0.5-0.5
				C-990.8,2540.7-991,2540.5-991.2,2540.5z M-989.6,2539.2c-0.3,0-0.5,0.2-0.5,0.5c0,0.3,0.2,0.5,0.5,0.5c0.3,0,0.5-0.2,0.5-0.5
				C-989.1,2539.4-989.3,2539.2-989.6,2539.2z M-988,2537.9c-0.3,0-0.5,0.2-0.5,0.5s0.2,0.5,0.5,0.5s0.5-0.2,0.5-0.5
				S-987.7,2537.9-988,2537.9z M-983,2526.1c-0.3,0-0.5,0.2-0.5,0.5s0.2,0.5,0.5,0.5s0.5-0.2,0.5-0.5S-982.7,2526.1-983,2526.1z
				 M-983,2528.1c-0.3,0-0.5,0.2-0.5,0.5s0.2,0.5,0.5,0.5s0.5-0.2,0.5-0.5S-982.7,2528.1-983,2528.1z M-983,2530
				c-0.3,0-0.5,0.2-0.5,0.5c0,0.3,0.2,0.5,0.5,0.5s0.5-0.2,0.5-0.5C-982.5,2530.2-982.7,2530-983,2530z M-983,2532
				c-0.3,0-0.5,0.2-0.5,0.5c0,0.3,0.2,0.5,0.5,0.5s0.5-0.2,0.5-0.5C-982.5,2532.2-982.7,2532-983,2532z"/>
			<path class="st3" d="M-983,2517.3c-0.3,0-0.5,0.2-0.5,0.5v4.8c0,0.3,0.2,0.5,0.5,0.5s0.5-0.2,0.5-0.5v-4.8
				C-982.5,2517.5-982.7,2517.3-983,2517.3z M-983,2551.7c-0.3,0-0.5,0.2-0.5,0.5v4.8c0,0.3,0.2,0.5,0.5,0.5s0.5-0.2,0.5-0.5v-4.8
				C-982.5,2552-982.7,2551.7-983,2551.7z M-994.9,2543.2L-994.9,2543.2l-5,3.9l0,0c-0.2,0.2-0.2,0.5-0.1,0.7
				c0.2,0.2,0.5,0.2,0.7,0.1l5-3.9c0.2-0.2,0.2-0.5,0.1-0.7C-994.4,2543.1-994.7,2543-994.9,2543.2z M-966.2,2547.1l-5-3.9
				c-0.2-0.2-0.5-0.1-0.7,0.1c-0.2,0.2-0.1,0.5,0.1,0.7l5,3.9c0.2,0.2,0.5,0.1,0.7-0.1C-966,2547.5-966,2547.2-966.2,2547.1z
				 M-994.4,2530.9l-5-3.9c-0.2-0.2-0.5-0.1-0.7,0.1c-0.2,0.2-0.1,0.5,0.1,0.7l5,3.9c0.2,0.2,0.5,0.1,0.7-0.1
				C-994.1,2531.3-994.2,2531-994.4,2530.9z M-971.2,2531.6l5-3.9c0.2-0.2,0.2-0.5,0.1-0.7c-0.2-0.2-0.5-0.2-0.7-0.1l-5,3.9
				c-0.2,0.2-0.2,0.5-0.1,0.7C-971.7,2531.7-971.4,2531.8-971.2,2531.6z"/>
		</g>
	</g>
</g>
</svg>
