<?xml version="1.0" encoding="utf-8"?>
<!-- Generator: Adobe Illustrator 19.0.1, SVG Export Plug-In . SVG Version: 6.00 Build 0)  -->
<svg version="1.1" id="Capa_1" xmlns="http://www.w3.org/2000/svg" xmlns:xlink="http://www.w3.org/1999/xlink" x="0px" y="0px"
	 viewBox="-23 -14 80 80" style="enable-background:new -23 -14 80 80;" xml:space="preserve">
<style type="text/css">
	.st0{fill-rule:evenodd;clip-rule:evenodd;fill:#BCD85F;}
	.st1{fill-rule:evenodd;clip-rule:evenodd;fill:#4BA2AF;}
	.st2{fill-rule:evenodd;clip-rule:evenodd;fill:#265677;}
</style>
<g>
	<circle class="st0" cx="27.2" cy="30.2" r="21.8"/>
	<ellipse class="st1" cx="12.7" cy="56.3" rx="26.4" ry="2.3"/>
	<path class="st2" d="M25.5-1.6c5,0,9,4,9,9c0,5-4,9-9,9c-5,0-9-4-9-9C16.4,2.4,20.5-1.6,25.5-1.6L25.5-1.6z M28.8,44.3v5.5
		c2.6,0.1,5.2,0.3,7.8,0.6c0,0.8,0,1.2,0,2c-6.5,0-12.9,0-19.4,0c0-0.8,0-1.2,0-2c2.2-0.3,4.4-0.5,6.7-0.6v-5.6L28.8,44.3L28.8,44.3
		z M9.6,25c-0.1-0.2,0-0.5,0.3-0.6c0.2-0.1,0.5,0,0.6,0.3l6.3,17h28.6c0.3,0,0.5,0.2,0.5,0.5c0,0.3-0.2,0.5-0.5,0.5H16.5v0
		c-0.2,0-0.4-0.1-0.4-0.3L9.6,25L9.6,25z M17.9,33.1l-1.1,1.7l1.5,4c0.8,0.5,2.2,1.2,2.9,1.6H29c0.3-0.5,0.9-1.4,1.1-1.8l-1.4-3.7
		l-2.7-1.8v0H17.9L17.9,33.1z M15.3,25.2l-1.3,2l1.4,3.7c1,0.5,2.7,1.5,2.9,1.7h7.9l1.1-1.8l-1.4-3.6c-0.9-0.5-2.8-1.8-2.8-1.8
		l0.1,0H15.3L15.3,25.2z M27.6,25.3c-0.3,0.5-0.6,1.3-0.9,1.7l1.5,3.9l2.6,1.7h8l1.2-1.7l-1.4-3.7c-0.6-0.5-1.9-1.4-2.6-1.9H27.6
		L27.6,25.3z M30.9,33.2l-1.2,1.9l1.4,3.7l2.7,1.7h7.4l1.6-2.1l-1.3-3.5L39,33.2H30.9L30.9,33.2z M9.6,23.5l-0.9,2.6l6.7,18.3
		l30.1,0l1.3-2.2l-6.9-18.6H9.6L9.6,23.5z M-1.7,23.8l-6.7,7.1L-15,38l0.9,2.2h3v11.4v0.9h0.9H8.7h0.9v-0.9V40.2h1.6l-2.8-7.6
		l-1.6-1.7l-6.7-7.1l-0.9-1L-1.7,23.8L-1.7,23.8z M-9.2,25.2h-0.9v-1.8h5v1.8h-0.9V27l-2.4,2.6l-0.8,0.9V25.2L-9.2,25.2z M18.4-4.7
		L19-1.1l2.4-1.4L18.4-4.7L18.4-4.7z M13.3,0.4l2.3,2.9L17,0.9L13.3,0.4L13.3,0.4z M11.5,7.4L14.9,6v2.8L11.5,7.4L11.5,7.4z
		 M13.4,14.4l3.6-0.6l-1.4-2.4L13.4,14.4L13.4,14.4z M18.5,19.5l2.9-2.3L19,15.8L18.5,19.5L18.5,19.5z M25.5,21.4L24,17.9h2.8
		L25.5,21.4L25.5,21.4z M32.5,19.5l-0.6-3.6l-2.4,1.4L32.5,19.5L32.5,19.5z M37.6,14.3l-2.3-2.9l-1.4,2.4L37.6,14.3L37.6,14.3z
		 M39.4,7.4L36,8.8V6L39.4,7.4L39.4,7.4z M37.5,0.4l-3.6,0.6l1.4,2.4L37.5,0.4L37.5,0.4z M32.4-4.7l-2.9,2.3L32-1.1L32.4-4.7
		L32.4-4.7z M25.4-6.6l1.4,3.4h-2.8L25.4-6.6z"/>
</g>
</svg>
