<?xml version="1.0" encoding="utf-8"?>
<!-- Generator: Adobe Illustrator 19.0.1, SVG Export Plug-In . SVG Version: 6.00 Build 0)  -->
<svg version="1.1" id="Capa_1" xmlns="http://www.w3.org/2000/svg" xmlns:xlink="http://www.w3.org/1999/xlink" x="0px" y="0px"
	 viewBox="-23 -14 80 80" style="enable-background:new -23 -14 80 80;" xml:space="preserve">
<style type="text/css">
	.st0{fill-rule:evenodd;clip-rule:evenodd;fill:#BCD85F;}
	.st1{fill-rule:evenodd;clip-rule:evenodd;fill:#4BA2AF;}
	.st2{fill-rule:evenodd;clip-rule:evenodd;fill:#265677;}
</style>
<g>
	<circle class="st0" cx="29.3" cy="14.4" r="21.7"/>
	<ellipse class="st1" cx="13.5" cy="57" rx="26.3" ry="2.3"/>
	<path class="st2" d="M-16,55.7V36.6c1.1-0.5,2.1-1,3.1-1.5v-2.3c-2.4-0.9-4.2-3.8-4.2-7.2c0-4.2,2.6-7.6,5.8-7.6
		c1.2,0,2.3,0.5,3.3,1.3c1-2.3,2.9-3.9,5.1-3.9c1.2,0,2.3,0.4,3.2,1.2c1-1.2,2.4-1.9,3.8-1.9c3.2,0,5.8,3.4,5.8,7.6
		c0,3.4-1.7,6.3-4.1,7.2v2.1c5.1,0.4,10,1.8,14.7,3.9c3.8-1.5,7.9-2.2,12.4-2.1c3.7-2.5,8.6-3.6,14.3-3.2L47.2,56c0,0-19.2,0-21.7,0
		c-1.1-6.3-0.4-11.7,1.7-15.9c-3.9,4.5-5.7,9.7-5.3,15.9c0,0-15.2,0-17.6,0c2.6-10.3,8.2-16.8,15.5-20.1C8.8,34.4-10.7,40.3-16,55.7
		L-16,55.7z M1.2,17.4c0.4,0.5,0.7,1,1,1.6c0.8-1.5,1.9-2.6,3.1-3.2c-0.3-0.1-0.5-0.1-0.8-0.1C3.3,15.7,2.1,16.4,1.2,17.4L1.2,17.4z
		 M1,28.6c-0.7,0.8-1.5,1.3-2.4,1.6v1.6c1.4-0.2,2.7-0.3,4.1-0.3v-2C2.2,29.4,1.6,29,1,28.6L1,28.6z M-6.1,29.2
		c-0.8,1.8-2.1,3.1-3.6,3.6v1c1.8-0.6,3.5-1.1,5.2-1.5v-2.2C-5,29.9-5.6,29.6-6.1,29.2L-6.1,29.2z M-10.8,19c-2.7,0-4.9,2.8-4.9,6.3
		c0,2.2,0.9,4.2,2.2,5.3c-0.8-1.3-1.1-3.2-0.7-5.2c0.5-2.9,2.2-5.4,4.2-6.3C-10.3,19-10.6,19-10.8,19L-10.8,19z M31.7-2.7L33.9,2
		c-0.8-0.2-1.6-0.3-2.4-0.3c-0.7,0-1.3,0.1-1.9,0.2L31.7-2.7L31.7-2.7z M34.7,2.3l4.2-3l-0.5,5.2C37.3,3.5,36.1,2.7,34.7,2.3
		L34.7,2.3z M38.9,5.1L44,4.6l-3,4.3C40.6,7.5,39.9,6.2,38.9,5.1L38.9,5.1z M41.2,9.7l4.6,2.1L41.1,14c0.2-0.8,0.3-1.6,0.3-2.4
		C41.4,11,41.3,10.3,41.2,9.7L41.2,9.7z M40.8,14.8c-0.5,1.4-1.2,2.6-2.2,3.7l5.2,0.5L40.8,14.8L40.8,14.8z M38,19.1
		c-1.1,0.9-2.4,1.7-3.8,2.1l4.3,3L38,19.1L38,19.1z M33.4,21.3c-0.6,0.1-1.3,0.2-1.9,0.2c-0.8,0-1.6-0.1-2.4-0.3l2.2,4.8L33.4,21.3
		L33.4,21.3z M28.3,21c-1.4-0.5-2.6-1.2-3.7-2.2l-0.5,5.2L28.3,21L28.3,21z M24,18.1c-0.9-1.1-1.7-2.4-2.1-3.8l-3,4.3L24,18.1
		L24,18.1z M21.8,13.5l-4.6-2.1l4.8-2.2c-0.2,0.8-0.3,1.6-0.3,2.4C21.6,12.3,21.7,12.9,21.8,13.5L21.8,13.5z M22.1,8.4l-3-4.2
		l5.2,0.5C23.4,5.8,22.6,7,22.1,8.4L22.1,8.4z M25,4.2l-0.5-5.1l4.3,3C27.3,2.5,26,3.2,25,4.2L25,4.2z M31.5,3.9
		c-4.3,0-7.7,3.4-7.7,7.7s3.4,7.7,7.7,7.7c4.3,0,7.7-3.4,7.7-7.7S35.7,3.9,31.5,3.9z"/>
</g>
</svg>
