<?xml version="1.0" encoding="utf-8"?>
<!-- Generator: Adobe Illustrator 19.0.1, SVG Export Plug-In . SVG Version: 6.00 Build 0)  -->
<svg version="1.1" id="Capa_1" xmlns="http://www.w3.org/2000/svg" xmlns:xlink="http://www.w3.org/1999/xlink" x="0px" y="0px"
	 viewBox="-23 -14 80 80" style="enable-background:new -23 -14 80 80;" xml:space="preserve">
<style type="text/css">
	.st0{fill-rule:evenodd;clip-rule:evenodd;fill:#BCD85F;}
	.st1{fill-rule:evenodd;clip-rule:evenodd;fill:#4BA2AF;}
	.st2{fill-rule:evenodd;clip-rule:evenodd;fill:#265677;}
</style>
<g>
	<circle class="st0" cx="26" cy="17.3" r="24.3"/>
	<ellipse class="st1" cx="13.3" cy="56.4" rx="29.5" ry="2.6"/>
	<path class="st2" d="M34.1,6.5c-6.2,4.1-10.9,8.8-14.6,14.1v-3.5v-5.2V6.5C23.8,3,30.1,0.3,38.6-1.3c9,14.2,3.2,36.1-19.1,45.3v-5
		v-5.2v-5C22.4,20.9,27.1,13.6,34.1,6.5L34.1,6.5z M13-4.3c0.6,0,1.3,0,1.9,0.1v6.7v9.2v4.5v14.2v4.5v9.2v6.7
		c-0.6,0-1.3,0.1-1.9,0.1c-7.6,0-14.5-3.1-19.5-8.1c-5-5-8.1-11.9-8.1-19.5c0-7.6,3.1-14.5,8.1-19.5C-1.5-1.3,5.4-4.3,13-4.3L13-4.3
		z M9,34.3c-1.9-0.2-3.8-0.5-5.5-0.9c0.7,2.1,1.7,4,2.8,5.6C7.1,40.2,8,41.3,9,42.2V34.3L9,34.3z M-1.6,31.9l-0.2-0.1
		C-3.9,31.1-5.6,30.1-7,29c1,3.4,2.8,6.4,5.3,8.9c1.2,1.2,2.5,2.2,3.9,3.1C0.5,38.4-0.8,35.3-1.6,31.9L-1.6,31.9z M-7,17.3
		c1.4-1.1,3.1-2,5.2-2.8l0.2-0.1c0.8-3.4,2.2-6.5,3.8-9.1C0.8,6.3-0.5,7.3-1.7,8.5C-4.1,10.9-6,13.9-7,17.3L-7,17.3z M3.5,12.9
		C5.2,12.6,7,12.2,9,12V4.2C8,5.1,7.1,6.1,6.2,7.3C5.1,9,4.2,10.9,3.5,12.9L3.5,12.9z M9,16.5c-2.5,0.3-4.8,0.8-6.8,1.3
		c-0.3,1.7-0.4,3.5-0.4,5.3c0,1.8,0.1,3.6,0.4,5.3c2,0.6,4.3,1,6.8,1.3V16.5L9,16.5z M-2.5,19.7c-2.1,1.1-3.3,2.3-3.3,3.5
		c0,1.2,1.2,2.4,3.3,3.5c-0.1-1.1-0.2-2.3-0.2-3.5C-2.7,22-2.6,20.8-2.5,19.7z"/>
</g>
</svg>
