<?xml version="1.0" encoding="utf-8"?>
<!-- Generator: Adobe Illustrator 19.0.1, SVG Export Plug-In . SVG Version: 6.00 Build 0)  -->
<svg version="1.1" id="Capa_1" xmlns="http://www.w3.org/2000/svg" xmlns:xlink="http://www.w3.org/1999/xlink" x="0px" y="0px"
	 viewBox="-23 -14 80 80" style="enable-background:new -23 -14 80 80;" xml:space="preserve">
<style type="text/css">
	.st0{fill-rule:evenodd;clip-rule:evenodd;fill:#BCD85F;}
	.st1{fill-rule:evenodd;clip-rule:evenodd;fill:#4BA2AF;}
	.st2{fill-rule:evenodd;clip-rule:evenodd;fill:#265677;}
</style>
<g>
	<circle class="st0" cx="6.3" cy="19.2" r="22.3"/>
	<ellipse class="st1" cx="16.9" cy="52.7" rx="27" ry="2.3"/>
	<path class="st2" d="M-11.6,16.2H-6V2.5C-6,1.1-4.9,0-3.5,0l0,0c1.4,0,2.5,1.1,2.5,2.5v13.7h12V2.5C11,1.1,12.1,0,13.5,0l0,0
		C14.8,0,16,1.1,16,2.5v13.7h6.7v5.2h-4.9l-1.7,14l-0.4,3H7.6c0.1,1.5,0.8,6.3,5.3,6.8c4,0.4,7.1-5.7,9.3-10.1
		c0.2-0.4,0.3-0.7,0.5-1c0.4-0.8,0.8-1.5,1.2-2.2l0,0c3.8-8,10.2-15.1,20.9-20.5c-9.1,2.4-15.7,7.3-20.9,13.4
		c1-13.2,8.5-20.1,25.8-17.8c1.7,14.5-2.6,28.5-21,27.8c-0.4,0.7-0.9,1.8-1.5,2.9c-2.9,5.9-7,14-14.9,13.2C3,49.9,2,40.7,1.9,38.5
		h-6.8l-2-14.1l10.2-1.3v-1.7H-7.1h-4.6V16.2z"/>
</g>
</svg>
