<?xml version="1.0" encoding="utf-8"?>
<!-- Generator: Adobe Illustrator 19.0.1, SVG Export Plug-In . SVG Version: 6.00 Build 0)  -->
<svg version="1.1" id="Capa_1" xmlns="http://www.w3.org/2000/svg" xmlns:xlink="http://www.w3.org/1999/xlink" x="0px" y="0px"
	 viewBox="-23 -14 80 80" style="enable-background:new -23 -14 80 80;" xml:space="preserve">
<style type="text/css">
	.st0{fill-rule:evenodd;clip-rule:evenodd;fill:#BCD85F;}
	.st1{fill-rule:evenodd;clip-rule:evenodd;fill:#4BA2AF;}
	.st2{fill-rule:evenodd;clip-rule:evenodd;fill:#265677;}
</style>
<g>
	<circle class="st0" cx="25.2" cy="20.4" r="23.8"/>
	<ellipse class="st1" cx="13.9" cy="54.7" rx="28.9" ry="2.5"/>
	<path class="st2" d="M40.4-5.2v33.4v0.3l-0.1,0.3l-7.1,21.9l-0.5,1.4h-1.5h-10H17H-4.4v-2.4V48c0-17.7,0-35.5,0-53.2H40.4L40.4-5.2
		z M9.7,17.3c1.5,0.9,3,1.7,4.5,2.6c0.9-1.6,1.9-3.2,2.8-4.9c-0.4-0.6-0.7-1.2-1.1-1.8c-0.9-1.3-3.1-1.1-3.8,0
		C11.4,14.5,10.5,15.9,9.7,17.3L9.7,17.3z M15.6,12c0.4,0.2,0.8,0.4,1.1,0.8c0.9,1.6,1.8,3.3,2.8,4.9c-0.5,0.3-1,0.6-1.5,0.9
		c1.7,0,3.4,0,5.1,0c0.8-1.4,1.7-2.9,2.5-4.3c-0.5,0.3-1,0.5-1.5,0.8c-0.5-0.9-1-1.8-1.5-2.6c-0.2-0.4-0.5-0.5-0.9-0.5
		C19.6,12,17.6,12,15.6,12L15.6,12z M25.9,18.4c-1.5,0.9-3,1.8-4.5,2.6c0.9,1.6,1.9,3.2,2.8,4.8c0.7,0,1.4,0,2.1,0
		c1.5-0.1,2.5-2.1,2-3.3C27.5,21.2,26.7,19.8,25.9,18.4L25.9,18.4z M27.6,26.2c-0.3,0.3-0.8,0.5-1.3,0.5c-1.9,0-3.8-0.1-5.6-0.1
		c0-0.6,0-1.2,0-1.7c-0.8,1.5-1.7,2.9-2.5,4.4c0.8,1.4,1.7,2.9,2.5,4.3c0-0.6,0.1-1.2,0.1-1.7c1,0,2,0,3,0c0.4,0,0.7-0.2,0.9-0.6
		C25.6,29.6,26.6,27.9,27.6,26.2L27.6,26.2z M16.7,31.9c0-1.7,0-3.5-0.1-5.2c-1.9,0-6.4,0-8.3,0c-0.4,0-0.7-0.2-0.9-0.4
		c1,1.7,2,3.4,3,5.1c0.2,0.3,0.5,0.4,0.9,0.4C12.9,31.8,15.1,31.9,16.7,31.9L16.7,31.9z M10.7,26l1.6-2.8c0.5,0.3,1,0.6,1.5,0.8
		c-0.8-1.5-1.7-2.9-2.5-4.4c-1.7,0-3.3,0-5,0c0.5,0.3,1,0.6,1.5,0.9c-0.5,0.9-0.5,0.8-1,1.7c-0.6,1.4,0,3,1.3,3.7H10.7L10.7,26z
		 M15.8,48h5.5h5.5l-3.6-4.1L22,42.5l1.2-1.4l13.1-14.8V-1H-0.3c0,16.3,0,32.7,0,49H15.8L15.8,48z M33.9,35.3l-6.4,7.2l2.9,3.4
		L33.9,35.3z"/>
</g>
</svg>
