<?xml version="1.0" encoding="utf-8"?>
<!-- Generator: Adobe Illustrator 19.0.1, SVG Export Plug-In . SVG Version: 6.00 Build 0)  -->
<svg version="1.1" id="Capa_1" xmlns="http://www.w3.org/2000/svg" xmlns:xlink="http://www.w3.org/1999/xlink" x="0px" y="0px"
	 viewBox="86 -49 300 150" style="enable-background:new 86 -49 300 150;" xml:space="preserve">
<style type="text/css">
	.st0{enable-background:new    ;}
	.st1{fill:#1A1A1A;}
	.st2{fill:#265677;}
	.st3{fill:#276366;}
	.st4{fill:#3A868E;}
	.st5{fill:#96AA41;}
	.st6{fill:#75822B;}
	.st7{fill:#BCD85F;}
	.st8{fill:#4BA2AF;}
	.st9{fill:#FFFFFF;}
	.st10{fill:#406FB5;}
	.st11{fill:#358BC2;}
	.st12{fill:#054167;}
	.st13{fill:#7F724A;}
	.st14{fill:#20375A;}
	.st15{fill:#696A61;}
	.st16{fill:#075188;}
	.st17{fill:#6ABAE9;}
</style>
<g class="st0">
	<path class="st1" d="M247.1-14.1V-28h5.9c0.6,0,1.2,0.1,1.7,0.4s0.9,0.6,1.3,1c0.4,0.4,0.6,0.9,0.9,1.4c0.2,0.5,0.3,1.1,0.3,1.6
		c0,0.5-0.1,1-0.2,1.5s-0.4,0.9-0.6,1.3c-0.3,0.4-0.6,0.7-1,0.9s-0.8,0.4-1.3,0.5l3.4,5.4h-1.5l-3.3-5.1h-4.1v5.1H247.1z
		 M248.5-20.5h4.6c0.4,0,0.8-0.1,1.1-0.3c0.3-0.2,0.6-0.4,0.9-0.7s0.4-0.6,0.5-1s0.2-0.8,0.2-1.2s-0.1-0.8-0.2-1.2s-0.4-0.7-0.6-1
		c-0.3-0.3-0.6-0.5-0.9-0.7c-0.3-0.2-0.7-0.3-1.1-0.3h-4.5V-20.5z"/>
	<path class="st1" d="M264.2-13.9c-0.7,0-1.4-0.1-2.1-0.4c-0.6-0.3-1.2-0.7-1.6-1.2c-0.5-0.5-0.8-1.1-1.1-1.7s-0.4-1.3-0.4-2.1
		c0-0.7,0.1-1.4,0.4-2c0.3-0.6,0.6-1.2,1.1-1.7c0.5-0.5,1-0.9,1.6-1.1s1.3-0.4,2-0.4s1.4,0.1,2,0.4c0.6,0.3,1.2,0.7,1.6,1.1
		s0.8,1,1,1.7c0.2,0.6,0.4,1.3,0.4,2c0,0.1,0,0.2,0,0.3c0,0.1,0,0.2,0,0.2h-8.7c0,0.5,0.2,1.1,0.4,1.5s0.5,0.9,0.8,1.2
		c0.3,0.3,0.7,0.6,1.2,0.8c0.4,0.2,0.9,0.3,1.4,0.3c0.3,0,0.7,0,1-0.1c0.3-0.1,0.6-0.2,0.9-0.4c0.3-0.2,0.5-0.3,0.7-0.6
		c0.2-0.2,0.4-0.5,0.5-0.8l1.2,0.3c-0.2,0.4-0.4,0.7-0.7,1c-0.3,0.3-0.6,0.6-1,0.8s-0.8,0.4-1.3,0.5C265.2-14,264.7-13.9,264.2-13.9
		z M268-19.8c0-0.5-0.2-1-0.4-1.5c-0.2-0.5-0.5-0.8-0.8-1.2c-0.3-0.3-0.7-0.6-1.2-0.8c-0.4-0.2-0.9-0.3-1.4-0.3s-1,0.1-1.4,0.3
		c-0.4,0.2-0.8,0.4-1.2,0.8s-0.6,0.7-0.8,1.2c-0.2,0.5-0.3,1-0.4,1.5H268z"/>
	<path class="st1" d="M275.5-13.9c-0.7,0-1.4-0.1-2-0.4c-0.6-0.3-1.1-0.7-1.6-1.2c-0.4-0.5-0.8-1-1-1.7s-0.4-1.3-0.4-2
		c0-0.7,0.1-1.4,0.4-2c0.2-0.6,0.6-1.2,1-1.7s0.9-0.9,1.5-1.1s1.2-0.4,1.9-0.4c0.9,0,1.6,0.2,2.3,0.7c0.7,0.5,1.2,1,1.6,1.6v-6.2
		h1.3v12.6c0,0.4,0.2,0.5,0.5,0.5v1.2c-0.2,0-0.4,0.1-0.5,0.1c-0.3,0-0.6-0.1-0.8-0.3s-0.3-0.4-0.3-0.7v-1.1c-0.4,0.7-1,1.2-1.7,1.6
		C276.9-14.1,276.2-13.9,275.5-13.9z M275.8-15.1c0.3,0,0.7-0.1,1.1-0.2c0.4-0.1,0.7-0.3,1-0.5s0.6-0.5,0.8-0.8
		c0.2-0.3,0.4-0.6,0.4-1v-3.2c-0.1-0.4-0.3-0.7-0.6-1c-0.3-0.3-0.5-0.6-0.9-0.8s-0.7-0.4-1-0.5s-0.7-0.2-1.1-0.2
		c-0.5,0-1,0.1-1.5,0.4s-0.8,0.5-1.1,0.9c-0.3,0.4-0.6,0.8-0.7,1.3c-0.2,0.5-0.3,1-0.3,1.5c0,0.5,0.1,1.1,0.3,1.6
		c0.2,0.5,0.5,0.9,0.8,1.3c0.3,0.4,0.7,0.7,1.2,0.9C274.7-15.2,275.2-15.1,275.8-15.1z"/>
	<path class="st1" d="M286.6-13.9c-1.1,0-1.9-0.4-2.4-1.1c-0.5-0.7-0.8-1.8-0.8-3.3v-6h1.3v5.8c0,2.3,0.8,3.5,2.4,3.5
		c0.4,0,0.8-0.1,1.2-0.2c0.4-0.1,0.7-0.3,1-0.6s0.6-0.5,0.9-0.9c0.3-0.3,0.5-0.7,0.6-1.2v-6.4h1.3v8.5c0,0.4,0.2,0.5,0.5,0.5v1.2
		c-0.3,0-0.4,0.1-0.5,0.1c-0.3,0-0.6-0.1-0.8-0.3c-0.2-0.2-0.3-0.4-0.3-0.7v-1.4c-0.5,0.8-1.1,1.4-1.8,1.9
		C288.4-14.1,287.5-13.9,286.6-13.9z"/>
	<path class="st1" d="M294.4-19.3c0-0.7,0.1-1.4,0.4-2c0.2-0.6,0.6-1.2,1-1.7c0.5-0.5,1-0.9,1.6-1.1c0.6-0.3,1.3-0.4,2.1-0.4
		c1,0,1.8,0.2,2.5,0.7c0.7,0.4,1.3,1,1.6,1.8l-1.3,0.4c-0.3-0.5-0.7-0.9-1.2-1.2s-1.1-0.4-1.7-0.4c-0.5,0-1,0.1-1.5,0.3
		c-0.5,0.2-0.8,0.5-1.2,0.9c-0.3,0.4-0.6,0.8-0.8,1.3s-0.3,1-0.3,1.6c0,0.6,0.1,1.1,0.3,1.6c0.2,0.5,0.5,1,0.8,1.3
		c0.3,0.4,0.7,0.7,1.2,0.9c0.5,0.2,0.9,0.3,1.4,0.3c0.3,0,0.7,0,1-0.1c0.3-0.1,0.6-0.2,0.9-0.4c0.3-0.2,0.5-0.3,0.7-0.6
		c0.2-0.2,0.3-0.4,0.4-0.7l1.3,0.4c-0.1,0.4-0.4,0.7-0.6,1c-0.3,0.3-0.6,0.6-1,0.8c-0.4,0.2-0.8,0.4-1.2,0.5s-0.9,0.2-1.4,0.2
		c-0.7,0-1.4-0.1-2.1-0.4c-0.6-0.3-1.2-0.7-1.6-1.2c-0.5-0.5-0.8-1.1-1.1-1.7S294.4-18.5,294.4-19.3z"/>
	<path class="st1" d="M310.4-13.9c-0.7,0-1.4-0.1-2.1-0.4c-0.6-0.3-1.2-0.7-1.6-1.2c-0.5-0.5-0.8-1.1-1.1-1.7s-0.4-1.3-0.4-2.1
		c0-0.7,0.1-1.4,0.4-2c0.3-0.6,0.6-1.2,1.1-1.7c0.5-0.5,1-0.9,1.6-1.1c0.6-0.3,1.3-0.4,2-0.4c0.7,0,1.4,0.1,2,0.4
		c0.6,0.3,1.2,0.7,1.6,1.1s0.8,1,1,1.7c0.2,0.6,0.4,1.3,0.4,2c0,0.1,0,0.2,0,0.3c0,0.1,0,0.2,0,0.2h-8.7c0,0.5,0.2,1.1,0.4,1.5
		c0.2,0.5,0.5,0.9,0.8,1.2c0.3,0.3,0.7,0.6,1.2,0.8c0.4,0.2,0.9,0.3,1.4,0.3c0.3,0,0.7,0,1-0.1c0.3-0.1,0.6-0.2,0.9-0.4
		c0.3-0.2,0.5-0.3,0.7-0.6c0.2-0.2,0.4-0.5,0.5-0.8l1.2,0.3c-0.2,0.4-0.4,0.7-0.7,1c-0.3,0.3-0.6,0.6-1,0.8s-0.8,0.4-1.3,0.5
		C311.3-14,310.9-13.9,310.4-13.9z M314.1-19.8c0-0.5-0.2-1-0.4-1.5c-0.2-0.5-0.5-0.8-0.8-1.2c-0.3-0.3-0.7-0.6-1.2-0.8
		c-0.4-0.2-0.9-0.3-1.4-0.3c-0.5,0-1,0.1-1.4,0.3c-0.4,0.2-0.8,0.4-1.2,0.8c-0.3,0.3-0.6,0.7-0.8,1.2c-0.2,0.5-0.3,1-0.4,1.5H314.1z
		"/>
	<path class="st1" d="M331-14.1h-1.3v-5.7c0-1.2-0.2-2-0.6-2.6s-1-0.9-1.8-0.9c-0.4,0-0.8,0.1-1.1,0.2c-0.4,0.2-0.7,0.4-1,0.6
		c-0.3,0.3-0.6,0.6-0.9,0.9c-0.2,0.4-0.4,0.7-0.5,1.2v6.3h-1.3v-14.3h1.3v6.4c0.4-0.8,1-1.4,1.7-1.8s1.5-0.7,2.3-0.7
		c0.6,0,1.1,0.1,1.5,0.3s0.7,0.5,1,0.9c0.3,0.4,0.4,0.9,0.6,1.4c0.1,0.5,0.2,1.1,0.2,1.8V-14.1z"/>
	<path class="st1" d="M336.5-13.9c-0.5,0-1-0.1-1.4-0.2s-0.8-0.4-1.1-0.7c-0.3-0.3-0.5-0.6-0.7-1c-0.2-0.4-0.3-0.8-0.3-1.2
		c0-0.5,0.1-0.9,0.3-1.3c0.2-0.4,0.5-0.7,0.9-1s0.8-0.5,1.4-0.6s1.1-0.2,1.8-0.2c0.5,0,1,0,1.6,0.1c0.5,0.1,1,0.2,1.4,0.4v-0.9
		c0-0.9-0.3-1.6-0.8-2.1c-0.5-0.5-1.2-0.8-2.1-0.8c-0.5,0-1.1,0.1-1.6,0.3c-0.5,0.2-1.1,0.5-1.7,0.9l-0.5-0.9c0.7-0.4,1.3-0.8,1.9-1
		c0.6-0.2,1.3-0.3,2-0.3c1.2,0,2.2,0.4,3,1.1c0.7,0.7,1.1,1.7,1.1,3v4.6c0,0.4,0.2,0.5,0.5,0.5v1.2c-0.1,0-0.2,0-0.3,0
		c-0.1,0-0.2,0-0.2,0c-0.3,0-0.5-0.1-0.7-0.2c-0.2-0.2-0.3-0.4-0.4-0.7l0-0.8c-0.4,0.6-1,1.1-1.8,1.4
		C338-14.1,337.2-13.9,336.5-13.9z M336.8-14.9c0.6,0,1.2-0.1,1.8-0.4c0.6-0.3,1-0.6,1.4-1c0.1-0.1,0.2-0.2,0.2-0.4
		c0.1-0.1,0.1-0.3,0.1-0.4v-1.7c-0.4-0.2-0.9-0.3-1.4-0.4s-1-0.1-1.4-0.1c-1,0-1.7,0.2-2.3,0.6c-0.6,0.4-0.9,0.9-0.9,1.6
		c0,0.3,0.1,0.5,0.2,0.8s0.3,0.5,0.5,0.7s0.5,0.4,0.8,0.5C336-15,336.4-14.9,336.8-14.9z"/>
	<path class="st1" d="M348-13.9c-0.8,0-1.6-0.1-2.3-0.4c-0.8-0.3-1.4-0.6-2-1.1l0.6-0.9c0.6,0.5,1.2,0.8,1.8,1.1
		c0.6,0.2,1.2,0.4,1.9,0.4c0.8,0,1.5-0.2,2-0.5c0.5-0.3,0.7-0.8,0.7-1.4c0-0.3-0.1-0.5-0.2-0.7s-0.3-0.4-0.6-0.5
		c-0.3-0.1-0.6-0.3-1-0.4s-0.8-0.2-1.3-0.3c-0.6-0.1-1.1-0.3-1.5-0.4c-0.4-0.1-0.8-0.3-1.1-0.5c-0.3-0.2-0.5-0.4-0.6-0.7
		s-0.2-0.6-0.2-1c0-0.5,0.1-1,0.3-1.4c0.2-0.4,0.5-0.7,0.8-1c0.3-0.3,0.8-0.4,1.2-0.6c0.5-0.1,1-0.2,1.5-0.2c0.8,0,1.5,0.1,2.1,0.4
		s1.2,0.6,1.5,1l-0.6,0.8c-0.4-0.4-0.8-0.7-1.4-0.9c-0.5-0.2-1.1-0.3-1.7-0.3c-0.4,0-0.7,0-1,0.1s-0.6,0.2-0.8,0.3
		c-0.2,0.2-0.4,0.4-0.5,0.6c-0.1,0.2-0.2,0.5-0.2,0.9c0,0.3,0,0.5,0.1,0.7c0.1,0.2,0.2,0.3,0.5,0.4c0.2,0.1,0.5,0.2,0.8,0.3
		c0.3,0.1,0.7,0.2,1.2,0.3c0.7,0.2,1.2,0.3,1.7,0.5s0.9,0.3,1.2,0.5c0.3,0.2,0.6,0.5,0.8,0.8s0.3,0.7,0.3,1.1c0,0.9-0.4,1.7-1.1,2.2
		C350.1-14.2,349.2-13.9,348-13.9z"/>
	<path class="st1" d="M359-14.6c-0.1,0-0.2,0.1-0.3,0.2s-0.3,0.1-0.5,0.2c-0.2,0.1-0.4,0.1-0.7,0.2S357-14,356.7-14
		c-0.3,0-0.6,0-0.8-0.1s-0.5-0.2-0.7-0.4c-0.2-0.2-0.4-0.4-0.5-0.6c-0.1-0.2-0.2-0.5-0.2-0.9v-7.3h-1.4v-1.1h1.4v-3.5h1.3v3.5h2.4
		v1.1h-2.4v6.9c0,0.4,0.2,0.7,0.4,0.8c0.2,0.2,0.5,0.3,0.8,0.3c0.4,0,0.7-0.1,1-0.2c0.3-0.1,0.5-0.2,0.5-0.3L359-14.6z"/>
	<path class="st1" d="M363.3-13.9c-0.5,0-1-0.1-1.4-0.2s-0.8-0.4-1.1-0.7c-0.3-0.3-0.5-0.6-0.7-1c-0.2-0.4-0.3-0.8-0.3-1.2
		c0-0.5,0.1-0.9,0.3-1.3c0.2-0.4,0.5-0.7,0.9-1s0.8-0.5,1.4-0.6s1.1-0.2,1.8-0.2c0.5,0,1,0,1.6,0.1c0.5,0.1,1,0.2,1.4,0.4v-0.9
		c0-0.9-0.3-1.6-0.8-2.1c-0.5-0.5-1.2-0.8-2.1-0.8c-0.5,0-1.1,0.1-1.6,0.3c-0.5,0.2-1.1,0.5-1.7,0.9l-0.5-0.9c0.7-0.4,1.3-0.8,1.9-1
		c0.6-0.2,1.3-0.3,2-0.3c1.2,0,2.2,0.4,3,1.1c0.7,0.7,1.1,1.7,1.1,3v4.6c0,0.4,0.2,0.5,0.5,0.5v1.2c-0.1,0-0.2,0-0.3,0
		c-0.1,0-0.2,0-0.2,0c-0.3,0-0.5-0.1-0.7-0.2c-0.2-0.2-0.3-0.4-0.4-0.7l0-0.8c-0.4,0.6-1,1.1-1.8,1.4
		C364.7-14.1,364-13.9,363.3-13.9z M363.6-14.9c0.6,0,1.2-0.1,1.8-0.4c0.6-0.3,1-0.6,1.4-1c0.1-0.1,0.2-0.2,0.2-0.4
		c0.1-0.1,0.1-0.3,0.1-0.4v-1.7c-0.4-0.2-0.9-0.3-1.4-0.4s-1-0.1-1.4-0.1c-1,0-1.7,0.2-2.3,0.6c-0.6,0.4-0.9,0.9-0.9,1.6
		c0,0.3,0.1,0.5,0.2,0.8s0.3,0.5,0.5,0.7s0.5,0.4,0.8,0.5C362.8-15,363.2-14.9,363.6-14.9z"/>
</g>
<g>
	<path class="st2" d="M264.3,28c1.5,0.2,2.8,0.7,4,1.5c1.2,0.8,2.2,1.7,3.1,2.8c0.9,1.1,1.6,2.4,2,3.8s0.7,3,0.7,4.6
		c0,2.2-0.5,4.2-1.4,6c-0.9,1.8-2.3,3.3-4,4.6c-1.7,1.2-3.8,2.2-6.3,2.9c-2.5,0.7-5.3,1-8.4,1c-3.6,0-6.8-0.5-9.6-1.4
		c-2.8-0.9-5.3-2.3-7.6-4.3l6.8-9.7c1.4,1.1,2.8,1.9,4.3,2.4c1.5,0.5,3.3,0.7,5.3,0.7c2.4,0,4.2-0.4,5.3-1.1
		c1.1-0.7,1.7-1.9,1.7-3.5c0-1.8-0.7-3.1-2.1-3.8c-1.4-0.8-3.7-1.2-6.9-1.2H249v-9.3h2.5c2.3,0,4.1-0.4,5.4-1.3c1.4-0.9,2-2.1,2-3.6
		c0-1.1-0.4-2-1.2-2.6c-0.8-0.6-1.9-1-3.4-1c-1.6,0-3.2,0.4-4.6,1.2c-1.4,0.8-2.7,2.1-3.8,3.7l-8.5-10c0.8-0.9,1.9-1.8,3.2-2.6
		c1.3-0.8,2.8-1.4,4.4-2c1.6-0.6,3.4-1,5.2-1.3c1.8-0.3,3.7-0.5,5.6-0.5c2.6,0,5,0.3,7.1,0.9c2.2,0.6,4,1.4,5.5,2.5
		c1.5,1.1,2.7,2.4,3.5,3.9c0.8,1.5,1.3,3.2,1.3,5.1c0,1.4-0.2,2.8-0.7,4s-1.1,2.4-1.9,3.5c-0.8,1-1.8,1.9-2.9,2.6
		C266.8,27.2,265.6,27.7,264.3,28z"/>
	<path class="st2" d="M316.7,24c0,3.1-0.5,6-1.4,8.6c-0.9,2.6-2.2,4.9-3.9,6.8c-1.7,1.9-3.6,3.4-5.9,4.4c-2.3,1.1-4.8,1.6-7.4,1.6
		c-2.7,0-5.2-0.5-7.4-1.6c-2.3-1.1-4.3-2.5-5.9-4.4c-1.7-1.9-3-4.2-3.9-6.8c-0.9-2.6-1.4-5.5-1.4-8.6c0-3.1,0.5-6,1.4-8.6
		s2.2-4.9,3.9-6.8c1.7-1.9,3.6-3.4,5.9-4.5c2.3-1.1,4.8-1.6,7.4-1.6c2.7,0,5.2,0.5,7.4,1.6c2.3,1.1,4.3,2.6,5.9,4.5
		c1.7,1.9,3,4.2,3.9,6.8C316.2,18,316.7,20.9,316.7,24z M303.2,24c0-2.7-0.5-4.9-1.4-6.6s-2.2-2.5-3.7-2.5c-1.6,0-2.9,0.8-3.8,2.5
		c-1,1.7-1.4,3.9-1.4,6.6c0,2.7,0.5,4.9,1.4,6.6c1,1.7,2.2,2.5,3.8,2.5c1.5,0,2.7-0.8,3.7-2.5C302.7,28.9,303.2,26.7,303.2,24z"/>
	<path class="st2" d="M334.6,16.2c-1.8,0-3.4-0.3-5-0.9c-1.5-0.6-2.9-1.4-4-2.4c-1.1-1-2-2.2-2.6-3.5c-0.6-1.4-1-2.8-1-4.4
		c0-1.6,0.3-3,1-4.4c0.6-1.4,1.5-2.5,2.6-3.5c1.1-1,2.5-1.8,4-2.4c1.5-0.6,3.2-0.9,5-0.9c1.7,0,3.4,0.3,4.9,0.9
		c1.5,0.6,2.9,1.4,4,2.4c1.1,1,2,2.2,2.7,3.5c0.7,1.4,1,2.8,1,4.4c0,1.6-0.3,3-1,4.4c-0.7,1.4-1.6,2.5-2.7,3.5c-1.1,1-2.5,1.8-4,2.4
		C338,15.9,336.3,16.2,334.6,16.2z M327.9,40.1l20-22.5l17.7-23.8l5.9,5.3l-19.1,21.8l-18.6,24.5L327.9,40.1z M334.6,9.8
		c0.9,0,1.7-0.5,2.4-1.4c0.7-0.9,1-2.1,1-3.4c0-1.3-0.3-2.4-1-3.4c-0.7-0.9-1.5-1.4-2.4-1.4c-0.9,0-1.7,0.5-2.4,1.4
		c-0.7,0.9-1,2.1-1,3.4c0,1.3,0.3,2.4,1,3.4C332.8,9.3,333.6,9.8,334.6,9.8z M364.9,45.4c-1.8,0-3.4-0.3-5-0.9
		c-1.5-0.6-2.9-1.4-4-2.4c-1.1-1-2-2.2-2.6-3.5c-0.6-1.4-1-2.8-1-4.4s0.3-3,1-4.4c0.6-1.4,1.5-2.5,2.6-3.5c1.1-1,2.5-1.8,4-2.4
		c1.5-0.6,3.2-0.9,5-0.9c1.7,0,3.4,0.3,4.9,0.9c1.5,0.6,2.9,1.4,4,2.4c1.1,1,2,2.2,2.7,3.5c0.7,1.4,1,2.8,1,4.4s-0.3,3-1,4.4
		c-0.7,1.4-1.6,2.5-2.7,3.5c-1.1,1-2.5,1.8-4,2.4S366.6,45.4,364.9,45.4z M364.9,39c0.9,0,1.7-0.5,2.4-1.4c0.7-0.9,1-2.1,1-3.4
		c0-1.3-0.3-2.4-1-3.4c-0.7-0.9-1.5-1.4-2.4-1.4c-0.9,0-1.7,0.5-2.4,1.4c-0.7,0.9-1,2.1-1,3.4c0,1.3,0.3,2.4,1,3.4
		C363.1,38.6,363.9,39,364.9,39z"/>
</g>
<g class="st0">
	<path class="st1" d="M243.8,73.6c-0.1,0-0.2,0.1-0.3,0.2s-0.3,0.1-0.5,0.2c-0.2,0.1-0.4,0.1-0.7,0.2s-0.5,0.1-0.8,0.1
		c-0.3,0-0.6,0-0.8-0.1c-0.3-0.1-0.5-0.2-0.7-0.4c-0.2-0.2-0.4-0.4-0.5-0.6c-0.1-0.2-0.2-0.5-0.2-0.9v-7.3H238v-1.1h1.4v-3.5h1.3
		v3.5h2.4v1.1h-2.4v6.9c0,0.4,0.2,0.7,0.4,0.8c0.2,0.2,0.5,0.3,0.8,0.3c0.4,0,0.7-0.1,1-0.2c0.3-0.1,0.5-0.2,0.5-0.3L243.8,73.6z"/>
	<path class="st1" d="M248.6,74.3c-1.1,0-1.9-0.4-2.4-1.1c-0.5-0.7-0.8-1.8-0.8-3.3v-6h1.3v5.8c0,2.3,0.8,3.5,2.4,3.5
		c0.4,0,0.8-0.1,1.2-0.2c0.4-0.1,0.7-0.3,1-0.6s0.6-0.5,0.9-0.9c0.3-0.3,0.5-0.7,0.6-1.2v-6.4h1.3v8.5c0,0.4,0.2,0.5,0.5,0.5v1.2
		c-0.3,0-0.4,0.1-0.5,0.1c-0.3,0-0.6-0.1-0.8-0.3c-0.2-0.2-0.3-0.4-0.3-0.7v-1.4c-0.5,0.8-1.1,1.4-1.8,1.9
		C250.3,74.1,249.5,74.3,248.6,74.3z"/>
	<path class="st1" d="M267.2,65c-0.9,0-1.7,0.3-2.4,0.7c-0.7,0.5-1.1,1.1-1.4,1.9v6.4h-1.3V63.9h1.3v2.5c0.4-0.7,0.8-1.3,1.4-1.8
		s1.2-0.7,1.9-0.7c0.1,0,0.2,0,0.3,0s0.2,0,0.3,0V65z"/>
	<path class="st1" d="M273.4,74.3c-0.7,0-1.4-0.1-2.1-0.4c-0.6-0.3-1.2-0.7-1.6-1.2c-0.5-0.5-0.8-1.1-1.1-1.7s-0.4-1.3-0.4-2.1
		c0-0.7,0.1-1.4,0.4-2c0.3-0.6,0.6-1.2,1.1-1.7c0.5-0.5,1-0.9,1.6-1.1c0.6-0.3,1.3-0.4,2-0.4s1.4,0.1,2,0.4s1.2,0.7,1.6,1.1
		s0.8,1,1,1.7c0.2,0.6,0.4,1.3,0.4,2c0,0.1,0,0.2,0,0.3s0,0.2,0,0.2h-8.7c0,0.5,0.2,1.1,0.4,1.5c0.2,0.5,0.5,0.9,0.8,1.2
		c0.3,0.3,0.7,0.6,1.2,0.8c0.4,0.2,0.9,0.3,1.4,0.3c0.3,0,0.7,0,1-0.1c0.3-0.1,0.6-0.2,0.9-0.4c0.3-0.2,0.5-0.3,0.7-0.6
		c0.2-0.2,0.4-0.5,0.5-0.8l1.2,0.3c-0.2,0.4-0.4,0.7-0.7,1c-0.3,0.3-0.6,0.6-1,0.8c-0.4,0.2-0.8,0.4-1.3,0.5
		C274.4,74.2,273.9,74.3,273.4,74.3z M277.2,68.4c0-0.5-0.2-1-0.4-1.5c-0.2-0.5-0.5-0.8-0.8-1.2s-0.7-0.6-1.2-0.8
		c-0.4-0.2-0.9-0.3-1.4-0.3c-0.5,0-1,0.1-1.4,0.3c-0.4,0.2-0.8,0.4-1.2,0.8c-0.3,0.3-0.6,0.7-0.8,1.2c-0.2,0.5-0.3,1-0.4,1.5H277.2z
		"/>
	<path class="st1" d="M279.8,68.9c0-0.7,0.1-1.4,0.4-2c0.2-0.6,0.6-1.2,1-1.7c0.5-0.5,1-0.9,1.6-1.1c0.6-0.3,1.3-0.4,2.1-0.4
		c1,0,1.8,0.2,2.5,0.7c0.7,0.4,1.3,1,1.6,1.8l-1.3,0.4c-0.3-0.5-0.7-0.9-1.2-1.2s-1.1-0.4-1.7-0.4c-0.5,0-1,0.1-1.5,0.3
		c-0.5,0.2-0.8,0.5-1.2,0.9s-0.6,0.8-0.8,1.3s-0.3,1-0.3,1.6c0,0.6,0.1,1.1,0.3,1.6s0.5,1,0.8,1.3c0.3,0.4,0.7,0.7,1.2,0.9
		s0.9,0.3,1.4,0.3c0.3,0,0.6,0,1-0.1c0.3-0.1,0.6-0.2,0.9-0.4c0.3-0.2,0.5-0.3,0.7-0.6s0.3-0.4,0.4-0.7l1.3,0.4
		c-0.1,0.4-0.4,0.7-0.6,1c-0.3,0.3-0.6,0.6-1,0.8c-0.4,0.2-0.8,0.4-1.2,0.5c-0.5,0.1-0.9,0.2-1.4,0.2c-0.7,0-1.4-0.1-2.1-0.4
		c-0.6-0.3-1.2-0.7-1.6-1.2c-0.5-0.5-0.8-1.1-1.1-1.7S279.8,69.7,279.8,68.9z"/>
	<path class="st1" d="M291.3,61.7v-2h1.3v2H291.3z M291.3,74.1V63.9h1.3v10.2H291.3z"/>
	<path class="st1" d="M300.4,74.3c-0.8,0-1.5-0.2-2.2-0.6c-0.7-0.4-1.2-0.9-1.6-1.6v2h-1.2V59.8h1.3V66c0.5-0.7,1-1.3,1.6-1.7
		s1.4-0.6,2.3-0.6c0.7,0,1.3,0.2,1.9,0.5s1.1,0.7,1.5,1.2c0.4,0.5,0.7,1.1,0.9,1.7s0.3,1.3,0.3,2c0,0.7-0.1,1.4-0.4,2
		c-0.2,0.6-0.6,1.2-1,1.7c-0.4,0.5-1,0.9-1.5,1.1S301.1,74.3,300.4,74.3z M300.1,73.1c0.6,0,1.1-0.1,1.5-0.3
		c0.5-0.2,0.9-0.5,1.2-0.9c0.3-0.4,0.6-0.8,0.8-1.3c0.2-0.5,0.3-1,0.3-1.5c0-0.5-0.1-1.1-0.3-1.5c-0.2-0.5-0.4-0.9-0.7-1.3
		c-0.3-0.4-0.7-0.7-1.1-0.9c-0.4-0.2-0.9-0.3-1.5-0.3c-0.4,0-0.8,0.1-1.1,0.2c-0.4,0.1-0.7,0.3-1,0.6s-0.6,0.5-0.8,0.8
		c-0.2,0.3-0.4,0.6-0.6,1v3.2c0.1,0.4,0.2,0.7,0.4,1c0.2,0.3,0.5,0.6,0.8,0.8c0.3,0.2,0.7,0.4,1,0.5C299.4,73,299.8,73.1,300.1,73.1
		z"/>
	<path class="st1" d="M311.9,74.3c-0.7,0-1.4-0.1-2-0.4s-1.2-0.7-1.6-1.1c-0.5-0.5-0.8-1-1-1.7c-0.2-0.6-0.4-1.3-0.4-2
		c0-0.7,0.1-1.4,0.4-2s0.6-1.2,1.1-1.7s1-0.9,1.6-1.2c0.6-0.3,1.3-0.4,2-0.4c0.7,0,1.4,0.1,2,0.4c0.6,0.3,1.2,0.7,1.6,1.2
		s0.8,1,1.1,1.7s0.4,1.3,0.4,2c0,0.7-0.1,1.4-0.4,2s-0.6,1.2-1.1,1.7c-0.5,0.5-1,0.9-1.6,1.1C313.3,74.1,312.7,74.3,311.9,74.3z
		 M308.2,69c0,0.6,0.1,1.1,0.3,1.6c0.2,0.5,0.5,0.9,0.8,1.3c0.3,0.4,0.7,0.7,1.2,0.9c0.5,0.2,0.9,0.3,1.4,0.3s1-0.1,1.4-0.3
		s0.8-0.5,1.2-0.9c0.3-0.4,0.6-0.8,0.8-1.3s0.3-1,0.3-1.6c0-0.6-0.1-1.1-0.3-1.6c-0.2-0.5-0.5-0.9-0.8-1.3c-0.3-0.4-0.7-0.7-1.2-0.9
		c-0.4-0.2-0.9-0.3-1.4-0.3s-1,0.1-1.4,0.3c-0.5,0.2-0.8,0.5-1.2,0.9s-0.6,0.8-0.8,1.3C308.3,67.9,308.2,68.5,308.2,69z"/>
	<path class="st1" d="M328.4,74.3c-0.7,0-1.4-0.1-2-0.4c-0.6-0.3-1.1-0.7-1.6-1.2c-0.4-0.5-0.8-1-1-1.7c-0.2-0.6-0.4-1.3-0.4-2
		c0-0.7,0.1-1.4,0.4-2c0.2-0.6,0.6-1.2,1-1.7c0.4-0.5,0.9-0.9,1.5-1.1c0.6-0.3,1.2-0.4,1.9-0.4c0.9,0,1.6,0.2,2.3,0.7s1.2,1,1.6,1.6
		v-6.2h1.3v12.6c0,0.4,0.2,0.5,0.5,0.5v1.2c-0.2,0-0.4,0.1-0.5,0.1c-0.3,0-0.6-0.1-0.8-0.3s-0.3-0.4-0.3-0.7v-1.1
		c-0.4,0.7-1,1.2-1.7,1.6C329.9,74.1,329.2,74.3,328.4,74.3z M328.7,73.1c0.3,0,0.7-0.1,1.1-0.2c0.4-0.1,0.7-0.3,1-0.5
		s0.6-0.5,0.8-0.8c0.2-0.3,0.4-0.6,0.4-1v-3.2c-0.1-0.4-0.3-0.7-0.6-1c-0.3-0.3-0.5-0.6-0.9-0.8s-0.7-0.4-1-0.5s-0.7-0.2-1.1-0.2
		c-0.5,0-1,0.1-1.5,0.4s-0.8,0.5-1.1,0.9c-0.3,0.4-0.6,0.8-0.7,1.3c-0.2,0.5-0.3,1-0.3,1.5c0,0.5,0.1,1.1,0.3,1.6s0.5,0.9,0.8,1.3
		c0.3,0.4,0.7,0.7,1.2,0.9C327.7,73,328.2,73.1,328.7,73.1z"/>
	<path class="st1" d="M340.9,74.3c-0.7,0-1.4-0.1-2.1-0.4c-0.6-0.3-1.2-0.7-1.6-1.2c-0.5-0.5-0.8-1.1-1.1-1.7s-0.4-1.3-0.4-2.1
		c0-0.7,0.1-1.4,0.4-2c0.3-0.6,0.6-1.2,1.1-1.7c0.5-0.5,1-0.9,1.6-1.1s1.3-0.4,2-0.4c0.7,0,1.4,0.1,2,0.4c0.6,0.3,1.2,0.7,1.6,1.1
		s0.8,1,1,1.7c0.2,0.6,0.4,1.3,0.4,2c0,0.1,0,0.2,0,0.3c0,0.1,0,0.2,0,0.2h-8.7c0,0.5,0.2,1.1,0.4,1.5s0.5,0.9,0.8,1.2
		c0.3,0.3,0.7,0.6,1.2,0.8s0.9,0.3,1.4,0.3c0.3,0,0.7,0,1-0.1c0.3-0.1,0.6-0.2,0.9-0.4c0.3-0.2,0.5-0.3,0.7-0.6
		c0.2-0.2,0.4-0.5,0.5-0.8l1.2,0.3c-0.2,0.4-0.4,0.7-0.7,1c-0.3,0.3-0.6,0.6-1,0.8s-0.8,0.4-1.3,0.5
		C341.9,74.2,341.4,74.3,340.9,74.3z M344.7,68.4c0-0.5-0.2-1-0.4-1.5c-0.2-0.5-0.5-0.8-0.8-1.2c-0.3-0.3-0.7-0.6-1.2-0.8
		c-0.4-0.2-0.9-0.3-1.4-0.3c-0.5,0-1,0.1-1.4,0.3c-0.4,0.2-0.8,0.4-1.2,0.8c-0.3,0.3-0.6,0.7-0.8,1.2c-0.2,0.5-0.3,1-0.4,1.5H344.7z
		"/>
	<path class="st1" d="M353,59.8h1.3v12c0,0.4,0.1,0.7,0.3,0.9c0.2,0.2,0.5,0.3,0.9,0.3c0.1,0,0.3,0,0.5-0.1c0.2,0,0.4-0.1,0.5-0.2
		l0.2,1.1c-0.2,0.1-0.6,0.2-0.9,0.3c-0.4,0.1-0.7,0.1-0.9,0.1c-0.6,0-1.1-0.2-1.5-0.5c-0.4-0.3-0.5-0.8-0.5-1.5V59.8z"/>
	<path class="st1" d="M361.3,74.3c-1.1,0-1.9-0.4-2.4-1.1c-0.5-0.7-0.8-1.8-0.8-3.3v-6h1.3v5.8c0,2.3,0.8,3.5,2.4,3.5
		c0.4,0,0.8-0.1,1.2-0.2c0.4-0.1,0.7-0.3,1-0.6s0.6-0.5,0.9-0.9c0.3-0.3,0.5-0.7,0.6-1.2v-6.4h1.3v8.5c0,0.4,0.2,0.5,0.5,0.5v1.2
		c-0.3,0-0.4,0.1-0.5,0.1c-0.3,0-0.6-0.1-0.8-0.3c-0.2-0.2-0.3-0.4-0.3-0.7v-1.4c-0.5,0.8-1.1,1.4-1.8,1.9
		C363,74.1,362.2,74.3,361.3,74.3z"/>
	<path class="st1" d="M368.9,73.2l6.9-8.3h-6.7v-1h8.2v0.9l-6.9,8.3h6.9v1h-8.4V73.2z"/>
</g>
<g>
	<g>
		<g>
			<polygon class="st3" points="224.8,30.7 224.8,41.9 207.8,43.5 208,32.2 			"/>
		</g>
		<g>
			<path class="st4" d="M110,48.1V36.9c0-2.7,0.6-5.4,2.1-8.2c2.8-5.4,7.9-9.9,14.6-13.2c1.8-1,3.8-1.8,6-2.6
				c11.7-4.4,26.5-5.7,40.9-3.3c8.1,1.3,15,3.9,20.5,7.1c7.3,4.1,12.2,9.6,13.9,15.5v11.2c-1.7-5.9-6.7-11.3-13.9-15.5
				c-5.6-3.2-12.6-5.7-20.5-7.1c-14.4-2.6-29.2-1.1-40.9,3.3c-2.1,0.9-4,1.6-6,2.6c-6.7,3.4-12,7.9-14.6,13.2
				C110.7,42.7,110,45.4,110,48.1z"/>
		</g>
		<g>
			<polygon class="st3" points="137.7,62.6 137.6,73.8 130,82.9 130,71.5 			"/>
		</g>
		<g>
			<g>
				<path class="st5" d="M124,48.1V36.9c0-2,0.5-3.9,1.5-5.9c3.9-7.4,14.6-12.7,27.2-14v11.2c-12.6,1.3-23.2,6.6-27.1,14.2
					C124.5,44.3,124,46.3,124,48.1z"/>
			</g>
			<g>
				<polygon class="st6" points="144.5,55.4 144.4,66.8 138.4,74.2 138.5,62.9 				"/>
			</g>
			<g>
				<path class="st7" d="M150,9.1l2.7,7.9c-12.6,1.3-23.3,6.6-27.2,14.2c-3.9,7.4,0,15.1,8.9,20.4c2.8,1.7,6.2,3.1,10,4l-6,7.3
					c-0.2-0.1-0.6-0.1-1-0.2c-4.9-1.5-9.3-3.3-13.1-5.4c-3.4-2-6.2-4.1-8.5-6.6c-7.2-7.7-8.2-17.2-1.3-25.7c3.1-3.8,7.1-6.8,12-9.4
					c1.8-1,3.8-1.8,6-2.6C137.8,11,143.7,9.8,150,9.1z"/>
			</g>
			<g>
				<path class="st5" d="M137.1,73.7c0-3.8,0-7.6,0-11.2c0.1,0.1,0.2,0.1,0.5,0.1c0.2,0.1,0.6,0.1,1,0.2V74c-0.2-0.1-0.6-0.1-1-0.2
					C137.3,73.8,137.2,73.8,137.1,73.7z"/>
			</g>
		</g>
		<g>
			<path class="st4" d="M92.8,48c0-3.8,0-7.6,0-11.2c0,10.2,7,20.3,19.6,27.6c5,2.9,10.9,5.4,17.6,7.3v11.2
				c-6.7-1.8-12.6-4.4-17.6-7.3C99.7,68.2,92.7,58.2,92.8,48z"/>
		</g>
		<g>
			<path class="st8" d="M206.6,9.9c9.5,5.5,15.7,12.6,18.2,20.6l-16.7,1.7c-1.7-5.9-6.7-11.2-13.9-15.5c-5.6-3.2-12.6-5.7-20.5-7.1
				c-14.4-2.6-29.2-1.1-40.9,3.3c-2.1,0.9-4,1.6-6,2.6c-6.7,3.4-12,7.9-14.6,13.2c-4,7.6-2.2,15.5,4,22c2.2,2.4,5.1,4.6,8.5,6.6
				c3.8,2.2,8.1,4,13.1,5.4l-7.6,8.9c-6.7-1.8-12.6-4.4-17.6-7.3C92.8,53,86.7,35.1,99.7,20c16.1-19,56-26.8,88.9-17.4
				C195.5,4.5,201.5,7,206.6,9.9z"/>
		</g>
	</g>
	<polygon class="st2" points="218.7,-17.5 218.7,0.4 201.7,0.4 196.5,11.5 191.1,0.4 183.9,0.4 183.9,-17.5 	"/>
	<g>
		<path class="st9" d="M193-7.5c0.6,0.1,1.1,0.5,1.5,1s0.6,1.1,0.6,1.8c0,0.5-0.1,1-0.2,1.3c-0.2,0.4-0.5,0.7-0.9,1
			c-0.4,0.2-0.9,0.5-1.2,0.6c-0.5,0.1-1,0.2-1.7,0.2c-0.9,0-1.5-0.1-2.1-0.4c-0.6-0.2-1.1-0.6-1.5-1.1l1.1-1.5
			c0.2,0.4,0.6,0.6,1,0.9c0.4,0.2,0.9,0.2,1.3,0.2c0.6,0,1.1-0.1,1.5-0.4c0.4-0.2,0.5-0.6,0.5-1.1s-0.2-1-0.6-1.2
			c-0.4-0.2-1-0.5-1.7-0.5h-0.4v-1.5h0.5c0.6,0,1.1-0.1,1.5-0.5c0.4-0.2,0.5-0.6,0.5-1.1s-0.1-0.7-0.5-1c-0.2-0.2-0.6-0.2-1.1-0.2
			s-0.9,0.1-1.2,0.2c-0.4,0.2-0.6,0.5-1,0.9l-1.2-1.5c0.1-0.2,0.4-0.5,0.6-0.6c0.2-0.2,0.6-0.4,0.9-0.5c0.2-0.1,0.6-0.2,1-0.2
			c0.4-0.1,0.9-0.1,1.1-0.1c0.5,0,1,0.1,1.5,0.2c0.5,0.1,0.9,0.2,1.1,0.6c0.2,0.2,0.6,0.5,0.7,0.9c0.1,0.4,0.2,0.7,0.2,1.1
			c0,0.2-0.1,0.6-0.1,0.9c-0.1,0.2-0.2,0.5-0.4,0.7c-0.1,0.2-0.4,0.5-0.6,0.6C193.4-7.7,193.2-7.7,193-7.5z"/>
		<path class="st9" d="M203.7-8.4c0,0.6-0.1,1.3-0.2,1.8c-0.2,0.6-0.5,1.1-0.9,1.5c-0.4,0.5-0.9,0.7-1.2,1c-0.5,0.2-1,0.4-1.6,0.4
			s-1.1-0.1-1.6-0.4c-0.5-0.2-0.9-0.6-1.2-1c-0.4-0.5-0.6-0.9-0.9-1.5c-0.2-0.6-0.2-1.1-0.2-1.8s0.1-1.3,0.2-1.8
			c0.2-0.6,0.5-1.1,0.9-1.5c0.4-0.5,0.9-0.7,1.2-1c0.5-0.2,1-0.4,1.6-0.4s1.1,0.1,1.6,0.4c0.5,0.2,0.9,0.6,1.2,1
			c0.4,0.5,0.6,0.9,0.9,1.5C203.6-9.7,203.7-9.1,203.7-8.4z M201.6-8.4c0-0.5-0.1-0.9-0.1-1.1c-0.1-0.4-0.2-0.6-0.4-0.9
			c-0.1-0.2-0.4-0.5-0.6-0.6c-0.2-0.1-0.5-0.2-0.7-0.2s-0.6,0.1-0.9,0.2c-0.2,0.1-0.5,0.2-0.6,0.6c-0.1,0.2-0.2,0.5-0.4,0.9
			c-0.1,0.4-0.1,0.7-0.1,1.1c0,0.5,0.1,0.9,0.1,1.1c0.1,0.4,0.2,0.6,0.4,0.9c0.1,0.2,0.4,0.5,0.6,0.6s0.5,0.2,0.9,0.2
			c0.2,0,0.5-0.1,0.7-0.2s0.5-0.2,0.6-0.6c0.1-0.2,0.2-0.5,0.4-0.9S201.6-8,201.6-8.4z"/>
		<path class="st9" d="M207-10.3c-0.4,0-0.6-0.1-1-0.2c-0.2-0.1-0.6-0.2-0.9-0.5c-0.2-0.2-0.5-0.5-0.6-0.7s-0.2-0.6-0.2-1
			c0-0.2,0.1-0.6,0.2-0.9c0.1-0.2,0.2-0.5,0.6-0.7c0.2-0.2,0.5-0.4,0.9-0.5s0.6-0.2,1-0.2s0.6,0.1,1,0.2c0.2,0.1,0.6,0.2,0.9,0.5
			c0.2,0.2,0.5,0.5,0.5,0.7c0.1,0.2,0.2,0.6,0.2,0.9c0,0.2-0.1,0.6-0.2,1c-0.1,0.4-0.2,0.5-0.5,0.7c-0.2,0.2-0.5,0.4-0.9,0.5
			C207.6-10.3,207.4-10.3,207-10.3z M205.3-4.6l4.4-5l4-5.2l1,0.9L210.6-9l-4,5.4L205.3-4.6z M207-11.3c0.1,0,0.2,0,0.5-0.1
			c0.1-0.1,0.2-0.1,0.4-0.2s0.1-0.2,0.2-0.5c0.1-0.1,0.1-0.2,0.1-0.5c0-0.4-0.1-0.6-0.2-1c-0.2-0.2-0.5-0.4-0.9-0.4
			c-0.1,0-0.2,0-0.5,0.1s-0.2,0.1-0.4,0.2c-0.1,0.1-0.2,0.2-0.2,0.5c-0.1,0.1-0.1,0.2-0.1,0.5c0,0.2,0,0.4,0.1,0.5s0.1,0.2,0.2,0.5
			c0.1,0.1,0.2,0.2,0.4,0.2C206.6-11.3,206.7-11.3,207-11.3z M212.8-3.8c-0.4,0-0.6-0.1-1-0.2c-0.2-0.1-0.6-0.2-0.9-0.5
			c-0.2-0.2-0.5-0.5-0.5-0.7c-0.1-0.2-0.2-0.6-0.2-1s0.1-0.6,0.2-1c0.1-0.4,0.2-0.5,0.5-0.7c0.2-0.2,0.5-0.4,0.9-0.5
			c0.2-0.1,0.6-0.2,1-0.2s0.7,0.1,1,0.2s0.6,0.2,0.9,0.5c0.2,0.2,0.5,0.5,0.5,0.7c0.1,0.2,0.2,0.6,0.2,1s-0.1,0.6-0.2,1
			c-0.1,0.4-0.2,0.5-0.5,0.7c-0.2,0.2-0.5,0.4-0.9,0.5S213.1-3.8,212.8-3.8z M212.8-4.8c0.2,0,0.6-0.1,0.9-0.4
			c0.2-0.2,0.2-0.6,0.2-0.9c0-0.4-0.1-0.6-0.4-1c-0.2-0.2-0.5-0.4-0.9-0.4c-0.1,0-0.2,0.1-0.5,0.1c-0.1,0.1-0.2,0.1-0.4,0.2
			c-0.1,0.1-0.2,0.2-0.2,0.5c-0.1,0.1-0.1,0.2-0.1,0.5c0,0.4,0.1,0.6,0.2,1C212.2-5,212.5-4.8,212.8-4.8z"/>
	</g>
	<g>
		<g>
			<g class="st0">
				<g>
					<polygon class="st10" points="124,16.1 139.8,5.5 139.8,7.5 124,18.3 					"/>
				</g>
				<g>
					<polygon class="st11" points="114.6,11.9 130.4,1.1 139.8,5.5 124,16.1 					"/>
				</g>
				<g>
					<polygon class="st12" points="124,16.1 124,18.3 114.6,13.8 114.6,11.9 					"/>
				</g>
			</g>
		</g>
		<g>
			<g class="st0">
				<g>
					<polygon class="st10" points="127.3,1.7 133.5,-2.5 133.4,8.4 127.2,12.7 					"/>
				</g>
				<g>
					<polygon class="st13" points="117.9,-2.7 124.1,-6.9 133.5,-2.5 127.3,1.7 					"/>
				</g>
				<g>
					<polygon class="st12" points="127.3,1.7 127.2,12.7 117.8,8.3 117.9,-2.7 					"/>
				</g>
			</g>
		</g>
		<g>
			<g class="st0">
				<g>
					<polygon class="st14" points="107.7,-6.3 131.8,-21.7 119.9,-13.5 					"/>
				</g>
				<g>
					<polygon class="st15" points="107.7,-6.3 131.8,-21.7 143.1,-2.2 119.4,13.8 					"/>
				</g>
				<g>
					<polygon class="st16" points="120.1,12.8 143.8,-3.1 143.1,-2.2 119.4,13.8 					"/>
				</g>
				<g>
					<polygon class="st12" points="108.3,-7.7 120.1,12.8 119.4,13.8 107.7,-6.3 					"/>
				</g>
				<g>
					<polygon class="st9" points="108.3,-7.7 132,-23.8 143.8,-3.1 120.1,12.8 					"/>
				</g>
			</g>
			<g>
				<polygon class="st17" points="110.5,-7 131.5,-21.3 141.6,-3.9 120.6,10.4 				"/>
				<g>
					<polygon class="st9" points="114.4,2.1 114.7,2.8 137.1,-12.4 136.7,-13 					"/>
				</g>
				<g>
					<polygon class="st9" points="111.9,-2.8 112.4,-2.2 134.8,-17.3 134.3,-17.9 					"/>
				</g>
				<g>
					<polygon class="st9" points="117.4,6.5 117.9,7.2 140.2,-8 139.8,-8.6 					"/>
				</g>
			</g>
			<g>
				<g>
					<polygon class="st9" points="114,-9.7 124.6,8.6 125.6,8.2 114.9,-10.1 					"/>
				</g>
				<g>
					<polygon class="st9" points="118.3,-13.3 128.9,5 129.9,4.7 119.1,-13.6 					"/>
				</g>
				<g>
					<polygon class="st9" points="122.6,-16.4 133.3,2 134.3,1.6 123.7,-16.8 					"/>
				</g>
				<g>
					<polygon class="st9" points="127,-19.5 137.6,-1.1 138.5,-1.4 127.9,-19.7 					"/>
				</g>
			</g>
		</g>
	</g>
	<g>
		<g>
			<g class="st0">
				<g>
					<polygon class="st10" points="151.8,11.5 167.6,0.8 167.6,2.8 151.8,13.6 					"/>
				</g>
				<g>
					<polygon class="st11" points="142.4,7.1 158.2,-3.6 167.6,0.8 151.8,11.5 					"/>
				</g>
				<g>
					<polygon class="st12" points="151.8,11.5 151.8,13.6 142.4,9.2 142.4,7.1 					"/>
				</g>
			</g>
		</g>
		<g>
			<g class="st0">
				<g>
					<polygon class="st10" points="155.1,-2.9 161.4,-7.2 161.2,3.8 155,8.1 					"/>
				</g>
				<g>
					<polygon class="st13" points="145.7,-7.3 152,-11.6 161.4,-7.2 155.1,-2.9 					"/>
				</g>
				<g>
					<polygon class="st12" points="155.1,-2.9 155,8.1 145.6,3.7 145.7,-7.3 					"/>
				</g>
			</g>
		</g>
		<g>
			<g class="st0">
				<g>
					<polygon class="st14" points="135.5,-10.9 159.6,-26.4 147.7,-18.1 					"/>
				</g>
				<g>
					<polygon class="st15" points="135.5,-10.9 159.6,-26.4 170.9,-6.9 147.2,9.2 					"/>
				</g>
				<g>
					<polygon class="st16" points="147.9,8.2 171.6,-7.9 170.9,-6.9 147.2,9.2 					"/>
				</g>
				<g>
					<polygon class="st12" points="136.1,-12.3 147.9,8.2 147.2,9.2 135.5,-10.9 					"/>
				</g>
				<g>
					<polygon class="st9" points="136.1,-12.3 159.8,-28.4 171.6,-7.9 147.9,8.2 					"/>
				</g>
			</g>
			<g>
				<polygon class="st17" points="138.3,-11.7 159.3,-26 169.4,-8.5 148.4,5.6 				"/>
				<g>
					<polygon class="st9" points="142.2,-2.5 142.6,-1.9 164.9,-17.1 164.5,-17.8 					"/>
				</g>
				<g>
					<polygon class="st9" points="139.8,-7.4 140.2,-6.7 162.6,-21.9 162.1,-22.7 					"/>
				</g>
				<g>
					<polygon class="st9" points="145.3,1.7 145.7,2.5 168.1,-12.7 167.6,-13.4 					"/>
				</g>
			</g>
			<g>
				<g>
					<polygon class="st9" points="141.8,-14.5 152.4,3.9 153.4,3.6 142.8,-14.7 					"/>
				</g>
				<g>
					<polygon class="st9" points="146.1,-18 156.7,0.4 157.7,0 147.1,-18.4 					"/>
				</g>
				<g>
					<polygon class="st9" points="150.4,-21.1 161.1,-2.8 162.1,-3.1 151.5,-21.4 					"/>
				</g>
				<g>
					<polygon class="st9" points="154.8,-24.1 165.4,-5.7 166.4,-6.1 155.7,-24.5 					"/>
				</g>
			</g>
		</g>
	</g>
	<g>
		<g>
			<g class="st0">
				<g>
					<polygon class="st10" points="108.5,40.4 124.3,29.7 124.3,31.8 108.5,42.5 					"/>
				</g>
				<g>
					<polygon class="st11" points="99.1,36 114.9,25.4 124.3,29.7 108.5,40.4 					"/>
				</g>
				<g>
					<polygon class="st12" points="108.5,40.4 108.5,42.5 99.1,38.1 99.1,36 					"/>
				</g>
			</g>
		</g>
		<g>
			<g class="st0">
				<g>
					<polygon class="st10" points="111.8,26 118.2,21.7 118,32.7 111.7,37 					"/>
				</g>
				<g>
					<polygon class="st13" points="102.4,21.6 108.8,17.4 118.2,21.7 111.8,26 					"/>
				</g>
				<g>
					<polygon class="st12" points="111.8,26 111.7,37 102.3,32.6 102.4,21.6 					"/>
				</g>
			</g>
		</g>
		<g>
			<g class="st0">
				<g>
					<polygon class="st14" points="92.3,18 116.3,2.5 104.5,10.8 					"/>
				</g>
				<g>
					<polygon class="st15" points="92.3,18 116.3,2.5 127.6,22 103.9,38.1 					"/>
				</g>
				<g>
					<polygon class="st16" points="104.7,37.1 128.4,21 127.6,22 103.9,38.1 					"/>
				</g>
				<g>
					<polygon class="st12" points="92.8,16.6 104.7,37.1 103.9,38.1 92.3,18 					"/>
				</g>
				<g>
					<polygon class="st9" points="92.8,16.6 116.5,0.5 128.4,21 104.7,37.1 					"/>
				</g>
			</g>
			<g>
				<polygon class="st17" points="95.1,17.2 116.1,3 126.1,20.4 105.1,34.7 				"/>
				<g>
					<polygon class="st9" points="98.9,26.4 99.3,27.1 121.7,11.9 121.3,11.1 					"/>
				</g>
				<g>
					<polygon class="st9" points="96.6,21.5 96.9,22.2 119.3,7 118.9,6.3 					"/>
				</g>
				<g>
					<polygon class="st9" points="102.1,30.7 102.4,31.4 124.9,16.3 124.4,15.5 					"/>
				</g>
			</g>
			<g>
				<g>
					<polygon class="st9" points="98.5,14.5 109.3,32.9 110.1,32.5 99.5,14.2 					"/>
				</g>
				<g>
					<polygon class="st9" points="102.9,10.9 113.5,29.3 114.4,28.9 103.8,10.5 					"/>
				</g>
				<g>
					<polygon class="st9" points="107.2,7.8 117.8,26.1 118.8,25.8 108.2,7.5 					"/>
				</g>
				<g>
					<polygon class="st9" points="111.6,4.8 122.2,23.2 123,22.8 112.4,4.4 					"/>
				</g>
			</g>
		</g>
	</g>
</g>
</svg>
