<?xml version="1.0" encoding="utf-8"?>
<!-- Generator: Adobe Illustrator 19.0.1, SVG Export Plug-In . SVG Version: 6.00 Build 0)  -->
<svg version="1.1" id="Capa_1" xmlns="http://www.w3.org/2000/svg" xmlns:xlink="http://www.w3.org/1999/xlink" x="0px" y="0px"
	 viewBox="-23 -14 80 80" style="enable-background:new -23 -14 80 80;" xml:space="preserve">
<style type="text/css">
	.st0{fill-rule:evenodd;clip-rule:evenodd;fill:#BCD85F;}
	.st1{fill-rule:evenodd;clip-rule:evenodd;fill:#4BA2AF;}
	.st2{fill-rule:evenodd;clip-rule:evenodd;fill:#265677;}
</style>
<g>
	<circle class="st0" cx="22.2" cy="22.3" r="22.8"/>
	<ellipse class="st1" cx="15.5" cy="55.6" rx="27.7" ry="2.4"/>
	<path class="st2" d="M27.9-2.6h6.5v6.9l12.2,7.1l-3,5.2L16.8,1L-9.5,17.4l-3.2-5.1L15.1-5l1.5-1l1.6,0.9l9.7,5.6V-2.6L27.9-2.6z
		 M-2.1,16.3v24.8h-4.7v6H26l-2-5.3C9.3,39.1,4.3,28,7.2,16.7c15.5,0.1,23.9,7.6,21.4,20c-3.8-6-9.8-12.3-17.6-15.6
		C21.9,28.9,27.4,38.5,30.8,47h11.3v-6h-5.4V16.3L16.6,5.1L-2.1,16.3z"/>
</g>
</svg>
