<?xml version="1.0" encoding="utf-8"?>
<!-- Generator: Adobe Illustrator 19.0.1, SVG Export Plug-In . SVG Version: 6.00 Build 0)  -->
<svg version="1.1" xmlns="http://www.w3.org/2000/svg" xmlns:xlink="http://www.w3.org/1999/xlink" x="0px" y="0px"
	 viewBox="0 0 600 460" style="enable-background:new 0 0 600 460;" xml:space="preserve">
<style type="text/css">
	.st0{fill:#2A74A7;}
	.st1{font-family:'Raleway-Bold';}
	.st2{font-size:30px;}
	.st3{fill:#1D1D1B;}
	.st4{font-family:'Raleway';}
	.st5{font-size:16.2005px;}
	.st6{font-family:'Raleway-Heavy';}
	.st7{font-size:58.3217px;}
	.st8{fill:none;}
	.st9{font-size:11px;}
	.st10{font-size:10px;}
	.st11{font-size:14px;}
	.st12{font-size:12px;}
	.st13{font-size:9px;}
	.st14{fill:none;stroke:#2A74A7;stroke-miterlimit:10;}
	.st15{fill:#282D33;}
	.st16{fill:#FFFFFF;}
	.st17{fill:#B7BEC0;}
	.st18{display:none;}
	.st19{display:inline;fill:#4BA2AE;}
	.st20{display:inline;}
	.st21{fill:#4BA2AE;}
	.st22{fill:#292D33;}
	.st23{fill:#B6BDBF;}
	.st24{display:inline;fill:none;stroke:#4BA2AE;stroke-miterlimit:10;}
</style>
<g id="Capa_1_copia">
	<text transform="matrix(1 0 0 1 84.6335 46.442)" class="st0 st1 st2">RENTA DE PANELES SOLARES</text>
	<text transform="matrix(1 0 0 1 138.9956 128.4794)"><tspan x="0" y="0" class="st3 st4 st5">Reduce hasta</tspan><tspan x="-8.2" y="48.6" class="st0 st6 st7">30%</tspan><tspan x="-6.6" y="72.9" class="st3 st4 st5">tu recibo de luz</tspan></text>
	<rect x="15.8" y="236.5" class="st8" width="234" height="163.4"/>
	<text transform="matrix(1 0 0 1 43.0387 244.5801)"><tspan x="0" y="0" class="st3 st1 st9">Suncore pone esta inversión por ti</tspan><tspan x="-25.6" y="12" class="st3 st4 st10">instalando paneles para que produzcan la energía </tspan><tspan x="-25.3" y="24" class="st3 st4 st10">suficiente a la que actualmente consumes al mes. </tspan><tspan x="-19.7" y="49.2" class="st3 st4 st9">El costo de esta energía es más barata que</tspan><tspan x="-20.9" y="62.4" class="st3 st4 st9">la tarifa DAC, reduciendo el costo de CFE al </tspan><tspan x="-18.1" y="75.6" class="st3 st4 st9">mínimo y pagando por la energía </tspan><tspan x="152.3" y="75.6" class="st3 st1 st9">hasta un </tspan><tspan x="13.1" y="88.8" class="st3 st1 st9">30% menos del costo de CFE</tspan><tspan x="164.2" y="88.8" class="st3 st4 st9">. </tspan><tspan x="-17.3" y="102" class="st3 st4 st9">Los pagos es un monto determinado / fijo </tspan><tspan x="5.8" y="115.2" class="st3 st4 st9">que se paga a plazos mensuales.</tspan><tspan x="-18.5" y="128.4" class="st3 st1 st9">Forma de pago: Tarjeta de Crédito, Visa y </tspan><tspan x="56.3" y="141.6" class="st3 st1 st9">Master Card.</tspan></text>
	<g>
		<text transform="matrix(1 0 0 1 340.3026 128.3207)"><tspan x="0" y="0" class="st3 st1 st11">Ahorro inmediato del 30%</tspan><tspan x="0" y="12" class="st3 st4 st10">de la facturación eléctrica actual</tspan></text>
	</g>
	<g>
		<text transform="matrix(1 0 0 1 340.3026 177.2899)"><tspan x="0" y="0" class="st3 st1 st12">Proyecto sin inversión alguna</tspan><tspan x="0" y="14.4" class="st3 st4 st12">por parte del cliente</tspan></text>
	</g>
	<g>
		<text transform="matrix(1 0 0 1 340.3026 226.2595)"><tspan x="0" y="0" class="st3 st4 st12">El costo de </tspan><tspan x="65" y="0" class="st3 st1 st12">la energía eléctrica se congela</tspan><tspan x="242" y="0" class="st3 st4 st12">;</tspan><tspan x="0" y="10.8" class="st3 st4 st13">se hace independiente de los aumentos de tarifa de CFE</tspan></text>
	</g>
	<g>
		<text transform="matrix(1 0 0 1 340.3026 268.0291)"><tspan x="0" y="0" class="st3 st1 st10">El ahorro se incrementa</tspan><tspan x="0" y="16.8" class="st3 st4 st11">con el tiempo</tspan></text>
	</g>
	<g>
		<text transform="matrix(1 0 0 1 340.3026 316.999)"><tspan x="0" y="0" class="st3 st1 st12">Reducción de emisiones CO2</tspan><tspan x="0" y="14.4" class="st3 st4 st12">y otros gases contaminantes</tspan></text>
	</g>
	<g>
		<text transform="matrix(1 0 0 1 340.3026 365.9682)"><tspan x="0" y="0" class="st3 st4 st11">Proyección de imagen</tspan><tspan x="0" y="13.2" class="st3 st1 st9">ambientalmente responsable</tspan></text>
	</g>
	<g>
		<text transform="matrix(1 0 0 1 340.3026 415.1366)"><tspan x="0" y="0" class="st3 st4 st9">Generación de certificados de</tspan><tspan x="0" y="13.2" class="st3 st1 st9">energías limpias (CEL´s”) (monetizables)</tspan></text>
	</g>
	<line class="st14" x1="244.5" y1="64" x2="355.5" y2="64"/>
	<g>
		<circle class="st0" cx="63.3" cy="161.5" r="36.3"/>
		<g>
			<g>
				<g>
					<path class="st15" d="M70.7,183.5H53.3c-6.7,0-12.1-5.4-12.1-12.1v-8.3h4v8.3c0,4.5,3.6,8.1,8.1,8.1h17.5
						c4.5,0,8.1-3.6,8.1-8.1v-8.3h4v8.3C82.8,178.1,77.4,183.5,70.7,183.5z"/>
				</g>
				<g>
					<path class="st15" d="M84.5,160.6h-45c-1.1,0-2-0.9-2-2v-7.8c0-1.1,0.9-2,2-2h45c1.1,0,2,0.9,2,2v7.8
						C86.5,159.7,85.6,160.6,84.5,160.6z M41.5,156.6h41v-3.8h-41V156.6z"/>
				</g>
				<g>
					<g>
						<rect x="49.8" y="133.5" class="st15" width="4" height="17"/>
					</g>
					<g>
						<rect x="70.2" y="133.5" class="st15" width="4" height="17"/>
					</g>
				</g>
				<g>
					<rect x="51.7" y="163.3" class="st15" width="20.7" height="4"/>
				</g>
				<g>
					<rect x="51.7" y="169.7" class="st15" width="20.7" height="4"/>
				</g>
			</g>
			<g>
				<path class="st15" d="M63.3,212.7c-28.3,0-51.2-23-51.2-51.2s23-51.3,51.2-51.3c28.3,0,51.3,23,51.3,51.3
					c0,17.9-9.1,34.2-24.3,43.6l-2.1-3.4c14-8.7,22.4-23.7,22.4-40.2c0-26.1-21.2-47.3-47.3-47.3c-26.1,0-47.2,21.2-47.2,47.3
					c0,26.1,21.2,47.2,47.2,47.2V212.7z"/>
			</g>
			<g>
				<path class="st15" d="M81.3,207.4h-3.1c-10.3,0-18.6-8.4-18.6-18.8v-8.7h4v8.7c0,8.2,6.6,14.8,14.6,14.8h3.1
					c3.3,0,6.3-1.1,8.9-3.1l2.5,3.2C89.4,206,85.4,207.4,81.3,207.4z"/>
			</g>
		</g>
	</g>
	<g>
		<g>
			<g>
				<path class="st16" d="M315.9,116.3c-2.9,1-4.9,3.8-4.9,7c0,3.2,2.1,6,4.9,7c2.9-1,4.9-3.8,4.9-7
					C320.8,120.1,318.7,117.4,315.9,116.3z"/>
				<path class="st15" d="M315.9,131l-0.2-0.1c-3.2-1.1-5.3-4.2-5.3-7.5c0-3.4,2.1-6.4,5.3-7.5l0.2-0.1l0.2,0.1
					c3.2,1.1,5.3,4.2,5.3,7.5c0,3.4-2.1,6.4-5.3,7.5L315.9,131z M315.9,116.9c-2.6,1-4.4,3.6-4.4,6.5c0,2.8,1.8,5.4,4.4,6.4
					c2.6-1,4.4-3.6,4.4-6.4C320.2,120.5,318.5,117.9,315.9,116.9z"/>
			</g>
			<path class="st0" d="M315.9,128.6c-2-1-3.3-3-3.3-5.3c0-2.2,1.3-4.3,3.3-5.3c2,1,3.3,3,3.3,5.3
				C319.2,125.6,317.9,127.6,315.9,128.6z"/>
			<g>
				<path class="st16" d="M315.9,116.3l0,13.6L315.9,116.3z"/>
				<rect x="315.3" y="116.3" class="st15" width="1.1" height="13.6"/>
			</g>
			<g>
				<path class="st16" d="M315.9,130.4v2.2V130.4z"/>
				<rect x="315.3" y="130.4" class="st15" width="1.1" height="2.2"/>
			</g>
			<g>
				<path class="st16" d="M320.4,120.7l-4.4,4L320.4,120.7z"/>
				
					<rect x="317.7" y="119.7" transform="matrix(0.6743 0.7385 -0.7385 0.6743 194.2651 -195.0333)" class="st15" width="1.1" height="5.9"/>
			</g>
			<g>
				<path class="st16" d="M312.3,119.7l3.4,3.1L312.3,119.7z"/>
				
					<rect x="311.7" y="120.7" transform="matrix(0.7382 0.6745 -0.6745 0.7382 163.952 -180.0455)" class="st15" width="4.6" height="1.1"/>
			</g>
			<g>
				<path class="st16" d="M311.1,123.1l4.6,4.2L311.1,123.1z"/>
				
					<rect x="310.3" y="124.7" transform="matrix(0.7384 0.6743 -0.6743 0.7384 166.4164 -178.5634)" class="st15" width="6.3" height="1.1"/>
			</g>
		</g>
		<g>
			<g>
				<g>
					<g>
						<path class="st16" d="M308.4,131.7l-1.2-1.2v-3.6c-0.1-0.9-0.8-1.8-1.7-1.8l-0.5,0c0,0,0,0-0.1,0l0.1,6.4l0.9,1.5
							C306.8,132.8,307.7,132.4,308.4,131.7z"/>
						<path class="st15" d="M305.6,133.6l-1.1-1.9l-0.1-7.1l0.5,0c0,0,0.1,0,0.1,0l0.5,0c1.2,0,2.1,1.1,2.2,2.2l0,0.1v3.3l1.4,1.5
							l-0.4,0.4c-0.8,0.8-1.8,1.3-2.8,1.5L305.6,133.6z M305.5,131.4l0.6,1c0.5-0.1,1-0.4,1.5-0.7l-0.9-1v-3.7
							c-0.1-0.6-0.6-1.3-1.1-1.3l-0.1,0L305.5,131.4z"/>
					</g>
					<g>
						<path class="st16" d="M307.6,137.7l-4.8-8.1l-0.1-6.4c0,0,0,0,0.1,0l0.5,0c0.9,0,1.5,0.9,1.7,1.8v3.6l1.3,1.4l3.8,3.8l0.3-0.3
							l-2.4-2.4c-0.6-0.6-0.4-1.8,0.2-2.4c0,0,0.2-0.1,0.2-0.1l4.2,4.2l0.2,3.1v2.3L307.6,137.7z"/>
						<path class="st15" d="M313.5,138.1h-1.1v-2.2l-0.2-2.8l-3.7-3.7c-0.3,0.4-0.3,1,0,1.3l2.7,2.7l-1.1,1.1l-4.2-4.2l-1.5-1.6V125
							c-0.1-0.6-0.6-1.3-1.1-1.3h-0.1l0.1,5.7l4.8,8l-0.9,0.6l-4.9-8.2l-0.1-7.1l0.5,0c0,0,0.1,0,0.1,0l0.5,0c1.2,0,2.1,1.1,2.2,2.2
							l0,0.1v3.3l1.2,1.2l0.5,0.5c0-0.7,0.3-1.3,0.8-1.8l0,0l0.5-0.5l4.7,4.7l0.2,3.3V138.1z"/>
					</g>
					<rect x="306.2" y="138.8" class="st17" width="8.5" height="3.2"/>
				</g>
				<g>
					<g>
						<path class="st16" d="M323.1,131.7l1.2-1.2v-3.6c0.1-0.9,0.8-1.8,1.7-1.8l0.5,0c0,0,0,0,0.1,0l-0.1,6.4l-0.9,1.5
							C324.7,132.8,323.8,132.4,323.1,131.7z"/>
						<path class="st15" d="M325.9,133.6l-0.4,0c-1.1-0.1-2-0.7-2.8-1.5l-0.4-0.4l1.4-1.5l0-3.4c0.2-1.1,1-2.2,2.2-2.2l0.5,0
							c0,0,0.1,0,0.1,0l0.5,0l0,0.5l-0.1,6.5L325.9,133.6z M323.9,131.6c0.5,0.4,1,0.6,1.5,0.7l0.6-1l0.1-5.7l-0.1,0
							c-0.6,0-1,0.6-1.1,1.3v3.7L323.9,131.6z"/>
					</g>
					<g>
						<path class="st16" d="M323.9,137.7l4.8-8.1l0.1-6.4c0,0,0,0-0.1,0l-0.5,0c-0.9,0-1.5,0.9-1.7,1.8v3.6l-1.3,1.4l-3.8,3.8
							l-0.3-0.3l2.4-2.4c0.6-0.6,0.4-1.8-0.2-2.4c0,0-0.2-0.1-0.2-0.1l-4.2,4.2l-0.2,3.1v2.3L323.9,137.7z"/>
						<path class="st15" d="M319.1,138.1H318l0-2.3l0.2-3.3l4.7-4.7l0.4,0.3c0,0,0.2,0.1,0.2,0.1l0,0c0.5,0.4,0.7,1.1,0.8,1.8
							l0.5-0.5l1.2-1.2l0-3.4c0.2-1.1,1-2.2,2.2-2.2l0.5,0c0,0,0.1,0,0.1,0l0.5,0l0,0.5l-0.1,6.5l-4.9,8.2l-0.9-0.6l4.8-8l0.1-5.7
							l-0.1,0c-0.6,0-1,0.6-1.1,1.3v3.7l-1.5,1.6l-4.2,4.2l-1.1-1.1l2.7-2.7c0.3-0.3,0.2-0.9,0-1.3l-3.7,3.7l-0.2,2.8V138.1z"/>
					</g>
					<rect x="316.8" y="138.8" class="st17" width="8.5" height="3.2"/>
				</g>
			</g>
		</g>
	</g>
	<g>
		<g>
			<g>
				<path class="st16" d="M322.4,165.9l-0.5,2.5L322.4,165.9z"/>
				
					<rect x="321.6" y="165.8" transform="matrix(0.9775 0.2112 -0.2112 0.9775 42.5575 -64.2542)" class="st15" width="1.1" height="2.6"/>
			</g>
			<g>
				<path class="st16" d="M317.5,166.2l0.8,2.5L317.5,166.2z"/>
				
					<rect x="316.6" y="166.9" transform="matrix(0.3057 0.9521 -0.9521 0.3057 380.1492 -186.4845)" class="st15" width="2.6" height="1.1"/>
			</g>
			<g>
				<path class="st16" d="M313.5,168.9l1.9,1.7L313.5,168.9z"/>
				
					<rect x="313.1" y="169.2" transform="matrix(0.7407 0.6718 -0.6718 0.7407 195.583 -167.2379)" class="st15" width="2.6" height="1.1"/>
			</g>
			<g>
				<path class="st16" d="M311.3,173.3l2.5,0.5L311.3,173.3z"/>
				
					<rect x="311.3" y="173" transform="matrix(0.9774 0.2113 -0.2113 0.9774 43.7158 -62.1213)" class="st15" width="2.6" height="1.1"/>
			</g>
			<g>
				<path class="st16" d="M311.6,178.1l2.5-0.8L311.6,178.1z"/>
				
					<rect x="312.3" y="176.4" transform="matrix(0.3057 0.9521 -0.9521 0.3057 386.4502 -174.4858)" class="st15" width="1.1" height="2.6"/>
			</g>
			<g>
				<path class="st16" d="M314.3,182.2l1.7-1.9L314.3,182.2z"/>
				
					<rect x="314.7" y="179.9" transform="matrix(0.7407 0.6718 -0.6718 0.7407 203.489 -164.7723)" class="st15" width="1.1" height="2.6"/>
			</g>
			<g>
				<path class="st16" d="M318.7,184.4l0.5-2.5L318.7,184.4z"/>
				
					<rect x="318.4" y="181.8" transform="matrix(0.9773 0.2116 -0.2116 0.9773 45.9728 -63.3592)" class="st15" width="1.1" height="2.6"/>
			</g>
			<g>
				<path class="st16" d="M323.6,184l-0.8-2.5L323.6,184z"/>
				
					<rect x="321.9" y="182.3" transform="matrix(0.3054 0.9522 -0.9522 0.3054 398.5677 -180.7478)" class="st15" width="2.6" height="1.1"/>
			</g>
			<g>
				<path class="st16" d="M327.6,181.3l-1.9-1.7L327.6,181.3z"/>
				
					<rect x="325.4" y="179.9" transform="matrix(0.7406 0.6719 -0.6719 0.7406 205.998 -172.687)" class="st15" width="2.6" height="1.1"/>
			</g>
			<g>
				<path class="st16" d="M329.8,177l-2.5-0.5L329.8,177z"/>
				
					<rect x="327.2" y="176.2" transform="matrix(0.9773 0.2118 -0.2118 0.9773 44.8748 -65.5699)" class="st15" width="2.6" height="1.1"/>
			</g>
			<g>
				<path class="st16" d="M329.5,172.1l-2.5,0.8L329.5,172.1z"/>
				
					<rect x="327.7" y="171.2" transform="matrix(0.3056 0.9521 -0.9521 0.3056 392.1675 -192.7678)" class="st15" width="1.1" height="2.6"/>
			</g>
			<g>
				<path class="st16" d="M326.8,168L325,170L326.8,168z"/>
				
					<rect x="325.4" y="167.7" transform="matrix(0.7407 0.6718 -0.6718 0.7407 198.0558 -175.1401)" class="st15" width="1.1" height="2.6"/>
			</g>
		</g>
		<circle class="st17" cx="320.6" cy="175.1" r="5.5"/>
		<g>
			<g>
				<rect x="312.4" y="184.6" class="st16" width="3.1" height="3.5"/>
				<path class="st15" d="M316.1,188.6h-4.2v-4.6h4.2V188.6z M313,187.6h2v-2.4h-2V187.6z"/>
			</g>
			<g>
				<path class="st16" d="M310.2,188.1h7.6H310.2z"/>
				<rect x="310.2" y="187.6" class="st15" width="7.6" height="1.1"/>
			</g>
			<g>
				<g>
					<path class="st16" d="M325.6,185.6c-7.7,0-15.4,0-23.2,0c1.4-3.1,2.8-6.2,4.2-9.3c4.9,0,9.9,0,14.8,0
						C322.8,179.4,324.2,182.5,325.6,185.6z"/>
					<path class="st15" d="M325.6,186.1h-24l4.7-10.4h15.5l4.7,10.4L325.6,186.1z M303.3,185.1h21.5l-3.7-8.2H307L303.3,185.1z"/>
				</g>
				<g>
					<path class="st16" d="M303.9,181.8c6.7,0,13.4,0,20.1,0H303.9z"/>
					<rect x="303.9" y="181.3" class="st15" width="20.1" height="1.1"/>
				</g>
				<g>
					<path class="st16" d="M305.4,178.9c5.8,0,11.5,0,17.3,0H305.4z"/>
					<rect x="305.4" y="178.3" class="st15" width="17.3" height="1.1"/>
				</g>
				<g>
					<path class="st16" d="M309.2,176.3c-0.9,3.1-1.8,6.1-2.7,9.2L309.2,176.3z"/>
					
						<rect x="307.3" y="176.1" transform="matrix(0.9595 0.2818 -0.2818 0.9595 63.4308 -79.4046)" class="st15" width="1.1" height="9.6"/>
				</g>
				<g>
					<path class="st16" d="M311.6,176.3c-0.4,3.1-0.9,6.1-1.3,9.2L311.6,176.3z"/>
					
						<rect x="310.4" y="176.2" transform="matrix(0.9896 0.1438 -0.1438 0.9896 29.2356 -42.8285)" class="st15" width="1.1" height="9.3"/>
				</g>
				<g>
					<path class="st16" d="M314,176.3c0,3.1,0,6.1,0,9.2L314,176.3z"/>
					
						<rect x="309.5" y="180.3" transform="matrix(3.248510e-03 1 -1 3.248510e-03 493.9087 -133.7839)" class="st15" width="9.2" height="1.1"/>
				</g>
				<g>
					<path class="st16" d="M316.5,176.3c0.5,3.1,0.9,6.1,1.4,9.2L316.5,176.3z"/>
					
						<rect x="312.5" y="180.3" transform="matrix(0.1499 0.9887 -0.9887 0.1499 448.4425 -159.8493)" class="st15" width="9.3" height="1.1"/>
				</g>
				<g>
					<path class="st16" d="M318.9,176.3c0.9,3.1,1.8,6.1,2.8,9.2L318.9,176.3z"/>
					
						<rect x="315.5" y="180.3" transform="matrix(0.2875 0.9578 -0.9578 0.2875 401.4561 -177.9048)" class="st15" width="9.6" height="1.1"/>
				</g>
			</g>
		</g>
	</g>
	<g>
		<g>
			<path class="st15" d="M314.6,237.3l-4,0l-0.2-2.8c-0.7-0.2-1.4-0.5-2.1-0.9l-2.1,1.8l-2.8-2.8l1.8-2.2c-0.4-0.7-0.6-1.4-0.8-2.1
				l-2.7-0.2l0-4l2.8-0.2c0.2-0.7,0.5-1.4,0.9-2.1l-1.8-2.1l2.8-2.8l2.2,1.8c0.7-0.4,1.4-0.6,2.1-0.8l0.2-2.7h4l0.3,3.2l-1.1,0.1
				l-0.2-2.2H312l-0.2,2.5l-0.4,0.1c-0.9,0.2-1.7,0.5-2.5,1l-0.3,0.2l-2-1.7l-1.4,1.4l1.6,1.9l-0.2,0.3c-0.5,0.7-0.9,1.6-1.1,2.5
				l-0.1,0.4l-2.6,0.2l0,1.9l2.5,0.2l0.1,0.4c0.2,0.9,0.5,1.7,1,2.5l0.2,0.3l-1.7,2l1.4,1.4l1.9-1.6l0.3,0.2
				c0.7,0.5,1.6,0.9,2.5,1.1l0.4,0.1l0.2,2.6l2,0l0.2-2.5l0.4-0.1c0.9-0.2,1.7-0.5,2.5-1l0.3-0.2l2,1.7l1.4-1.4l-1.6-1.9l0.2-0.3
				c0.5-0.7,0.9-1.6,1.1-2.5l1.1,0.3c-0.2,0.9-0.6,1.7-1,2.5l1.8,2.1l-2.8,2.8l-2.2-1.8c-0.7,0.4-1.4,0.6-2.1,0.8L314.6,237.3z"/>
		</g>
		<circle class="st17" cx="312.8" cy="226.2" r="5.3"/>
		<g>
			<circle class="st16" cx="312.8" cy="226.2" r="3.3"/>
			<path class="st15" d="M312.8,230c-2.1,0-3.8-1.7-3.8-3.8c0-2.1,1.7-3.8,3.8-3.8c2.1,0,3.8,1.7,3.8,3.8
				C316.7,228.3,314.9,230,312.8,230z M312.8,223.5c-1.5,0-2.7,1.2-2.7,2.7c0,1.5,1.2,2.7,2.7,2.7s2.7-1.2,2.7-2.7
				C315.6,224.7,314.3,223.5,312.8,223.5z"/>
		</g>
		<g>
			<g>
				<path class="st16" d="M329,216.6c0.7,3.9-1.1,8-4.7,10.1c-3.6,2.1-8,1.6-11-1c-0.7-3.9,1-8,4.7-10.1
					C321.6,213.5,326,214,329,216.6z"/>
				<path class="st15" d="M319.6,228.5c-2.4,0-4.7-0.9-6.6-2.4l-0.2-0.1l0-0.2c-0.8-4.2,1.2-8.5,4.9-10.6c1.5-0.9,3.3-1.4,5.1-1.4
					c2.4,0,4.7,0.9,6.6,2.4l0.2,0.1l0,0.2c0.8,4.2-1.2,8.5-4.9,10.6C323.1,228,321.3,228.5,319.6,228.5z M313.8,225.4
					c1.6,1.3,3.6,2,5.7,2c1.6,0,3.2-0.4,4.5-1.2c3.2-1.9,5-5.6,4.4-9.3c-1.6-1.3-3.6-2-5.7-2c-1.6,0-3.2,0.4-4.5,1.2
					C315,217.9,313.2,221.7,313.8,225.4z"/>
			</g>
			<path class="st0" d="M319.6,226.1c-1.6,0-3.2-0.5-4.5-1.4c-0.3-3,1.2-6,3.9-7.5c1.2-0.7,2.5-1,3.9-1c1.6,0,3.2,0.5,4.5,1.4
				c0.3,3-1.2,6-3.9,7.5C322.3,225.7,320.9,226.1,319.6,226.1z"/>
			<g>
				<path class="st16" d="M329,216.6l-15.2,8.8L329,216.6z"/>
				
					<rect x="320.9" y="212.2" transform="matrix(0.5 0.866 -0.866 0.5 352.0921 -167.8545)" class="st15" width="1.1" height="17.6"/>
			</g>
			<g>
				<path class="st16" d="M313.3,225.7l-1.2,0.7L313.3,225.7z"/>
				<path class="st15" d="M312.1,226.9c-0.2,0-0.4-0.1-0.5-0.3c-0.2-0.3-0.1-0.6,0.2-0.7l1.2-0.7c0.3-0.2,0.6-0.1,0.7,0.2
					c0.2,0.3,0.1,0.6-0.2,0.7l-1.2,0.7C312.3,226.9,312.2,226.9,312.1,226.9z"/>
			</g>
			<g>
				<path class="st16" d="M323,214.7l-1.3,5.8L323,214.7z"/>
				
					<rect x="321.8" y="214.7" transform="matrix(0.9766 0.2149 -0.2149 0.9766 54.2895 -64.1727)" class="st15" width="1.1" height="6"/>
			</g>
			<g>
				<path class="st16" d="M318.3,215.6l-1.7,7.9L318.3,215.6z"/>
				
					<rect x="316.9" y="215.5" transform="matrix(0.9766 0.2149 -0.2149 0.9766 54.5934 -63.0874)" class="st15" width="1.1" height="8.1"/>
			</g>
			<g>
				<path class="st16" d="M327.6,222.8l-5.7-1.8L327.6,222.8z"/>
				
					<rect x="321.8" y="221.3" transform="matrix(0.9533 0.3021 -0.3021 0.9533 82.2003 -87.7468)" class="st15" width="6" height="1.1"/>
			</g>
			<g>
				<path class="st16" d="M324.5,226.3l-7.7-2.4L324.5,226.3z"/>
				
					<rect x="316.6" y="224.5" transform="matrix(0.9532 0.3024 -0.3024 0.9532 83.0733 -86.4247)" class="st15" width="8.1" height="1.1"/>
			</g>
		</g>
	</g>
	<g>
		<g>
			<g>
				<path class="st15" d="M315.7,284.3c-5.8,0-10.4-4.7-10.4-10.4c0-5.7,4.7-10.4,10.4-10.4c5.7,0,10.4,4.7,10.4,10.4
					C326.2,279.6,321.5,284.3,315.7,284.3z M315.7,264.5c-5.1,0-9.3,4.2-9.3,9.3c0,5.1,4.2,9.3,9.3,9.3c5.1,0,9.3-4.2,9.3-9.3
					C325.1,268.7,320.9,264.5,315.7,264.5z"/>
			</g>
			<circle class="st17" cx="315.7" cy="273.8" r="8.3"/>
			<g>
				<g>
					<path class="st15" d="M317.6,269.5c-0.1-0.1-0.3-0.1-0.5-0.2l0.3-1c0.2,0.1,0.4,0.1,0.6,0.2L317.6,269.5z"/>
				</g>
				<g>
					<path class="st15" d="M320.4,272.5c-0.1-0.3-0.2-0.7-0.4-1l0.9-0.5c0.2,0.4,0.4,0.8,0.5,1.2L320.4,272.5z M319.3,270.7
						c-0.2-0.3-0.5-0.5-0.8-0.7l0.6-0.9c0.3,0.3,0.7,0.5,1,0.9L319.3,270.7z"/>
				</g>
				<g>
					<path class="st15" d="M321.7,274.1h-1.1c0-0.2,0-0.3,0-0.5l1.1-0.1C321.7,273.7,321.7,273.9,321.7,274.1z"/>
				</g>
			</g>
			<g>
				<path class="st15" d="M315.5,280.1c-3.4,0-6.2-2.8-6.2-6.2c0-3.4,2.8-6.2,6.2-6.2v1.1c-2.8,0-5.1,2.3-5.1,5.1s2.3,5.1,5.1,5.1
					c2.8,0,5.1-2.3,5.1-5.1h1.1C321.7,277.3,318.9,280.1,315.5,280.1z"/>
			</g>
			<g>
				<polygon class="st15" points="314.1,270.9 313.4,270.1 314.9,268.6 313.4,267 314.1,266.2 316.5,268.6 				"/>
			</g>
		</g>
		<g>
			<g>
				<rect x="315.2" y="259.7" class="st15" width="1.1" height="2.5"/>
			</g>
			<g>
				
					<rect x="310.1" y="261.2" transform="matrix(0.3419 0.9397 -0.9397 0.3419 450.8258 -120.3281)" class="st15" width="2.5" height="1.1"/>
			</g>
			<g>
				
					<rect x="306.2" y="263.4" transform="matrix(0.6429 0.766 -0.766 0.6429 311.9988 -141.2278)" class="st15" width="2.5" height="1.1"/>
			</g>
			<g>
				
					<rect x="303.3" y="266.9" transform="matrix(0.8661 0.4999 -0.4999 0.8661 174.4688 -116.4491)" class="st15" width="2.5" height="1.1"/>
			</g>
			<g>
				
					<rect x="301.8" y="271.1" transform="matrix(0.9848 0.1737 -0.1737 0.9848 51.7773 -48.5034)" class="st15" width="2.5" height="1.1"/>
			</g>
			<g>
				
					<rect x="302.5" y="274.9" transform="matrix(0.1738 0.9848 -0.9848 0.1738 522.2451 -70.3357)" class="st15" width="1.1" height="2.5"/>
			</g>
			<g>
				<rect x="304" y="279.1" transform="matrix(0.5 0.866 -0.866 0.5 395.0184 -123.6242)" class="st15" width="1.1" height="2.5"/>
			</g>
			<g>
				
					<rect x="306.9" y="282.5" transform="matrix(0.7657 0.6432 -0.6432 0.7657 254.5075 -131.2738)" class="st15" width="1.1" height="2.5"/>
			</g>
			<g>
				
					<rect x="310.8" y="284.7" transform="matrix(0.9397 0.3421 -0.3421 0.9397 116.6219 -89.2571)" class="st15" width="1.1" height="2.5"/>
			</g>
			<g>
				<rect x="315.2" y="285.5" class="st15" width="1.1" height="2.5"/>
			</g>
			<g>
				
					<rect x="318.9" y="285.4" transform="matrix(0.3418 0.9398 -0.9398 0.3418 479.4425 -112.6544)" class="st15" width="2.5" height="1.1"/>
			</g>
			<g>
				
					<rect x="322.8" y="283.2" transform="matrix(0.6426 0.7662 -0.7662 0.6426 333.1977 -146.8671)" class="st15" width="2.5" height="1.1"/>
			</g>
			<g>
				
					<rect x="325.7" y="279.7" transform="matrix(0.8659 0.5003 -0.5003 0.8659 184.0749 -125.9464)" class="st15" width="2.5" height="1.1"/>
			</g>
			<g>
				
					<rect x="327.2" y="275.5" transform="matrix(0.9847 0.1741 -0.1741 0.9847 53.0679 -52.9522)" class="st15" width="2.5" height="1.1"/>
			</g>
			<g>
				
					<rect x="327.9" y="270.4" transform="matrix(0.1734 0.9849 -0.9849 0.1734 538.9957 -98.9388)" class="st15" width="1.1" height="2.5"/>
			</g>
			<g>
				
					<rect x="326.4" y="266.2" transform="matrix(0.4995 0.8663 -0.8663 0.4995 395.2442 -149.3715)" class="st15" width="1.1" height="2.5"/>
			</g>
			<g>
				
					<rect x="323.5" y="262.7" transform="matrix(0.7657 0.6432 -0.6432 0.7657 245.6855 -146.5606)" class="st15" width="1.1" height="2.5"/>
			</g>
			<g>
				
					<rect x="319.6" y="260.5" transform="matrix(0.9396 0.3423 -0.3423 0.9396 108.9395 -93.7807)" class="st15" width="1.1" height="2.5"/>
			</g>
		</g>
	</g>
	<g>
		<g>
			<g>
				<g>
					<path class="st15" d="M304.3,329.3c-3.3-5.3-2.5-12.1,1.9-16.5c2.5-2.5,5.9-3.9,9.5-3.9c3.6,0,6.9,1.4,9.5,3.9l-0.8,0.8
						c-2.3-2.3-5.4-3.6-8.7-3.6c-3.3,0-6.4,1.3-8.7,3.6c-4.1,4.1-4.8,10.3-1.8,15.2L304.3,329.3z"/>
				</g>
				<g>
					<polygon class="st15" points="325.3,313.9 321.6,313.9 321.6,312.8 324.2,312.8 324.2,310.2 325.3,310.2 					"/>
				</g>
			</g>
			<g>
				<g>
					<path class="st15" d="M315.8,335.5c-3.4,0-6.9-1.3-9.5-3.9l0.8-0.8c4.8,4.8,12.6,4.8,17.4,0c4-4,4.8-10.5,1.7-15.3l0.9-0.6
						c3.3,5.2,2.5,12.2-1.9,16.6C322.7,334.2,319.2,335.5,315.8,335.5z"/>
				</g>
				<g>
					<polygon class="st15" points="307.3,334.2 306.2,334.2 306.2,330.5 309.9,330.5 309.9,331.6 307.3,331.6 					"/>
				</g>
			</g>
		</g>
		<g>
			<g>
				<g>
					<g>
						<g>
							<g>
								<path class="st16" d="M316,314.7c-4.1-0.1-7.5,3.1-7.7,7.2c-0.1,4.1,3.1,7.5,7.2,7.7c4.1,0.1,7.5-3.1,7.7-7.2
									C323.3,318.3,320.1,314.8,316,314.7z"/>
								<path class="st15" d="M315.8,330.1C315.8,330.1,315.8,330.1,315.8,330.1c-0.1,0-0.2,0-0.3,0c-4.4-0.1-7.9-3.8-7.7-8.2
									c0.1-4.3,3.6-7.7,8-7.7c0.1,0,0.2,0,0.3,0c2.1,0.1,4.1,1,5.6,2.5c1.5,1.6,2.2,3.6,2.2,5.7
									C323.6,326.7,320.1,330.1,315.8,330.1z M315.8,315.3c-3.7,0-6.8,2.9-6.9,6.7c-0.1,3.8,2.9,7,6.7,7.1c0.1,0,0.2,0,0.2,0
									c3.7,0,6.8-2.9,6.9-6.7c0.1-1.8-0.6-3.6-1.9-4.9c-1.3-1.3-3-2.1-4.8-2.2C315.9,315.3,315.8,315.3,315.8,315.3z"/>
							</g>
						</g>
						<g>
							<path class="st0" d="M322.5,320.4l-0.6,1.1l-1.1,2l-0.6-1.3l-1,0.6l-0.6-1.2l-0.6,0.7l-0.3-0.1l-0.9-0.4l0.1,0.9l0.7,0.3
								l-1.3,2.9l-0.5,0.3l-0.4-1.1l-0.3-1.8l-0.9-0.1l-0.4-0.7l0.5-1.4l0.7-0.2l0.5,0.3l1.1-0.2l-1.2-0.7l-1-0.2l0-0.3l1-0.5
								l-0.4-0.6l1-0.9l1,0.4l1.8-0.5c0,0,0.7-0.4,1.5-0.7C321.5,318,322.1,319.1,322.5,320.4z"/>
							<path class="st0" d="M311.6,316.6l-0.4,0.7l-0.7,1.2c0,0,0,0.1,0,0.1l0.5,0.8c0,0,0.1,0.1,0.1,0.1c0,0,0.1,0,0.1,0l0.4-0.7
								l0.8,1l-1.6,1.4l-0.9,0.1c0,0-0.1,0-0.1,0.1l-0.2,0.5c0,0,0,0.1,0,0.1l0.6,0.8l-1-0.5l-0.3-0.3
								C308.9,319.7,310,317.8,311.6,316.6z"/>
							<path class="st0" d="M311.1,325.1l-0.6-1.2l0.7-1.4l1.8,1.8l-1.7,3.2l-0.3-0.8L311.1,325.1
								C311.1,325.1,311.1,325.1,311.1,325.1z"/>
							<path class="st0" d="M312.9,318.6l-0.7-1.7c1.2-0.5,1.9-0.6,2.2-0.7l-0.4,1.5L312.9,318.6z"/>
						</g>
					</g>
				</g>
			</g>
		</g>
	</g>
	<g>
		<g>
			<g>
				<path class="st16" d="M315.8,360.9c3.6,1.3,6.1,4.7,6.1,8.8c0,4-2.6,7.5-6.2,8.7c-3.6-1.3-6.1-4.7-6.1-8.8
					C309.6,365.6,312.2,362.2,315.8,360.9z"/>
				<path class="st15" d="M315.7,379l-0.2-0.1c-3.9-1.4-6.5-5.2-6.5-9.3c0-4.1,2.6-7.9,6.5-9.3l0.2-0.1l0.2,0.1
					c3.9,1.4,6.5,5.2,6.5,9.3c0,4.1-2.6,7.9-6.5,9.3L315.7,379z M315.8,361.5c-3.4,1.3-5.6,4.6-5.6,8.2c0,3.6,2.2,6.9,5.6,8.2
					c3.4-1.3,5.6-4.6,5.6-8.2C321.4,366.1,319.1,362.8,315.8,361.5z"/>
			</g>
			<path class="st0" d="M319.1,373.5c-0.8,1.4-2,2.4-3.4,3.1c-2.7-1.2-4.4-3.9-4.4-6.9c0-1.3,0.4-2.6,1-3.8c0.8-1.4,2-2.4,3.4-3.1
				c2.7,1.2,4.4,3.9,4.4,6.9C320.2,371,319.8,372.3,319.1,373.5z"/>
			<g>
				<path class="st16" d="M315.8,360.9l0,17L315.8,360.9z"/>
				<rect x="315.2" y="360.9" class="st15" width="1.1" height="17"/>
			</g>
			<g>
				<path class="st16" d="M315.7,378.5l0,2.1L315.7,378.5z"/>
				<path class="st15" d="M315.7,381.1C315.7,381.1,315.7,381.1,315.7,381.1c-0.3,0-0.5-0.2-0.5-0.5l0-2.1c0-0.3,0.2-0.5,0.5-0.5
					c0,0,0,0,0,0c0.3,0,0.5,0.2,0.5,0.5l0,2.1C316.3,380.9,316,381.1,315.7,381.1z"/>
			</g>
			<g>
				<path class="st16" d="M311.3,365.1l4.2,3.9L311.3,365.1z"/>
				
					<rect x="310.5" y="366.5" transform="matrix(0.7369 0.676 -0.676 0.7369 330.5993 -115.2955)" class="st15" width="5.8" height="1.1"/>
			</g>
			<g>
				<path class="st16" d="M309.8,369.4l5.7,5.3L309.8,369.4z"/>
				
					<rect x="308.8" y="371.5" transform="matrix(0.7367 0.6762 -0.6762 0.7367 333.899 -113.4785)" class="st15" width="7.8" height="1.1"/>
			</g>
			<g>
				<path class="st16" d="M320.3,365.1L316,369L320.3,365.1z"/>
				
					<rect x="317.6" y="364.2" transform="matrix(0.6727 0.7399 -0.7399 0.6727 375.6785 -115.2524)" class="st15" width="1.1" height="5.8"/>
			</g>
			<g>
				<path class="st16" d="M321.7,369.4l-5.8,5.2L321.7,369.4z"/>
				
					<rect x="318.3" y="368.1" transform="matrix(0.6724 0.7402 -0.7402 0.6724 379.8588 -114.1149)" class="st15" width="1.1" height="7.8"/>
			</g>
		</g>
		<g>
			<g>
				<g>
					<path class="st15" d="M304.3,377.6c-3.3-5.3-2.5-12.1,1.9-16.5c5.2-5.2,13.7-5.2,18.9,0l-0.8,0.8c-4.8-4.8-12.6-4.8-17.4,0
						c-4.1,4.1-4.8,10.3-1.8,15.2L304.3,377.6z"/>
				</g>
				<g>
					<polygon class="st15" points="325.3,362.2 321.6,362.2 321.6,361.1 324.2,361.1 324.2,358.5 325.3,358.5 					"/>
				</g>
			</g>
			<g>
				<g>
					<path class="st15" d="M315.8,383.8c-3.4,0-6.9-1.3-9.5-3.9l0.8-0.8c4.8,4.8,12.6,4.8,17.4,0c4-4,4.8-10.5,1.7-15.3l0.9-0.6
						c3.3,5.2,2.5,12.2-1.9,16.6C322.7,382.5,319.2,383.8,315.8,383.8z"/>
				</g>
				<g>
					<polygon class="st15" points="307.3,382.5 306.2,382.5 306.2,378.8 309.9,378.8 309.9,379.9 307.3,379.9 					"/>
				</g>
			</g>
		</g>
	</g>
	<g>
		<g>
			<g>
				<path class="st15" d="M307.9,426.5L307.9,426.5c-0.2-0.2-0.3-0.3-0.4-0.4l0.8-0.8c0.1,0.1,0.2,0.2,0.3,0.3l0.1,0.1L307.9,426.5z
					"/>
			</g>
			<g>
				<path class="st15" d="M306.7,425.3c-0.3-0.3-0.5-0.6-0.7-0.9l0.9-0.6c0.2,0.3,0.4,0.6,0.7,0.8L306.7,425.3z M324.9,425.2
					l-0.8-0.7c0.2-0.3,0.4-0.5,0.6-0.8l0.9,0.6C325.4,424.6,325.1,424.9,324.9,425.2z M305.4,423.4c-0.2-0.3-0.4-0.7-0.5-1l1-0.5
					c0.1,0.3,0.3,0.6,0.5,0.9L305.4,423.4z M326.2,423.3l-1-0.5c0.2-0.3,0.3-0.6,0.5-0.9l1,0.4C326.6,422.6,326.4,422.9,326.2,423.3
					z M304.4,421.3c-0.1-0.4-0.2-0.7-0.3-1.1l1.1-0.3c0.1,0.3,0.2,0.7,0.3,1L304.4,421.3z M327.1,421.1l-1-0.3
					c0.1-0.3,0.2-0.7,0.3-1l1.1,0.2C327.3,420.4,327.2,420.8,327.1,421.1z M303.9,419.1c-0.1-0.4-0.1-0.8-0.1-1.2l1.1,0
					c0,0.4,0,0.7,0.1,1.1L303.9,419.1z M327.6,418.9l-1.1-0.1c0-0.3,0.1-0.7,0.1-1.1l1.1,0C327.7,418.1,327.7,418.5,327.6,418.9z
					 M304.9,416.8l-1.1-0.1c0-0.4,0.1-0.8,0.1-1.2l1.1,0.2C304.9,416.1,304.9,416.4,304.9,416.8z M326.6,416.6c0-0.4-0.1-0.7-0.1-1
					l1.1-0.2c0.1,0.4,0.1,0.8,0.1,1.2L326.6,416.6z M305.2,414.7l-1.1-0.3c0.1-0.4,0.2-0.7,0.3-1.1l1,0.4
					C305.4,414,305.3,414.4,305.2,414.7z M326.2,414.6c-0.1-0.3-0.2-0.7-0.3-1l1-0.4c0.1,0.4,0.3,0.7,0.4,1.1L326.2,414.6z
					 M305.9,412.7l-1-0.5c0.2-0.3,0.4-0.7,0.6-1l0.9,0.6C306.2,412.1,306.1,412.4,305.9,412.7z M325.5,412.6
					c-0.2-0.3-0.3-0.6-0.5-0.9l0.9-0.6c0.2,0.3,0.4,0.7,0.6,1L325.5,412.6z M307,410.9l-0.9-0.7c0.2-0.3,0.5-0.6,0.7-0.9l0.8,0.7
					C307.5,410.4,307.2,410.7,307,410.9z M324.4,410.8c-0.2-0.3-0.4-0.5-0.7-0.8l0.8-0.7c0.3,0.3,0.5,0.6,0.8,0.9L324.4,410.8z
					 M308.4,409.4l-0.7-0.8c0.3-0.3,0.6-0.5,0.9-0.7l0.7,0.9C309,408.9,308.7,409.1,308.4,409.4z M322.9,409.3
					c-0.3-0.2-0.5-0.5-0.8-0.7l0.6-0.9c0.3,0.2,0.6,0.5,0.9,0.7L322.9,409.3z M310.1,408.1l-0.6-0.9c0.3-0.2,0.7-0.4,1-0.6l0.5,1
					C310.7,407.8,310.4,407.9,310.1,408.1z M321.2,408c-0.3-0.2-0.6-0.3-0.9-0.5l0.5-1c0.3,0.2,0.7,0.3,1,0.5L321.2,408z M312,407.2
					l-0.4-1c0.4-0.1,0.7-0.2,1.1-0.3l0.3,1.1C312.7,407,312.4,407.1,312,407.2z M319.3,407.2c-0.3-0.1-0.7-0.2-1-0.3l0.3-1.1
					c0.4,0.1,0.8,0.2,1.1,0.3L319.3,407.2z M314.1,406.7l-0.2-1.1c0.4-0.1,0.8-0.1,1.2-0.1l0.1,1.1
					C314.8,406.6,314.4,406.6,314.1,406.7z M317.2,406.7c-0.3,0-0.7-0.1-1.1-0.1l0-1.1c0.4,0,0.8,0.1,1.2,0.1L317.2,406.7z"/>
			</g>
			<g>
				<path class="st15" d="M323.6,426.4l-0.7-0.8c0.1-0.1,0.3-0.2,0.4-0.4l0.8,0.8C323.9,426.2,323.8,426.3,323.6,426.4z"/>
			</g>
		</g>
		<g>
			<g>
				<rect x="315.2" y="423.3" class="st15" width="1.1" height="8.9"/>
			</g>
			<g>
				<path class="st15" d="M318.1,423.9h-4.8c-1.8,0-3.3-1.5-3.3-3.3v-2.3h1.1v2.3c0,1.2,1,2.2,2.2,2.2h4.8c1.2,0,2.2-1,2.2-2.2v-2.3
					h1.1v2.3C321.4,422.4,319.9,423.9,318.1,423.9z"/>
			</g>
			<g>
				<path class="st15" d="M321.9,417.6h-12.3c-0.3,0-0.5-0.2-0.5-0.5V415c0-0.3,0.2-0.5,0.5-0.5h12.3c0.3,0,0.5,0.2,0.5,0.5v2.1
					C322.4,417.4,322.2,417.6,321.9,417.6z M310.1,416.6h11.2v-1h-11.2V416.6z"/>
			</g>
			<g>
				<g>
					<rect x="312.4" y="410.2" class="st15" width="1.1" height="4.6"/>
				</g>
				<g>
					<rect x="318" y="410.2" class="st15" width="1.1" height="4.6"/>
				</g>
			</g>
			<g>
				<rect x="312.9" y="418.4" class="st15" width="5.6" height="1.1"/>
			</g>
			<g>
				<rect x="312.9" y="420.1" class="st15" width="5.6" height="1.1"/>
			</g>
			<path class="st0" d="M319.6,425.7c-1.3,0-2.3,1-2.3,2.3v3.9h2c1.3,0,2.3-1,2.3-2.3v-3.9H319.6z"/>
			<path class="st0" d="M314.3,427.5c0-1.3-1-2.3-2.3-2.3l-2.4,0v1.6c0,1.3,1,2.3,2.3,2.3h2.4L314.3,427.5z"/>
		</g>
	</g>
</g>
<g id="Capa_1" class="st18">
	<text transform="matrix(1 0 0 1 84.6486 76.4609)" class="st19 st1 st2">VENTA DE PANELES SOLARES</text>
	<g class="st20">
		<rect x="15.8" y="374.9" class="st21" width="234" height="37.9"/>
		<text transform="matrix(1 0 0 1 138.9956 158.4983)"><tspan x="0" y="0" class="st3 st4 st5">Reduce hasta</tspan><tspan x="-8.5" y="48.6" class="st21 st6 st7">90%</tspan><tspan x="-6.6" y="72.9" class="st3 st4 st5">tu recibo de luz</tspan></text>
		<g>
			<g>
				<g>
					<path class="st22" d="M32.5,223.3l-0.4-0.3c-0.4-0.3-0.8-0.7-1.2-1.1l3-3.2c0.4,0.4,0.8,0.7,1.2,1.1l0.4,0.4L32.5,223.3z"/>
				</g>
				<g>
					<path class="st22" d="M27.8,218.6c-1-1.1-1.9-2.3-2.8-3.5l3.5-2.6c0.8,1.1,1.7,2.2,2.6,3.2L27.8,218.6z M100.6,218.1l-3.3-2.8
						c0.9-1,1.7-2.1,2.5-3.2l3.5,2.5C102.5,215.8,101.5,216.9,100.6,218.1z M22.5,211.4c-0.8-1.3-1.5-2.6-2.1-4l3.9-1.9
						c0.6,1.2,1.2,2.4,1.9,3.6L22.5,211.4z M105.7,210.7l-3.8-2.2c0.7-1.2,1.3-2.4,1.9-3.6l3.9,1.8
						C107.2,208.1,106.5,209.4,105.7,210.7z M18.7,203.3c-0.5-1.4-1-2.9-1.3-4.3l4.2-1.1c0.3,1.3,0.8,2.6,1.2,3.9L18.7,203.3z
						 M109.5,202.6l-4.1-1.4c0.4-1.3,0.8-2.6,1.2-3.9l4.2,1C110.4,199.7,110,201.2,109.5,202.6z M16.4,194.6c-0.2-1.5-0.4-3-0.5-4.5
						l4.3-0.3c0.1,1.3,0.3,2.7,0.5,4.1L16.4,194.6z M111.6,193.8l-4.3-0.6c0.2-1.3,0.3-2.7,0.4-4.1l4.3,0.2
						C112,190.9,111.8,192.4,111.6,193.8z M20.1,185.7l-4.3-0.1c0-1.5,0.1-3,0.3-4.5l4.3,0.5C20.2,183,20.1,184.3,20.1,185.7z
						 M107.8,185c-0.1-1.4-0.2-2.7-0.3-4.1l4.3-0.6c0.2,1.5,0.3,3,0.4,4.5L107.8,185z M21,177.6l-4.2-0.9c0.3-1.5,0.7-2.9,1.1-4.3
						l4.1,1.3C21.7,174.9,21.3,176.3,21,177.6z M106.7,177c-0.3-1.3-0.7-2.6-1.1-3.9l4.1-1.4c0.5,1.4,0.9,2.9,1.2,4.3L106.7,177z
						 M23.5,169.8l-4-1.7c0.6-1.4,1.2-2.7,1.9-4.1l3.8,2.1C24.6,167.3,24,168.6,23.5,169.8z M104.1,169.2c-0.5-1.2-1.2-2.5-1.8-3.7
						l3.8-2.1c0.7,1.3,1.4,2.7,2,4L104.1,169.2z M27.3,162.6l-3.6-2.4c0.8-1.2,1.7-2.5,2.7-3.6l3.4,2.7
						C28.9,160.4,28.1,161.5,27.3,162.6z M100.2,162.1c-0.8-1.1-1.6-2.2-2.5-3.3l3.3-2.8c1,1.1,1.9,2.4,2.7,3.6L100.2,162.1z
						 M32.5,156.2l-3.1-3c1-1.1,2.1-2.1,3.3-3.1l2.8,3.3C34.4,154.3,33.4,155.3,32.5,156.2z M94.9,155.8c-1-1-2-1.9-3-2.8l2.8-3.3
						c1.1,1,2.3,2,3.3,3L94.9,155.8z M38.7,150.9l-2.5-3.5c1.2-0.9,2.5-1.7,3.8-2.4l2.2,3.8C41,149.4,39.8,150.1,38.7,150.9z
						 M88.7,150.5c-1.1-0.8-2.3-1.5-3.5-2.2l2.1-3.8c1.3,0.7,2.6,1.5,3.8,2.4L88.7,150.5z M45.8,146.8l-1.8-3.9
						c1.4-0.6,2.8-1.2,4.2-1.7l1.4,4.1C48.3,145.8,47,146.3,45.8,146.8z M81.5,146.6c-1.2-0.5-2.5-1-3.8-1.5l1.4-4.1
						c1.4,0.5,2.8,1,4.2,1.6L81.5,146.6z M53.5,144.2l-1-4.2c1.4-0.4,2.9-0.6,4.4-0.9l0.6,4.3C56.1,143.6,54.8,143.8,53.5,144.2z
						 M73.8,144c-1.3-0.3-2.7-0.5-4-0.7l0.6-4.3c1.5,0.2,3,0.5,4.4,0.8L73.8,144z M61.6,143l-0.2-4.3c1.5-0.1,3-0.1,4.5,0l-0.2,4.3
						C64.3,142.9,62.9,142.9,61.6,143z"/>
				</g>
				<g>
					<path class="st22" d="M95.7,223l-2.9-3.3c0.5-0.5,1-0.9,1.5-1.4l3,3.1C96.8,222,96.3,222.5,95.7,223z"/>
				</g>
			</g>
			<g>
				<g>
					<rect x="61.8" y="221.3" class="st22" width="4.3" height="24.8"/>
				</g>
				<path class="st21" d="M79.3,219.9c-5.2,0-9.4,4.2-9.4,9.4v15.6h8c5.2,0,9.4-4.2,9.4-9.4v-15.6H79.3z"/>
				<path class="st21" d="M58.1,233.9c0-5.2-4.2-9.4-9.4-9.4l-9.8,0v6.3c0,5.2,4.2,9.4,9.4,9.4h9.8L58.1,233.9z"/>
			</g>
			<g>
				<circle class="st23" cx="63.3" cy="179" r="15.2"/>
				<g>
					<g>
						<g>
							<path class="st22" d="M76.5,208.3H50l-0.1-2c-0.2-2.5-0.7-4.4-1.5-5.5c-9-11.6-9.3-22.8-9.3-22.9c0-13.3,10.8-24.2,24.2-24.2
								s24.2,10.8,24.2,24.2c0,0.1-0.3,11.3-9.3,22.9c-0.8,1.1-1.3,3-1.5,5.5L76.5,208.3z M54,204h18.6c0.4-2.4,1.1-4.4,2.2-5.8
								c8.1-10.4,8.4-20.2,8.4-20.3c0-10.9-8.9-19.8-19.8-19.8s-19.8,8.9-19.8,19.8c0,0.1,0.3,9.9,8.4,20.2
								C52.9,199.6,53.6,201.6,54,204z"/>
						</g>
						<g>
							<g>
								
									<rect x="45.1" y="191.8" transform="matrix(0.1335 0.991 -0.991 0.1335 241.913 111.3129)" class="st22" width="24.4" height="4.3"/>
							</g>
							<g>
								
									<rect x="67.1" y="181.8" transform="matrix(0.991 0.1335 -0.1335 0.991 26.5262 -7.5187)" class="st22" width="4.3" height="24.4"/>
							</g>
						</g>
						<g>
							<polygon class="st22" points="66.9,187 65.8,186.1 64.7,187 61.9,187 60.8,186.1 59.7,187 56.9,187 54.3,184.8 57.2,181.6 
								58.3,182.5 59.4,181.6 62.2,181.6 63.3,182.5 64.4,181.6 67.2,181.6 68.3,182.5 69.4,181.6 72.3,184.8 69.7,187 							"/>
						</g>
						<g>
							<rect x="47.9" y="204.3" class="st22" width="30.8" height="4.3"/>
						</g>
						<g>
							<rect x="47.9" y="212" class="st22" width="30.8" height="4.3"/>
						</g>
						<g>
							<rect x="57.1" y="219.7" class="st22" width="12.5" height="4.3"/>
						</g>
						<g>
							<rect x="50.2" y="206.7" class="st22" width="4.3" height="5.8"/>
						</g>
					</g>
				</g>
			</g>
		</g>
		<rect x="15.8" y="266.6" class="st8" width="234" height="43.8"/>
		<text transform="matrix(1 0 0 1 18.8947 275.3285)"><tspan x="0" y="0" class="st3 st4 st12">Te ofrecemos </tspan><tspan x="80.7" y="0" class="st3 st1 st12">generar tu propia energía </tspan><tspan x="-0.9" y="14.4" class="st3 st1 st12">eléctrica</tspan><tspan x="50" y="14.4" class="st3 st4 st12"> con paneles solares con un alto </tspan><tspan x="56" y="28.8" class="st3 st1 st12">retorno de inversión</tspan></text>
		<g>
			<text transform="matrix(1 0 0 1 340.3026 158.3396)"><tspan x="0" y="0" class="st3 st1 st11">Ahorro de hasta 99%</tspan><tspan x="0" y="12" class="st3 st4 st10">de la facturación eléctrica actual</tspan></text>
		</g>
		<g>
			<text transform="matrix(1 0 0 1 340.3026 207.3088)"><tspan x="0" y="0" class="st3 st1 st11">Retorno</tspan><tspan x="0" y="12" class="st3 st4 st10">de inversión</tspan></text>
		</g>
		<g>
			<text transform="matrix(1 0 0 1 340.3026 256.2784)"><tspan x="0" y="0" class="st3 st4 st12">El costo de </tspan><tspan x="65" y="0" class="st3 st1 st12">la energía eléctrica se congela</tspan><tspan x="242" y="0" class="st3 st4 st12">;</tspan><tspan x="0" y="10.8" class="st3 st4 st13">se hace independiente de los aumentos de tarifa de CFE</tspan></text>
		</g>
		<g>
			<text transform="matrix(1 0 0 1 340.3026 298.048)"><tspan x="0" y="0" class="st3 st1 st10">El ahorro se incrementa</tspan><tspan x="0" y="16.8" class="st3 st4 st11">con el tiempo</tspan></text>
		</g>
		<g>
			<text transform="matrix(1 0 0 1 340.3026 347.0179)"><tspan x="0" y="0" class="st3 st1 st12">Reducción de emisiones CO2</tspan><tspan x="0" y="14.4" class="st3 st4 st12">y otros gases contaminantes</tspan></text>
		</g>
		<g>
			<text transform="matrix(1 0 0 1 340.3026 395.9871)"><tspan x="0" y="0" class="st3 st4 st11">Proyección de imagen</tspan><tspan x="0" y="13.2" class="st3 st1 st9">ambientalmente responsable</tspan></text>
		</g>
		<g>
			<g>
				<g>
					<path class="st16" d="M310.8,147.2l1.3,4.1L310.8,147.2z"/>
					
						<rect x="309.3" y="148.6" transform="matrix(0.3056 0.9522 -0.9522 0.3056 358.3366 -192.9273)" class="st22" width="4.3" height="1.2"/>
				</g>
				<g>
					<path class="st16" d="M304.1,151.6l3.2,2.9L304.1,151.6z"/>
					
						<rect x="303.5" y="152.5" transform="matrix(0.7407 0.6718 -0.6718 0.7407 182.0835 -165.6636)" class="st22" width="4.3" height="1.2"/>
				</g>
				<g>
					<path class="st16" d="M300.5,158.8l4.2,0.9L300.5,158.8z"/>
					
						<rect x="300.5" y="158.7" transform="matrix(0.9774 0.2113 -0.2113 0.9774 40.4898 -60.3416)" class="st22" width="4.3" height="1.2"/>
				</g>
				<g>
					<path class="st16" d="M301,166.9l4.1-1.3L301,166.9z"/>
					
						<rect x="302.5" y="164.1" transform="matrix(0.3057 0.9521 -0.9521 0.3057 368.6893 -173.1442)" class="st22" width="1.2" height="4.3"/>
				</g>
				<g>
					<path class="st16" d="M305.5,173.6l2.9-3.2L305.5,173.6z"/>
					
						<rect x="306.3" y="169.8" transform="matrix(0.7407 0.6719 -0.6719 0.7407 195.1419 -161.6048)" class="st22" width="1.2" height="4.3"/>
				</g>
				<g>
					<path class="st16" d="M320.7,176.6l-1.3-4.1L320.7,176.6z"/>
					
						<rect x="317.9" y="174" transform="matrix(0.3054 0.9522 -0.9522 0.3054 388.5671 -183.496)" class="st22" width="4.3" height="1.2"/>
				</g>
				<g>
					<path class="st16" d="M327.4,172.2l-3.2-2.9L327.4,172.2z"/>
					
						<rect x="323.7" y="170.1" transform="matrix(0.7407 0.6718 -0.6718 0.7407 199.1943 -174.6288)" class="st22" width="4.3" height="1.2"/>
				</g>
				<g>
					<path class="st16" d="M331,165l-4.2-0.9L331,165z"/>
					
						<rect x="326.8" y="163.9" transform="matrix(0.9773 0.2118 -0.2118 0.9773 42.3046 -65.9245)" class="st22" width="4.3" height="1.2"/>
				</g>
				<g>
					<path class="st16" d="M330.5,156.9l-4.1,1.3L330.5,156.9z"/>
					
						<rect x="327.8" y="155.5" transform="matrix(0.3057 0.9521 -0.9521 0.3057 378.1052 -203.2989)" class="st22" width="1.2" height="4.3"/>
				</g>
				<g>
					<path class="st16" d="M326,150.2l-2.9,3.2L326,150.2z"/>
					
						<rect x="324" y="149.7" transform="matrix(0.7407 0.6718 -0.6718 0.7407 186.1752 -178.7023)" class="st22" width="1.2" height="4.3"/>
				</g>
			</g>
			<g>
				<circle class="st16" cx="315.8" cy="161.9" r="9"/>
				<path class="st22" d="M315.8,171.5c-5.3,0-9.6-4.3-9.6-9.6c0-5.3,4.3-9.6,9.6-9.6s9.6,4.3,9.6,9.6
					C325.4,167.2,321.1,171.5,315.8,171.5z M315.8,153.5c-4.6,0-8.4,3.8-8.4,8.4c0,4.6,3.8,8.4,8.4,8.4s8.4-3.8,8.4-8.4
					C324.2,157.3,320.4,153.5,315.8,153.5z"/>
			</g>
			<circle class="st23" cx="315.8" cy="161.9" r="5.6"/>
			<g>
				<path class="st22" d="M311.1,177.1l3.5-11.7h-7.8l13.6-18.3l-3.5,11.7h7.8L311.1,177.1z M309.3,164.3h7l-2,6.5l8-10.7h-7l2-6.5
					L309.3,164.3z"/>
			</g>
		</g>
		<g>
			<g>
				<g>
					<path class="st22" d="M315.8,220.8c-6.4,0-11.6-5.2-11.6-11.6c0-6.4,5.2-11.6,11.6-11.6c6.4,0,11.6,5.2,11.6,11.6
						C327.3,215.6,322.1,220.8,315.8,220.8z M315.8,198.9c-5.7,0-10.4,4.6-10.4,10.3c0,5.7,4.6,10.3,10.4,10.3
						c5.7,0,10.3-4.6,10.3-10.3C326.1,203.5,321.5,198.9,315.8,198.9z"/>
				</g>
				<circle class="st23" cx="315.8" cy="209.2" r="9.3"/>
				<g>
					<g>
						<path class="st22" d="M317.8,204.4c-0.2-0.1-0.3-0.1-0.5-0.2l0.4-1.1c0.2,0.1,0.4,0.2,0.6,0.2L317.8,204.4z"/>
					</g>
					<g>
						<path class="st22" d="M320.9,207.8c-0.1-0.4-0.3-0.7-0.5-1.1l1.1-0.6c0.2,0.4,0.4,0.9,0.6,1.3L320.9,207.8z M319.7,205.8
							c-0.3-0.3-0.6-0.6-0.9-0.8l0.7-1c0.4,0.3,0.7,0.6,1.1,1L319.7,205.8z"/>
					</g>
					<g>
						<path class="st22" d="M322.4,209.5h-1.2c0-0.2,0-0.4,0-0.5l1.2-0.1C322.3,209,322.4,209.3,322.4,209.5z"/>
					</g>
				</g>
				<g>
					<path class="st22" d="M315.5,216.2c-3.8,0-6.9-3.1-6.9-6.9c0-3.8,3.1-6.9,6.9-6.9v1.2c-3.1,0-5.7,2.6-5.7,5.7s2.6,5.7,5.7,5.7
						c3.1,0,5.7-2.6,5.7-5.7h1.2C322.4,213.1,319.3,216.2,315.5,216.2z"/>
				</g>
				<g>
					<polygon class="st22" points="314,206 313.1,205.1 314.9,203.4 313.1,201.6 314,200.8 316.6,203.4 					"/>
				</g>
			</g>
			<g>
				<g>
					<rect x="315.1" y="193.6" class="st22" width="1.2" height="2.7"/>
				</g>
				<g>
					
						<rect x="309.5" y="195.2" transform="matrix(0.3419 0.9397 -0.9397 0.3419 388.5657 -163.2764)" class="st22" width="2.7" height="1.2"/>
				</g>
				<g>
					
						<rect x="305.2" y="197.7" transform="matrix(0.6429 0.766 -0.766 0.6429 261.3686 -164.0084)" class="st22" width="2.7" height="1.2"/>
				</g>
				<g>
					
						<rect x="302" y="201.5" transform="matrix(0.8661 0.4999 -0.4999 0.8661 141.6571 -124.5975)" class="st22" width="2.7" height="1.2"/>
				</g>
				<g>
					
						<rect x="300.3" y="206.1" transform="matrix(0.9848 0.1737 -0.1737 0.9848 40.4926 -49.2522)" class="st22" width="2.7" height="1.2"/>
				</g>
				<g>
					
						<rect x="301.1" y="210.3" transform="matrix(0.1738 0.9848 -0.9848 0.1738 457.7278 -122.1731)" class="st22" width="1.2" height="2.7"/>
				</g>
				<g>
					<rect x="302.8" y="215" transform="matrix(0.5 0.866 -0.866 0.5 339.0694 -154.5424)" class="st22" width="1.2" height="2.7"/>
				</g>
				<g>
					
						<rect x="306" y="218.8" transform="matrix(0.7657 0.6432 -0.6432 0.7657 213.4326 -145.5903)" class="st22" width="1.2" height="2.7"/>
				</g>
				<g>
					
						<rect x="310.3" y="221.3" transform="matrix(0.9397 0.3421 -0.3421 0.9397 94.938 -92.918)" class="st22" width="1.2" height="2.7"/>
				</g>
				<g>
					<rect x="315.1" y="222.2" class="st22" width="1.2" height="2.7"/>
				</g>
				<g>
					
						<rect x="319.3" y="222.1" transform="matrix(0.3418 0.9398 -0.9398 0.3418 420.2819 -154.7781)" class="st22" width="2.7" height="1.2"/>
				</g>
				<g>
					
						<rect x="323.6" y="219.6" transform="matrix(0.6426 0.7662 -0.7662 0.6426 284.8386 -170.2774)" class="st22" width="2.7" height="1.2"/>
				</g>
				<g>
					
						<rect x="326.8" y="215.8" transform="matrix(0.8659 0.5003 -0.5003 0.8659 152.2645 -135.1332)" class="st22" width="2.7" height="1.2"/>
				</g>
				<g>
					
						<rect x="328.5" y="211.1" transform="matrix(0.9847 0.1741 -0.1741 0.9847 41.885 -54.1772)" class="st22" width="2.7" height="1.2"/>
				</g>
				<g>
					
						<rect x="329.2" y="205.4" transform="matrix(0.1734 0.9849 -0.9849 0.1734 476.2721 -153.9241)" class="st22" width="1.2" height="2.7"/>
				</g>
				<g>
					
						<rect x="327.5" y="200.7" transform="matrix(0.4995 0.8663 -0.8663 0.4995 339.2778 -183.1201)" class="st22" width="1.2" height="2.7"/>
				</g>
				<g>
					
						<rect x="324.3" y="196.9" transform="matrix(0.7657 0.6432 -0.6432 0.7657 203.653 -162.5367)" class="st22" width="1.2" height="2.7"/>
				</g>
				<g>
					
						<rect x="320" y="194.4" transform="matrix(0.9396 0.3423 -0.3423 0.9396 86.4003 -97.9327)" class="st22" width="1.2" height="2.7"/>
				</g>
			</g>
		</g>
		<g>
			<path class="st21" d="M315.8,245.4c3.7,1.3,6.4,4.9,6.4,9.1c0,4.2-2.7,7.7-6.4,9.1c-3.7-1.3-6.4-4.9-6.4-9.1
				C309.4,250.3,312,246.7,315.8,245.4z"/>
			<g>
				<g>
					<g>
						<rect x="310.3" y="263.7" class="st22" width="11" height="1.2"/>
					</g>
					<g>
						<rect x="310.3" y="265.8" class="st22" width="11" height="1.2"/>
					</g>
					<g>
						<rect x="310.3" y="267.9" class="st22" width="11" height="1.2"/>
					</g>
					<g>
						<rect x="311.8" y="270.1" class="st22" width="8" height="1.2"/>
					</g>
					<g>
						<rect x="310.9" y="264.4" class="st22" width="1.2" height="4.1"/>
					</g>
				</g>
			</g>
			<g>
				<g>
					<path class="st22" d="M311.5,264.6c-3.1-2.6-4.9-6.3-4.9-10.4c0-5.6,3.6-10.7,8.9-12.7l0.2-0.1l0.2,0.1c5.3,1.9,8.9,7,8.9,12.7
						c0,4-1.8,7.7-4.8,10.3l-0.8-0.9c2.8-2.3,4.4-5.8,4.4-9.4c0-5.1-3.2-9.6-7.9-11.5c-4.7,1.8-7.9,6.4-7.9,11.5
						c0,3.7,1.6,7.1,4.4,9.4L311.5,264.6z"/>
				</g>
				<g>
					<rect x="315.1" y="242.2" class="st22" width="1.2" height="22"/>
				</g>
				<g>
					
						<rect x="318.4" y="246.2" transform="matrix(0.6743 0.7384 -0.7384 0.6743 288.9459 -153.9506)" class="st22" width="1.2" height="8.9"/>
				</g>
				<g>
					
						<rect x="319.4" y="252" transform="matrix(0.6743 0.7384 -0.7384 0.6743 294.3515 -152.4461)" class="st22" width="1.2" height="11"/>
				</g>
				<g>
					
						<rect x="308.2" y="250" transform="matrix(0.7383 0.6745 -0.6745 0.7383 250.8295 -145.1922)" class="st22" width="8.6" height="1.2"/>
				</g>
				<g>
					
						<rect x="305.8" y="256.9" transform="matrix(0.7385 0.6743 -0.6743 0.7385 255.1018 -142.698)" class="st22" width="11.3" height="1.2"/>
				</g>
			</g>
		</g>
		<g>
			<g>
				<g>
					<polygon class="st16" points="315.3,309.1 321.4,309.1 321.4,302.2 					"/>
					<polygon class="st22" points="322,309.7 315.3,309.7 315.3,308.5 320.8,308.5 320.8,302.2 322,302.2 					"/>
				</g>
				<g>
					<polygon class="st16" points="310.4,302.2 310.4,309.1 315.5,309.1 					"/>
					<polygon class="st22" points="315.5,309.7 309.8,309.7 309.8,302.2 311,302.2 311,308.5 315.5,308.5 					"/>
				</g>
				<g>
					<path class="st16" d="M311.9,298.2v2.7V298.2z"/>
					<rect x="311.3" y="298.2" class="st22" width="1.2" height="2.7"/>
				</g>
				<rect x="316" y="303.6" class="st21" width="3.8" height="3.1"/>
				<rect x="312.2" y="303.6" class="st23" width="2.9" height="4.9"/>
				<g>
					<polygon class="st22" points="322.4,303.9 315.9,297.4 309.4,303.9 308.5,303.1 315.9,295.7 323.3,303.1 					"/>
				</g>
			</g>
			<g>
				<path class="st21" d="M315.9,289.2c-1,0.5-1.8,1.5-1.8,2.8c0,1.2,0.7,2.3,1.8,2.8c1-0.5,1.8-1.5,1.8-2.8
					C317.7,290.7,316.9,289.7,315.9,289.2z"/>
				<g>
					<rect x="315.3" y="290.7" class="st22" width="1.2" height="4.3"/>
				</g>
			</g>
			<g>
				<path class="st21" d="M308.7,291.1c-0.7,0.9-0.8,2.2-0.2,3.3c0.6,1.1,1.8,1.6,2.9,1.5c0.7-0.9,0.8-2.2,0.2-3.3
					C311,291.5,309.8,290.9,308.7,291.1z"/>
				<g>
					
						<rect x="308.3" y="293.6" transform="matrix(0.4999 0.8661 -0.8661 0.4999 410.0179 -121.7883)" class="st22" width="4.3" height="1.2"/>
				</g>
			</g>
			<g>
				<path class="st21" d="M303.4,296.3c-0.1,1.1,0.4,2.3,1.5,2.9c1.1,0.6,2.3,0.5,3.3-0.2c0.1-1.1-0.4-2.3-1.5-2.9
					C305.6,295.5,304.3,295.6,303.4,296.3z"/>
				<g>
					
						<rect x="304.3" y="297.5" transform="matrix(0.866 0.5 -0.5 0.866 190.1111 -113.309)" class="st22" width="4.3" height="1.2"/>
				</g>
			</g>
			<g>
				<path class="st21" d="M301.4,303.4c0.5,1,1.5,1.8,2.8,1.8c1.2,0,2.3-0.7,2.8-1.8c-0.5-1-1.5-1.8-2.8-1.8
					C302.9,301.7,301.8,302.4,301.4,303.4z"/>
				<g>
					<rect x="302.8" y="302.8" class="st22" width="4.3" height="1.2"/>
				</g>
			</g>
			<g>
				<path class="st21" d="M303.2,310.7c0.9,0.7,2.2,0.8,3.3,0.2c1.1-0.6,1.6-1.8,1.5-2.9c-0.9-0.7-2.2-0.8-3.3-0.2
					C303.7,308.4,303.1,309.5,303.2,310.7z"/>
				<g>
					
						<rect x="305.7" y="306.7" transform="matrix(0.5 0.866 -0.866 0.5 420.6656 -110.8674)" class="st22" width="1.2" height="4.3"/>
				</g>
			</g>
			<g>
				<path class="st21" d="M308.4,316c1.1,0.1,2.3-0.4,2.9-1.5c0.6-1.1,0.5-2.3-0.2-3.3c-1.1-0.1-2.3,0.4-2.9,1.5
					C307.7,313.8,307.8,315,308.4,316z"/>
				<g>
					
						<rect x="309.6" y="310.7" transform="matrix(0.8661 0.4999 -0.4999 0.8661 197.9554 -113.1972)" class="st22" width="1.2" height="4.3"/>
				</g>
			</g>
			<g>
				<path class="st21" d="M315.6,318c1-0.5,1.8-1.5,1.8-2.8c0-1.2-0.7-2.3-1.8-2.8c-1,0.5-1.8,1.5-1.8,2.8
					C313.8,316.4,314.6,317.5,315.6,318z"/>
				<g>
					<rect x="315" y="312.2" class="st22" width="1.2" height="4.3"/>
				</g>
			</g>
			<g>
				<path class="st21" d="M322.8,316.1c0.7-0.9,0.8-2.2,0.2-3.3c-0.6-1.1-1.8-1.6-2.9-1.5c-0.7,0.9-0.8,2.2-0.2,3.3
					C320.5,315.7,321.7,316.2,322.8,316.1z"/>
				<g>
					<rect x="318.9" y="312.4" transform="matrix(0.5 0.866 -0.866 0.5 431.56 -121.5321)" class="st22" width="4.3" height="1.2"/>
				</g>
			</g>
			<g>
				<path class="st21" d="M328.1,310.9c0.1-1.1-0.4-2.3-1.5-2.9c-1.1-0.6-2.3-0.5-3.3,0.2c-0.1,1.1,0.4,2.3,1.5,2.9
					C325.9,311.7,327.2,311.5,328.1,310.9z"/>
				<g>
					
						<rect x="322.9" y="308.5" transform="matrix(0.866 0.5 -0.5 0.866 198.0967 -121.1079)" class="st22" width="4.3" height="1.2"/>
				</g>
			</g>
			<g>
				<path class="st21" d="M330.1,303.7c-0.5-1-1.5-1.8-2.8-1.8c-1.2,0-2.3,0.7-2.8,1.8c0.5,1,1.5,1.8,2.8,1.8
					C328.6,305.5,329.7,304.8,330.1,303.7z"/>
				<g>
					<rect x="324.4" y="303.1" class="st22" width="4.3" height="1.2"/>
				</g>
			</g>
			<g>
				<path class="st21" d="M328.3,296.5c-0.9-0.7-2.2-0.8-3.3-0.2c-1.1,0.6-1.6,1.8-1.5,2.9c0.9,0.7,2.2,0.8,3.3,0.2
					C327.8,298.8,328.4,297.6,328.3,296.5z"/>
				<g>
					
						<rect x="324.6" y="296.2" transform="matrix(0.5 0.866 -0.866 0.5 420.9261 -132.4493)" class="st22" width="1.2" height="4.3"/>
				</g>
			</g>
			<g>
				<path class="st21" d="M323.1,291.2c-1.1-0.1-2.3,0.4-2.9,1.5c-0.6,1.1-0.5,2.3,0.2,3.3c1.1,0.1,2.3-0.4,2.9-1.5
					C323.8,293.4,323.7,292.1,323.1,291.2z"/>
				<g>
					
						<rect x="320.7" y="292.2" transform="matrix(0.8661 0.4998 -0.4998 0.8661 190.1045 -121.1758)" class="st22" width="1.2" height="4.3"/>
				</g>
			</g>
		</g>
		<g>
			<g>
				<polygon class="st16" points="314.7,347.9 319.9,342.7 330.6,353.3 				"/>
				<polygon class="st22" points="330.2,353.8 319.9,343.5 315.1,348.4 314.2,347.5 319.9,341.8 331,352.9 				"/>
			</g>
			<g>
				<polygon class="st22" points="318.3,348.8 316.6,347.8 314.9,348.5 314.4,347.4 316.6,346.4 318.3,347.4 320.1,346.4 
					321.8,347.4 323.5,346.4 325.6,347.6 325,348.6 323.6,347.8 321.8,348.8 320.1,347.8 				"/>
			</g>
			<polygon class="st21" points="322.3,354.1 328.5,360.3 316.1,360.3 			"/>
			<g>
				<path class="st21" d="M322.6,338.6c-0.2-1.1-1.1-1.9-2.2-1.9c-0.2,0-0.3,0-0.5,0.1c-0.5-0.5-1.2-0.9-2-0.9c-1.3,0-2.3,0.9-2.6,2
					l0,0c-0.5,0-1,0.3-1.3,0.6H322.6z"/>
				<path class="st21" d="M322.7,338.6h0.1v0C322.7,338.6,322.7,338.6,322.7,338.6z"/>
			</g>
			<g>
				<polygon class="st22" points="330.6,361.3 301.3,361.3 301.3,360.1 327.7,360.1 321,353.4 317.8,356.6 308.4,347.2 309.3,346.4 
					317.8,354.9 321,351.7 				"/>
			</g>
			<g>
				<rect x="303.3" y="362.2" class="st22" width="4" height="1.2"/>
			</g>
			<g>
				<rect x="308.6" y="362.2" class="st22" width="12.7" height="1.2"/>
			</g>
			<g>
				<rect x="304" y="364.4" class="st22" width="8.5" height="1.2"/>
			</g>
			<g>
				<rect x="314" y="364.4" class="st22" width="2.1" height="1.2"/>
			</g>
			<g>
				<rect x="300.6" y="362.2" class="st22" width="1.6" height="1.2"/>
			</g>
			<circle class="st21" cx="304.9" cy="354.2" r="4.4"/>
			<g>
				<g>
					<path class="st16" d="M304.6,352.5v8.8V352.5z"/>
					<rect x="304" y="352.5" class="st22" width="1.2" height="8.8"/>
				</g>
				<g>
					<path class="st16" d="M304.6,357l1.9-1.9L304.6,357z"/>
					
						<rect x="304.9" y="354.7" transform="matrix(0.707 0.7072 -0.7072 0.707 341.3396 -111.7556)" class="st22" width="1.2" height="2.7"/>
				</g>
				<g>
					<path class="st16" d="M304.6,356.1l-1.9-1.9L304.6,356.1z"/>
					
						<rect x="302.3" y="354.5" transform="matrix(0.7072 0.7071 -0.7071 0.7072 339.9893 -110.6972)" class="st22" width="2.7" height="1.2"/>
				</g>
			</g>
			<path class="st23" d="M313.4,355.1c0,1.7-1.4,3.2-3.2,3.2l0,0c-1.7,0-3.2-1.4-3.2-3.2v-12.3c0-1.7,1.4-3.2,3.2-3.2l0,0
				c1.7,0,3.2,1.4,3.2,3.2V355.1z"/>
			<g>
				<g>
					<path class="st16" d="M310.3,340.9v20.4V340.9z"/>
					<rect x="309.7" y="340.9" class="st22" width="1.2" height="20.4"/>
				</g>
				<g>
					<path class="st16" d="M310.3,356.1l1.9-1.9L310.3,356.1z"/>
					
						<rect x="310.6" y="353.8" transform="matrix(0.707 0.7072 -0.7072 0.707 342.3214 -116.0498)" class="st22" width="1.2" height="2.7"/>
				</g>
				<g>
					<path class="st16" d="M310.3,356.1l-1.9-1.9L310.3,356.1z"/>
					
						<rect x="308" y="354.5" transform="matrix(0.7072 0.7071 -0.7071 0.7072 341.6554 -114.7107)" class="st22" width="2.7" height="1.2"/>
				</g>
				<g>
					<path class="st16" d="M310.3,352.4l1.9-1.9L310.3,352.4z"/>
					
						<rect x="310.6" y="350.1" transform="matrix(0.707 0.7072 -0.7072 0.707 339.7518 -117.1144)" class="st22" width="1.2" height="2.7"/>
				</g>
				<g>
					<path class="st16" d="M310.3,352.4l-1.9-1.9L310.3,352.4z"/>
					
						<rect x="308" y="350.9" transform="matrix(0.7072 0.7071 -0.7071 0.7072 339.0864 -115.7747)" class="st22" width="2.7" height="1.2"/>
				</g>
				<g>
					<path class="st16" d="M310.3,348.8l1.9-1.9L310.3,348.8z"/>
					
						<rect x="310.6" y="346.5" transform="matrix(0.707 0.7072 -0.7072 0.707 337.1822 -118.179)" class="st22" width="1.2" height="2.7"/>
				</g>
				<g>
					<path class="st16" d="M310.3,348.8l-1.9-1.9L310.3,348.8z"/>
					
						<rect x="308" y="347.2" transform="matrix(0.7072 0.7071 -0.7071 0.7072 336.5174 -116.8387)" class="st22" width="2.7" height="1.2"/>
				</g>
				<g>
					<path class="st16" d="M310.3,345.2l1.9-1.9L310.3,345.2z"/>
					
						<rect x="310.6" y="342.9" transform="matrix(0.707 0.7072 -0.7072 0.707 334.6125 -119.2436)" class="st22" width="1.2" height="2.7"/>
				</g>
				<g>
					<path class="st16" d="M310.3,345.2l-1.9-1.9L310.3,345.2z"/>
					
						<rect x="308" y="343.6" transform="matrix(0.7072 0.7071 -0.7071 0.7072 333.9483 -117.9027)" class="st22" width="2.7" height="1.2"/>
				</g>
			</g>
			<circle class="st23" cx="326.6" cy="340.5" r="2.5"/>
		</g>
		<g>
			<g>
				<g>
					<g>
						<g>
							<g>
								<path class="st16" d="M318.5,384c-5.4-0.2-9.9,4.1-10.1,9.4c-0.2,5.4,4.1,9.9,9.4,10.1c5.4,0.2,9.9-4.1,10.1-9.4
									C328.1,388.7,323.9,384.2,318.5,384z"/>
								<path class="st22" d="M318.2,404.2C318.2,404.2,318.2,404.2,318.2,404.2c-0.1,0-0.2,0-0.3,0c-5.7-0.2-10.2-5-10-10.7
									c0.2-5.7,4.9-10.2,10.7-10c5.7,0.2,10.2,5,10,10.7C328.4,399.8,323.8,404.2,318.2,404.2z M318.2,384.6c-5,0-9,3.9-9.1,8.9
									c-0.2,5,3.8,9.3,8.9,9.4c5.1,0.2,9.3-3.8,9.4-8.9c0.2-5-3.8-9.3-8.9-9.4C318.4,384.7,318.3,384.6,318.2,384.6z"/>
							</g>
						</g>
						<g>
							<path class="st21" d="M327,391.5l-0.8,1.4l-1.4,2.6l-0.8-1.7l-1.3,0.8l-0.8-1.5l-0.7,0.9l-0.4-0.1l-1.1-0.5l0.2,1.2l0.9,0.4
								l-1.7,3.8l-0.7,0.4l-0.6-1.4l-0.3-2.4l-1.2-0.1l-0.5-0.9l0.7-1.8l1-0.2l0.6,0.4l1.4-0.3l-1.6-0.9l-1.3-0.3l-0.1-0.4l1.3-0.7
								l-0.5-0.8l1.3-1.1l1.4,0.5l2.3-0.6c0,0,1-0.5,2-1C325.7,388.3,326.6,389.8,327,391.5z"/>
							<path class="st21" d="M312.7,386.5l-0.5,0.9l-1,1.6c0,0,0,0.1,0,0.1l0.6,1c0,0,0.1,0.1,0.1,0.1c0,0,0.1,0,0.1-0.1l0.6-0.9
								l1,1.3l-2.1,1.8l-1.2,0.1c-0.1,0-0.1,0-0.1,0.1l-0.3,0.7c0,0,0,0.1,0,0.1l0.8,1l-1.3-0.6l-0.3-0.5
								C309.2,390.6,310.6,388.1,312.7,386.5z"/>
							<path class="st21" d="M312.1,397.7l-0.8-1.6l0.9-1.9l2.4,2.3l-2.2,4.2l-0.4-1L312.1,397.7
								C312.1,397.7,312.1,397.7,312.1,397.7z"/>
							<path class="st21" d="M314.5,389.1l-1-2.2c1.5-0.7,2.5-0.8,2.9-0.9l-0.5,2L314.5,389.1z"/>
						</g>
					</g>
				</g>
			</g>
			<g>
				<g>
					<g>
						<path class="st16" d="M308,409.2h4.2l10.5-3.9l6.7-4.6c0,0,0,0-0.1-0.1l-0.5-0.5c-0.8-0.8-2.1-0.6-3.1,0.1l-4,2.3l-1.6,0.9
							h-6.7l0-0.6l4.2,0c1.1,0,1.9-1.2,1.9-2.3c0,0,0-0.2,0-0.3H312l-2.9,2.5H308V409.2z"/>
						<path class="st22" d="M312.3,409.8H308v-1.2h4.1l10.3-3.8l6-4.2l0,0c-0.6-0.6-1.6-0.4-2.3,0.1l-0.1,0l-5.7,3.3h-7.5l0-1.8
							l4.8,0c0.6,0,1.1-0.7,1.2-1.3h-6.6l-2.9,2.5H308v-1.2h0.9l2.9-2.5h8.2l0.1,0.9c0,0.8-0.4,1.7-1,2.3h0.9l1.4-0.8l4-2.3
							c1.1-0.8,2.8-1,3.8,0l0.5,0.5c0,0,0.1,0.1,0.1,0.1l0.4,0.5l-0.5,0.4l-6.8,4.7L312.3,409.8z"/>
					</g>
					<rect x="301.3" y="401.8" class="st23" width="5.5" height="10.6"/>
					<g>
						<rect x="304.3" y="410" class="st22" width="1.2" height="1.2"/>
					</g>
				</g>
			</g>
		</g>
		<g>
			<g>
				<g>
					<path class="st16" d="M164.5,326.8l-2,9.3L164.5,326.8z"/>
					
						<rect x="161.5" y="326.7" transform="matrix(0.9775 0.2112 -0.2112 0.9775 73.6733 -27.043)" class="st22" width="4" height="9.5"/>
				</g>
				<g>
					<path class="st16" d="M146.6,327.9l2.9,9L146.6,327.9z"/>
					
						<rect x="143.3" y="330.5" transform="matrix(0.3057 0.9521 -0.9521 0.3057 419.3587 89.8165)" class="st22" width="9.5" height="4"/>
				</g>
				<g>
					<path class="st16" d="M131.8,337.8l7,6.4L131.8,337.8z"/>
					
						<rect x="130.5" y="339" transform="matrix(0.7407 0.6718 -0.6718 0.7407 264.1837 -2.4681)" class="st22" width="9.5" height="4"/>
				</g>
				<g>
					<path class="st16" d="M123.8,353.8l9.3,2L123.8,353.8z"/>
					
						<rect x="123.7" y="352.8" transform="matrix(0.9774 0.2113 -0.2113 0.9774 77.8619 -19.1343)" class="st22" width="9.5" height="4"/>
				</g>
				<g>
					<path class="st16" d="M125,371.6l9-2.9L125,371.6z"/>
					
						<rect x="127.5" y="365.4" transform="matrix(0.3057 0.9521 -0.9521 0.3057 442.386 133.7478)" class="st22" width="4" height="9.5"/>
				</g>
				<g>
					<path class="st16" d="M134.9,386.5l6.4-7L134.9,386.5z"/>
					
						<rect x="136" y="378.3" transform="matrix(0.7407 0.6718 -0.6718 0.7407 293.1149 6.5679)" class="st22" width="4" height="9.5"/>
				</g>
				<g>
					<path class="st16" d="M150.9,394.5l2-9.3L150.9,394.5z"/>
					
						<rect x="149.9" y="385.1" transform="matrix(0.9773 0.2116 -0.2116 0.9773 85.9383 -23.3098)" class="st22" width="4" height="9.5"/>
				</g>
				<g>
					<path class="st16" d="M168.7,393.3l-2.9-9L168.7,393.3z"/>
					
						<rect x="162.5" y="386.8" transform="matrix(0.3054 0.9522 -0.9522 0.3054 486.3978 110.836)" class="st22" width="9.5" height="4"/>
				</g>
				<g>
					<path class="st16" d="M183.6,383.4l-7-6.4L183.6,383.4z"/>
					
						<rect x="175.3" y="378.2" transform="matrix(0.7406 0.6719 -0.6719 0.7406 302.1956 -22.3424)" class="st22" width="9.5" height="4"/>
				</g>
				<g>
					<path class="st16" d="M191.5,367.4l-9.3-2L191.5,367.4z"/>
					
						<rect x="182.1" y="364.4" transform="matrix(0.9773 0.2118 -0.2118 0.9773 81.843 -31.2595)" class="st22" width="9.5" height="4"/>
				</g>
				<g>
					<path class="st16" d="M190.4,349.6l-9,2.9L190.4,349.6z"/>
					
						<rect x="183.8" y="346.3" transform="matrix(0.3056 0.9521 -0.9521 0.3056 463.2933 66.8147)" class="st22" width="4" height="9.5"/>
				</g>
				<g>
					<path class="st16" d="M180.5,334.7l-6.4,7L180.5,334.7z"/>
					
						<rect x="175.3" y="333.5" transform="matrix(0.7407 0.6718 -0.6718 0.7407 273.2226 -31.3906)" class="st22" width="4" height="9.5"/>
				</g>
			</g>
			<path class="st23" d="M177.7,360.6c0,11-9,20-20,20c-11,0-20-9-20-20c0-11,9-20,20-20C168.7,340.6,177.7,349.6,177.7,360.6z"/>
			<g>
				<g>
					<rect x="128" y="395.5" class="st16" width="11.3" height="12.7"/>
					<path class="st22" d="M141.3,410.2H126v-16.7h15.3V410.2z M130,406.2h7.3v-8.7H130V406.2z"/>
				</g>
				<g>
					<path class="st16" d="M119.6,408.2h28H119.6z"/>
					<rect x="119.6" y="406.2" class="st22" width="28" height="4"/>
				</g>
				<g>
					<g>
						<path class="st16" d="M176.1,399c-28.3,0-56.6,0-84.8,0c5.1-11.3,10.2-22.7,15.3-34c18.1,0,36.1,0,54.2,0
							C165.8,376.3,170.9,387.7,176.1,399z"/>
						<path class="st22" d="M176.1,401H88.1l17.1-38H162l17.1,38L176.1,401z M94.3,397H173l-13.5-30h-51.6L94.3,397z"/>
					</g>
					<g>
						<path class="st16" d="M96.8,385.2c24.5,0,49,0,73.5,0H96.8z"/>
						<rect x="96.8" y="383.2" class="st22" width="73.5" height="4"/>
					</g>
					<g>
						<path class="st16" d="M102.2,374.4c21.1,0,42.2,0,63.3,0H102.2z"/>
						<rect x="102.2" y="372.4" class="st22" width="63.3" height="4"/>
					</g>
					<g>
						<path class="st16" d="M116,364.8c-3.3,11.2-6.6,22.5-9.9,33.7L116,364.8z"/>
						
							<rect x="109.1" y="364.1" transform="matrix(0.9595 0.2818 -0.2818 0.9595 112.0412 -15.8295)" class="st22" width="4" height="35.1"/>
					</g>
					<g>
						<path class="st16" d="M124.9,364.8c-1.6,11.2-3.3,22.5-4.9,33.7L124.9,364.8z"/>
						
							<rect x="120.5" y="364.7" transform="matrix(0.9896 0.1438 -0.1438 0.9896 56.1513 -13.6437)" class="st22" width="4" height="34"/>
					</g>
					<g>
						<path class="st16" d="M133.8,364.8c0,11.2,0.1,22.5,0.1,33.7L133.8,364.8z"/>
						
							<rect x="117.1" y="379.7" transform="matrix(3.248510e-03 1 -1 3.248510e-03 515.1397 246.5578)" class="st22" width="33.7" height="4"/>
					</g>
					<g>
						<path class="st16" d="M142.7,364.8c1.7,11.2,3.4,22.5,5.1,33.7L142.7,364.8z"/>
						
							<rect x="128.3" y="379.7" transform="matrix(0.1499 0.9887 -0.9887 0.1499 500.887 180.7946)" class="st22" width="34.1" height="4"/>
					</g>
					<g>
						<path class="st16" d="M151.7,364.8c3.4,11.2,6.7,22.5,10.1,33.7L151.7,364.8z"/>
						
							<rect x="139.1" y="379.7" transform="matrix(0.2875 0.9578 -0.9578 0.2875 477.2404 121.8677)" class="st22" width="35.2" height="4"/>
					</g>
				</g>
			</g>
		</g>
	</g>
	<line class="st24" x1="244.5" y1="94" x2="355.5" y2="94"/>
</g>
</svg>
