<?xml version="1.0" encoding="utf-8"?>
<!-- Generator: Adobe Illustrator 19.0.1, SVG Export Plug-In . SVG Version: 6.00 Build 0)  -->
<svg version="1.1" id="Capa_1" xmlns="http://www.w3.org/2000/svg" xmlns:xlink="http://www.w3.org/1999/xlink" x="0px" y="0px"
	 viewBox="-23 -14 80 80" style="enable-background:new -23 -14 80 80;" xml:space="preserve">
<style type="text/css">
	.st0{fill-rule:evenodd;clip-rule:evenodd;fill:#BCD85F;}
	.st1{fill-rule:evenodd;clip-rule:evenodd;fill:#4BA2AF;}
	.st2{fill-rule:evenodd;clip-rule:evenodd;fill:#265677;}
</style>
<g>
	<circle class="st0" cx="18.7" cy="21.5" r="25.5"/>
	<ellipse class="st1" cx="14.5" cy="53.3" rx="30.9" ry="2.7"/>
	<path class="st2" d="M-1.2,1.8l43.7,5.6l1.1,0.1l0.3,1.2L50.6,38l0.5,2.2H49H-1.4h-0.8H-3h-3.8l0.5-12.9l-4.8,12.9h-6L-5.7,8.7
		l0.2-5.2L-3,1.6L-1.2,1.8L-1.2,1.8z M3,8.8c0,1.6,0,3.2,0,4.8c0,1.7,0,3.3,0,5.1c2.1,0.2,4.2,0.3,6.2,0.5c2,0.1,3.9,0.3,5.8,0.4
		c-0.1-1.6-0.2-3.2-0.3-4.8c-0.1-1.5-0.2-3.1-0.3-4.5c-1.8-0.2-3.7-0.5-5.5-0.7C7,9.3,5,9.1,3,8.8L3,8.8z M31.8,23.9
		c0.2,1.6,0.5,3.2,0.7,4.8c0.3,1.7,0.5,3.3,0.8,5c1.6,0,3.2,0,4.8,0c1.5,0,3.1,0,4.6,0c-0.3-1.6-0.6-3.2-1-4.8
		c-0.3-1.5-0.6-3.1-0.9-4.5c-1.4-0.1-2.9-0.2-4.4-0.3C35,24.1,33.4,24,31.8,23.9L31.8,23.9z M30,12.2c0.2,1.4,0.4,2.8,0.7,4.2
		c0.2,1.4,0.4,2.9,0.7,4.4c1.5,0.1,3.1,0.2,4.6,0.3c1.5,0.1,2.9,0.2,4.3,0.3c-0.3-1.4-0.6-2.8-0.8-4.2c-0.3-1.4-0.5-2.7-0.8-4
		c-1.4-0.2-2.8-0.3-4.2-0.5C33,12.6,31.5,12.4,30,12.2L30,12.2z M17.6,10.7c0.1,1.5,0.3,3,0.4,4.5c0.1,1.5,0.3,3.1,0.4,4.7
		c1.8,0.1,3.6,0.3,5.3,0.4c1.7,0.1,3.4,0.3,5,0.4c-0.2-1.5-0.4-3-0.6-4.5c-0.2-1.4-0.4-2.9-0.6-4.3c-1.6-0.2-3.2-0.4-4.8-0.6
		C21,11.1,19.3,10.9,17.6,10.7L17.6,10.7z M18.7,23.1c0.1,1.7,0.3,3.4,0.4,5.2c0.1,1.8,0.3,3.6,0.5,5.5c1.9,0,3.8,0,5.6,0
		c1.8,0,3.6,0,5.3,0c-0.2-1.7-0.5-3.5-0.7-5.1c-0.2-1.7-0.5-3.3-0.7-4.9c-1.7-0.1-3.4-0.2-5.1-0.3C22.3,23.4,20.5,23.3,18.7,23.1
		L18.7,23.1z M3,22.3c0,1.8,0,3.7,0,5.6c0,1.9,0,3.9,0,5.9c2.3,0,4.5,0,6.7,0c2.1,0,4.2,0,6.3,0c-0.1-1.9-0.2-3.7-0.4-5.6
		c-0.1-1.8-0.2-3.5-0.3-5.3c-1.9-0.1-3.9-0.2-5.9-0.3C7.3,22.5,5.2,22.4,3,22.3L3,22.3z M41,10.7L0.2,5.5v31.2H47L41,10.7z"/>
</g>
</svg>
