<?xml version="1.0" encoding="utf-8"?>
<!-- Generator: Adobe Illustrator 19.0.1, SVG Export Plug-In . SVG Version: 6.00 Build 0)  -->
<svg version="1.1" id="Capa_1" xmlns="http://www.w3.org/2000/svg" xmlns:xlink="http://www.w3.org/1999/xlink" x="0px" y="0px"
	 viewBox="0 0 340 130" style="enable-background:new 0 0 340 130;" xml:space="preserve">
<style type="text/css">
	.st0{fill:#FFFFFF;}
</style>
<g>
	<path class="st0" d="M62,7C30,7,4,33,4,65s26,58,58,58s58-26,58-58S94,7,62,7z M62,101c-19.9,0-36-16.1-36-36s16.1-36,36-36
		s36,16.1,36,36S81.9,101,62,101z"/>
	<path class="st0" d="M189.8,53.4h-6.6v15.3c0,3.9-0.6,6.6-1.9,8.3c-1.3,1.6-3.3,2.5-6.1,2.5c-2.1,0-3.6-0.6-4.5-1.8
		c-1-1.2-1.4-2.9-1.4-5.3v-19h-6.6v20.1c0,3.8,0.9,6.6,2.8,8.4c1.8,1.9,4.6,2.8,8.4,2.8c2.2,0,4.1-0.4,5.8-1.2
		c1.7-0.8,3-1.9,3.9-3.4h0.3l0.9,4h5.2V53.4z"/>
	<path class="st0" d="M203,68.8c0-3.8,0.6-6.6,1.9-8.2c1.3-1.6,3.3-2.5,6.1-2.5c2.1,0,3.6,0.6,4.6,1.8c1,1.2,1.4,2.9,1.4,5.3v18.9
		h6.6V64.1c0-7.5-3.7-11.3-11.1-11.3c-2.1,0-4,0.4-5.7,1.2c-1.7,0.8-3,1.9-4,3.4h-0.3l-0.9-4h-5.1v30.8h6.5V68.8z"/>
	<path class="st0" d="M298.2,54.4c-1.6,1.1-3,2.5-4,4.4h-0.3l-0.9-5.4h-5.1v30.8h6.5V68.1c0-2.7,0.8-4.9,2.4-6.7
		c1.6-1.7,3.7-2.6,6.4-2.6c1,0,2,0.1,2.9,0.3l0.6-6.1c-0.9-0.2-1.9-0.3-3.3-0.3C301.7,52.8,299.9,53.4,298.2,54.4z"/>
	<path class="st0" d="M148.5,97.5c-1.9,0-3.3,0.6-4.4,1.7c-1,1.1-1.5,2.7-1.5,4.7c0,1.3,0.2,2.4,0.7,3.4c0.5,1,1.2,1.7,2.1,2.3
		c0.9,0.5,1.9,0.8,3.1,0.8c1.9,0,3.3-0.6,4.3-1.7c1-1.1,1.6-2.7,1.6-4.8c0-2-0.5-3.5-1.6-4.7C151.7,98.1,150.3,97.5,148.5,97.5z
		 M148.4,108.2c-2.1,0-3.2-1.4-3.2-4.3c0-1.4,0.2-2.4,0.7-3.2c0.5-0.7,1.3-1.1,2.4-1.1c2.1,0,3.2,1.4,3.2,4.3
		C151.6,106.8,150.5,108.2,148.4,108.2z"/>
	<rect x="156.6" y="92.7" class="st0" width="2.6" height="17.5"/>
	<path class="st0" d="M167.2,97.5c-0.7,0-1.5,0.1-2.3,0.3s-1.5,0.5-2.2,0.8l0.9,1.9c0.5-0.3,1.1-0.5,1.7-0.7
		c0.6-0.2,1.2-0.3,1.8-0.3c0.8,0,1.4,0.2,1.7,0.6c0.4,0.4,0.6,1,0.6,1.8v0.7l-2.1,0.1c-1.9,0.1-3.4,0.4-4.3,1.1
		c-1,0.7-1.4,1.6-1.4,2.9c0,1.2,0.3,2.1,1,2.8c0.7,0.7,1.6,1,2.9,1c1,0,1.7-0.1,2.3-0.4c0.6-0.3,1.2-0.8,1.8-1.5h0.1l0.5,1.7h1.9
		v-8.4c0-1.5-0.4-2.6-1.2-3.2C169.9,97.9,168.7,97.5,167.2,97.5z M169.3,105.3c0,1-0.3,1.7-0.9,2.3s-1.3,0.8-2.3,0.8
		c-0.7,0-1.2-0.2-1.5-0.5c-0.3-0.3-0.5-0.7-0.5-1.3c0-0.8,0.3-1.3,0.8-1.7c0.6-0.4,1.5-0.6,2.7-0.6l1.6-0.1V105.3z"/>
	<path class="st0" d="M179.1,98.2c-0.7,0.4-1.2,1-1.6,1.8h-0.1l-0.3-2.2h-2.1v12.4h2.6v-6.5c0-1.1,0.3-2,1-2.7c0.7-0.7,1.5-1,2.6-1
		c0.4,0,0.8,0,1.2,0.1l0.3-2.5c-0.3-0.1-0.8-0.1-1.3-0.1C180.4,97.5,179.7,97.8,179.1,98.2z"/>
	<polygon class="st0" points="189.6,110.2 198.9,110.2 198.9,107.9 192.3,107.9 192.3,102.7 198.5,102.7 198.5,100.5 192.3,100.5 
		192.3,96 198.9,96 198.9,93.8 189.6,93.8 	"/>
	<path class="st0" d="M207.9,97.5c-0.8,0-1.6,0.2-2.3,0.5c-0.7,0.3-1.2,0.8-1.6,1.4h-0.1l-0.4-1.6h-2.1v12.4h2.6V104
		c0-1.5,0.3-2.7,0.8-3.3c0.5-0.7,1.3-1,2.4-1c0.8,0,1.5,0.2,1.8,0.7s0.6,1.2,0.6,2.1v7.6h2.7v-8.1C212.3,99.1,210.8,97.5,207.9,97.5
		z"/>
	<path class="st0" d="M220.2,97.5c-1.8,0-3.2,0.6-4.2,1.7c-1,1.2-1.5,2.8-1.5,4.8c0,2,0.5,3.5,1.6,4.7c1.1,1.1,2.6,1.7,4.5,1.7
		c0.8,0,1.6-0.1,2.3-0.2c0.7-0.1,1.3-0.3,2-0.7v-2.1c-0.7,0.3-1.4,0.6-2,0.7c-0.6,0.1-1.3,0.2-2,0.2c-1.1,0-2-0.3-2.6-1
		c-0.6-0.6-0.9-1.6-1-2.8h8.3v-1.4c0-1.7-0.5-3.1-1.4-4.1C223.1,98,221.9,97.5,220.2,97.5z M217.3,102.7c0.1-1,0.4-1.8,0.9-2.3
		c0.5-0.5,1.2-0.8,2-0.8s1.5,0.3,2,0.8c0.5,0.5,0.7,1.3,0.7,2.3H217.3z"/>
	<path class="st0" d="M234.1,97.5c-0.8,0-1.5,0.2-2.1,0.7c-0.7,0.4-1.2,1-1.6,1.8h-0.1l-0.3-2.2h-2.1v12.4h2.6v-6.5
		c0-1.1,0.3-2,1-2.7c0.7-0.7,1.5-1,2.6-1c0.4,0,0.8,0,1.2,0.1l0.3-2.5C235.1,97.6,234.6,97.5,234.1,97.5z"/>
	<path class="st0" d="M253.8,106.1c-0.2,0.6-0.3,1.1-0.4,1.5h-0.1c-0.1-0.9-0.4-1.8-0.8-2.8l-2.5-7h-2.6h-0.3h-4
		c-0.2-0.1-0.5-0.1-0.9-0.2s-0.8-0.1-1.1-0.1c-1.6,0-2.8,0.4-3.6,1.1s-1.3,1.8-1.3,3.1c0,0.8,0.2,1.6,0.6,2.2
		c0.4,0.6,0.9,1.1,1.6,1.4c-0.5,0.3-0.9,0.6-1.2,1c-0.3,0.3-0.4,0.7-0.4,1.2c0,0.4,0.1,0.7,0.3,1c0.2,0.3,0.5,0.6,0.9,0.7
		c-0.9,0.2-1.5,0.6-2,1.1c-0.5,0.5-0.7,1.2-0.7,1.9c0,1.1,0.4,2,1.3,2.6c0.9,0.6,2.2,0.9,3.9,0.9c2.2,0,3.9-0.4,5-1.1
		c1.2-0.8,1.7-1.8,1.7-3.3c0-1.1-0.4-1.9-1.1-2.5c-0.7-0.6-1.8-0.9-3.1-0.9H241c-0.7,0-1.2-0.1-1.5-0.2c-0.3-0.1-0.4-0.4-0.4-0.6
		c0-0.5,0.3-0.9,0.9-1.2c0.3,0.1,0.7,0.1,1.1,0.1c1.5,0,2.8-0.4,3.6-1.1c0.9-0.7,1.3-1.7,1.3-3c0-0.4-0.1-0.8-0.2-1.2
		s-0.3-0.7-0.5-1l2.1-0.4v-0.7l4.7,11.6l-0.5,1.2c-0.5,1.5-1.4,2.2-2.7,2.2c-0.5,0-1,0-1.4-0.1v2.1c0.6,0.1,1.1,0.2,1.7,0.2
		c2.3,0,3.9-1.3,4.8-3.9l5.3-14.1h-2.9C254.9,102.8,253.9,105.5,253.8,106.1z M240.2,110.1h2c1,0,1.8,0.1,2.2,0.3s0.6,0.6,0.6,1.2
		c0,0.7-0.4,1.2-1.1,1.6c-0.7,0.4-1.8,0.6-3.2,0.6c-0.9,0-1.6-0.2-2.2-0.5c-0.5-0.3-0.8-0.7-0.8-1.3c0-0.6,0.2-1.1,0.7-1.4
		C238.8,110.3,239.4,110.1,240.2,110.1z M241.2,104.2c-0.7,0-1.3-0.2-1.7-0.6c-0.4-0.4-0.6-1-0.6-1.8c0-0.8,0.2-1.5,0.6-1.9
		c0.4-0.4,1-0.7,1.7-0.7c0.8,0,1.3,0.2,1.7,0.7c0.4,0.4,0.6,1.1,0.6,1.9C243.5,103.4,242.7,104.2,241.2,104.2z"/>
	<path class="st0" d="M143.3,78.9c-1.7,0-3.5-0.3-5.5-0.8c-1.4-0.4-2.8-0.8-4.1-1.4l-1.2,5.9c2.7,1.4,6.1,2.1,10.3,2.1
		c4.3,0,7.7-1.1,10.1-3.2c2.4-2.1,3.7-5.1,3.7-8.8c0-1.9-0.3-3.5-0.9-4.9c-0.6-1.4-1.6-2.7-2.9-3.8c-1.3-1.1-3.4-2.3-6.1-3.6
		c-2.5-1.1-4.2-2-5.2-2.7c-1-0.7-1.6-1.4-2.1-2.2c-0.4-0.8-0.6-1.7-0.6-2.8c0-1.6,0.5-2.9,1.6-3.8c1-1,2.6-1.5,4.6-1.5
		c2.1,0,4.5,0.5,7,1.5l1-6c-2.6-0.9-5.3-1.4-7.9-1.4c-3.8,0-6.8,1-9.1,3c-2.3,2-3.4,4.8-3.4,8.3c0,2.8,0.7,5.2,2.1,7.2
		c1.4,2,3.9,3.8,7.3,5.3c3.4,1.5,5.6,2.8,6.7,3.9c1.1,1.1,1.6,2.4,1.6,4c0,1.7-0.6,3.1-1.8,4.2C147.6,78.4,145.8,78.9,143.3,78.9z"
		/>
	<path class="st0" d="M140.3,102.3c-0.5-0.4-1.3-0.9-2.3-1.4c-0.9-0.4-1.6-0.8-2-1c-0.4-0.3-0.6-0.5-0.8-0.8
		c-0.2-0.3-0.2-0.6-0.2-1.1c0-0.6,0.2-1.1,0.6-1.5c0.4-0.4,1-0.6,1.7-0.6c0.8,0,1.7,0.2,2.7,0.6l0.4-2.3c-1-0.4-2-0.5-3-0.5
		c-1.4,0-2.6,0.4-3.4,1.1c-0.9,0.8-1.3,1.8-1.3,3.1c0,1.1,0.3,2,0.8,2.7c0.5,0.8,1.5,1.4,2.8,2c1.3,0.6,2.1,1.1,2.5,1.5
		c0.4,0.4,0.6,0.9,0.6,1.5c0,0.7-0.2,1.2-0.7,1.6c-0.4,0.4-1.1,0.6-2.1,0.6c-0.6,0-1.3-0.1-2.1-0.3c-0.5-0.1-1-0.3-1.5-0.5l-0.5,2.2
		c1,0.5,2.3,0.8,3.9,0.8c1.6,0,2.9-0.4,3.8-1.2c0.9-0.8,1.4-1.9,1.4-3.3c0-0.7-0.1-1.3-0.3-1.9C141.1,103.2,140.8,102.7,140.3,102.3
		z"/>
	<path class="st0" d="M233.1,82.8c2.2,1.3,4.8,2,7.6,2c4.5,0,8.1-1.4,10.7-4.1l-4.7-3.9c-1.3,1.8-3.3,2.7-5.9,2.7
		c-5.3,0-7.9-3.6-7.9-10.7c0-3.4,0.6-6,1.9-7.8c1.2-1.8,3.2-2.7,6-2.7c2.7,0,4.7,1,6,2.9l4.9-3.6c-0.1-0.1-0.2-0.2-0.3-0.3
		c-2.6-2.9-6.1-4.3-10.6-4.3c-4.7,0-8.3,1.4-10.8,4.2c-2.6,2.8-3.8,6.7-3.8,11.7c0,3.2,0.6,6,1.8,8.5S230.9,81.5,233.1,82.8z"/>
	<path class="st0" d="M268.5,52.8c-4.7,0-8.3,1.4-10.8,4.2c-2.6,2.8-3.8,6.7-3.8,11.7c0,3.2,0.6,6,1.8,8.5s2.9,4.3,5.1,5.6
		c2.2,1.3,4.8,2,7.6,2c4.6,0,8.2-1.4,10.8-4.2s3.9-6.8,3.9-11.8c0-4.9-1.3-8.7-3.9-11.6S273,52.8,268.5,52.8z M268.5,79.4
		c-5.3,0-7.9-3.6-7.9-10.7c0-3.4,0.6-6,1.9-7.8c1.2-1.8,3.2-2.7,6-2.7c5.2,0,7.9,3.5,7.9,10.6C276.3,75.8,273.7,79.4,268.5,79.4z"/>
	<path class="st0" d="M335.3,66.7c0-4.3-1.2-7.7-3.5-10.2c-2.4-2.5-5.6-3.7-9.6-3.7c-4.4,0-7.8,1.4-10.3,4.3
		c-2.5,2.9-3.8,6.8-3.8,11.9c0,4.9,1.4,8.8,4.1,11.5c2.7,2.8,6.4,4.2,11.2,4.2c2.1,0,4-0.2,5.6-0.5c1.6-0.3,3.2-0.8,4.8-1.6
		l-2.4-4.4c-0.9,0.3-1.8,0.6-2.6,0.8c-1.6,0.3-3.3,0.5-5.1,0.5c-2.8,0-4.9-0.8-6.4-2.4s-2.3-3.9-2.4-6.9h20.5V66.7z M314.9,65.5
		c0.2-2.5,1-4.4,2.2-5.8c1.3-1.3,2.9-2,5-2c2.1,0,3.7,0.7,4.9,2s1.8,3.2,1.8,5.8H314.9z"/>
</g>
</svg>
