<?xml version="1.0" encoding="utf-8"?>
<!-- Generator: Adobe Illustrator 19.0.1, SVG Export Plug-In . SVG Version: 6.00 Build 0)  -->
<svg version="1.1" id="Capa_1" xmlns="http://www.w3.org/2000/svg" xmlns:xlink="http://www.w3.org/1999/xlink" x="0px" y="0px"
	 viewBox="86 -49 300 150" style="enable-background:new 86 -49 300 150;" xml:space="preserve">
<style type="text/css">
	.st0{fill:#4BA2AF;}
	.st1{fill-rule:evenodd;clip-rule:evenodd;fill:#BCD85F;}
	.st2{fill-rule:evenodd;clip-rule:evenodd;fill:#265677;}
</style>
<rect x="93.5" y="42.4" class="st0" width="285" height="46.2"/>
<circle class="st1" cx="223.3" cy="7" r="41.9"/>
<path class="st2" d="M194.1,7h92.7h3.7v3.7V72v3.7h-3.7h-92.7h-3.7V72V10.7V7H194.1L194.1,7z M206.1-20.2l5.5-3.2l-6.4-4.6
	L206.1-20.2L206.1-20.2z M256.3,42.7v19.9h22V42.7H256.3L256.3,42.7z M256.3,19v19.9h22V19H256.3L256.3,19z M229.8,42.7v19.9h22
	V42.7H229.8L229.8,42.7z M229.8,19v19.9h22V19H229.8L229.8,19z M203,42.7v19.9h22V42.7H203L203,42.7z M203,19v19.9h22V19H203L203,19
	z M217.7-22.3c8.4,0,15.2,6.8,15.2,15.2c0,3.4-1.1,6.5-3,9.1h-24.5c-1.9-2.5-3-5.7-3-9.1C202.5-15.5,209.3-22.3,217.7-22.3
	L217.7-22.3z M214.3-24.2h6.4l-3.3-7.2L214.3-24.2L214.3-24.2z M223.4-23.5l5.5,3.2l0.8-7.9L223.4-23.5L223.4-23.5z M231-18.4
	l3.2,5.5l4.6-6.4L231-18.4L231-18.4z M235-10.2v6.4l7.2-3.3L235-10.2L235-10.2z M234.3-1.1L232.5,2h4.1L234.3-1.1L234.3-1.1z
	 M202.8,2l-1.6-2.8l-2,2.8H202.8L202.8,2z M200.4-3.5v-6.4l-7.2,3.3L200.4-3.5L200.4-3.5z M201-12.6l3.2-5.5l-7.9-0.8L201-12.6
	L201-12.6z M283.1,14.4h-85.3v53.9h85.3V14.4z"/>
</svg>
