<?xml version="1.0" encoding="utf-8"?>
<!-- Generator: Adobe Illustrator 19.0.1, SVG Export Plug-In . SVG Version: 6.00 Build 0)  -->
<svg version="1.1" id="Capa_1" xmlns="http://www.w3.org/2000/svg" xmlns:xlink="http://www.w3.org/1999/xlink" x="0px" y="0px"
	 viewBox="86 -49 300 150" style="enable-background:new 86 -49 300 150;" xml:space="preserve">
<style type="text/css">
	.st0{enable-background:new    ;}
	.st1{fill:#1D1E1C;}
	.st2{fill:#BCD85F;}
	.st3{fill:#889638;}
	.st4{fill:#3FAAB4;}
	.st5{fill:#4BB7C1;}
	.st6{fill:#90D1E2;}
	.st7{fill:#329DA7;}
	.st8{fill:#A7BC4B;}
	.st9{fill:#406FB5;}
	.st10{fill:#358BC2;}
	.st11{fill:#054167;}
	.st12{fill:#7F724A;}
	.st13{fill:#20375A;}
	.st14{fill:#696A61;}
	.st15{fill:#075188;}
	.st16{fill:#FFFFFF;}
	.st17{fill:#6ABAE9;}
</style>
<g>
	<g class="st0">
		<path class="st1" d="M245.2-11.5v-14.1h5.9c0.6,0,1.2,0.1,1.7,0.4s1,0.6,1.3,1s0.7,0.9,0.9,1.4c0.2,0.5,0.3,1.1,0.3,1.6
			c0,0.5-0.1,1-0.2,1.5c-0.2,0.5-0.4,0.9-0.6,1.3c-0.3,0.4-0.6,0.7-1,1s-0.8,0.4-1.3,0.5l3.5,5.4h-1.6l-3.3-5.2h-4.2v5.2H245.2z
			 M246.6-17.9h4.6c0.4,0,0.8-0.1,1.1-0.3c0.3-0.2,0.6-0.4,0.9-0.7c0.2-0.3,0.4-0.6,0.6-1c0.1-0.4,0.2-0.8,0.2-1.2
			c0-0.4-0.1-0.8-0.2-1.2c-0.2-0.4-0.4-0.7-0.6-1c-0.3-0.3-0.6-0.5-0.9-0.7c-0.4-0.2-0.7-0.3-1.1-0.3h-4.5V-17.9z"/>
		<path class="st1" d="M262.5-11.3c-0.8,0-1.4-0.1-2.1-0.4s-1.2-0.7-1.6-1.2s-0.8-1.1-1.1-1.7c-0.3-0.6-0.4-1.3-0.4-2.1
			c0-0.7,0.1-1.4,0.4-2.1s0.6-1.2,1.1-1.7c0.5-0.5,1-0.9,1.6-1.2s1.3-0.4,2.1-0.4c0.8,0,1.4,0.1,2.1,0.4s1.2,0.7,1.6,1.2
			c0.4,0.5,0.8,1.1,1.1,1.7s0.4,1.3,0.4,2c0,0.1,0,0.2,0,0.3s0,0.2,0,0.2h-8.8c0,0.6,0.2,1.1,0.4,1.5c0.2,0.5,0.5,0.9,0.8,1.2
			c0.3,0.3,0.7,0.6,1.2,0.8c0.4,0.2,0.9,0.3,1.4,0.3c0.3,0,0.7,0,1-0.1c0.3-0.1,0.6-0.2,0.9-0.4c0.3-0.2,0.5-0.4,0.7-0.6
			c0.2-0.2,0.4-0.5,0.5-0.8l1.2,0.3c-0.2,0.4-0.4,0.7-0.7,1s-0.6,0.6-1,0.8s-0.8,0.4-1.3,0.5C263.5-11.3,263-11.3,262.5-11.3z
			 M266.3-17.2c0-0.6-0.2-1.1-0.4-1.5c-0.2-0.5-0.5-0.8-0.8-1.2c-0.3-0.3-0.7-0.6-1.2-0.8c-0.4-0.2-0.9-0.3-1.4-0.3
			c-0.5,0-1,0.1-1.4,0.3c-0.4,0.2-0.8,0.4-1.2,0.8c-0.3,0.3-0.6,0.7-0.8,1.2c-0.2,0.5-0.3,1-0.4,1.5H266.3z"/>
		<path class="st1" d="M273.9-11.3c-0.7,0-1.4-0.1-2-0.4s-1.1-0.7-1.6-1.2c-0.4-0.5-0.8-1.1-1-1.7s-0.4-1.3-0.4-2
			c0-0.7,0.1-1.4,0.4-2.1c0.2-0.7,0.6-1.2,1-1.7c0.4-0.5,0.9-0.9,1.5-1.2s1.2-0.4,1.9-0.4c0.9,0,1.6,0.2,2.3,0.7
			c0.7,0.5,1.2,1,1.6,1.7V-26h1.3v12.7c0,0.4,0.2,0.6,0.5,0.6v1.2c-0.2,0-0.4,0.1-0.5,0.1c-0.3,0-0.6-0.1-0.8-0.3
			c-0.2-0.2-0.3-0.4-0.3-0.7v-1.1c-0.4,0.7-1,1.2-1.7,1.6C275.4-11.5,274.7-11.3,273.9-11.3z M274.2-12.5c0.3,0,0.7-0.1,1.1-0.2
			c0.4-0.1,0.7-0.3,1.1-0.5c0.3-0.2,0.6-0.5,0.8-0.8s0.4-0.6,0.4-1v-3.2c-0.1-0.4-0.3-0.7-0.6-1c-0.3-0.3-0.5-0.6-0.9-0.8
			c-0.3-0.2-0.7-0.4-1-0.6c-0.4-0.1-0.7-0.2-1.1-0.2c-0.6,0-1.1,0.1-1.5,0.4c-0.5,0.2-0.8,0.6-1.2,0.9c-0.3,0.4-0.6,0.8-0.7,1.3
			c-0.2,0.5-0.3,1-0.3,1.5c0,0.6,0.1,1.1,0.3,1.6c0.2,0.5,0.5,0.9,0.8,1.3s0.8,0.7,1.2,0.9S273.6-12.5,274.2-12.5z"/>
		<path class="st1" d="M285.2-11.3c-1.1,0-1.9-0.4-2.5-1.1c-0.6-0.7-0.8-1.9-0.8-3.3v-6.1h1.3v5.8c0,2.3,0.8,3.5,2.4,3.5
			c0.4,0,0.8-0.1,1.2-0.2c0.4-0.1,0.7-0.3,1.1-0.6c0.3-0.3,0.6-0.5,0.9-0.9s0.5-0.7,0.6-1.2v-6.5h1.3v8.6c0,0.4,0.2,0.6,0.5,0.6v1.2
			c-0.3,0-0.5,0.1-0.6,0.1c-0.3,0-0.6-0.1-0.8-0.3c-0.2-0.2-0.3-0.4-0.3-0.7v-1.4c-0.5,0.8-1.1,1.4-1.8,1.9
			C286.9-11.5,286.1-11.3,285.2-11.3z"/>
		<path class="st1" d="M293.1-16.7c0-0.7,0.1-1.4,0.4-2.1c0.3-0.6,0.6-1.2,1.1-1.7s1-0.9,1.6-1.1c0.6-0.3,1.3-0.4,2.1-0.4
			c1,0,1.8,0.2,2.6,0.7s1.3,1,1.6,1.8l-1.3,0.4c-0.3-0.5-0.7-0.9-1.2-1.2s-1.1-0.4-1.7-0.4c-0.5,0-1,0.1-1.5,0.3
			c-0.5,0.2-0.9,0.5-1.2,0.9c-0.3,0.4-0.6,0.8-0.8,1.3c-0.2,0.5-0.3,1.1-0.3,1.6c0,0.6,0.1,1.1,0.3,1.6s0.5,1,0.8,1.3
			s0.7,0.7,1.2,0.9c0.5,0.2,0.9,0.3,1.5,0.3c0.3,0,0.7,0,1-0.1c0.3-0.1,0.6-0.2,0.9-0.4c0.3-0.2,0.5-0.4,0.7-0.6
			c0.2-0.2,0.3-0.4,0.4-0.7l1.3,0.4c-0.1,0.4-0.4,0.7-0.6,1s-0.6,0.6-1,0.8s-0.8,0.4-1.2,0.5c-0.5,0.1-0.9,0.2-1.4,0.2
			c-0.8,0-1.4-0.1-2.1-0.4s-1.2-0.7-1.6-1.2c-0.5-0.5-0.8-1.1-1.1-1.7C293.2-15.2,293.1-15.9,293.1-16.7z"/>
		<path class="st1" d="M309.2-11.3c-0.8,0-1.4-0.1-2.1-0.4s-1.2-0.7-1.6-1.2c-0.5-0.5-0.8-1.1-1.1-1.7c-0.3-0.6-0.4-1.3-0.4-2.1
			c0-0.7,0.1-1.4,0.4-2.1c0.3-0.6,0.6-1.2,1.1-1.7c0.5-0.5,1-0.9,1.6-1.2c0.6-0.3,1.3-0.4,2.1-0.4s1.4,0.1,2.1,0.4s1.2,0.7,1.6,1.2
			c0.4,0.5,0.8,1.1,1.1,1.7s0.4,1.3,0.4,2c0,0.1,0,0.2,0,0.3c0,0.1,0,0.2,0,0.2h-8.8c0,0.6,0.2,1.1,0.4,1.5c0.2,0.5,0.5,0.9,0.8,1.2
			c0.3,0.3,0.7,0.6,1.2,0.8c0.4,0.2,0.9,0.3,1.4,0.3c0.3,0,0.7,0,1-0.1s0.6-0.2,0.9-0.4c0.3-0.2,0.5-0.4,0.7-0.6s0.4-0.5,0.5-0.8
			l1.2,0.3c-0.2,0.4-0.4,0.7-0.7,1s-0.6,0.6-1,0.8s-0.8,0.4-1.3,0.5C310.2-11.3,309.7-11.3,309.2-11.3z M313-17.2
			c0-0.6-0.2-1.1-0.4-1.5c-0.2-0.5-0.5-0.8-0.8-1.2c-0.3-0.3-0.7-0.6-1.2-0.8c-0.4-0.2-0.9-0.3-1.4-0.3c-0.5,0-1,0.1-1.4,0.3
			c-0.5,0.2-0.8,0.4-1.2,0.8c-0.3,0.3-0.6,0.7-0.8,1.2s-0.3,1-0.4,1.5H313z"/>
		<path class="st1" d="M330.1-11.5h-1.3v-5.8c0-1.2-0.2-2.1-0.6-2.6c-0.4-0.6-1-0.9-1.8-0.9c-0.4,0-0.8,0.1-1.1,0.2
			c-0.4,0.2-0.7,0.4-1.1,0.6c-0.3,0.3-0.6,0.6-0.9,0.9c-0.2,0.4-0.4,0.7-0.5,1.2v6.3h-1.3V-26h1.3v6.5c0.4-0.8,1-1.4,1.7-1.8
			s1.5-0.7,2.3-0.7c0.6,0,1.1,0.1,1.5,0.3c0.4,0.2,0.8,0.5,1,0.9s0.4,0.9,0.6,1.4s0.2,1.2,0.2,1.8V-11.5z"/>
		<path class="st1" d="M335.6-11.3c-0.5,0-1-0.1-1.4-0.2s-0.8-0.4-1.1-0.7c-0.3-0.3-0.6-0.6-0.7-1c-0.2-0.4-0.3-0.8-0.3-1.2
			c0-0.5,0.1-0.9,0.3-1.3c0.2-0.4,0.5-0.7,0.9-1c0.4-0.3,0.8-0.5,1.4-0.6c0.5-0.2,1.1-0.2,1.8-0.2c0.5,0,1,0,1.6,0.1
			c0.5,0.1,1,0.2,1.4,0.4V-18c0-0.9-0.3-1.6-0.8-2.2c-0.5-0.5-1.2-0.8-2.1-0.8c-0.6,0-1.1,0.1-1.7,0.3c-0.5,0.2-1.1,0.5-1.7,0.9
			l-0.5-0.9c0.7-0.5,1.3-0.8,2-1c0.6-0.2,1.3-0.3,2-0.3c1.3,0,2.3,0.4,3,1.1c0.7,0.7,1.1,1.7,1.1,3v4.7c0,0.4,0.2,0.6,0.5,0.6v1.2
			c-0.1,0-0.2,0-0.3,0c-0.1,0-0.2,0-0.2,0c-0.3,0-0.5-0.1-0.7-0.2c-0.2-0.2-0.3-0.4-0.4-0.7l0-0.8c-0.4,0.6-1,1.1-1.8,1.4
			C337.1-11.5,336.4-11.3,335.6-11.3z M335.9-12.3c0.6,0,1.2-0.1,1.8-0.4c0.6-0.3,1.1-0.6,1.4-1.1c0.1-0.1,0.2-0.2,0.2-0.4
			s0.1-0.3,0.1-0.4v-1.7c-0.5-0.2-0.9-0.3-1.4-0.4s-1-0.1-1.4-0.1c-1,0-1.7,0.2-2.4,0.6c-0.6,0.4-0.9,0.9-0.9,1.6
			c0,0.3,0.1,0.5,0.2,0.8c0.1,0.3,0.3,0.5,0.5,0.7c0.2,0.2,0.5,0.4,0.8,0.5S335.5-12.3,335.9-12.3z"/>
		<path class="st1" d="M347.2-11.3c-0.8,0-1.6-0.1-2.4-0.4c-0.8-0.3-1.4-0.6-2-1.2l0.6-0.9c0.6,0.5,1.2,0.8,1.8,1.1
			c0.6,0.2,1.2,0.4,1.9,0.4c0.8,0,1.5-0.2,2-0.5c0.5-0.3,0.7-0.8,0.7-1.4c0-0.3-0.1-0.5-0.2-0.7s-0.3-0.4-0.6-0.5s-0.6-0.3-1-0.4
			c-0.4-0.1-0.8-0.2-1.4-0.3c-0.6-0.1-1.1-0.3-1.5-0.4c-0.4-0.1-0.8-0.3-1.1-0.5c-0.3-0.2-0.5-0.4-0.6-0.7c-0.1-0.3-0.2-0.6-0.2-1
			c0-0.5,0.1-1,0.3-1.4s0.5-0.7,0.8-1c0.3-0.3,0.8-0.5,1.2-0.6c0.5-0.1,1-0.2,1.5-0.2c0.8,0,1.5,0.1,2.2,0.4c0.6,0.3,1.2,0.6,1.6,1
			l-0.7,0.8c-0.4-0.4-0.8-0.7-1.4-0.9s-1.1-0.3-1.7-0.3c-0.4,0-0.7,0-1,0.1c-0.3,0.1-0.6,0.2-0.8,0.3c-0.2,0.2-0.4,0.4-0.5,0.6
			c-0.1,0.2-0.2,0.5-0.2,0.9c0,0.3,0,0.5,0.1,0.7s0.2,0.3,0.5,0.4c0.2,0.1,0.5,0.2,0.8,0.3c0.3,0.1,0.7,0.2,1.2,0.3
			c0.7,0.2,1.2,0.3,1.7,0.5c0.5,0.2,0.9,0.3,1.3,0.6c0.3,0.2,0.6,0.5,0.8,0.8s0.3,0.7,0.3,1.1c0,1-0.4,1.7-1.1,2.3
			C349.4-11.6,348.4-11.3,347.2-11.3z"/>
		<path class="st1" d="M358.4-12c-0.1,0-0.2,0.1-0.3,0.2s-0.3,0.1-0.5,0.2s-0.4,0.1-0.7,0.2s-0.5,0.1-0.8,0.1c-0.3,0-0.6,0-0.8-0.1
			c-0.3-0.1-0.5-0.2-0.7-0.4c-0.2-0.2-0.4-0.4-0.5-0.6c-0.1-0.3-0.2-0.5-0.2-0.9v-7.4h-1.4v-1.1h1.4v-3.5h1.3v3.5h2.4v1.1h-2.4v7
			c0,0.4,0.2,0.7,0.4,0.8s0.5,0.3,0.9,0.3c0.4,0,0.7-0.1,1-0.2c0.3-0.1,0.5-0.2,0.6-0.3L358.4-12z"/>
		<path class="st1" d="M362.7-11.3c-0.5,0-1-0.1-1.4-0.2s-0.8-0.4-1.1-0.7c-0.3-0.3-0.6-0.6-0.7-1c-0.2-0.4-0.3-0.8-0.3-1.2
			c0-0.5,0.1-0.9,0.3-1.3c0.2-0.4,0.5-0.7,0.9-1c0.4-0.3,0.8-0.5,1.4-0.6c0.5-0.2,1.1-0.2,1.8-0.2c0.5,0,1,0,1.6,0.1
			c0.5,0.1,1,0.2,1.4,0.4V-18c0-0.9-0.3-1.6-0.8-2.2c-0.5-0.5-1.2-0.8-2.1-0.8c-0.6,0-1.1,0.1-1.7,0.3c-0.5,0.2-1.1,0.5-1.7,0.9
			l-0.5-0.9c0.7-0.5,1.3-0.8,2-1c0.6-0.2,1.3-0.3,2-0.3c1.3,0,2.3,0.4,3,1.1c0.7,0.7,1.1,1.7,1.1,3v4.7c0,0.4,0.2,0.6,0.5,0.6v1.2
			c-0.1,0-0.2,0-0.3,0c-0.1,0-0.2,0-0.2,0c-0.3,0-0.5-0.1-0.7-0.2c-0.2-0.2-0.3-0.4-0.4-0.7l0-0.8c-0.4,0.6-1,1.1-1.8,1.4
			C364.2-11.5,363.5-11.3,362.7-11.3z M363-12.3c0.6,0,1.2-0.1,1.8-0.4c0.6-0.3,1.1-0.6,1.4-1.1c0.1-0.1,0.2-0.2,0.2-0.4
			s0.1-0.3,0.1-0.4v-1.7c-0.5-0.2-0.9-0.3-1.4-0.4s-1-0.1-1.4-0.1c-1,0-1.7,0.2-2.4,0.6c-0.6,0.4-0.9,0.9-0.9,1.6
			c0,0.3,0.1,0.5,0.2,0.8c0.1,0.3,0.3,0.5,0.5,0.7c0.2,0.2,0.5,0.4,0.8,0.5S362.6-12.3,363-12.3z"/>
	</g>
	<g class="st0">
		<path class="st2" d="M235.9,25.1c0-2.5,0.5-4.8,1.4-7c1-2.2,2.3-4.1,4-5.7c1.7-1.6,3.7-2.9,6-3.8c2.3-0.9,4.8-1.4,7.5-1.4
			c3,0,5.7,0.6,8.1,1.7c2.4,1.1,4.3,2.7,6,4.9c1.6,2.1,2.9,4.8,3.7,7.9c0.9,3.1,1.3,6.6,1.3,10.6c0,4.2-0.5,7.9-1.4,11.2
			s-2.3,6.1-4,8.4c-1.8,2.3-3.9,4.1-6.4,5.3c-2.5,1.2-5.4,1.9-8.6,1.9c-6.2,0-11.6-2.3-16.1-6.9l7.5-8.7c2.6,2.6,5.5,3.9,8.9,3.9
			c2.3,0,4.2-0.7,5.5-2.1c1.4-1.4,2.1-3.4,2.2-6c-1.8,1.6-4.4,2.4-7.7,2.4c-2.6,0-4.9-0.4-7.1-1.2c-2.2-0.8-4-2-5.6-3.5
			c-1.6-1.5-2.8-3.3-3.7-5.3C236.3,29.7,235.9,27.5,235.9,25.1z M254.9,18.6c-0.8,0-1.6,0.2-2.3,0.5c-0.7,0.4-1.4,0.8-1.9,1.4
			c-0.5,0.6-1,1.3-1.3,2.1c-0.3,0.8-0.5,1.6-0.5,2.5c0,1.7,0.6,3.1,1.8,4.2c1.2,1.2,2.6,1.7,4.3,1.7c1.7,0,3.1-0.6,4.3-1.7
			c1.2-1.2,1.8-2.6,1.8-4.2c0-0.9-0.2-1.7-0.5-2.5c-0.3-0.8-0.8-1.5-1.3-2.1c-0.5-0.6-1.2-1.1-1.9-1.4
			C256.4,18.8,255.7,18.6,254.9,18.6z"/>
		<path class="st2" d="M278,25.1c0-2.5,0.5-4.8,1.4-7c1-2.2,2.3-4.1,4-5.7c1.7-1.6,3.7-2.9,6-3.8c2.3-0.9,4.8-1.4,7.5-1.4
			c3,0,5.7,0.6,8.1,1.7c2.4,1.1,4.3,2.7,6,4.9c1.6,2.1,2.9,4.8,3.7,7.9c0.9,3.1,1.3,6.6,1.3,10.6c0,4.2-0.5,7.9-1.4,11.2
			c-0.9,3.3-2.3,6.1-4,8.4c-1.8,2.3-3.9,4.1-6.4,5.3c-2.5,1.2-5.4,1.9-8.6,1.9c-6.2,0-11.6-2.3-16.1-6.9l7.5-8.7
			c2.6,2.6,5.5,3.9,8.9,3.9c2.3,0,4.2-0.7,5.5-2.1s2.1-3.4,2.2-6c-1.8,1.6-4.4,2.4-7.7,2.4c-2.6,0-4.9-0.4-7.1-1.2
			c-2.2-0.8-4-2-5.6-3.5c-1.6-1.5-2.8-3.3-3.7-5.3C278.4,29.7,278,27.5,278,25.1z M297,18.6c-0.8,0-1.6,0.2-2.3,0.5
			c-0.7,0.4-1.4,0.8-1.9,1.4c-0.5,0.6-1,1.3-1.3,2.1c-0.3,0.8-0.5,1.6-0.5,2.5c0,1.7,0.6,3.1,1.8,4.2c1.2,1.2,2.6,1.7,4.3,1.7
			c1.7,0,3.1-0.6,4.3-1.7c1.2-1.2,1.8-2.6,1.8-4.2c0-0.9-0.2-1.7-0.5-2.5c-0.3-0.8-0.8-1.5-1.3-2.1c-0.5-0.6-1.2-1.1-1.9-1.4
			C298.6,18.8,297.8,18.6,297,18.6z"/>
		<path class="st2" d="M333.3,19.2c-1.8,0-3.5-0.3-5-0.9c-1.5-0.6-2.9-1.4-4-2.4c-1.1-1-2-2.2-2.7-3.6c-0.6-1.4-1-2.9-1-4.4
			c0-1.6,0.3-3,1-4.4c0.6-1.4,1.5-2.6,2.7-3.6c1.1-1,2.5-1.8,4-2.4c1.5-0.6,3.2-0.9,5-0.9c1.8,0,3.4,0.3,5,0.9
			c1.5,0.6,2.9,1.4,4,2.4c1.1,1,2,2.2,2.7,3.6c0.7,1.4,1,2.9,1,4.4c0,1.6-0.3,3-1,4.4c-0.7,1.4-1.6,2.6-2.7,3.6
			c-1.1,1-2.5,1.8-4,2.4C336.7,18.9,335,19.2,333.3,19.2z M326.6,43.4l20.2-22.8l17.9-24.1l5.9,5.4L351.3,24l-18.8,24.8L326.6,43.4z
			 M333.3,12.7c1,0,1.8-0.5,2.4-1.4c0.7-1,1-2.1,1-3.4c0-1.3-0.3-2.5-1-3.4c-0.7-1-1.5-1.4-2.4-1.4s-1.8,0.5-2.4,1.4
			c-0.7,1-1,2.1-1,3.4c0,1.3,0.3,2.5,1,3.4C331.5,12.3,332.3,12.7,333.3,12.7z M363.9,48.7c-1.8,0-3.5-0.3-5-0.9
			c-1.5-0.6-2.9-1.4-4-2.4c-1.1-1-2-2.2-2.7-3.6c-0.6-1.4-1-2.9-1-4.4c0-1.6,0.3-3,1-4.4s1.5-2.6,2.7-3.6c1.1-1,2.5-1.8,4-2.4
			c1.5-0.6,3.2-0.9,5-0.9c1.8,0,3.4,0.3,5,0.9c1.5,0.6,2.9,1.4,4,2.4c1.1,1,2,2.2,2.7,3.6c0.7,1.4,1,2.9,1,4.4c0,1.6-0.3,3-1,4.4
			c-0.7,1.4-1.6,2.6-2.7,3.6c-1.1,1-2.5,1.8-4,2.4C367.3,48.4,365.7,48.7,363.9,48.7z M363.9,42.3c1,0,1.8-0.5,2.4-1.4
			c0.7-1,1-2.1,1-3.4c0-1.3-0.3-2.5-1-3.4c-0.7-1-1.5-1.4-2.4-1.4s-1.8,0.5-2.4,1.4c-0.7,1-1,2.1-1,3.4c0,1.3,0.3,2.5,1,3.4
			C362.1,41.8,362.9,42.3,363.9,42.3z"/>
	</g>
	<g class="st0">
		<path class="st1" d="M241.9,77.3c-0.1,0-0.2,0.1-0.3,0.2c-0.2,0.1-0.3,0.1-0.5,0.2c-0.2,0.1-0.4,0.1-0.7,0.2s-0.5,0.1-0.8,0.1
			c-0.3,0-0.6,0-0.8-0.1s-0.5-0.2-0.7-0.4c-0.2-0.2-0.4-0.4-0.5-0.6c-0.1-0.3-0.2-0.5-0.2-0.9v-7.4h-1.4v-1.1h1.4V64h1.3v3.5h2.4
			v1.1h-2.4v7c0,0.4,0.2,0.7,0.4,0.8c0.2,0.2,0.5,0.3,0.9,0.3c0.4,0,0.7-0.1,1-0.2c0.3-0.1,0.5-0.2,0.6-0.3L241.9,77.3z"/>
		<path class="st1" d="M246.7,78c-1.1,0-1.9-0.4-2.5-1.1c-0.6-0.7-0.8-1.9-0.8-3.3v-6.1h1.3v5.8c0,2.3,0.8,3.5,2.4,3.5
			c0.4,0,0.8-0.1,1.2-0.2c0.4-0.1,0.7-0.3,1.1-0.6c0.3-0.3,0.6-0.5,0.9-0.9c0.3-0.3,0.5-0.7,0.6-1.2v-6.5h1.3v8.6
			c0,0.4,0.2,0.6,0.5,0.6v1.2c-0.3,0-0.4,0.1-0.6,0.1c-0.3,0-0.6-0.1-0.8-0.3c-0.2-0.2-0.3-0.4-0.3-0.7v-1.4
			c-0.5,0.8-1.1,1.4-1.8,1.9S247.6,78,246.7,78z"/>
		<path class="st1" d="M265.5,68.7c-0.9,0-1.7,0.3-2.4,0.8c-0.7,0.5-1.2,1.1-1.4,2v6.4h-1.3V67.5h1.3V70c0.4-0.7,0.8-1.3,1.4-1.8
			c0.6-0.5,1.2-0.7,1.9-0.7c0.1,0,0.2,0,0.3,0c0.1,0,0.2,0,0.3,0V68.7z"/>
		<path class="st1" d="M271.8,78c-0.8,0-1.4-0.1-2.1-0.4s-1.2-0.7-1.6-1.2s-0.8-1.1-1.1-1.7c-0.3-0.6-0.4-1.3-0.4-2.1
			c0-0.7,0.1-1.4,0.4-2.1s0.6-1.2,1.1-1.7c0.5-0.5,1-0.9,1.6-1.2s1.3-0.4,2.1-0.4c0.8,0,1.4,0.1,2.1,0.4s1.2,0.7,1.6,1.2
			c0.4,0.5,0.8,1.1,1.1,1.7s0.4,1.3,0.4,2c0,0.1,0,0.2,0,0.3s0,0.2,0,0.2H268c0,0.6,0.2,1.1,0.4,1.5c0.2,0.5,0.5,0.9,0.8,1.2
			c0.3,0.3,0.7,0.6,1.2,0.8c0.4,0.2,0.9,0.3,1.4,0.3c0.3,0,0.7,0,1-0.1c0.3-0.1,0.6-0.2,0.9-0.4c0.3-0.2,0.5-0.4,0.7-0.6
			c0.2-0.2,0.4-0.5,0.5-0.8l1.2,0.3c-0.2,0.4-0.4,0.7-0.7,1s-0.6,0.6-1,0.8s-0.8,0.4-1.3,0.5C272.8,78,272.3,78,271.8,78z
			 M275.6,72.1c0-0.6-0.2-1.1-0.4-1.5c-0.2-0.5-0.5-0.8-0.8-1.2c-0.3-0.3-0.7-0.6-1.2-0.8c-0.4-0.2-0.9-0.3-1.4-0.3
			c-0.5,0-1,0.1-1.4,0.3c-0.4,0.2-0.8,0.4-1.2,0.8c-0.3,0.3-0.6,0.7-0.8,1.2c-0.2,0.5-0.3,1-0.4,1.5H275.6z"/>
		<path class="st1" d="M278.3,72.6c0-0.7,0.1-1.4,0.4-2.1c0.3-0.6,0.6-1.2,1.1-1.7c0.5-0.5,1-0.9,1.6-1.1c0.6-0.3,1.3-0.4,2.1-0.4
			c1,0,1.8,0.2,2.6,0.7c0.7,0.4,1.3,1,1.6,1.8l-1.3,0.4c-0.3-0.5-0.7-0.9-1.2-1.2s-1.1-0.4-1.7-0.4c-0.5,0-1,0.1-1.5,0.3
			c-0.5,0.2-0.9,0.5-1.2,0.9c-0.3,0.4-0.6,0.8-0.8,1.3c-0.2,0.5-0.3,1.1-0.3,1.6c0,0.6,0.1,1.1,0.3,1.6c0.2,0.5,0.5,1,0.8,1.3
			s0.7,0.7,1.2,0.9c0.5,0.2,0.9,0.3,1.5,0.3c0.3,0,0.7,0,1-0.1c0.3-0.1,0.6-0.2,0.9-0.4c0.3-0.2,0.5-0.4,0.7-0.6
			c0.2-0.2,0.3-0.4,0.4-0.7l1.3,0.4c-0.1,0.4-0.4,0.7-0.6,1c-0.3,0.3-0.6,0.6-1,0.8s-0.8,0.4-1.2,0.5c-0.5,0.1-0.9,0.2-1.4,0.2
			c-0.8,0-1.4-0.1-2.1-0.4s-1.2-0.7-1.6-1.2s-0.8-1.1-1.1-1.7C278.4,74.1,278.3,73.4,278.3,72.6z"/>
		<path class="st1" d="M289.8,65.3v-2h1.3v2H289.8z M289.8,77.8V67.5h1.3v10.3H289.8z"/>
		<path class="st1" d="M299.1,78c-0.8,0-1.6-0.2-2.2-0.6c-0.7-0.4-1.2-0.9-1.6-1.6v2h-1.2V63.3h1.3v6.3c0.5-0.7,1-1.3,1.7-1.7
			c0.6-0.4,1.4-0.6,2.3-0.6c0.7,0,1.4,0.2,1.9,0.5c0.6,0.3,1.1,0.7,1.5,1.2c0.4,0.5,0.7,1.1,0.9,1.7c0.2,0.6,0.3,1.3,0.3,2
			c0,0.7-0.1,1.4-0.4,2.1c-0.2,0.6-0.6,1.2-1,1.7c-0.4,0.5-1,0.9-1.6,1.2S299.8,78,299.1,78z M298.8,76.8c0.6,0,1.1-0.1,1.6-0.3
			c0.5-0.2,0.9-0.5,1.2-0.9c0.3-0.4,0.6-0.8,0.8-1.3s0.3-1,0.3-1.5c0-0.5-0.1-1.1-0.3-1.6c-0.2-0.5-0.4-0.9-0.8-1.3
			c-0.3-0.4-0.7-0.7-1.2-0.9s-0.9-0.3-1.5-0.3c-0.4,0-0.8,0.1-1.2,0.2c-0.4,0.1-0.7,0.3-1,0.6c-0.3,0.2-0.6,0.5-0.8,0.8
			c-0.2,0.3-0.4,0.6-0.6,1v3.2c0.1,0.4,0.2,0.7,0.4,1s0.5,0.6,0.8,0.8c0.3,0.2,0.7,0.4,1.1,0.5C298.1,76.8,298.5,76.8,298.8,76.8z"
			/>
		<path class="st1" d="M310.8,78c-0.8,0-1.4-0.1-2.1-0.4c-0.6-0.3-1.2-0.7-1.6-1.2s-0.8-1.1-1.1-1.7c-0.3-0.6-0.4-1.3-0.4-2
			c0-0.7,0.1-1.4,0.4-2.1c0.3-0.6,0.6-1.2,1.1-1.7s1-0.9,1.6-1.2c0.6-0.3,1.3-0.4,2.1-0.4s1.4,0.1,2.1,0.4c0.6,0.3,1.2,0.7,1.6,1.2
			s0.8,1.1,1.1,1.7c0.3,0.6,0.4,1.3,0.4,2.1c0,0.7-0.1,1.4-0.4,2c-0.3,0.6-0.6,1.2-1.1,1.7s-1,0.9-1.6,1.2
			C312.2,77.9,311.5,78,310.8,78z M307,72.7c0,0.6,0.1,1.1,0.3,1.6c0.2,0.5,0.5,0.9,0.8,1.3c0.3,0.4,0.7,0.7,1.2,0.9
			c0.5,0.2,0.9,0.3,1.5,0.3s1-0.1,1.5-0.3c0.5-0.2,0.9-0.5,1.2-0.9c0.3-0.4,0.6-0.8,0.8-1.3c0.2-0.5,0.3-1,0.3-1.6
			c0-0.6-0.1-1.1-0.3-1.6c-0.2-0.5-0.5-1-0.8-1.3c-0.3-0.4-0.7-0.7-1.2-0.9c-0.5-0.2-0.9-0.3-1.4-0.3s-1,0.1-1.5,0.3
			c-0.5,0.2-0.9,0.5-1.2,0.9c-0.3,0.4-0.6,0.8-0.8,1.3C307.1,71.6,307,72.1,307,72.7z"/>
		<path class="st1" d="M327.5,78c-0.7,0-1.4-0.1-2-0.4s-1.1-0.7-1.6-1.2c-0.4-0.5-0.8-1.1-1-1.7c-0.2-0.6-0.4-1.3-0.4-2
			c0-0.7,0.1-1.4,0.4-2.1c0.2-0.7,0.6-1.2,1-1.7c0.4-0.5,0.9-0.9,1.5-1.2s1.2-0.4,1.9-0.4c0.9,0,1.6,0.2,2.3,0.7
			c0.7,0.5,1.2,1,1.6,1.7v-6.3h1.3v12.7c0,0.4,0.2,0.6,0.5,0.6v1.2c-0.2,0-0.4,0.1-0.5,0.1c-0.3,0-0.6-0.1-0.8-0.3
			c-0.2-0.2-0.3-0.4-0.3-0.7v-1.1c-0.4,0.7-1,1.2-1.7,1.6C328.9,77.8,328.2,78,327.5,78z M327.7,76.8c0.3,0,0.7-0.1,1.1-0.2
			c0.4-0.1,0.7-0.3,1.1-0.5s0.6-0.5,0.8-0.8c0.2-0.3,0.4-0.6,0.4-1v-3.2c-0.1-0.4-0.3-0.7-0.6-1s-0.5-0.6-0.9-0.8
			c-0.3-0.2-0.7-0.4-1-0.6c-0.4-0.1-0.7-0.2-1.1-0.2c-0.6,0-1.1,0.1-1.5,0.4c-0.5,0.2-0.8,0.6-1.2,0.9c-0.3,0.4-0.6,0.8-0.7,1.3
			c-0.2,0.5-0.3,1-0.3,1.5c0,0.6,0.1,1.1,0.3,1.6c0.2,0.5,0.5,0.9,0.8,1.3c0.3,0.4,0.8,0.7,1.2,0.9
			C326.7,76.7,327.2,76.8,327.7,76.8z"/>
		<path class="st1" d="M340.1,78c-0.8,0-1.4-0.1-2.1-0.4s-1.2-0.7-1.6-1.2s-0.8-1.1-1.1-1.7c-0.3-0.6-0.4-1.3-0.4-2.1
			c0-0.7,0.1-1.4,0.4-2.1s0.6-1.2,1.1-1.7c0.5-0.5,1-0.9,1.6-1.2s1.3-0.4,2.1-0.4s1.4,0.1,2.1,0.4c0.6,0.3,1.2,0.7,1.6,1.2
			c0.4,0.5,0.8,1.1,1.1,1.7c0.3,0.6,0.4,1.3,0.4,2c0,0.1,0,0.2,0,0.3s0,0.2,0,0.2h-8.8c0,0.6,0.2,1.1,0.4,1.5
			c0.2,0.5,0.5,0.9,0.8,1.2s0.7,0.6,1.2,0.8c0.4,0.2,0.9,0.3,1.4,0.3c0.3,0,0.7,0,1-0.1c0.3-0.1,0.6-0.2,0.9-0.4
			c0.3-0.2,0.5-0.4,0.7-0.6c0.2-0.2,0.4-0.5,0.5-0.8l1.2,0.3c-0.2,0.4-0.4,0.7-0.7,1c-0.3,0.3-0.6,0.6-1,0.8
			c-0.4,0.2-0.8,0.4-1.3,0.5C341,78,340.6,78,340.1,78z M343.9,72.1c0-0.6-0.2-1.1-0.4-1.5s-0.5-0.8-0.8-1.2
			c-0.3-0.3-0.7-0.6-1.2-0.8c-0.4-0.2-0.9-0.3-1.4-0.3c-0.5,0-1,0.1-1.4,0.3c-0.4,0.2-0.8,0.4-1.2,0.8c-0.3,0.3-0.6,0.7-0.8,1.2
			s-0.3,1-0.4,1.5H343.9z"/>
		<path class="st1" d="M352.3,63.3h1.3v12.1c0,0.4,0.1,0.7,0.3,0.9c0.2,0.2,0.5,0.3,0.9,0.3c0.1,0,0.3,0,0.5-0.1
			c0.2,0,0.4-0.1,0.6-0.2l0.2,1.1c-0.3,0.1-0.6,0.2-0.9,0.3c-0.4,0.1-0.7,0.1-0.9,0.1c-0.6,0-1.1-0.2-1.5-0.5
			c-0.4-0.4-0.5-0.8-0.5-1.5V63.3z"/>
		<path class="st1" d="M360.7,78c-1.1,0-1.9-0.4-2.5-1.1c-0.6-0.7-0.8-1.9-0.8-3.3v-6.1h1.3v5.8c0,2.3,0.8,3.5,2.4,3.5
			c0.4,0,0.8-0.1,1.2-0.2c0.4-0.1,0.7-0.3,1.1-0.6c0.3-0.3,0.6-0.5,0.9-0.9s0.5-0.7,0.6-1.2v-6.5h1.3v8.6c0,0.4,0.2,0.6,0.5,0.6v1.2
			c-0.3,0-0.4,0.1-0.6,0.1c-0.3,0-0.6-0.1-0.8-0.3c-0.2-0.2-0.3-0.4-0.3-0.7v-1.4c-0.5,0.8-1.1,1.4-1.8,1.9
			C362.4,77.8,361.6,78,360.7,78z"/>
		<path class="st1" d="M368.4,76.9l7-8.4h-6.8v-1h8.3v0.9l-6.9,8.4h6.9v1h-8.5V76.9z"/>
	</g>
	<g>
		<g>
			<polygon class="st3" points="227.5,13.7 227.3,26.5 212.6,33.9 212.6,21 			"/>
		</g>
		<g>
			<g>
				<path class="st4" d="M210.7,42.7c0,4.3,0,8.6-0.1,12.9c0-5.5-3.3-11.1-10-15.5c-0.7-0.4-1.2-0.8-1.8-1.2
					c-14.8-8.6-38.7-9.1-54.7-1c-9,4.6-13.5,10.9-13.7,17.3V42.3c0-6.4,4.7-12.7,13.5-17.4c15.9-8.1,39.9-7.5,54.7,1
					c0.7,0.4,1.3,0.8,1.8,1.2C207.3,31.7,210.7,37.2,210.7,42.7z"/>
			</g>
			<g>
				<polygon class="st4" points="140.3,57.7 140.3,70.7 128.4,76.7 128.4,63.9 				"/>
			</g>
			<g>
				<path class="st5" d="M226.6,55.5c0,9-6.5,17.9-19.1,24.3V67c12.6-6.4,19.1-15.3,19.1-24.3C226.7,46.5,226.6,51.7,226.6,55.5z"/>
			</g>
			<g>
				<path class="st6" d="M210,19.5c1,0.7,1.8,1.2,2.6,1.7c20.5,13.5,18.3,34.1-5.1,45.9l-10.7-7c16.6-8.5,18.3-23.1,3.6-32.8
					c-0.7-0.4-1.2-0.8-1.8-1.2c-14.8-8.6-38.7-9.1-54.7-1c-16.6,8.5-18.2,23.1-3.5,32.8L128.3,64c-0.8-0.5-1.6-1-2.3-1.7
					c-17.9-13.5-15-32.9,7.4-44.2c17.7-9,42.1-10.4,61.9-4.7c0.7,0.3,1.3,0.4,2,0.5c1.6,0.5,3,1,4.3,1.6c1.2,0.5,2.5,1,3.5,1.6
					c1.3,0.5,2.6,1.2,3.8,2C209.4,19.2,209.7,19.3,210,19.5z"/>
			</g>
			<g>
				<polygon class="st7" points="207.6,66.9 207.6,79.8 196.9,72.8 197,60 				"/>
			</g>
		</g>
		<g>
			<path class="st8" d="M94.7,55.2c0-4.3,0-8.6,0.1-12.9c0,10.4,6.2,20.7,18.9,29.1l-0.1,12.9C100.9,75.8,94.7,65.4,94.7,55.2z"/>
		</g>
		<g>
			<g>
				<path class="st4" d="M130.5,55.2l0.1-12.9c0-6.5,4.7-13,13.9-17.6c9.9-4.9,22.8-6.5,34.6-5.1L179,32.4
					c-11.8-1.6-24.7,0.1-34.6,5.1C135.1,42.2,130.5,48.7,130.5,55.2z"/>
			</g>
			<g>
				<path class="st4" d="M114.6,57.8c0-0.1,0-0.3,0-0.4c0-4.2,0-8.3,0-12.5c1.2,7.8,7,15,16.4,20.3c7.4,4.3,16.9,7.4,27.7,8.8
					L158.6,87c-10.9-1.3-20.3-4.6-27.7-8.8C121.8,72.8,115.8,65.7,114.6,57.8z"/>
			</g>
			<g>
				<polygon class="st7" points="162.2,65 162.2,77.8 158.7,86.9 158.8,74.2 				"/>
			</g>
			<g>
				<path class="st6" d="M182.3,10.7l-3.4,9.1c-11.8-1.6-24.7,0.1-34.6,5.1c-16.8,8.3-18.6,23-4.2,32.8c0.7,0.4,1.3,0.9,2.1,1.3
					c5.6,3.3,12.6,5.3,19.9,6.2l-3.4,9.1c-10.9-1.3-20.3-4.6-27.7-8.8c-9.4-5.5-15.3-12.7-16.4-20.5c0-0.3-0.1-0.4-0.1-0.4
					s0-0.1,0-0.3c0-0.1,0-0.3,0-0.3c0-0.1,0-0.3,0-0.4c0-0.1,0-0.1,0-0.3c0-0.1,0-0.1,0-0.3s0-0.1,0-0.3c0-0.1,0-0.1,0-0.3
					c0-0.1,0-0.3,0-0.4s0-0.4,0-0.5c0.1-2.1,0.5-4.2,1.3-6.2c4.6-12.7,21.6-22.1,42.1-24.7c6.2-0.9,12.7-1,19.1-0.5
					c0.3,0,0.4,0,0.5,0.1C179.1,10.2,180.8,10.4,182.3,10.7z"/>
			</g>
		</g>
		<g>
			<path class="st2" d="M223.8,11.4c1.2,0.7,2.5,1.4,3.5,2.2l-14.7,7.5c-0.8-0.5-1.6-1-2.5-1.6c-0.5-0.3-0.9-0.5-1.2-0.7
				c-1.2-0.7-2.5-1.3-3.8-2c-1.2-0.5-2.3-1-3.5-1.6c-1.4-0.5-2.9-1-4.3-1.6c-0.7-0.3-1.3-0.4-2-0.5c-19.9-5.7-44.3-4.3-61.9,4.7
				C111,29.1,108,48.6,126,62c0.7,0.5,1.6,1,2.3,1.7l-14.7,7.5C86,52.9,89,25.3,120.5,9.3C150.6-5.8,195.7-4.7,223.8,11.4z"/>
		</g>
		<g>
			<g>
				<g class="st0">
					<g>
						<polygon class="st9" points="132.7,10.5 150.6,-1.7 150.5,0.7 132.7,12.8 						"/>
					</g>
					<g>
						<polygon class="st10" points="122,5.4 140,-6.8 150.6,-1.7 132.7,10.5 						"/>
					</g>
					<g>
						<polygon class="st11" points="132.7,10.5 132.7,12.8 121.9,7.8 122,5.4 						"/>
					</g>
				</g>
			</g>
			<g>
				<g class="st0">
					<g>
						<polygon class="st9" points="136.4,-6 143.6,-10.8 143.5,1.7 136.3,6.7 						"/>
					</g>
					<g>
						<polygon class="st12" points="125.7,-11 132.8,-15.8 143.6,-10.8 136.4,-6 						"/>
					</g>
					<g>
						<polygon class="st11" points="136.4,-6 136.3,6.7 125.5,1.7 125.7,-11 						"/>
					</g>
				</g>
			</g>
			<g>
				<g class="st0">
					<g>
						<polygon class="st13" points="114.1,-15.1 141.6,-32.7 128,-23.3 						"/>
					</g>
					<g>
						<polygon class="st14" points="114.1,-15.1 141.6,-32.7 154.3,-10.5 127.5,7.8 						"/>
					</g>
					<g>
						<polygon class="st15" points="128.3,6.7 155.2,-11.6 154.3,-10.5 127.5,7.8 						"/>
					</g>
					<g>
						<polygon class="st11" points="114.7,-16.6 128.3,6.7 127.5,7.8 114.1,-15.1 						"/>
					</g>
					<g>
						<polygon class="st16" points="114.7,-16.6 141.6,-35 155.2,-11.6 128.3,6.7 						"/>
					</g>
				</g>
				<g>
					<polygon class="st17" points="117.3,-16 141.1,-32.3 152.7,-12.3 128.8,3.9 					"/>
					<g>
						<polygon class="st16" points="121.8,-5.5 122.1,-4.7 147.5,-22 147.1,-22.8 						"/>
					</g>
					<g>
						<polygon class="st16" points="119,-11.1 119.4,-10.3 144.9,-27.6 144.4,-28.3 						"/>
					</g>
					<g>
						<polygon class="st16" points="125.3,-0.6 125.7,0.2 151.1,-17.1 150.6,-17.8 						"/>
					</g>
				</g>
				<g>
					<g>
						<polygon class="st16" points="121.2,-19.2 133.3,1.8 134.5,1.4 122.4,-19.3 						"/>
					</g>
					<g>
						<polygon class="st16" points="126.2,-23.2 138.3,-2.3 139.3,-2.7 127.2,-23.6 						"/>
					</g>
					<g>
						<polygon class="st16" points="131.1,-26.7 143.2,-5.8 144.4,-6.2 132.2,-27.1 						"/>
					</g>
					<g>
						<polygon class="st16" points="136.1,-30.1 148.1,-9.2 149.2,-9.7 137.1,-30.5 						"/>
					</g>
				</g>
			</g>
		</g>
		<g>
			<g>
				<g class="st0">
					<g>
						<polygon class="st9" points="111.6,40.8 129.6,28.7 129.4,30.9 111.5,43.2 						"/>
					</g>
					<g>
						<polygon class="st10" points="100.9,35.7 118.9,23.7 129.6,28.7 111.6,40.8 						"/>
					</g>
					<g>
						<polygon class="st11" points="111.6,40.8 111.5,43.2 100.8,38.2 100.9,35.7 						"/>
					</g>
				</g>
			</g>
			<g>
				<g class="st0">
					<g>
						<polygon class="st9" points="115.3,24.4 122.5,19.5 122.4,31.9 115.3,36.9 						"/>
					</g>
					<g>
						<polygon class="st12" points="104.6,19.5 111.7,14.5 122.5,19.5 115.3,24.4 						"/>
					</g>
					<g>
						<polygon class="st11" points="115.3,24.4 115.3,36.9 104.5,31.9 104.6,19.5 						"/>
					</g>
				</g>
			</g>
			<g>
				<g class="st0">
					<g>
						<polygon class="st13" points="93,15.2 120.5,-2.3 106.9,7 						"/>
					</g>
					<g>
						<polygon class="st14" points="93,15.2 120.5,-2.3 133.3,19.8 106.4,38.2 						"/>
					</g>
					<g>
						<polygon class="st15" points="107.2,37 134.1,18.7 133.3,19.8 106.4,38.2 						"/>
					</g>
					<g>
						<polygon class="st11" points="93.7,13.7 107.2,37 106.4,38.2 93,15.2 						"/>
					</g>
					<g>
						<polygon class="st16" points="93.7,13.7 120.6,-4.6 134.1,18.7 107.2,37 						"/>
					</g>
				</g>
				<g>
					<polygon class="st17" points="96.3,14.4 120.2,-1.8 131.6,17.9 107.7,34.2 					"/>
					<g>
						<polygon class="st16" points="100.6,24.8 101.1,25.7 126.4,8.3 126,7.5 						"/>
					</g>
					<g>
						<polygon class="st16" points="98,19.2 98.3,20 123.8,2.7 123.3,1.9 						"/>
					</g>
					<g>
						<polygon class="st16" points="104.2,29.7 104.6,30.5 130.1,13.2 129.7,12.4 						"/>
					</g>
				</g>
				<g>
					<g>
						<polygon class="st16" points="100.2,11.3 112.3,32.2 113.3,31.7 101.3,10.9 						"/>
					</g>
					<g>
						<polygon class="st16" points="105.1,7.2 117.2,28 118.2,27.7 106.1,6.8 						"/>
					</g>
					<g>
						<polygon class="st16" points="110.1,3.7 122.1,24.5 123.2,24.2 111.1,3.2 						"/>
					</g>
					<g>
						<polygon class="st16" points="114.9,0.2 127.1,21.2 128.1,20.8 116,-0.2 						"/>
					</g>
				</g>
			</g>
		</g>
		<g>
			<g>
				<g class="st0">
					<g>
						<polygon class="st9" points="162.8,12.3 180.8,0.2 180.8,2.4 162.8,14.7 						"/>
					</g>
					<g>
						<polygon class="st10" points="152.2,7.4 170.1,-4.8 180.8,0.2 162.8,12.3 						"/>
					</g>
					<g>
						<polygon class="st11" points="162.8,12.3 162.8,14.7 152,9.7 152.2,7.4 						"/>
					</g>
				</g>
			</g>
			<g>
				<g class="st0">
					<g>
						<polygon class="st9" points="166.6,-4.1 173.8,-9 173.6,3.5 166.5,8.4 						"/>
					</g>
					<g>
						<polygon class="st12" points="156,-9 163,-14 173.8,-9 166.6,-4.1 						"/>
					</g>
					<g>
						<polygon class="st11" points="166.6,-4.1 166.5,8.4 155.7,3.5 156,-9 						"/>
					</g>
				</g>
			</g>
			<g>
				<g class="st0">
					<g>
						<polygon class="st13" points="144.4,-13.3 171.8,-30.8 158.2,-21.5 						"/>
					</g>
					<g>
						<polygon class="st14" points="144.4,-13.3 171.8,-30.8 184.6,-8.6 157.6,9.7 						"/>
					</g>
					<g>
						<polygon class="st15" points="158.4,8.5 185.3,-9.8 184.6,-8.6 157.6,9.7 						"/>
					</g>
					<g>
						<polygon class="st11" points="145,-14.7 158.4,8.5 157.6,9.7 144.4,-13.3 						"/>
					</g>
					<g>
						<polygon class="st16" points="145,-14.7 171.8,-33.1 185.3,-9.8 158.4,8.5 						"/>
					</g>
				</g>
				<g>
					<polygon class="st17" points="147.5,-14.1 171.4,-30.3 182.9,-10.6 158.9,5.7 					"/>
					<g>
						<polygon class="st16" points="151.9,-3.7 152.3,-2.8 177.7,-20.2 177.3,-21 						"/>
					</g>
					<g>
						<polygon class="st16" points="149.2,-9.3 149.6,-8.5 175.1,-25.8 174.5,-26.6 						"/>
					</g>
					<g>
						<polygon class="st16" points="155.4,1.3 156,2 181.3,-15.3 180.9,-16 						"/>
					</g>
				</g>
				<g>
					<g>
						<polygon class="st16" points="151.4,-17.2 163.5,3.7 164.7,3.3 152.6,-17.6 						"/>
					</g>
					<g>
						<polygon class="st16" points="156.3,-21.3 168.4,-0.3 169.5,-0.8 157.4,-21.6 						"/>
					</g>
					<g>
						<polygon class="st16" points="161.3,-24.8 173.4,-4 174.5,-4.3 162.3,-25.3 						"/>
					</g>
					<g>
						<polygon class="st16" points="166.2,-28.3 178.3,-7.3 179.4,-7.7 167.3,-28.7 						"/>
					</g>
				</g>
			</g>
		</g>
		<g>
			<g>
				<g class="st0">
					<g>
						<polygon class="st9" points="195,16.7 212.9,4.7 212.9,6.8 194.8,19.2 						"/>
					</g>
					<g>
						<polygon class="st10" points="184.3,11.8 202.2,-0.3 212.9,4.7 195,16.7 						"/>
					</g>
					<g>
						<polygon class="st11" points="195,16.7 194.8,19.2 184.2,14.2 184.3,11.8 						"/>
					</g>
				</g>
			</g>
			<g>
				<g class="st0">
					<g>
						<polygon class="st9" points="198.6,0.3 205.9,-4.5 205.8,8 198.6,12.8 						"/>
					</g>
					<g>
						<polygon class="st12" points="187.9,-4.6 195.1,-9.5 205.9,-4.5 198.6,0.3 						"/>
					</g>
					<g>
						<polygon class="st11" points="198.6,0.3 198.6,12.8 187.8,7.9 187.9,-4.6 						"/>
					</g>
				</g>
			</g>
			<g>
				<g class="st0">
					<g>
						<polygon class="st13" points="176.5,-8.8 203.8,-26.3 190.3,-17.1 						"/>
					</g>
					<g>
						<polygon class="st14" points="176.5,-8.8 203.8,-26.3 216.7,-4.2 189.6,14.2 						"/>
					</g>
					<g>
						<polygon class="st15" points="190.5,13 217.5,-5.3 216.7,-4.2 189.6,14.2 						"/>
					</g>
					<g>
						<polygon class="st11" points="177,-10.3 190.5,13 189.6,14.2 176.5,-8.8 						"/>
					</g>
					<g>
						<polygon class="st16" points="177,-10.3 203.9,-28.7 217.5,-5.3 190.5,13 						"/>
					</g>
				</g>
				<g>
					<polygon class="st17" points="179.6,-9.7 203.5,-25.8 215,-6 191.1,10.2 					"/>
					<g>
						<polygon class="st16" points="183.9,0.7 184.4,1.5 209.8,-15.8 209.4,-16.6 						"/>
					</g>
					<g>
						<polygon class="st16" points="181.3,-4.8 181.7,-4.1 207.2,-21.3 206.7,-22.2 						"/>
					</g>
					<g>
						<polygon class="st16" points="187.5,5.7 188.1,6.5 213.4,-10.7 213,-11.5 						"/>
					</g>
				</g>
				<g>
					<g>
						<polygon class="st16" points="183.5,-12.8 195.6,8.2 196.6,7.8 184.6,-13.2 						"/>
					</g>
					<g>
						<polygon class="st16" points="188.5,-16.8 200.6,4 201.6,3.7 189.5,-17.2 						"/>
					</g>
					<g>
						<polygon class="st16" points="193.4,-20.5 205.5,0.5 206.5,0.2 194.4,-20.7 						"/>
					</g>
					<g>
						<polygon class="st16" points="198.3,-23.7 210.4,-2.8 211.5,-3.3 199.4,-24.2 						"/>
					</g>
				</g>
			</g>
		</g>
		<g>
			<polygon class="st3" points="128.4,63.9 128.4,76.7 113.6,84.2 113.7,71.3 			"/>
		</g>
		<polygon class="st2" points="167.3,34.9 167.3,55.3 148,55.3 142,68 135.9,55.3 127.7,55.3 127.7,34.9 		"/>
		<g>
			<path class="st16" d="M131.5,44.8c0-0.5,0.1-1.2,0.4-1.7c0.3-0.5,0.5-1,0.9-1.3c0.4-0.4,0.9-0.7,1.4-0.9c0.5-0.3,1.2-0.4,1.8-0.4
				s1.3,0.1,1.8,0.4c0.5,0.3,1,0.7,1.4,1.2s0.7,1,0.9,1.8c0.3,0.7,0.4,1.6,0.4,2.3c0,1.2-0.1,2.1-0.4,3s-0.5,1.6-0.9,2.1
				s-0.9,1-1.6,1.3c-0.5,0.3-1.3,0.4-2,0.4c-0.8,0-1.6-0.1-2.1-0.5c-0.7-0.4-1.2-0.8-1.7-1.4l1.3-1.4c0.3,0.4,0.7,0.8,1,1
				c0.4,0.3,0.9,0.4,1.4,0.4c0.8,0,1.4-0.3,1.8-0.9s0.7-1.6,0.7-2.6c-0.3,0.4-0.5,0.7-1,1c-0.4,0.3-1,0.4-1.6,0.4
				c-0.7,0-1.2-0.1-1.7-0.3c-0.5-0.3-1-0.5-1.3-0.9c-0.4-0.4-0.7-0.8-0.9-1.3C131.6,45.9,131.5,45.5,131.5,44.8z M136.1,42.5
				c-0.3,0-0.5,0.1-0.9,0.3c-0.3,0.1-0.5,0.3-0.7,0.5c-0.3,0.3-0.4,0.4-0.5,0.7s-0.3,0.5-0.3,0.9s0.1,0.5,0.3,0.9
				c0.1,0.3,0.3,0.5,0.5,0.7c0.3,0.3,0.4,0.4,0.7,0.5s0.5,0.1,0.9,0.1c0.3,0,0.7-0.1,0.9-0.1c0.3-0.1,0.5-0.3,0.7-0.5
				c0.3-0.3,0.4-0.4,0.5-0.7s0.3-0.5,0.3-0.9c0-0.3-0.1-0.7-0.3-0.9c-0.1-0.3-0.3-0.5-0.5-0.7c-0.3-0.3-0.4-0.4-0.7-0.5
				C136.7,42.7,136.4,42.5,136.1,42.5z"/>
			<path class="st16" d="M150.4,45.3c0,0.8-0.1,1.6-0.4,2.1c-0.3,0.7-0.5,1.2-0.9,1.7c-0.4,0.4-0.9,0.9-1.4,1
				c-0.5,0.3-1.2,0.4-1.8,0.4s-1.2-0.1-1.8-0.4c-0.5-0.3-1-0.7-1.4-1c-0.4-0.4-0.7-1-0.9-1.7s-0.4-1.3-0.4-2.1s0.1-1.6,0.4-2.1
				c0.3-0.7,0.5-1.2,0.9-1.7c0.4-0.4,0.9-0.9,1.4-1c0.5-0.3,1.2-0.4,1.8-0.4s1.2,0.1,1.8,0.4c0.5,0.3,1,0.7,1.4,1
				c0.4,0.4,0.7,1,0.9,1.7S150.4,44.7,150.4,45.3z M148,45.3c0-0.4-0.1-0.9-0.1-1.3c-0.1-0.4-0.3-0.7-0.4-1
				c-0.3-0.3-0.4-0.5-0.7-0.7s-0.5-0.3-0.9-0.3s-0.7,0.1-0.9,0.3c-0.3,0.1-0.5,0.4-0.7,0.7c-0.3,0.3-0.4,0.7-0.4,1
				c-0.1,0.4-0.1,0.8-0.1,1.3c0,0.4,0.1,0.9,0.1,1.3c0.1,0.4,0.3,0.7,0.4,1c0.3,0.3,0.4,0.5,0.7,0.7c0.3,0.1,0.5,0.3,0.9,0.3
				s0.5-0.1,0.9-0.3c0.4-0.1,0.5-0.4,0.7-0.7c0.3-0.3,0.4-0.7,0.4-1C148,46.2,148,45.9,148,45.3z"/>
			<path class="st16" d="M154.1,43.2c-0.4,0-0.8-0.1-1.2-0.3s-0.7-0.4-0.9-0.5c-0.3-0.3-0.5-0.5-0.7-0.9c-0.1-0.3-0.3-0.7-0.3-1
				s0.1-0.7,0.3-1c0.1-0.4,0.4-0.5,0.7-0.9c0.3-0.3,0.5-0.4,0.9-0.5s0.7-0.3,1.2-0.3c0.4,0,0.8,0.1,1.2,0.3c0.4,0.1,0.7,0.4,0.9,0.5
				c0.3,0.3,0.4,0.5,0.7,0.9c0.1,0.4,0.3,0.7,0.3,1s-0.1,0.7-0.3,1c-0.1,0.3-0.4,0.5-0.7,0.9c-0.3,0.3-0.5,0.4-0.9,0.5
				C154.8,43.2,154.5,43.2,154.1,43.2z M152.2,49.7l4.9-5.7l4.6-6l1,0.9l-4.8,5.6l-4.7,6.1L152.2,49.7z M154.1,42.2
				c0.1,0,0.4-0.1,0.5-0.1s0.3-0.3,0.4-0.4c0.1-0.1,0.3-0.3,0.3-0.5c0.1-0.3,0.1-0.4,0.1-0.5c0-0.4-0.1-0.8-0.4-1
				c-0.3-0.3-0.5-0.4-0.9-0.4c-0.1,0-0.4,0.1-0.5,0.1s-0.3,0.3-0.4,0.4c-0.1,0.1-0.3,0.3-0.3,0.4c-0.1,0.1-0.1,0.4-0.1,0.5
				s0,0.4,0.1,0.5c0.1,0.3,0.1,0.4,0.3,0.5c0.1,0.1,0.3,0.3,0.4,0.3C153.7,41.9,153.9,42.2,154.1,42.2z M160.8,50.7
				c-0.4,0-0.8-0.1-1.2-0.3c-0.4-0.1-0.7-0.4-0.9-0.5c-0.3-0.3-0.4-0.5-0.7-0.9c-0.1-0.3-0.3-0.7-0.3-1s0.1-0.7,0.3-1
				c0.1-0.3,0.4-0.5,0.7-0.9c0.3-0.3,0.5-0.4,0.9-0.5s0.7-0.3,1.2-0.3c0.4,0,0.8,0.1,1.2,0.3c0.4,0.1,0.7,0.4,0.9,0.5
				c0.3,0.3,0.4,0.5,0.7,0.9c0.1,0.3,0.3,0.7,0.3,1s-0.1,0.7-0.3,1c-0.1,0.3-0.4,0.5-0.7,0.9c-0.3,0.3-0.5,0.4-0.9,0.5
				C161.5,50.5,161.2,50.7,160.8,50.7z M160.8,49.5c0.4,0,0.7-0.1,0.9-0.4c0.3-0.3,0.4-0.7,0.4-1c0-0.4-0.1-0.8-0.4-1
				c-0.3-0.3-0.5-0.4-0.9-0.4c-0.1,0-0.4,0.1-0.5,0.1c-0.1,0.1-0.3,0.3-0.4,0.4c-0.1,0.1-0.3,0.3-0.3,0.5c-0.1,0.3-0.1,0.4-0.1,0.5
				c0,0.4,0.1,0.8,0.4,1C160.1,49.4,160.5,49.5,160.8,49.5z"/>
		</g>
	</g>
</g>
</svg>
