<?xml version="1.0" encoding="utf-8"?>
<!-- Generator: Adobe Illustrator 19.0.1, SVG Export Plug-In . SVG Version: 6.00 Build 0)  -->
<svg version="1.1" id="Capa_1" xmlns="http://www.w3.org/2000/svg" xmlns:xlink="http://www.w3.org/1999/xlink" x="0px" y="0px"
	 viewBox="-23 -14 80 80" style="enable-background:new -23 -14 80 80;" xml:space="preserve">
<style type="text/css">
	.st0{fill-rule:evenodd;clip-rule:evenodd;fill:#BCD85F;}
	.st1{fill-rule:evenodd;clip-rule:evenodd;fill:#4BA2AF;}
	.st2{fill-rule:evenodd;clip-rule:evenodd;fill:#265677;}
</style>
<g>
	<circle class="st0" cx="19.6" cy="18.3" r="23.9"/>
	<ellipse class="st1" cx="17.8" cy="55.7" rx="29" ry="2.5"/>
	<path class="st2" d="M21.5-6.4c5.9,0,11.1,2.4,15,6.2c3.8,3.8,6.2,9.1,6.2,15c0,2.6-0.5,5.1-1.3,7.4l-0.8,1.2
		c-1.9,2.8-3.8,5-5.8,6.6l0-3l-0.5-0.2c1.2-1.3,2.3-2.8,3-4.4c-0.4,0.2-0.8,0.5-1.3,0.7c-1.4,0.7-2.9,1.2-4.5,1.7
		c-0.1,0.3-0.2,0.6-0.3,0.9c-7.7-2.6-14.5-2.8-20.6-1.2c-1.3-0.4-2.5-0.9-3.6-1.4c-0.4-0.2-0.9-0.4-1.3-0.7c0.5,1.1,1.2,2.1,1.9,3
		c-1.2,0.4-2.3,0.9-3.4,1.5c-2.5-3.5-3.9-7.7-3.9-12.3c0-5.8,2.4-11.1,6.2-15C10.4-4,15.7-6.4,21.5-6.4L21.5-6.4z M-16.9,58.4L6,58
		L9,47.6l28.7-1.3L50.9,26l-7-0.3C35,38.4,26.5,39.9,13.5,36.4l0-1.1C24,37.1,28.5,36,30.7,33.9l0-4.1C6.5,21.1-7.7,39.2-16.9,58.4
		L-16.9,58.4z M38.9,15.9h-6.1c0,1.7-0.2,3.3-0.4,4.9c0.7-0.3,1.4-0.6,2.1-0.9C36.7,18.8,38.3,17.4,38.9,15.9L38.9,15.9z M29.1,15.9
		h-5.9v6.6c1.8-0.1,3.6-0.3,5.3-0.6C28.8,20,29.1,18,29.1,15.9L29.1,15.9z M19.9,15.9h-6c0.1,2.1,0.3,4.1,0.7,6
		c1.7,0.3,3.5,0.5,5.3,0.6V15.9L19.9,15.9z M10.3,15.9H4.2c0.5,1.5,2.1,2.9,4.5,4c0.6,0.3,1.3,0.6,2.1,0.9
		C10.5,19.2,10.3,17.6,10.3,15.9L10.3,15.9z M4.8,12.6h5.6c0.1-1.3,0.2-2.6,0.4-3.8C10,9,9.3,9.3,8.6,9.6
		C6.9,10.5,5.6,11.5,4.8,12.6L4.8,12.6z M14,12.6h6V7.1c-1.9,0.1-3.7,0.3-5.3,0.6C14.3,9.2,14.1,10.9,14,12.6L14,12.6z M23.2,12.6
		h5.9c-0.1-1.7-0.3-3.4-0.6-4.9c-1.6-0.3-3.4-0.5-5.3-0.6V12.6L23.2,12.6z M32.7,12.6h5.6c-0.8-1.1-2.1-2.1-3.9-3
		c-0.6-0.3-1.3-0.6-2.1-0.9C32.5,10,32.7,11.3,32.7,12.6L32.7,12.6z M23.2-2.3v5.7c1.4,0.1,2.8,0.2,4.2,0.4
		c-0.3-0.7-0.5-1.3-0.8-1.9C25.6-0.1,24.4-1.6,23.2-2.3L23.2-2.3z M19.9,3.4v-5.8c-1.3,0.7-2.5,2.2-3.4,4.2
		c-0.3,0.6-0.6,1.3-0.8,1.9C17,3.6,18.5,3.5,19.9,3.4L19.9,3.4z M11.6,4.7c0.4-1.6,1-3.1,1.6-4.4c0.2-0.5,0.5-0.9,0.7-1.3
		c-1.8,0.9-3.4,2-4.8,3.4c-1.4,1.4-2.5,3-3.4,4.7C6.2,6.8,6.6,6.6,7,6.4C8.4,5.7,9.9,5.1,11.6,4.7L11.6,4.7z M29.1-1.1
		c0.2,0.4,0.5,0.9,0.7,1.3c0.6,1.3,1.2,2.8,1.6,4.4c1.7,0.5,3.2,1,4.5,1.7c0.4,0.2,0.9,0.4,1.3,0.7c-0.9-1.8-2-3.3-3.4-4.7
		C32.5,1,30.9-0.2,29.1-1.1z"/>
</g>
</svg>
