<?xml version="1.0" encoding="utf-8"?>
<!-- Generator: Adobe Illustrator 19.0.1, SVG Export Plug-In . SVG Version: 6.00 Build 0)  -->
<svg version="1.1" id="Capa_1" xmlns="http://www.w3.org/2000/svg" xmlns:xlink="http://www.w3.org/1999/xlink" x="0px" y="0px"
	 viewBox="-23 -14 80 80" style="enable-background:new -23 -14 80 80;" xml:space="preserve">
<style type="text/css">
	.st0{fill-rule:evenodd;clip-rule:evenodd;fill:#BCD85F;}
	.st1{fill-rule:evenodd;clip-rule:evenodd;fill:#4BA2AF;}
	.st2{fill-rule:evenodd;clip-rule:evenodd;fill:#265677;}
</style>
<g>
	<circle class="st0" cx="19.9" cy="21.4" r="23.1"/>
	<ellipse class="st1" cx="16.8" cy="55.4" rx="28" ry="2.4"/>
	<path class="st2" d="M16.4,40.9l5.2-5.9l5.2-5.9h-5.1l6-10.8h-9.6l7-10.5h-12l-1.6,14.2l7.5,1.3L17.8,29h-4.7l1.7,5.9L16.4,40.9
		L16.4,40.9z M19.9,48.4l5.2-9l5.2-9l2.5,4.1c5.9-5.6,8.9-12.8,6.8-20.2l1.4-0.8c6.1,10,6.2,21.2-2.6,30.1l2.4,3.8l-10.4,0.5
		L19.9,48.4L19.9,48.4z M16.9-5.8l-5.2,9l-5.2,9L4,8.1c-5.5,5.2-8.4,11.8-7.2,18.6l-1.8,1C-10.2,18-9.9,7.4-1.5-1l-2.4-3.8L6.5-5.4
		L16.9-5.8z"/>
</g>
</svg>
