<?xml version="1.0" encoding="utf-8"?>
<!-- Generator: Adobe Illustrator 19.0.1, SVG Export Plug-In . SVG Version: 6.00 Build 0)  -->
<svg version="1.1" id="Capa_1" xmlns="http://www.w3.org/2000/svg" xmlns:xlink="http://www.w3.org/1999/xlink" x="0px" y="0px"
	 viewBox="-23 -14 80 80" style="enable-background:new -23 -14 80 80;" xml:space="preserve">
<style type="text/css">
	.st0{fill-rule:evenodd;clip-rule:evenodd;fill:#BCD85F;}
	.st1{fill-rule:evenodd;clip-rule:evenodd;fill:#4BA2AF;}
	.st2{fill-rule:evenodd;clip-rule:evenodd;fill:#265677;}
</style>
<g>
	<circle class="st0" cx="18.2" cy="27.1" r="23.1"/>
	<ellipse class="st1" cx="16.4" cy="59" rx="28.1" ry="2.4"/>
	<path class="st2" d="M10.8,44.3c3.1,0.5,6.1,0.6,9.1,0.5c2.9-0.1,5.8-0.4,8.7-0.8l1.4-2.2l-1.1-1.3c-3,0.4-6,0.8-9,0.9
		c-3.1,0.1-6.3,0-9.5-0.5l0.4-2.1c3.1,0.5,6.1,0.6,9.1,0.5c2.8-0.1,5.6-0.4,8.4-0.8l0.1-0.1l1.4-2.2l-0.9-1.3H5.9l-0.7,0.4l1.5,2.4
		l0.7,1.1l-1,0.8l-1.6,1.2l1.9,3.1l0.5,0.9l-0.6,0.8l-1.7,2.1l1.5,2.3c3.5,1.7,7.2,2.4,10.8,2.4c3.6,0,7.4-0.8,11.2-2.4l1-2.4
		l-1-1.3c-2.9,0.4-5.7,0.7-8.6,0.8c-3.1,0.1-6.3,0-9.5-0.5L10.8,44.3L10.8,44.3z M10.8,19.6c1.3-2.2,1.8-4,1.8-5.5
		c0-0.2,0-0.3,0-0.5c-0.1-0.3-0.1-0.6-0.2-0.8c-0.1-0.4-0.3-0.8-0.5-1.2c-0.5-0.8-1.2-1.5-2-2C7.7,8,4.5,7.2,1.3,7
		c0.8,2.6,1.8,5.4,3.3,7.7C6.1,17.1,8.2,19.1,10.8,19.6L10.8,19.6z M17.3,23.6c-0.7-1.1-1.4-2.2-2-3.2c-0.4,0.9-1,1.8-1.6,2.7L13,24
		l-1.2,0c-5-0.2-8.5-3.1-11-7c-2.3-3.6-3.7-8-4.5-11.7l-0.6-2.5l2.6-0.1C3.4,2.4,8.7,3.5,12.3,6l0.1,0.1c0.4-1.7,1-3.2,1.9-4.7
		c1.3-2.1,3.1-3.8,5.2-5.3c5.8-4,14.5-5.8,22.7-5.5l3.5,0.1l-0.8,3.4c-1.4,6.1-3.7,13.4-7.4,19.3c-3.5,5.5-8.3,9.8-14.7,11
		c-0.1,1.3-0.1,2.6-0.1,3.8h9.7c-0.2,0.8-0.5,1.6-0.6,2.5l-0.5,2.6l1.3,1.9l0.5,0.8l-0.5,0.8l-1.3,2.1l1.5,1.7l0.7,0.8l-0.6,0.9
		L31.2,45l1,1.4l0.5,0.7l-0.3,0.7l-1.6,3.6L30.6,52l-0.5,0.2c-2.1,0.9-4.1,1.6-6.2,2c-1.1,2.6-3.7,4.5-6.7,4.5
		c-3.1,0-5.7-1.9-6.7-4.5c-1.9-0.5-3.7-1.2-5.6-2L4.5,52l-0.2-0.3L2,48.2l-0.6-0.9l0.7-0.8l1.7-2.1l-2.1-3.3L1,40.1l1-0.8L3.6,38
		L2,35.5l-0.8-1.2l1.2-0.7l1.2-0.7l-0.4-2c-0.2-0.8-0.4-1.7-0.6-2.5h15.1c0-1.3,0.1-2.5,0.2-3.7L17.3,23.6L17.3,23.6z M17.8,8.9
		c-0.1,2.1,0.5,4.5,1.8,7.3C22.1,7.9,27.2,1,36.1-3.4C31-2.9,26.2-1.5,22.7,0.9c-1.5,1-2.7,2.2-3.6,3.6C18.4,5.8,17.9,7.2,17.8,8.9
		L17.8,8.9z M23.6,18.3c3.7-1.3,6.7-4.3,9-7.9c2.7-4.2,4.5-9.3,5.8-14c-0.8,0-1.5,0.1-2.3,0.2l0.3,0.7C29.7,1.1,25.4,9.6,23.6,18.3z
		"/>
	<path class="st2" d="M16.6,31.7c0.4-9.9-4-19.2-13.7-23.4L2.7,8.8c7,3.8,9.4,15.3,8.4,23L16.6,31.7z"/>
</g>
</svg>
