<?xml version="1.0" encoding="utf-8"?>
<!-- Generator: Adobe Illustrator 19.0.1, SVG Export Plug-In . SVG Version: 6.00 Build 0)  -->
<svg version="1.1" id="Capa_1" xmlns="http://www.w3.org/2000/svg" xmlns:xlink="http://www.w3.org/1999/xlink" x="0px" y="0px"
	 viewBox="-23 -14 80 80" style="enable-background:new -23 -14 80 80;" xml:space="preserve">
<style type="text/css">
	.st0{fill-rule:evenodd;clip-rule:evenodd;fill:#BCD85F;}
	.st1{fill-rule:evenodd;clip-rule:evenodd;fill:#4BA2AF;}
	.st2{fill-rule:evenodd;clip-rule:evenodd;fill:#265677;}
</style>
<g>
	<circle class="st0" cx="29.2" cy="21.1" r="20.8"/>
	<ellipse class="st1" cx="14.3" cy="49.5" rx="25.2" ry="2.2"/>
	<path class="st2" d="M44.3,33.3c-0.9-0.5-1.9-1.2-3.2-1.8c0-2.6-0.2-5.8-0.1-6.7c0.4,0.1,0.7,0.1,1.1,0.1c1.5,0,2.9-0.6,3.9-1.6
		c1-1,1.6-2.4,1.6-3.9c0-0.6-0.1-1.1-0.2-1.6c-0.1-0.3-0.2-0.7-0.4-1c0.1-0.3,0.2-0.6,0.3-0.9c0.1-0.5,0.2-1,0.2-1.5
		c0-1.9-0.8-3.5-2-4.7c-1.2-1.2-2.9-2-4.7-2c-0.1,0-0.2,0-0.2,0c-0.4-1.5-1.2-2.8-2.2-3.9c-1.6-1.6-3.7-2.5-6.1-2.5
		c-1.6,0-3.1,0.4-4.4,1.2c-1.1,0.6-2,1.5-2.7,2.6c0,0-0.1,0-0.1,0c-2,0-3.9,0.8-5.2,2.1c-1.3,1.3-2.1,3.2-2.1,5.2
		c0,1.4,0.4,2.7,1.1,3.8c0.6,0.9,1.3,1.7,2.2,2.3c0.2,1.5,0.9,2.8,1.9,3.8c1.2,1.2,2.8,1.9,4.6,1.9c0.5,0,0.9,0,1.3-0.1
		c-0.1,0.7-0.2,1.5-0.3,2.3c-3.5-0.9-7.2-1.4-11.1-1.3c-1.5,0-2.9,0.1-4.2,0.2c-12.8,1-18.2,4.9-27.3,4.1l-1.7,6
		c15.8,9.8,41-1.6,59.9-0.5L44.3,33.3L44.3,33.3z M37.7,29.7c-1.5-0.7-3.2-1.4-5-2c-0.1-1.8-0.2-3.6-0.1-4.6l0,0
		c0.2,0.3,0.5,0.7,0.8,1c0.9,0.9,2.2,1.5,3.6,1.5c0.4,0,0.7,0,1-0.1C37.9,26.1,37.8,28,37.7,29.7L37.7,29.7z M31.5,31.5
		c-4.3,0.5-8.5,1.3-12.5,1.9c-9.1,1.5-21.7,3.7-30.4-0.1c0,0,0,0,0,0c8-0.1,13.9-3.3,24.8-4.2c1.3-0.1,2.6-0.2,4-0.2
		c4.7-0.1,9.4,0.8,13.9,2.3C31.2,31.3,31.4,31.4,31.5,31.5L31.5,31.5z M24.2,14c1,3.5,2.5,4.9,4.8,6.2c0,0.3,0,0.7-0.1,1.1l0,0
		c-0.5,0.2-1,0.3-1.6,0.3c-1.1,0-2.1-0.4-2.8-1.1c-0.7-0.7-1.2-1.7-1.2-2.8l0-0.8l-0.7-0.4c-0.8-0.4-1.4-1-1.9-1.7
		c-0.4-0.7-0.7-1.6-0.7-2.5c0-1.3,0.5-2.5,1.4-3.4c0.9-0.9,2-1.4,3.4-1.4c0.1,0,0.2,0,0.3,0c0.1,0,0.2,0,0.3,0l0.9,0.1L26.8,7
		c0.5-1,1.3-1.8,2.2-2.3c0.9-0.5,1.9-0.8,3.1-0.8c1.7,0,3.2,0.7,4.3,1.8c1.1,1.1,1.8,2.6,1.8,4.3c0,0.5-0.1,0.9-0.1,1.3
		c-0.1,0.4-0.2,0.9-0.4,1.3l-0.3,0.7l0.4,0.6c0.2,0.4,0.4,0.8,0.6,1.2c0.1,0.4,0.2,0.9,0.2,1.3c0,1.2-0.5,2.3-1.3,3.1
		c-0.8,0.8-1.9,1.3-3.1,1.3c-0.4,0-0.8-0.1-1.1-0.1c-0.1,0-0.3-0.1-0.4-0.1c-0.1-1-0.3-2.1-0.7-3.2c2-2.3,3-4.4,2.8-8.6
		c-0.9,2.4-1.4,3.6-3.6,6.5c-0.7-1.7-1.7-3.5-3-5.4c0.6,3.2,1,5.5,1,8.6C26.3,16.5,25.5,15.7,24.2,14L24.2,14z M38.1,38.3
		c2.9,1.2,5,2.6,7.6,4.3C31,41.4,13.7,48.7,5.9,42.7C16.4,42.1,27.9,38.8,38.1,38.3z"/>
</g>
</svg>
