<?xml version="1.0" encoding="utf-8"?>
<!-- Generator: Adobe Illustrator 19.0.1, SVG Export Plug-In . SVG Version: 6.00 Build 0)  -->
<svg version="1.1" id="Capa_1" xmlns="http://www.w3.org/2000/svg" xmlns:xlink="http://www.w3.org/1999/xlink" x="0px" y="0px"
	 viewBox="-23 -14 80 80" style="enable-background:new -23 -14 80 80;" xml:space="preserve">
<style type="text/css">
	.st0{fill-rule:evenodd;clip-rule:evenodd;fill:#BCD85F;}
	.st1{fill-rule:evenodd;clip-rule:evenodd;fill:#4BA2AF;}
	.st2{fill-rule:evenodd;clip-rule:evenodd;fill:#265677;}
</style>
<g>
	<circle class="st0" cx="11.8" cy="21.7" r="23.1"/>
	<ellipse class="st1" cx="13.4" cy="55" rx="28.1" ry="2.4"/>
	<path class="st2" d="M24.2-5.4l7,21.1l4.5-13.6l4.6,13.8l-3.4-1.6l-0.7,0.8l5.6,5.2l1.5,4.4l-3.6-1.6L39,23.9l5.7,5.3l1.6,4.8H38
		v4.2c7,2.7,11.9,7,12,12.9H20.9c-2-4.7-4.9-9-9.9-12.2c1.2-1.5,2.6-2.9,4.3-4c2.1-0.1,4.3,0,6.4,0.1v-3.1h-9.7l1.9-5.6l6.7-6.2
		l-0.8-1L15.5,21l1.7-5.1l6.5-6l-0.8-1l-4,1.8L24.2-5.4L24.2-5.4z M26.6,34v1.5c2.5,0.3,4.9,0.8,7.2,1.4V34H26.6L26.6,34z
		 M11.7,51.1c0.4-3.1-0.2-6.4-2.3-9.9c-1.6,2.8-2.6,6.1-2.9,9.9H11.7L11.7,51.1z M-6.7,51.1h-8.5c0.1-4.8,3.4-8.6,8.4-11.3v-6.5H-16
		l1.9-5.8l6.8-6.4l-0.8-1l-4.2,1.9l1.7-5.3l6.6-6.2l-0.8-1l-4.1,1.9L-3.4-5l6.3,19.2l0.6,1.7l-3.6-1.7l-0.8,1l6,5.6L7,26.8l-4.6-2.1
		l-0.8,1l7.3,6.8l0-0.1l0.3,1h-9.5v3.9c2.9-0.9,6.1-1.5,9.4-1.9C1,38.6-3.6,44.3-6.7,51.1z"/>
</g>
</svg>
