<?xml version="1.0" encoding="utf-8"?>
<!-- Generator: Adobe Illustrator 19.0.1, SVG Export Plug-In . SVG Version: 6.00 Build 0)  -->
<svg version="1.1" id="Capa_1" xmlns="http://www.w3.org/2000/svg" xmlns:xlink="http://www.w3.org/1999/xlink" x="0px" y="0px"
	 viewBox="-23 -14 80 80" style="enable-background:new -23 -14 80 80;" xml:space="preserve">
<style type="text/css">
	.st0{fill-rule:evenodd;clip-rule:evenodd;fill:#BCD85F;}
	.st1{fill-rule:evenodd;clip-rule:evenodd;fill:#4BA2AF;}
	.st2{fill-rule:evenodd;clip-rule:evenodd;fill:#265677;}
</style>
<g>
	<circle class="st0" cx="26.4" cy="26.2" r="23.6"/>
	<ellipse class="st1" cx="12.7" cy="55.1" rx="28.7" ry="2.5"/>
	<path class="st2" d="M-2.9,32.3l4.3-7.5c1.4,0.8,2.7,1.5,4.1,2.3c-2.3-4-4.6-7.9-6.9-11.9c-4.5,0-9,0-13.5,0c1.3,0.8,2.7,1.7,4,2.5
		c-1.4,2.4-1.3,2.3-2.7,4.7c-1.8,3.8-0.1,8.2,3.6,9.9H-2.9L-2.9,32.3z M-5.5,8.7C-3.3,5-1.1,1.3,1.1-2.5c2-2.9,8.1-3.4,10.4,0.1
		c1,1.6,1.9,3.3,2.9,4.9c-2.5,4.4-5,8.8-7.6,13.2C2.7,13.4-1.4,11.1-5.5,8.7L-5.5,8.7z M10.5-5.5c1.2,0.4,2.2,1.1,2.9,2.3
		c2.5,4.5,5,8.9,7.5,13.4c-1.3,0.8-2.7,1.6-4,2.4c4.6,0,9.2,0,13.8,0c2.2-3.9,4.5-7.8,6.7-11.7C36,1.5,34.6,2.3,33.2,3
		c-1.4-2.4-2.8-4.8-4.1-7.1c-0.6-1-1.5-1.3-2.5-1.3C21.2-5.5,15.8-5.5,10.5-5.5L10.5-5.5z M13.4,48.4c0-4.7-0.1-9.4-0.1-14.1
		c-5.1,0-17.5,0-22.6,0c-1.2,0-2-0.4-2.6-1.1c2.7,4.6,5.4,9.3,8.1,13.9c0.4,0.8,1.2,1.2,2.4,1.2C3,48.3,9,48.3,13.4,48.4L13.4,48.4z
		 M40,17.1c-3.9,15.3-12.2,25.2-20.1,32.4c-1.2-1.2-2.5-2.3-3.7-3.5l7.5-6.6c-3.3-16.7,6.4-26.5,19.4-28.1
		c6.3,16.3,1.8,28.3-12.4,30.8C35.5,35.5,39.7,26.6,40,17.1z"/>
</g>
</svg>
