<?xml version="1.0" standalone="no"?>
<!DOCTYPE svg PUBLIC "-//W3C//DTD SVG 20010904//EN"
 "http://www.w3.org/TR/2001/REC-SVG-20010904/DTD/svg10.dtd">
<svg version="1.0" xmlns="http://www.w3.org/2000/svg"
 width="130.000000pt" height="130.000000pt" viewBox="0 0 130.000000 130.000000"
 preserveAspectRatio="xMidYMid meet">
<metadata>
Created by potrace 1.11, written by Peter Selinger 2001-2013
</metadata>
<g transform="translate(0.000000,130.000000) scale(0.100000,-0.100000)"
fill="#000000" stroke="none">
<path d="M525 1216 c-447 -104 -606 -648 -285 -974 116 -118 255 -172 428
-168 246 7 449 157 533 396 33 93 33 267 0 360 -62 177 -197 312 -371 370 -83
28 -222 35 -305 16z m225 -222 c268 -79 347 -410 146 -605 -105 -102 -278
-126 -410 -58 -146 75 -227 259 -182 414 20 67 36 96 85 149 94 101 230 139
361 100z"/>
</g>
</svg>
